<svg width="16" height="16" viewBox="0 0 16 16" fill="none" xmlns="http://www.w3.org/2000/svg">
<path d="M7.5 11.7625V4.87476C8.77186 5.54195 10.129 5.857 11.5 5.78829C12.871 5.857 14.2281 5.54195 15.5 4.87476V11.7625C15.5 12.0878 15.2216 12.5182 14.4595 12.8971C13.728 13.2608 12.6824 13.5 11.5 13.5C10.3176 13.5 9.272 13.2608 8.54053 12.8971C7.77841 12.5182 7.5 12.0878 7.5 11.7625Z" fill="url(#paint0_linear_21_171)" stroke="#4EA6CC"/>
<path d="M15.5 4C15.5 4.11345 15.4503 4.25918 15.2842 4.4338C15.1155 4.61099 14.8479 4.79332 14.4789 4.95731C13.7422 5.28473 12.6894 5.5 11.5 5.5C10.3106 5.5 9.25779 5.28473 8.52109 4.95731C8.15211 4.79332 7.88446 4.61099 7.71583 4.4338C7.54965 4.25918 7.5 4.11345 7.5 4C7.5 3.88655 7.54965 3.74082 7.71583 3.5662C7.88446 3.389 8.15211 3.20668 8.52109 3.04269C9.25779 2.71527 10.3106 2.5 11.5 2.5C12.6894 2.5 13.7422 2.71527 14.4789 3.04269C14.8479 3.20668 15.1155 3.389 15.2842 3.5662C15.4503 3.74082 15.5 3.88655 15.5 4Z" fill="#8AD7FC" stroke="#57AACE"/>
<path d="M12.055 5.5L10.569 5.335C10.4802 5.02416 10.3561 4.72453 10.199 4.442L11.133 3.27401C11.2099 3.1779 11.2486 3.05682 11.2418 2.93393C11.235 2.81105 11.183 2.695 11.096 2.60801L10.389 1.90001C10.302 1.81296 10.1859 1.76105 10.0631 1.75422C9.94018 1.74739 9.8191 1.78613 9.723 1.86301L8.555 2.80001C8.27247 2.6429 7.97285 2.51875 7.662 2.43001L7.5 0.945009C7.4864 0.822149 7.42778 0.70868 7.33545 0.626501C7.24311 0.544322 7.12361 0.499259 7 0.500009H6C5.87639 0.499259 5.75689 0.544322 5.66455 0.626501C5.57222 0.70868 5.5136 0.822149 5.5 0.945009L5.338 2.43101C5.02716 2.51975 4.72753 2.6439 4.445 2.80101L3.27701 1.86701C3.1809 1.79013 3.05982 1.75139 2.93693 1.75822C2.81405 1.76505 2.698 1.81696 2.61101 1.90401L1.90001 2.61101C1.81296 2.698 1.76105 2.81405 1.75422 2.93693C1.74739 3.05982 1.78613 3.1809 1.86301 3.27701L2.80001 4.445C2.6429 4.72753 2.51875 5.02716 2.43001 5.338L0.945009 5.5C0.822149 5.5136 0.70868 5.57222 0.626501 5.66455C0.544322 5.75689 0.499259 5.87639 0.500009 6V7C0.499259 7.12361 0.544322 7.24311 0.626501 7.33545C0.70868 7.42778 0.822149 7.4864 0.945009 7.5L2.43101 7.665C2.51975 7.97585 2.6439 8.27547 2.80101 8.558L1.86701 9.723C1.79013 9.8191 1.75139 9.94018 1.75822 10.0631C1.76505 10.1859 1.81696 10.302 1.90401 10.389L2.61101 11.096C2.698 11.183 2.81405 11.235 2.93693 11.2418C3.05982 11.2486 3.1809 11.2099 3.27701 11.133L4.445 10.2C4.72753 10.3571 5.02716 10.4812 5.338 10.57L5.5 12.055C5.5136 12.1779 5.57222 12.2913 5.66455 12.3735C5.75689 12.4557 5.87639 12.5007 6 12.5H7C7.12361 12.5007 7.24311 12.4557 7.33545 12.3735C7.42778 12.2913 7.4864 12.1779 7.5 12.055L7.665 10.569C7.97585 10.4802 8.27547 10.3561 8.558 10.199L9.726 11.133C9.8221 11.2099 9.94318 11.2486 10.0661 11.2418C10.1889 11.235 10.305 11.183 10.392 11.096L11.099 10.389C11.186 10.302 11.238 10.1859 11.2448 10.0631C11.2516 9.94018 11.2129 9.8191 11.136 9.723L10.2 8.555C10.3571 8.27247 10.4812 7.97285 10.57 7.662L12.055 7.5C12.1779 7.4864 12.2913 7.42778 12.3735 7.33545C12.4557 7.24311 12.5007 7.12361 12.5 7V6C12.5007 5.87639 12.4557 5.75689 12.3735 5.66455C12.2913 5.57222 12.1779 5.5136 12.055 5.5ZM6.5 8.5C6.10444 8.5 5.71776 8.3827 5.38886 8.16294C5.05996 7.94317 4.80362 7.63082 4.65224 7.26537C4.50087 6.89991 4.46126 6.49778 4.53843 6.10982C4.6156 5.72186 4.80608 5.36549 5.08579 5.08579C5.36549 4.80608 5.72186 4.6156 6.10982 4.53843C6.49778 4.46126 6.89991 4.50087 7.26537 4.65224C7.63082 4.80362 7.94317 5.05996 8.16294 5.38886C8.3827 5.71776 8.5 6.10444 8.5 6.5C8.5 7.03043 8.28928 7.53914 7.91421 7.91421C7.53914 8.28928 7.03043 8.5 6.5 8.5Z" fill="url(#paint1_linear_21_171)" stroke="black" stroke-opacity="0.4"/>
<defs>
<linearGradient id="paint0_linear_21_171" x1="7" y1="7.5" x2="16" y2="7.5" gradientUnits="userSpaceOnUse">
<stop stop-color="#68C2EB"/>
<stop offset="1" stop-color="#53B7E6"/>
</linearGradient>
<linearGradient id="paint1_linear_21_171" x1="6.5" y1="0.5" x2="6.5" y2="12.5" gradientUnits="userSpaceOnUse">
<stop stop-color="#FBFFFF"/>
<stop offset="1" stop-color="#BBBECA"/>
</linearGradient>
</defs>
</svg>
