<svg width="16" height="16" viewBox="0 0 16 16" fill="none" xmlns="http://www.w3.org/2000/svg">
<path d="M5.562 9C4.93708 9.34611 4.41625 9.85327 4.05363 10.4688C3.69102 11.0843 3.49985 11.7856 3.5 12.5V13.5H12.5V12.5C12.5001 11.7856 12.309 11.0843 11.9464 10.4688C11.5838 9.85327 11.0629 9.34611 10.438 9" stroke="#3B92C1" stroke-linecap="round" stroke-linejoin="round"/>
<path d="M12 12H4V13H12V12Z" fill="#3B92C1"/>
<path d="M5.57042 0L3.5 2.11972L1.42958 0L0 1.42958L2.11972 3.5L0 5.57042L1.42958 7L3.5 4.88028L5.57042 7L7 5.57042L4.88028 3.5L7 1.42958L5.57042 0Z" fill="#ED604B"/>
<path d="M5.88135 8.08758C6.42056 8.64924 7.16605 9 8.0001 9C9.67966 9 11.0001 7.57762 11.0001 5.875V5.125C11.0001 3.42238 9.67966 2 8.0001 2C7.48585 2 7.00526 2.13335 6.58594 2.36725L7.33857 3.11988C7.5468 3.04208 7.76974 3 8.0001 3C9.08196 3 10.0001 3.92812 10.0001 5.125V5.875C10.0001 7.07188 9.08196 8 8.0001 8C7.45632 8 6.9539 7.76552 6.58865 7.38028L5.88135 8.08758Z" fill="#3B92C1"/>
</svg>
