<svg width="16" height="16" viewBox="0 0 16 16" fill="none" xmlns="http://www.w3.org/2000/svg">
<path d="M7.5 11.7625V4.87476C8.77186 5.54195 10.129 5.857 11.5 5.78829C12.871 5.857 14.2281 5.54195 15.5 4.87476V11.7625C15.5 12.0878 15.2216 12.5182 14.4595 12.8971C13.728 13.2608 12.6824 13.5 11.5 13.5C10.3176 13.5 9.272 13.2608 8.54053 12.8971C7.77841 12.5182 7.5 12.0878 7.5 11.7625Z" fill="url(#paint0_linear_16_655)" stroke="#4EA6CC"/>
<path d="M15.5 4C15.5 4.11345 15.4503 4.25918 15.2842 4.4338C15.1155 4.61099 14.8479 4.79332 14.4789 4.95731C13.7422 5.28473 12.6894 5.5 11.5 5.5C10.3106 5.5 9.25779 5.28473 8.52109 4.95731C8.15211 4.79332 7.88446 4.61099 7.71583 4.4338C7.54965 4.25918 7.5 4.11345 7.5 4C7.5 3.88655 7.54965 3.74082 7.71583 3.5662C7.88446 3.389 8.15211 3.20668 8.52109 3.04269C9.25779 2.71527 10.3106 2.5 11.5 2.5C12.6894 2.5 13.7422 2.71527 14.4789 3.04269C14.8479 3.20668 15.1155 3.389 15.2842 3.5662C15.4503 3.74082 15.5 3.88655 15.5 4Z" fill="#8AD7FC" stroke="#57AACE"/>
<rect x="2.5" y="4.5" width="3" height="3" rx="1.5" fill="#FFECA0" stroke="#B98123"/>
<rect x="0.5" y="7.5" width="3" height="3" rx="1.5" fill="#FFECA0" stroke="#B98123"/>
<rect x="4.5" y="7.5" width="3" height="3" rx="1.5" fill="#FFECA0" stroke="#B98123"/>
<defs>
<linearGradient id="paint0_linear_16_655" x1="7" y1="7.5" x2="16" y2="7.5" gradientUnits="userSpaceOnUse">
<stop stop-color="#68C2EB"/>
<stop offset="1" stop-color="#53B7E6"/>
</linearGradient>
</defs>
</svg>
