<svg width="16" height="16" viewBox="0 0 16 16" fill="none" xmlns="http://www.w3.org/2000/svg">
<g clip-path="url(#clip0_16_324)">
<path d="M6 0.5H14.5V11.5H6C5.72386 11.5 5.5 11.2762 5.5 11V1C5.5 0.723858 5.72386 0.5 6 0.5Z" fill="url(#paint0_linear_16_324)" stroke="url(#paint1_linear_16_324)"/>
<path d="M7 0H6C5.44772 0 5 0.447715 5 1V11C5 11.5523 5.44772 12 6 12H7V0Z" fill="#434343"/>
<rect x="6" y="1" width="8" height="1" fill="white"/>
<rect x="7" y="2" width="7" height="1" fill="#71A9E1"/>
<rect width="1" height="1" transform="matrix(-1 0 0 1 15 1)" fill="#92B5C7"/>
<rect width="1" height="8" transform="matrix(-1 0 0 1 7 2.76367)" fill="#797979"/>
<path d="M4 2.5H12.5V13.5H4C3.72386 13.5 3.5 13.2762 3.5 13V3C3.5 2.72386 3.72386 2.5 4 2.5Z" fill="url(#paint2_linear_16_324)" stroke="url(#paint3_linear_16_324)"/>
<path d="M5 2H4C3.44772 2 3 2.44772 3 3V13C3 13.5523 3.44772 14 4 14H5V2Z" fill="#434343"/>
<rect x="4" y="3" width="8" height="1" fill="white"/>
<rect x="5" y="4" width="7" height="1" fill="#71A9E1"/>
<rect width="1" height="1" transform="matrix(-1 0 0 1 13 3)" fill="#92B5C7"/>
<rect width="1" height="8" transform="matrix(-1 0 0 1 5 4.76367)" fill="#797979"/>
<path d="M2 4.5H10.5V15.5H2C1.72386 15.5 1.5 15.2762 1.5 15V5C1.5 4.72386 1.72386 4.5 2 4.5Z" fill="url(#paint4_linear_16_324)" stroke="url(#paint5_linear_16_324)"/>
<path d="M3 4H2C1.44772 4 1 4.44772 1 5V15C1 15.5523 1.44772 16 2 16H3V4Z" fill="#434343"/>
<rect x="2" y="5" width="8" height="1" fill="white"/>
<rect x="3" y="6" width="7" height="1" fill="#71A9E1"/>
<rect width="1" height="1" transform="matrix(-1 0 0 1 11 5)" fill="#92B5C7"/>
<rect width="1" height="8" transform="matrix(-1 0 0 1 3 7)" fill="#797979"/>
</g>
<defs>
<linearGradient id="paint0_linear_16_324" x1="10" y1="0" x2="10" y2="8.26367" gradientUnits="userSpaceOnUse">
<stop stop-color="#92CAFF"/>
<stop offset="1" stop-color="#6EA7DF"/>
</linearGradient>
<linearGradient id="paint1_linear_16_324" x1="10" y1="0" x2="10" y2="12" gradientUnits="userSpaceOnUse">
<stop stop-color="#73A5E8"/>
<stop offset="1" stop-color="#2562B5"/>
</linearGradient>
<linearGradient id="paint2_linear_16_324" x1="8" y1="2" x2="8" y2="10.2637" gradientUnits="userSpaceOnUse">
<stop stop-color="#92CAFF"/>
<stop offset="1" stop-color="#6EA7DF"/>
</linearGradient>
<linearGradient id="paint3_linear_16_324" x1="8" y1="2" x2="8" y2="14" gradientUnits="userSpaceOnUse">
<stop stop-color="#73A5E8"/>
<stop offset="1" stop-color="#2562B5"/>
</linearGradient>
<linearGradient id="paint4_linear_16_324" x1="6" y1="4" x2="6" y2="12.2637" gradientUnits="userSpaceOnUse">
<stop stop-color="#92CAFF"/>
<stop offset="1" stop-color="#6EA7DF"/>
</linearGradient>
<linearGradient id="paint5_linear_16_324" x1="6" y1="4" x2="6" y2="16" gradientUnits="userSpaceOnUse">
<stop stop-color="#73A5E8"/>
<stop offset="1" stop-color="#2562B5"/>
</linearGradient>
<clipPath id="clip0_16_324">
<rect width="16" height="16" fill="white"/>
</clipPath>
</defs>
</svg>
