<svg width="16" height="16" viewBox="0 0 16 16" fill="none" xmlns="http://www.w3.org/2000/svg">
<path d="M6.38411 12.3201C6.50831 12.1711 6.53508 11.9636 6.45279 11.7879C6.3705 11.6122 6.19401 11.5 6 11.5H1C0.805991 11.5 0.629495 11.6122 0.547205 11.7879C0.464915 11.9636 0.491688 12.1711 0.615889 12.3201L3.11589 15.3201C3.21089 15.4341 3.35161 15.5 3.5 15.5C3.64839 15.5 3.78911 15.4341 3.88411 15.3201L6.38411 12.3201Z" fill="#6F7ABC" stroke="#5871A8" stroke-linejoin="round"/>
<rect opacity="0.7" x="3" y="8" width="1" height="3" fill="#808080"/>
<path opacity="0.7" d="M3 8H12C12 7.44772 11.5523 7 11 7H4C3.44772 7 3 7.44772 3 8Z" fill="#808080"/>
<rect opacity="0.7" x="11" y="8" width="1" height="3" fill="#808080"/>
<path d="M14.5 12.5C14.5 12.6301 14.4492 12.7579 14.3536 12.8536L14.3509 12.8562M14.5 12.5L14 13C14.1339 13 14.2592 12.9466 14.3509 12.8562M14.5 12.5C14.5 12.4356 14.4876 12.3706 14.4619 12.3087C14.4358 12.2456 14.3977 12.1899 14.3509 12.1438L11.8536 9.64645C11.6583 9.45118 11.3417 9.45118 11.1464 9.64645L8.64907 12.1438C8.62503 12.1675 8.60327 12.1937 8.58426 12.2222C8.52895 12.3049 8.50001 12.4018 8.49999 12.5C8.50001 12.5982 8.52895 12.6951 8.58426 12.7778C8.60327 12.8063 8.62503 12.8325 8.64907 12.8562L11.1464 15.3536C11.3417 15.5488 11.6583 15.5488 11.8536 15.3536L14.3509 12.8562M14.5 12.5C14.5 12.5644 14.4876 12.6294 14.4619 12.6913C14.4358 12.7544 14.3977 12.8101 14.3509 12.8562" fill="#F58F40" stroke="#E15323" stroke-linejoin="round"/>
<rect x="4.5" y="0.5" width="6" height="3" rx="1.5" fill="#61ADE9" stroke="#4B8FCB"/>
<path d="M5.5 8C5.5 7.17157 6.17157 6.5 7 6.5H8C8.82843 6.5 9.5 7.17157 9.5 8V8.5H5.5V8Z" fill="#FAC371" stroke="#C89340"/>
<rect opacity="0.7" x="7" y="4" width="1" height="2" fill="#808080"/>
</svg>
