<svg width="16" height="16" viewBox="0 0 16 16" fill="none" xmlns="http://www.w3.org/2000/svg">
<path d="M1 3.5L3.5 1H6.5L8.5 3H14C14.5523 3 15 3.44772 15 4V12C15 12.5523 14.5523 13 14 13H2C1.44772 13 1 12.5523 1 12V3.5Z" fill="#BB8744"/>
<rect x="2" y="6" width="12" height="6" fill="#F7DA7D"/>
<rect x="2" y="4" width="12" height="1" fill="#FFE069"/>
<path d="M4 2L2 4H8L6 2H4Z" fill="#FFE069"/>
<rect y="14" width="2" height="2" fill="#1A73B2"/>
<rect x="2" y="14" width="12" height="2" fill="#88D8F9"/>
<rect x="7" y="10" width="2" height="4" fill="#88D8F9"/>
<rect x="7" y="14" width="2" height="2" fill="#1A73B2"/>
<rect x="7" y="8" width="2" height="2" fill="#1A73B2"/>
<rect x="14" y="14" width="2" height="2" fill="#1A73B2"/>
</svg>
