<svg width="16" height="16" viewBox="0 0 16 16" fill="none" xmlns="http://www.w3.org/2000/svg">
<path d="M11.3571 6H3.64286C3.28782 6 3 6.29848 3 6.66667V9.33333C3 9.70152 3.28782 10 3.64286 10H11.3571C11.7122 10 12 9.70152 12 9.33333V6.66667C12 6.29848 11.7122 6 11.3571 6Z" fill="#5B7B93" fill-opacity="0.9"/>
<path d="M10.4167 7H4.58333C4.26117 7 4 7.22386 4 7.5V8.5C4 8.77614 4.26117 9 4.58333 9H10.4167C10.7388 9 11 8.77614 11 8.5V7.5C11 7.22386 10.7388 7 10.4167 7Z" fill="#9CF1FF"/>
<path d="M10.4167 7H4.58333C4.26117 7 4 7.22386 4 7.5V8.5C4 8.77614 4.26117 9 4.58333 9H10.4167C10.7388 9 11 8.77614 11 8.5V7.5C11 7.22386 10.7388 7 10.4167 7Z" fill="url(#paint0_linear_21_81)" fill-opacity="0.4"/>
<path d="M5 6H6V7H5V6Z" fill="#CDDCE6"/>
<path d="M7 6H8V7H7V6Z" fill="#CDDCE6"/>
<path d="M9 6H10V7H9V6Z" fill="#CDDCE6"/>
<path d="M5 8H6V9H5V8Z" fill="#CDDCE6"/>
<path d="M7 8H8V9H7V8Z" fill="#CDDCE6"/>
<path d="M9 8H10V9H9V8Z" fill="#CDDCE6"/>
<path d="M5 7H6V8H5V7Z" fill="#273C4A"/>
<path d="M7 7H8V8H7V7Z" fill="#273C4A"/>
<path d="M9 7H10V8H9V7Z" fill="#273C4A"/>
<defs>
<linearGradient id="paint0_linear_21_81" x1="7.5" y1="7" x2="7.5" y2="9" gradientUnits="userSpaceOnUse">
<stop stop-color="white"/>
<stop offset="1" stop-color="#1A669D"/>
</linearGradient>
</defs>
</svg>
