<svg width="16" height="16" viewBox="0 0 16 16" fill="none" xmlns="http://www.w3.org/2000/svg">
<path d="M5.16667 9H1.83333C1.3731 9 1 9.3731 1 9.83333V13.1667C1 13.6269 1.3731 14 1.83333 14H5.16667C5.6269 14 6 13.6269 6 13.1667V9.83333C6 9.3731 5.6269 9 5.16667 9Z" fill="#F54150"/>
<path d="M1.83333 9.5H5.16667C5.35076 9.5 5.5 9.64924 5.5 9.83333V13.1667C5.5 13.3508 5.35076 13.5 5.16667 13.5H1.83333C1.64924 13.5 1.5 13.3508 1.5 13.1667V9.83333C1.5 9.64924 1.64924 9.5 1.83333 9.5Z" stroke="#9B2D36" stroke-opacity="0.7"/>
<path d="M4 4H3V9H4V4Z" fill="#939393"/>
<path d="M11 12V11H6V12H11Z" fill="#939393"/>
<path d="M3.5 1L5 4H2L3.5 1Z" fill="#273C4A"/>
<path d="M14 11.5L11 13V10L14 11.5Z" fill="#273C4A"/>
<rect x="2" y="10" width="3" height="1" fill="#FA99A1"/>
</svg>
