<svg width="16" height="16" viewBox="0 0 16 16" fill="none" xmlns="http://www.w3.org/2000/svg">
<rect y="11" width="6" height="3" rx="1" fill="#CE964B"/>
<rect y="6" width="6" height="3" rx="1" fill="#CE964B"/>
<rect y="1" width="6" height="3" rx="1" fill="#CE964B"/>
<rect x="1" y="12" width="4" height="1" rx="0.5" fill="#FDAA33"/>
<rect x="1" y="7" width="4" height="1" rx="0.5" fill="#FDAA33"/>
<rect x="1" y="2" width="4" height="1" rx="0.5" fill="#FDAA33"/>
<path d="M7 2H8V3H7V2Z" fill="#4D4D4D"/>
<path d="M9 2H10V3H9V2Z" fill="#4D4D4D"/>
<path d="M11 2H12V3H11V2Z" fill="#4D4D4D"/>
<path d="M13 2H14V3H13V2Z" fill="#4D4D4D"/>
<path d="M7 7H8V8H7V7Z" fill="#4D4D4D"/>
<path d="M9 7H10V8H9V7Z" fill="#4D4D4D"/>
<path d="M11 7H12V8H11V7Z" fill="#4D4D4D"/>
<path d="M13 7H14V8H13V7Z" fill="#4D4D4D"/>
<path d="M7 12H8V13H7V12Z" fill="#4D4D4D"/>
<path d="M9 12H10V13H9V12Z" fill="#4D4D4D"/>
<path d="M11 12H12V13H11V12Z" fill="#4D4D4D"/>
<path d="M13 12H14V13H13V12Z" fill="#4D4D4D"/>
</svg>
