<svg width="16" height="16" viewBox="0 0 16 16" fill="none" xmlns="http://www.w3.org/2000/svg">
<path d="M7 7H10V15H8.5L7 14V7Z" fill="#AAAAAA"/>
<rect x="7" y="7" width="3" height="1" fill="#727272"/>
<rect opacity="0.5" x="6" y="7" width="3" height="1" fill="#727272"/>
<rect opacity="0.4" x="6" y="9" width="2" height="1" fill="#727272"/>
<rect opacity="0.7" x="6" y="11" width="2" height="1" fill="#727272"/>
<rect width="1" height="8" transform="matrix(-1 0 0 1 10 7)" fill="#727272"/>
<path fill-rule="evenodd" clip-rule="evenodd" d="M6 1C4.89543 1 4 1.89543 4 3V5C4 6.10457 4.89543 7 6 7H10C11.1046 7 12 6.10457 12 5V3C12 1.89543 11.1046 1 10 1H6ZM7 2C6.44772 2 6 2.44772 6 3C6 3.55228 6.44772 4 7 4H9C9.55229 4 10 3.55228 10 3C10 2.44772 9.55229 2 9 2H7Z" fill="url(#paint0_linear_3_177)"/>
<defs>
<linearGradient id="paint0_linear_3_177" x1="8" y1="1" x2="8" y2="7" gradientUnits="userSpaceOnUse">
<stop stop-color="#EC7E13"/>
<stop offset="1" stop-color="#DA5312"/>
</linearGradient>
</defs>
</svg>
