<svg width="16" height="16" viewBox="0 0 16 16" fill="none" xmlns="http://www.w3.org/2000/svg">
<path fill-rule="evenodd" clip-rule="evenodd" d="M12.1464 2.14645C12.3417 1.95118 12.6583 1.95118 12.8536 2.14645L15.8536 5.14645C16.0488 5.34171 16.0488 5.65829 15.8536 5.85355L12.8536 8.85355C12.6583 9.04882 12.3417 9.04882 12.1464 8.85355C11.9512 8.65829 11.9512 8.34171 12.1464 8.14645L14.7929 5.5L12.1464 2.85355C11.9512 2.65829 11.9512 2.34171 12.1464 2.14645Z" fill="#007732"/>
<path fill-rule="evenodd" clip-rule="evenodd" d="M7 5.5C7 5.22386 7.22386 5 7.5 5H15.5C15.7761 5 16 5.22386 16 5.5C16 5.77614 15.7761 6 15.5 6H7.5C7.22386 6 7 5.77614 7 5.5Z" fill="#007732"/>
<path fill-rule="evenodd" clip-rule="evenodd" d="M4.85355 7.14645C5.04882 7.34171 5.04882 7.65829 4.85355 7.85355L2.20711 10.5L4.85355 13.1464C5.04882 13.3417 5.04882 13.6583 4.85355 13.8536C4.65829 14.0488 4.34171 14.0488 4.14645 13.8536L1.14645 10.8536C0.951184 10.6583 0.951184 10.3417 1.14645 10.1464L4.14645 7.14645C4.34171 6.95118 4.65829 6.95118 4.85355 7.14645Z" fill="#007732"/>
<path fill-rule="evenodd" clip-rule="evenodd" d="M1 10.5C1 10.2239 1.22386 10 1.5 10H9.5C9.77614 10 10 10.2239 10 10.5C10 10.7761 9.77614 11 9.5 11H1.5C1.22386 11 1 10.7761 1 10.5Z" fill="#007732"/>
</svg>
