<svg width="288" height="65" viewBox="0 0 288 65" fill="none" xmlns="http://www.w3.org/2000/svg">
<g clip-path="url(#clip0_494_209)">
<mask id="mask0_494_209" style="mask-type:luminance" maskUnits="userSpaceOnUse" x="0" y="0" width="288" height="65">
<path d="M288 0H0V65H288V0Z" fill="white"/>
</mask>
<g mask="url(#mask0_494_209)">
<path d="M288 0H0V65H288V0Z" fill="white"/>
<path d="M29 0C20.163 0 13 7.163 13 16C13 24.837 20.163 32 29 32C37.837 32 45 24.837 45 16C44.974 7.174 37.826 0.026 29 0Z" fill="#14AA5A"/>
<path fill-rule="evenodd" clip-rule="evenodd" d="M29 29C36.1797 29 42 23.1797 42 16C42 8.8203 36.1797 3 29 3C21.8203 3 16 8.8203 16 16C16 23.1797 21.8203 29 29 29ZM29 30C36.732 30 43 23.732 43 16C43 8.26801 36.732 2 29 2C21.268 2 15 8.26801 15 16C15 23.732 21.268 30 29 30Z" fill="white"/>
<path d="M29.6426 23.1758C29.1445 23.1758 28.793 22.8047 28.793 22.2676V10.832H28.7539L26.1172 12.6777C25.9219 12.8145 25.7363 12.8828 25.5215 12.8828C25.1113 12.8828 24.8281 12.5898 24.8281 12.1602C24.8281 11.8477 24.9453 11.6426 25.3164 11.3789L28.334 9.2207C28.8809 8.83008 29.1152 8.73242 29.5156 8.73242C30.1211 8.73242 30.4922 9.10352 30.4922 9.71875V22.2676C30.4922 22.8047 30.1406 23.1758 29.6426 23.1758Z" fill="#F5F5F5"/>
<path d="M154 16C154 23.732 147.732 30 140 30C132.268 30 126 23.732 126 16C126 8.26801 132.268 2 140 2C147.732 2 154 8.26801 154 16Z" fill="#CFDAE2"/>
<path d="M136.279 23C135.762 23 135.43 22.7168 135.43 22.2773C135.43 21.916 135.508 21.7598 135.928 21.3203L140.439 16.6133C142.334 14.6309 142.783 13.8789 142.783 12.6973C142.783 11.2617 141.68 10.207 140.166 10.207C138.643 10.207 137.578 10.998 137.1 12.5117C136.982 12.873 136.787 13.127 136.309 13.127C135.791 13.127 135.498 12.8047 135.498 12.3457C135.498 12.2188 135.508 12.1113 135.527 11.9941C135.732 10.5488 137.285 8.67383 140.166 8.67383C142.705 8.67383 144.541 10.3145 144.541 12.5898C144.541 14.1328 143.838 15.2949 141.426 17.7656L137.891 21.3984V21.4375H144.043C144.541 21.4375 144.873 21.75 144.873 22.2188C144.873 22.6875 144.541 23 144.043 23H136.279Z" fill="#F5F5F5"/>
<path d="M7.64258 44.7373L8.87402 45.0483C8.61589 46.0597 8.15039 46.832 7.47754 47.3652C6.80892 47.8942 5.99007 48.1587 5.021 48.1587C4.01807 48.1587 3.20133 47.9556 2.5708 47.5493C1.9445 47.1388 1.46631 46.5464 1.13623 45.772C0.810384 44.9976 0.647461 44.166 0.647461 43.2773C0.647461 42.3083 0.831543 41.464 1.19971 40.7446C1.5721 40.021 2.09896 39.473 2.78027 39.1006C3.46582 38.724 4.21908 38.5356 5.04004 38.5356C5.97103 38.5356 6.75391 38.7726 7.38867 39.2466C8.02344 39.7205 8.46566 40.387 8.71533 41.2461L7.50293 41.5317C7.28711 40.8547 6.97396 40.3617 6.56348 40.0527C6.15299 39.7438 5.63672 39.5894 5.01465 39.5894C4.29948 39.5894 3.70068 39.7607 3.21826 40.1035C2.74007 40.4463 2.40365 40.9076 2.20898 41.4873C2.01432 42.0628 1.91699 42.6574 1.91699 43.271C1.91699 44.0623 2.03125 44.7542 2.25977 45.3467C2.49251 45.9349 2.85221 46.375 3.33887 46.667C3.82552 46.959 4.35238 47.105 4.91943 47.105C5.60921 47.105 6.1932 46.9061 6.67139 46.5083C7.14958 46.1105 7.47331 45.5202 7.64258 44.7373Z" fill="#009646"/>
<path d="M9.82617 44.6294C9.82617 43.381 10.1732 42.4564 10.8672 41.8555C11.4469 41.3561 12.1536 41.1064 12.9873 41.1064C13.9141 41.1064 14.6715 41.4111 15.2598 42.0205C15.848 42.6257 16.1421 43.4635 16.1421 44.5342C16.1421 45.4017 16.0109 46.0851 15.7485 46.5845C15.4904 47.0796 15.1117 47.4647 14.6123 47.7397C14.1172 48.0148 13.5755 48.1523 12.9873 48.1523C12.0436 48.1523 11.2798 47.8498 10.6958 47.2446C10.116 46.6395 9.82617 45.7677 9.82617 44.6294ZM11.0005 44.6294C11.0005 45.4927 11.1888 46.1401 11.5654 46.5718C11.9421 46.9992 12.416 47.2129 12.9873 47.2129C13.5544 47.2129 14.0262 46.9971 14.4028 46.5654C14.7795 46.1338 14.9678 45.4757 14.9678 44.5913C14.9678 43.7576 14.7773 43.1271 14.3965 42.6997C14.0199 42.2681 13.5501 42.0522 12.9873 42.0522C12.416 42.0522 11.9421 42.266 11.5654 42.6934C11.1888 43.1208 11.0005 43.7661 11.0005 44.6294Z" fill="#009646"/>
<path d="M18.8271 44.9531V44.0581C19.3096 44.0539 19.6375 44.0348 19.811 44.001C19.9888 43.9671 20.1559 43.8656 20.3125 43.6963C20.4691 43.527 20.5474 43.3154 20.5474 43.0615C20.5474 42.7526 20.4437 42.5072 20.2363 42.3252C20.0332 42.139 19.7687 42.0459 19.4429 42.0459C18.7996 42.0459 18.349 42.4246 18.0908 43.1821L17.0054 43.0044C17.3439 41.7391 18.1606 41.1064 19.4556 41.1064C20.175 41.1064 20.7378 41.3032 21.144 41.6968C21.5545 42.0903 21.7598 42.5601 21.7598 43.106C21.7598 43.6561 21.4932 44.0941 20.96 44.4199C21.2985 44.6019 21.5524 44.8346 21.7217 45.1182C21.891 45.3975 21.9756 45.7297 21.9756 46.1147C21.9756 46.7199 21.7555 47.2108 21.3154 47.5874C20.8753 47.964 20.2596 48.1523 19.4683 48.1523C17.9321 48.1523 17.0413 47.4689 16.7959 46.1021L17.8687 45.8735C17.966 46.3052 18.1628 46.6395 18.459 46.8765C18.7594 47.1134 19.1022 47.2319 19.4873 47.2319C19.8724 47.2319 20.1919 47.124 20.4458 46.9082C20.7039 46.6882 20.833 46.4089 20.833 46.0703C20.833 45.8079 20.7526 45.5794 20.5918 45.3848C20.431 45.1901 20.2596 45.0695 20.0776 45.0229C19.8957 44.9722 19.5656 44.9468 19.0874 44.9468C19.0493 44.9468 18.9626 44.9489 18.8271 44.9531Z" fill="#009646"/>
<path d="M23.9116 41.2588H28.6089V47.0605H29.3389V49.9106H28.3994V48H23.0928V49.9106H22.1533V47.0605H22.7563C23.5604 45.9688 23.9455 44.0348 23.9116 41.2588ZM24.8638 42.2046C24.7791 44.3924 24.4406 46.0111 23.8481 47.0605H27.4727V42.2046H24.8638Z" fill="#009646"/>
<path d="M35.001 47.1685C34.5778 47.5282 34.1694 47.7821 33.7759 47.9302C33.3866 48.0783 32.9676 48.1523 32.519 48.1523C31.7785 48.1523 31.2093 47.9725 30.8115 47.6128C30.4137 47.2489 30.2148 46.7855 30.2148 46.2227C30.2148 45.8926 30.2889 45.5921 30.437 45.3213C30.5894 45.0462 30.7861 44.8262 31.0273 44.6611C31.2728 44.4961 31.5479 44.3713 31.8525 44.2866C32.0768 44.2274 32.4154 44.1702 32.8682 44.1152C33.7907 44.0052 34.4699 43.874 34.9058 43.7217C34.91 43.5651 34.9121 43.4657 34.9121 43.4233C34.9121 42.9578 34.8042 42.6299 34.5884 42.4395C34.2964 42.1813 33.8626 42.0522 33.2871 42.0522C32.7497 42.0522 32.3519 42.1475 32.0938 42.3379C31.8398 42.5241 31.6515 42.8563 31.5288 43.3345L30.4116 43.1821C30.5132 42.7039 30.6803 42.3188 30.9131 42.0269C31.1458 41.7306 31.4823 41.5042 31.9224 41.3477C32.3625 41.1868 32.8724 41.1064 33.4521 41.1064C34.0277 41.1064 34.4953 41.1742 34.855 41.3096C35.2147 41.445 35.4792 41.6164 35.6484 41.8237C35.8177 42.0269 35.9362 42.285 36.0039 42.5981C36.042 42.7928 36.061 43.144 36.061 43.6519V45.1753C36.061 46.2375 36.0843 46.9103 36.1309 47.1938C36.1816 47.4731 36.279 47.7419 36.4229 48H35.2295C35.111 47.763 35.0348 47.4858 35.001 47.1685ZM34.9058 44.6167C34.491 44.786 33.869 44.9299 33.0396 45.0483C32.5698 45.116 32.2376 45.1922 32.043 45.2769C31.8483 45.3615 31.6981 45.4863 31.5923 45.6514C31.4865 45.8122 31.4336 45.992 31.4336 46.1909C31.4336 46.4956 31.5479 46.7495 31.7764 46.9526C32.0091 47.1558 32.3477 47.2573 32.792 47.2573C33.2321 47.2573 33.6235 47.1621 33.9663 46.9717C34.3091 46.777 34.5609 46.5125 34.7217 46.1782C34.8444 45.9201 34.9058 45.5392 34.9058 45.0356V44.6167Z" fill="#009646"/>
<path d="M37.8447 41.2588H38.9873V44.0645H42.1548V41.2588H43.2974V48H42.1548V45.0103H38.9873V48H37.8447V41.2588Z" fill="#009646"/>
<path d="M45.0239 41.2588H46.1665V46.4004L49.334 41.2588H50.5654V48H49.4229V42.8901L46.2554 48H45.0239V41.2588Z" fill="#009646"/>
<path d="M56.9004 45.8291L58.0811 45.9751C57.8949 46.6649 57.55 47.2002 57.0464 47.5811C56.5428 47.9619 55.8996 48.1523 55.1167 48.1523C54.1307 48.1523 53.3478 47.8498 52.7681 47.2446C52.1925 46.6353 51.9048 45.7826 51.9048 44.6865C51.9048 43.5524 52.1968 42.6722 52.7808 42.0459C53.3647 41.4196 54.1222 41.1064 55.0532 41.1064C55.9546 41.1064 56.6909 41.4132 57.2622 42.0269C57.8335 42.6405 58.1191 43.5037 58.1191 44.6167C58.1191 44.6844 58.117 44.786 58.1128 44.9214H53.0854C53.1278 45.6619 53.3372 46.229 53.7139 46.6226C54.0905 47.0161 54.5602 47.2129 55.123 47.2129C55.542 47.2129 55.8996 47.1029 56.1958 46.8828C56.492 46.6628 56.7269 46.3115 56.9004 45.8291ZM53.1489 43.9819H56.9131C56.8623 43.4149 56.7184 42.9896 56.4814 42.7061C56.1175 42.266 55.6457 42.0459 55.0659 42.0459C54.5412 42.0459 54.099 42.2215 53.7393 42.5728C53.3838 42.924 53.187 43.3937 53.1489 43.9819Z" fill="#009646"/>
<path d="M104 38.6943H111.318V48H110.081V39.7925H105.231V48H104V38.6943Z" fill="#ADBFCC"/>
<path d="M112.759 44.6294C112.759 43.381 113.106 42.4564 113.8 41.8555C114.38 41.3561 115.087 41.1064 115.921 41.1064C116.847 41.1064 117.605 41.4111 118.193 42.0205C118.781 42.6257 119.075 43.4635 119.075 44.5342C119.075 45.4017 118.944 46.0851 118.682 46.5845C118.424 47.0796 118.045 47.4647 117.546 47.7397C117.05 48.0148 116.509 48.1523 115.921 48.1523C114.977 48.1523 114.213 47.8498 113.629 47.2446C113.049 46.6395 112.759 45.7677 112.759 44.6294ZM113.934 44.6294C113.934 45.4927 114.122 46.1401 114.499 46.5718C114.875 46.9992 115.349 47.2129 115.921 47.2129C116.488 47.2129 116.959 46.9971 117.336 46.5654C117.713 46.1338 117.901 45.4757 117.901 44.5913C117.901 43.7576 117.711 43.1271 117.33 42.6997C116.953 42.2681 116.483 42.0522 115.921 42.0522C115.349 42.0522 114.875 42.266 114.499 42.6934C114.122 43.1208 113.934 43.7661 113.934 44.6294Z" fill="#ADBFCC"/>
<path d="M121.03 41.2588H125.728V47.0605H126.458V49.9106H125.518V48H120.212V49.9106H119.272V47.0605H119.875C120.679 45.9688 121.064 44.0348 121.03 41.2588ZM121.983 42.2046C121.898 44.3924 121.559 46.0111 120.967 47.0605H124.591V42.2046H121.983Z" fill="#ADBFCC"/>
<path d="M127.727 41.2588H133.046V48H131.904V42.2046H128.87V48H127.727V41.2588Z" fill="#ADBFCC"/>
<path d="M134.767 41.2588H135.909V46.4004L139.077 41.2588H140.308V48H139.166V42.8901L135.998 48H134.767V41.2588Z" fill="#ADBFCC"/>
<path d="M146.427 45.5308L147.551 45.6768C147.428 46.4512 147.113 47.0584 146.605 47.4985C146.102 47.9344 145.482 48.1523 144.745 48.1523C143.823 48.1523 143.08 47.8519 142.517 47.251C141.959 46.6458 141.679 45.7804 141.679 44.6548C141.679 43.9269 141.8 43.29 142.041 42.7441C142.282 42.1982 142.648 41.7899 143.139 41.519C143.634 41.244 144.172 41.1064 144.752 41.1064C145.484 41.1064 146.082 41.2926 146.548 41.665C147.013 42.0332 147.312 42.5579 147.443 43.2393L146.332 43.4106C146.226 42.9578 146.038 42.6172 145.767 42.3887C145.501 42.1602 145.177 42.0459 144.796 42.0459C144.22 42.0459 143.753 42.2533 143.393 42.668C143.033 43.0785 142.854 43.7301 142.854 44.623C142.854 45.5286 143.027 46.1867 143.374 46.5972C143.721 47.0076 144.174 47.2129 144.733 47.2129C145.181 47.2129 145.556 47.0754 145.856 46.8003C146.157 46.5252 146.347 46.1021 146.427 45.5308Z" fill="#ADBFCC"/>
<path d="M152.927 47.1685C152.504 47.5282 152.096 47.7821 151.702 47.9302C151.313 48.0783 150.894 48.1523 150.445 48.1523C149.705 48.1523 149.136 47.9725 148.738 47.6128C148.34 47.2489 148.141 46.7855 148.141 46.2227C148.141 45.8926 148.215 45.5921 148.363 45.3213C148.516 45.0462 148.713 44.8262 148.954 44.6611C149.199 44.4961 149.474 44.3713 149.779 44.2866C150.003 44.2274 150.342 44.1702 150.795 44.1152C151.717 44.0052 152.396 43.874 152.832 43.7217C152.836 43.5651 152.838 43.4657 152.838 43.4233C152.838 42.9578 152.731 42.6299 152.515 42.4395C152.223 42.1813 151.789 42.0522 151.213 42.0522C150.676 42.0522 150.278 42.1475 150.02 42.3379C149.766 42.5241 149.578 42.8563 149.455 43.3345L148.338 43.1821C148.44 42.7039 148.607 42.3188 148.839 42.0269C149.072 41.7306 149.409 41.5042 149.849 41.3477C150.289 41.1868 150.799 41.1064 151.379 41.1064C151.954 41.1064 152.422 41.1742 152.781 41.3096C153.141 41.445 153.406 41.6164 153.575 41.8237C153.744 42.0269 153.863 42.285 153.93 42.5981C153.968 42.7928 153.987 43.144 153.987 43.6519V45.1753C153.987 46.2375 154.011 46.9103 154.057 47.1938C154.108 47.4731 154.205 47.7419 154.349 48H153.156C153.037 47.763 152.961 47.4858 152.927 47.1685ZM152.832 44.6167C152.417 44.786 151.795 44.9299 150.966 45.0483C150.496 45.116 150.164 45.1922 149.969 45.2769C149.775 45.3615 149.624 45.4863 149.519 45.6514C149.413 45.8122 149.36 45.992 149.36 46.1909C149.36 46.4956 149.474 46.7495 149.703 46.9526C149.935 47.1558 150.274 47.2573 150.718 47.2573C151.158 47.2573 151.55 47.1621 151.893 46.9717C152.235 46.777 152.487 46.5125 152.648 46.1782C152.771 45.9201 152.832 45.5392 152.832 45.0356V44.6167Z" fill="#ADBFCC"/>
<path d="M155.771 41.2588H156.914V44.0645H160.081V41.2588H161.224V48H160.081V45.0103H156.914V48H155.771V41.2588Z" fill="#ADBFCC"/>
<path d="M162.95 41.2588H164.093V46.4004L167.26 41.2588H168.492V48H167.349V42.8901L164.182 48H162.95V41.2588Z" fill="#ADBFCC"/>
<path d="M174.827 45.8291L176.007 45.9751C175.821 46.6649 175.476 47.2002 174.973 47.5811C174.469 47.9619 173.826 48.1523 173.043 48.1523C172.057 48.1523 171.274 47.8498 170.694 47.2446C170.119 46.6353 169.831 45.7826 169.831 44.6865C169.831 43.5524 170.123 42.6722 170.707 42.0459C171.291 41.4196 172.049 41.1064 172.98 41.1064C173.881 41.1064 174.617 41.4132 175.189 42.0269C175.76 42.6405 176.046 43.5037 176.046 44.6167C176.046 44.6844 176.043 44.786 176.039 44.9214H171.012C171.054 45.6619 171.264 46.229 171.64 46.6226C172.017 47.0161 172.487 47.2129 173.049 47.2129C173.468 47.2129 173.826 47.1029 174.122 46.8828C174.418 46.6628 174.653 46.3115 174.827 45.8291ZM171.075 43.9819H174.839C174.789 43.4149 174.645 42.9896 174.408 42.7061C174.044 42.266 173.572 42.0459 172.992 42.0459C172.468 42.0459 172.025 42.2215 171.666 42.5728C171.31 42.924 171.113 43.3937 171.075 43.9819Z" fill="#ADBFCC"/>
<path d="M45 15H124V17H45V15Z" fill="#CEDAE2"/>
</g>
</g>
<defs>
<clipPath id="clip0_494_209">
<rect width="288" height="65" fill="white"/>
</clipPath>
</defs>
</svg>
