<svg width="96" height="16" viewBox="0 0 96 16" fill="none" xmlns="http://www.w3.org/2000/svg">
<path d="M22.2875 9.125L19.8375 6.675L18 8.5125L22.2875 12.8L30.25 4.8375L28.4125 3L22.2875 9.125Z" fill="#009646"/>
<path d="M40 15C43.866 15 47 11.866 47 8C47 4.13401 43.866 1 40 1C36.134 1 33 4.13401 33 8C33 11.866 36.134 15 40 15Z" fill="#F93232"/>
<path d="M71.275 0.199951L70.575 6.59995L68.475 4.49995C66.575 6.39995 66.575 9.59995 68.475 11.5C69.375 12.5 70.675 13 71.975 13C73.275 13 74.575 12.5 75.475 11.5C77.375 9.59995 77.375 6.39995 75.475 4.49995C74.875 3.89995 74.075 3.39995 73.175 3.19995L73.775 1.29995C74.975 1.59995 76.075 2.19995 76.975 3.09995C79.675 5.79995 79.675 10.2 76.975 13C75.675 14.3 73.875 15 72.075 15C70.175 15 68.475 14.3 67.175 13C64.475 10.3 64.475 5.89995 67.175 3.09995L64.975 0.899951L71.275 0.199951Z" fill="#009646"/>
<path fill-rule="evenodd" clip-rule="evenodd" d="M82.5 1C81.6716 1 81 1.67157 81 2.5V6H82V5H83V6H84V2.5C84 1.67157 83.3284 1 82.5 1ZM83 4V2H82V4H83Z" fill="#9F1200"/>
<path fill-rule="evenodd" clip-rule="evenodd" d="M92.9994 1H90.9994V6H92.9994C93.5517 6 93.9994 5.55228 93.9994 5C93.9994 4.35142 93.8712 4.15958 93.7278 3.94503C93.6501 3.82878 93.568 3.70586 93.4994 3.5C93.568 3.29414 93.6501 3.17122 93.7278 3.05497C93.8712 2.84042 93.9994 2.64858 93.9994 2C93.9994 1.44772 93.5517 1 92.9994 1ZM93 2H92V3H93V2ZM93 4H92V5H93V4Z" fill="#004E85"/>
<g clip-path="url(#clip0_3_43)">
<path d="M57.0429 1.11724L57.0435 1.11834L63.3602 12.7639C63.3603 12.764 63.3603 12.764 63.3603 12.7641C63.4347 12.9015 63.4811 13.051 63.4966 13.2036C63.5123 13.3576 63.4973 13.5132 63.4525 13.6614C63.4077 13.8097 63.334 13.9475 63.2357 14.0671C63.1374 14.1868 63.0163 14.2857 62.8796 14.3583L62.8787 14.3588C62.7049 14.4515 62.5109 14.4999 62.314 14.4999L49.686 14.4999L49.6833 14.4999C49.479 14.501 49.2778 14.4489 49.0997 14.3487C48.9216 14.2485 48.7725 14.1037 48.6673 13.9285C48.5621 13.7533 48.5042 13.5537 48.4995 13.3494C48.4947 13.1453 48.5431 12.9435 48.6398 12.7638C48.6399 12.7635 48.64 12.7633 48.6401 12.7631L54.9546 1.11996C54.9547 1.11971 54.9549 1.11946 54.955 1.11921C55.106 0.843712 55.3596 0.638889 55.6607 0.549236C55.9621 0.459501 56.2868 0.492403 56.5641 0.640784L56.5646 0.64108C56.7674 0.749282 56.9338 0.914918 57.0429 1.11724Z" fill="#FDDE3D" stroke="#BD9730"/>
<path d="M55.9991 12.5C55.9003 12.5 55.8036 12.4707 55.7214 12.4157C55.6391 12.3608 55.575 12.2827 55.5372 12.1913C55.4994 12.1 55.4895 11.9994 55.5088 11.9025C55.528 11.8055 55.5757 11.7164 55.6456 11.6464C55.7155 11.5765 55.8046 11.5289 55.9016 11.5096C55.9986 11.4903 56.0991 11.5002 56.1905 11.5381C56.2819 11.5759 56.3599 11.64 56.4149 11.7222C56.4698 11.8044 56.4991 11.9011 56.4991 12C56.4991 12.1326 56.4465 12.2598 56.3527 12.3536C56.2589 12.4473 56.1318 12.5 55.9991 12.5ZM56.4991 5.5L56.4991 9.5L55.4991 9.5L55.4991 5.5L56.4991 5.5Z" fill="#333333" stroke="black"/>
</g>
<path d="M92.8534 12.6465L90.4999 10.293C90.8149 9.768 90.9999 9.1555 90.9999 8.5C90.9999 6.57 89.4294 5 87.4999 5C85.5705 5 84 6.57 84 8.5C84 10.43 85.5705 12 87.4999 12C88.1559 12 88.7679 11.8155 89.2929 11.5L91.6464 13.8535C91.7439 13.951 91.8719 14 91.9999 14C92.1279 14 92.2559 13.951 92.3534 13.8535L92.8534 13.3535C93.0489 13.158 93.0489 12.842 92.8534 12.6465ZM87.4999 11C86.1195 11 85 9.8805 85 8.5C85 7.1195 86.1195 6 87.4999 6C88.8804 6 89.9999 7.1195 89.9999 8.5C89.9999 9.8805 88.8804 11 87.4999 11Z" fill="#1E6E9F"/>
<defs>
<clipPath id="clip0_3_43">
<rect width="16" height="16" fill="white" transform="translate(48)"/>
</clipPath>
</defs>
</svg>
