<svg width="16" height="16" viewBox="0 0 16 16" fill="none" xmlns="http://www.w3.org/2000/svg">
<path d="M0 8.59524C0 6.71484 1.45507 5.19048 3.25 5.19048H12.75C14.5449 5.19048 16 6.71484 16 8.59524C16 10.4756 14.5449 12 12.75 12H3.25C1.45507 12 0 10.4756 0 8.59524Z" fill="#6FB4EA"/>
<path d="M7.75 5.45238C7.75 7.18813 6.40685 8.59524 4.75 8.59524C3.09315 8.59524 1.75 7.18813 1.75 5.45238C1.75 3.71663 3.09315 2.30952 4.75 2.30952C6.40685 2.30952 7.75 3.71663 7.75 5.45238Z" fill="#6FB4EA"/>
<path d="M14 5.05952C14 7.30154 12.2651 9.11905 10.125 9.11905C7.9849 9.11905 6.25 7.30154 6.25 5.05952C6.25 2.81751 7.9849 1 10.125 1C12.2651 1 14 2.81751 14 5.05952Z" fill="#6FB4EA"/>
<path d="M12.9596 10.4656C12.9395 10.274 12.8532 10.1251 12.7006 10.019C12.5481 9.91291 12.3411 9.85986 12.0795 9.85986C11.9019 9.85986 11.7518 9.88361 11.6294 9.93112C11.5071 9.97704 11.4132 10.0412 11.3478 10.1235C11.2841 10.2059 11.2523 10.2993 11.2523 10.4038C11.2489 10.4909 11.2682 10.5669 11.3101 10.6318C11.3537 10.6968 11.4132 10.753 11.4886 10.8005C11.5641 10.8464 11.6512 10.8868 11.7501 10.9216C11.849 10.9549 11.9547 10.9834 12.067 11.0071L12.5297 11.1116C12.7543 11.1591 12.9605 11.2225 13.1482 11.3017C13.336 11.3808 13.4986 11.4782 13.6361 11.5938C13.7735 11.7094 13.88 11.8456 13.9554 12.0024C14.0325 12.1591 14.0719 12.3389 14.0736 12.5416C14.0719 12.8393 13.9915 13.0974 13.8322 13.3159C13.6746 13.5329 13.4466 13.7015 13.1482 13.8219C12.8515 13.9406 12.4936 14 12.0745 14C11.6588 14 11.2967 13.9398 10.9882 13.8195C10.6814 13.6991 10.4417 13.521 10.2691 13.285C10.0981 13.0475 10.0084 12.7538 10 12.4038H11.0536C11.0653 12.5669 11.1148 12.7031 11.202 12.8124C11.2908 12.92 11.409 13.0016 11.5565 13.057C11.7057 13.1108 11.8742 13.1378 12.0619 13.1378C12.2463 13.1378 12.4064 13.1124 12.5422 13.0618C12.6797 13.0111 12.7861 12.9406 12.8616 12.8504C12.937 12.7601 12.9747 12.6564 12.9747 12.5392C12.9747 12.4299 12.9404 12.3381 12.8716 12.2637C12.8046 12.1892 12.7057 12.1259 12.5749 12.0736C12.4458 12.0214 12.2874 11.9739 12.0997 11.9311L11.5389 11.7981C11.1047 11.6983 10.7619 11.5424 10.5105 11.3302C10.259 11.118 10.1341 10.8321 10.1358 10.4727C10.1341 10.1781 10.2171 9.92082 10.3847 9.70071C10.554 9.4806 10.7862 9.30879 11.0813 9.18527C11.3763 9.06176 11.7116 9 12.0871 9C12.4693 9 12.8029 9.06176 13.0879 9.18527C13.3746 9.30879 13.5975 9.4806 13.7568 9.70071C13.916 9.92082 13.9982 10.1758 14.0032 10.4656H12.9596Z" fill="#333333"/>
<path d="M3.45927 14L2 9H3.17787L4.02206 12.4741H4.06439L4.99573 9H6.00427L6.93312 12.4814H6.97794L7.82213 9H9L7.54073 14H6.48986L5.51868 10.731H5.47883L4.51014 14H3.45927Z" fill="#333333"/>
</svg>
