<svg width="16" height="16" viewBox="0 0 16 16" fill="none" xmlns="http://www.w3.org/2000/svg">
<path d="M12.2857 6H3.71429C3.3198 6 3 6.29848 3 6.66667V9.33333C3 9.70152 3.3198 10 3.71429 10H12.2857C12.6802 10 13 9.70152 13 9.33333V6.66667C13 6.29848 12.6802 6 12.2857 6Z" fill="#426FA4"/>
<path d="M11.3333 7H4.66667C4.29848 7 4 7.22386 4 7.5V8.5C4 8.77614 4.29848 9 4.66667 9H11.3333C11.7015 9 12 8.77614 12 8.5V7.5C12 7.22386 11.7015 7 11.3333 7Z" fill="#3CE4FF"/>
<path d="M11.3333 7H4.66667C4.29848 7 4 7.22386 4 7.5V8.5C4 8.77614 4.29848 9 4.66667 9H11.3333C11.7015 9 12 8.77614 12 8.5V7.5C12 7.22386 11.7015 7 11.3333 7Z" fill="url(#paint0_linear_16_716)" fill-opacity="0.4"/>
<defs>
<linearGradient id="paint0_linear_16_716" x1="8" y1="7" x2="8" y2="9" gradientUnits="userSpaceOnUse">
<stop stop-color="white"/>
<stop offset="1" stop-color="#1A669D"/>
</linearGradient>
</defs>
</svg>
