<svg width="48" height="16" viewBox="0 0 48 16" fill="none" xmlns="http://www.w3.org/2000/svg">
<path d="M11.5 4.5L4.5 11.5" stroke="#E30F07" stroke-linecap="round" stroke-linejoin="round"/>
<path d="M4.5 4.5L11.5 11.5" stroke="#E30F07" stroke-linecap="round" stroke-linejoin="round"/>
<path d="M20.5 8.00009C20.5 7.18198 20.7865 6.38972 21.3099 5.76093C21.8333 5.13213 22.5604 4.70655 23.3649 4.5581C24.1695 4.40966 25.0006 4.54774 25.7139 4.94835C26.4272 5.34896 26.9776 5.98678 27.2696 6.75103C27.5615 7.51527 27.5765 8.35764 27.312 9.13179C27.0474 9.90594 26.52 10.563 25.8214 10.9887C25.1228 11.4145 24.2972 11.582 23.4879 11.4623C22.6786 11.3426 21.9368 10.9432 21.3913 10.3334" stroke="#EDBD0D" stroke-opacity="0.9" stroke-linecap="round" stroke-linejoin="round"/>
<path d="M35.5 8.5L38 11L44.5 4.5" stroke="#009646" stroke-linecap="round" stroke-linejoin="round"/>
</svg>
