<svg width="61" height="65" viewBox="0 0 61 65" fill="none" xmlns="http://www.w3.org/2000/svg">
<rect width="61" height="65" fill="white"/>
<path d="M31 0C22.163 0 15 7.163 15 16C15 24.837 22.163 32 31 32C39.837 32 47 24.837 47 16C46.974 7.174 39.826 0.026 31 0ZM37.707 21.293C38.098 21.684 38.098 22.316 37.707 22.707C37.512 22.902 37.256 23 37 23C36.744 23 36.488 22.902 36.293 22.707L31 17.414L25.707 22.707C25.512 22.902 25.256 23 25 23C24.744 23 24.488 22.902 24.293 22.707C23.902 22.316 23.902 21.684 24.293 21.293L29.586 16L24.293 10.707C23.902 10.316 23.902 9.684 24.293 9.293C24.684 8.902 25.316 8.902 25.707 9.293L31 14.586L36.293 9.293C36.684 8.902 37.316 8.902 37.707 9.293C38.098 9.684 38.098 10.316 37.707 10.707L32.414 16L37.707 21.293Z" fill="#F16E67"/>
<path fill-rule="evenodd" clip-rule="evenodd" d="M31 29C38.1797 29 44 23.1797 44 16C44 8.8203 38.1797 3 31 3C23.8203 3 18 8.8203 18 16C18 23.1797 23.8203 29 31 29ZM31 30C38.732 30 45 23.732 45 16C45 8.26801 38.732 2 31 2C23.268 2 17 8.26801 17 16C17 23.732 23.268 30 31 30Z" fill="white"/>
<path d="M0.628418 43.4678C0.628418 41.9232 1.04313 40.715 1.87256 39.8433C2.70199 38.9673 3.77262 38.5293 5.08447 38.5293C5.94352 38.5293 6.71794 38.7345 7.40771 39.145C8.09749 39.5555 8.62223 40.1289 8.98193 40.8652C9.34587 41.5973 9.52783 42.4289 9.52783 43.3599C9.52783 44.3035 9.3374 45.1478 8.95654 45.8926C8.57568 46.6374 8.03613 47.2023 7.33789 47.5874C6.63965 47.9683 5.88639 48.1587 5.07812 48.1587C4.20215 48.1587 3.41927 47.9471 2.72949 47.5239C2.03971 47.1007 1.51709 46.5231 1.16162 45.791C0.806152 45.0589 0.628418 44.2845 0.628418 43.4678ZM1.89795 43.4868C1.89795 44.6082 2.1984 45.4927 2.79932 46.1401C3.40446 46.7834 4.16195 47.105 5.07178 47.105C5.99854 47.105 6.76025 46.7791 7.35693 46.1274C7.95785 45.4757 8.2583 44.5511 8.2583 43.3535C8.2583 42.596 8.12923 41.9359 7.87109 41.373C7.61719 40.806 7.24268 40.368 6.74756 40.0591C6.25667 39.7459 5.70443 39.5894 5.09082 39.5894C4.21908 39.5894 3.46794 39.8898 2.8374 40.4907C2.2111 41.0874 1.89795 42.0861 1.89795 43.4868Z" fill="#CC0E0E"/>
<path d="M10.3594 41.2588H15.8374V42.2046H13.6665V48H12.5303V42.2046H10.3594V41.2588Z" fill="#CC0E0E"/>
<path d="M16.9609 41.2588H18.7383L20.5093 46.6543L22.4771 41.2588H24.1211V48H22.9785V42.5728L20.9854 48H19.9634L18.0781 42.3125V48H16.9609V41.2588Z" fill="#CC0E0E"/>
<path d="M30.4814 45.8291L31.6621 45.9751C31.4759 46.6649 31.131 47.2002 30.6274 47.5811C30.1239 47.9619 29.4806 48.1523 28.6978 48.1523C27.7118 48.1523 26.9289 47.8498 26.3491 47.2446C25.7736 46.6353 25.4858 45.7826 25.4858 44.6865C25.4858 43.5524 25.7778 42.6722 26.3618 42.0459C26.9458 41.4196 27.7033 41.1064 28.6343 41.1064C29.5356 41.1064 30.272 41.4132 30.8433 42.0269C31.4146 42.6405 31.7002 43.5037 31.7002 44.6167C31.7002 44.6844 31.6981 44.786 31.6938 44.9214H26.6665C26.7088 45.6619 26.9183 46.229 27.2949 46.6226C27.6715 47.0161 28.1413 47.2129 28.7041 47.2129C29.123 47.2129 29.4806 47.1029 29.7769 46.8828C30.0731 46.6628 30.3079 46.3115 30.4814 45.8291ZM26.73 43.9819H30.4941C30.4434 43.4149 30.2995 42.9896 30.0625 42.7061C29.6986 42.266 29.2267 42.0459 28.647 42.0459C28.1222 42.0459 27.68 42.2215 27.3203 42.5728C26.9648 42.924 26.7681 43.3937 26.73 43.9819Z" fill="#CC0E0E"/>
<path d="M33.1094 41.2588H34.252V44.0645H37.4194V41.2588H38.562V48H37.4194V45.0103H34.252V48H33.1094V41.2588Z" fill="#CC0E0E"/>
<path d="M44.9033 45.8291L46.084 45.9751C45.8978 46.6649 45.5529 47.2002 45.0493 47.5811C44.5457 47.9619 43.9025 48.1523 43.1196 48.1523C42.1336 48.1523 41.3507 47.8498 40.771 47.2446C40.1955 46.6353 39.9077 45.7826 39.9077 44.6865C39.9077 43.5524 40.1997 42.6722 40.7837 42.0459C41.3677 41.4196 42.1252 41.1064 43.0562 41.1064C43.9575 41.1064 44.6938 41.4132 45.2651 42.0269C45.8364 42.6405 46.1221 43.5037 46.1221 44.6167C46.1221 44.6844 46.12 44.786 46.1157 44.9214H41.0884C41.1307 45.6619 41.3402 46.229 41.7168 46.6226C42.0934 47.0161 42.5632 47.2129 43.126 47.2129C43.5449 47.2129 43.9025 47.1029 44.1987 46.8828C44.495 46.6628 44.7298 46.3115 44.9033 45.8291ZM41.1519 43.9819H44.916C44.8652 43.4149 44.7214 42.9896 44.4844 42.7061C44.1204 42.266 43.6486 42.0459 43.0688 42.0459C42.5441 42.0459 42.1019 42.2215 41.7422 42.5728C41.3867 42.924 41.1899 43.3937 41.1519 43.9819Z" fill="#CC0E0E"/>
<path d="M47.5312 41.2588H48.6738V44.0645H51.8413V41.2588H52.9839V48H51.8413V45.0103H48.6738V48H47.5312V41.2588Z" fill="#CC0E0E"/>
<path d="M59.1094 47.1685C58.6862 47.5282 58.2778 47.7821 57.8843 47.9302C57.495 48.0783 57.076 48.1523 56.6274 48.1523C55.8869 48.1523 55.3177 47.9725 54.9199 47.6128C54.5221 47.2489 54.3232 46.7855 54.3232 46.2227C54.3232 45.8926 54.3973 45.5921 54.5454 45.3213C54.6978 45.0462 54.8945 44.8262 55.1357 44.6611C55.3812 44.4961 55.6562 44.3713 55.9609 44.2866C56.1852 44.2274 56.5238 44.1702 56.9766 44.1152C57.8991 44.0052 58.5783 43.874 59.0142 43.7217C59.0184 43.5651 59.0205 43.4657 59.0205 43.4233C59.0205 42.9578 58.9126 42.6299 58.6968 42.4395C58.4048 42.1813 57.971 42.0522 57.3955 42.0522C56.8581 42.0522 56.4603 42.1475 56.2021 42.3379C55.9482 42.5241 55.7599 42.8563 55.6372 43.3345L54.52 43.1821C54.6216 42.7039 54.7887 42.3188 55.0215 42.0269C55.2542 41.7306 55.5907 41.5042 56.0308 41.3477C56.4709 41.1868 56.9808 41.1064 57.5605 41.1064C58.1361 41.1064 58.6037 41.1742 58.9634 41.3096C59.3231 41.445 59.5876 41.6164 59.7568 41.8237C59.9261 42.0269 60.0446 42.285 60.1123 42.5981C60.1504 42.7928 60.1694 43.144 60.1694 43.6519V45.1753C60.1694 46.2375 60.1927 46.9103 60.2393 47.1938C60.29 47.4731 60.3874 47.7419 60.5312 48H59.3379C59.2194 47.763 59.1432 47.4858 59.1094 47.1685ZM59.0142 44.6167C58.5994 44.786 57.9774 44.9299 57.1479 45.0483C56.6782 45.116 56.346 45.1922 56.1514 45.2769C55.9567 45.3615 55.8065 45.4863 55.7007 45.6514C55.5949 45.8122 55.542 45.992 55.542 46.1909C55.542 46.4956 55.6562 46.7495 55.8848 46.9526C56.1175 47.1558 56.4561 47.2573 56.9004 47.2573C57.3405 47.2573 57.7319 47.1621 58.0747 46.9717C58.4175 46.777 58.6693 46.5125 58.8301 46.1782C58.9528 45.9201 59.0142 45.5392 59.0142 45.0356V44.6167Z" fill="#CC0E0E"/>
</svg>
