<svg width="69" height="76" viewBox="0 0 69 76" fill="none" xmlns="http://www.w3.org/2000/svg">
<path d="M39 14C30.163 14 23 21.163 23 30C23 38.837 30.163 46 39 46C47.837 46 55 38.837 55 30C54.974 21.174 47.826 14.026 39 14ZM45.707 35.293C46.098 35.684 46.098 36.316 45.707 36.707C45.512 36.902 45.256 37 45 37C44.744 37 44.488 36.902 44.293 36.707L39 31.414L33.707 36.707C33.512 36.902 33.256 37 33 37C32.744 37 32.488 36.902 32.293 36.707C31.902 36.316 31.902 35.684 32.293 35.293L37.586 30L32.293 24.707C31.902 24.316 31.902 23.684 32.293 23.293C32.684 22.902 33.316 22.902 33.707 23.293L39 28.586L44.293 23.293C44.684 22.902 45.316 22.902 45.707 23.293C46.098 23.684 46.098 24.316 45.707 24.707L40.414 30L45.707 35.293Z" fill="#F16E67"/>
<path fill-rule="evenodd" clip-rule="evenodd" d="M39 43C46.1797 43 52 37.1797 52 30C52 22.8203 46.1797 17 39 17C31.8203 17 26 22.8203 26 30C26 37.1797 31.8203 43 39 43ZM39 44C46.732 44 53 37.732 53 30C53 22.268 46.732 16 39 16C31.268 16 25 22.268 25 30C25 37.732 31.268 44 39 44Z" fill="#FFFAD9"/>
<path d="M60.8745 58.6963C60.4513 59.056 60.043 59.3099 59.6494 59.458C59.2601 59.6061 58.8411 59.6802 58.3926 59.6802C57.652 59.6802 57.0828 59.5003 56.6851 59.1406C56.2873 58.7767 56.0884 58.3133 56.0884 57.7505C56.0884 57.4204 56.1624 57.12 56.3105 56.8491C56.4629 56.5741 56.6597 56.354 56.9009 56.189C57.1463 56.0239 57.4214 55.8991 57.7261 55.8145C57.9504 55.7552 58.2889 55.6981 58.7417 55.6431C59.6642 55.533 60.3434 55.4019 60.7793 55.2495C60.7835 55.0929 60.7856 54.9935 60.7856 54.9512C60.7856 54.4857 60.6777 54.1577 60.4619 53.9673C60.1699 53.7091 59.7362 53.5801 59.1606 53.5801C58.6232 53.5801 58.2254 53.6753 57.9673 53.8657C57.7134 54.0519 57.5251 54.3841 57.4023 54.8623L56.2852 54.71C56.3867 54.2318 56.5539 53.8467 56.7866 53.5547C57.0194 53.2585 57.3558 53.0321 57.7959 52.8755C58.236 52.7147 58.7459 52.6343 59.3257 52.6343C59.9012 52.6343 60.3688 52.702 60.7285 52.8374C61.0882 52.9728 61.3527 53.1442 61.522 53.3516C61.6912 53.5547 61.8097 53.8128 61.8774 54.126C61.9155 54.3206 61.9346 54.6719 61.9346 55.1797V56.7031C61.9346 57.7653 61.9578 58.4382 62.0044 58.7217C62.0552 59.001 62.1525 59.2697 62.2964 59.5278H61.103C60.9845 59.2909 60.9084 59.0137 60.8745 58.6963ZM60.7793 56.1445C60.3646 56.3138 59.7425 56.4577 58.9131 56.5762C58.4434 56.6439 58.1112 56.7201 57.9165 56.8047C57.7218 56.8893 57.5716 57.0142 57.4658 57.1792C57.36 57.34 57.3071 57.5199 57.3071 57.7188C57.3071 58.0234 57.4214 58.2773 57.6499 58.4805C57.8826 58.6836 58.2212 58.7852 58.6655 58.7852C59.1056 58.7852 59.4971 58.6899 59.8398 58.4995C60.1826 58.3049 60.4344 58.0404 60.5952 57.7061C60.7179 57.4479 60.7793 57.0671 60.7793 56.5635V56.1445Z" fill="#CC0E0E"/>
<path d="M50.4897 52.7866H51.6323V55.7002C51.9963 55.7002 52.2502 55.6304 52.394 55.4907C52.5422 55.3511 52.758 54.9448 53.0415 54.272C53.2658 53.7388 53.4478 53.3875 53.5874 53.2183C53.7271 53.049 53.8879 52.9347 54.0698 52.8755C54.2518 52.8162 54.5438 52.7866 54.9458 52.7866H55.1743V53.7324L54.8569 53.7261C54.5565 53.7261 54.3639 53.7705 54.2793 53.8594C54.1904 53.9525 54.055 54.2297 53.873 54.6909C53.6995 55.131 53.5409 55.4357 53.397 55.605C53.2531 55.7743 53.0309 55.9287 52.7305 56.0684C53.2214 56.1995 53.7038 56.6566 54.1777 57.4395L55.4282 59.5278H54.1714L52.9526 57.4395C52.703 57.0205 52.485 56.7454 52.2988 56.6143C52.1126 56.4788 51.8905 56.4111 51.6323 56.4111V59.5278H50.4897V52.7866Z" fill="#CC0E0E"/>
<path d="M47.9824 50L48.9917 50.0127C48.9451 50.4655 48.8436 50.7808 48.687 50.9585C48.5347 51.1362 48.3358 51.2505 48.0903 51.3013C47.8491 51.3521 47.373 51.3774 46.6621 51.3774C45.7184 51.3774 45.0752 51.4684 44.7324 51.6504C44.3896 51.8324 44.1421 52.1243 43.9897 52.5264C43.8416 52.9242 43.7591 53.4383 43.7422 54.0688C44.0299 53.6414 44.3664 53.3219 44.7515 53.1104C45.1366 52.8945 45.5703 52.7866 46.0527 52.7866C46.9372 52.7866 47.6693 53.0913 48.249 53.7007C48.8288 54.3058 49.1187 55.1268 49.1187 56.1636C49.1187 56.9507 48.9727 57.596 48.6807 58.0996C48.3887 58.6032 48.0417 58.9925 47.6396 59.2676C47.2419 59.5426 46.6981 59.6802 46.0083 59.6802C45.2085 59.6802 44.5864 59.4982 44.1421 59.1343C43.6978 58.7661 43.3571 58.2964 43.1201 57.7251C42.8831 57.1538 42.7646 56.1593 42.7646 54.7417C42.7646 52.9601 43.0651 51.7604 43.666 51.1426C44.2712 50.5247 45.2 50.2158 46.4526 50.2158C47.2313 50.2158 47.6735 50.2031 47.7793 50.1777C47.8851 50.1523 47.9528 50.0931 47.9824 50ZM47.9253 56.1318C47.9253 55.4294 47.7581 54.8538 47.4238 54.4053C47.0938 53.9567 46.6261 53.7324 46.021 53.7324C45.3905 53.7324 44.9038 53.9694 44.561 54.4434C44.2183 54.9173 44.0469 55.55 44.0469 56.3413C44.0469 57.1242 44.2352 57.723 44.6118 58.1377C44.9927 58.5524 45.4603 58.7598 46.0146 58.7598C46.5817 58.7598 47.0409 58.5207 47.3921 58.0425C47.7476 57.5601 47.9253 56.9232 47.9253 56.1318Z" fill="#CC0E0E"/>
<path d="M35.7822 52.7866H36.9248V57.9282L40.0923 52.7866H41.3237V59.5278H40.1812V54.418L37.0137 59.5278H35.7822V52.7866Z" fill="#CC0E0E"/>
<path d="M25.3848 52.7866H26.5273V58.582H29.1299V52.7866H30.2725V58.582H32.8813V52.7866H34.0176V59.5278H25.3848V52.7866Z" fill="#CC0E0E"/>
<path d="M15 54.9956C15 53.451 15.4147 52.2428 16.2441 51.3711C17.0736 50.4951 18.1442 50.0571 19.4561 50.0571C20.3151 50.0571 21.0895 50.2624 21.7793 50.6729C22.4691 51.0833 22.9938 51.6567 23.3535 52.3931C23.7174 53.1252 23.8994 53.9567 23.8994 54.8877C23.8994 55.8314 23.709 56.6756 23.3281 57.4204C22.9473 58.1652 22.4077 58.7301 21.7095 59.1152C21.0112 59.4961 20.258 59.6865 19.4497 59.6865C18.5737 59.6865 17.7909 59.4749 17.1011 59.0518C16.4113 58.6286 15.8887 58.0509 15.5332 57.3188C15.1777 56.5868 15 55.8123 15 54.9956ZM16.2695 55.0146C16.2695 56.1361 16.57 57.0205 17.1709 57.668C17.776 58.3112 18.5335 58.6328 19.4434 58.6328C20.3701 58.6328 21.1318 58.307 21.7285 57.6553C22.3294 57.0036 22.6299 56.0789 22.6299 54.8813C22.6299 54.1239 22.5008 53.4637 22.2427 52.9009C21.9888 52.3338 21.6143 51.8958 21.1191 51.5869C20.6283 51.2738 20.076 51.1172 19.4624 51.1172C18.5907 51.1172 17.8395 51.4176 17.209 52.0186C16.5827 52.6152 16.2695 53.6139 16.2695 55.0146Z" fill="#CC0E0E"/>
</svg>
