<svg width="288" height="65" viewBox="0 0 288 65" fill="none" xmlns="http://www.w3.org/2000/svg">
<rect width="288" height="65" fill="white"/>
<path d="M225 44.4678C225 42.9232 225.415 41.715 226.245 40.8433C227.074 39.9673 228.145 39.5293 229.456 39.5293C230.316 39.5293 231.09 39.7345 231.78 40.145C232.469 40.5555 232.994 41.1289 233.354 41.8652C233.718 42.5973 233.9 43.4289 233.9 44.3599C233.9 45.3035 233.709 46.1478 233.329 46.8926C232.948 47.6374 232.408 48.2023 231.71 48.5874C231.012 48.9683 230.258 49.1587 229.45 49.1587C228.574 49.1587 227.791 48.9471 227.101 48.5239C226.412 48.1007 225.889 47.5231 225.534 46.791C225.178 46.0589 225 45.2845 225 44.4678ZM226.27 44.4868C226.27 45.6082 226.57 46.4927 227.171 47.1401C227.776 47.7834 228.534 48.105 229.444 48.105C230.371 48.105 231.132 47.7791 231.729 47.1274C232.33 46.4757 232.63 45.5511 232.63 44.3535C232.63 43.596 232.501 42.9359 232.243 42.373C231.989 41.806 231.615 41.368 231.12 41.0591C230.629 40.7459 230.076 40.5894 229.463 40.5894C228.591 40.5894 227.84 40.8898 227.209 41.4907C226.583 42.0874 226.27 43.0861 226.27 44.4868Z" fill="#766712"/>
<path d="M239.422 42.2588V45.1724C239.786 45.1724 240.042 45.1025 240.19 44.9629C240.338 44.8232 240.554 44.417 240.838 43.7441C241.104 43.1051 241.344 42.6968 241.555 42.519C241.762 42.3455 242.093 42.2588 242.545 42.2588H242.964V43.2046L242.653 43.1982C242.349 43.1982 242.154 43.2427 242.069 43.3315C241.98 43.4246 241.845 43.7018 241.663 44.1631C241.494 44.6032 241.337 44.9079 241.193 45.0771C241.049 45.2464 240.825 45.4009 240.52 45.5405C241.016 45.6717 241.498 46.1287 241.968 46.9116L243.225 49H241.968L240.743 46.9116C240.493 46.4884 240.275 46.2113 240.089 46.0801C239.903 45.9489 239.68 45.8833 239.422 45.8833V49H238.254V45.8833C238 45.8833 237.78 45.9489 237.594 46.0801C237.408 46.207 237.19 46.4842 236.94 46.9116L235.715 49H234.458L235.709 46.9116C236.183 46.1287 236.667 45.6717 237.163 45.5405C236.824 45.384 236.587 45.2147 236.452 45.0327C236.316 44.8465 236.113 44.4064 235.842 43.7124C235.749 43.4797 235.65 43.3358 235.544 43.2808C235.434 43.2257 235.271 43.1982 235.055 43.1982C235 43.1982 234.888 43.2004 234.719 43.2046V42.2588H234.877C235.317 42.2588 235.626 42.2863 235.804 42.3413C235.986 42.3921 236.147 42.5042 236.287 42.6777C236.43 42.847 236.617 43.2025 236.845 43.7441C237.124 44.4085 237.336 44.8127 237.48 44.9565C237.628 45.1004 237.886 45.1724 238.254 45.1724V42.2588H239.422Z" fill="#766712"/>
<path d="M244.043 42.2588H245.186V47.4004L248.353 42.2588H249.585V49H248.442V43.8901L245.275 49H244.043V42.2588Z" fill="#766712"/>
<path d="M252.206 42.2588H256.904V48.0605H257.634V50.9106H256.694V49H251.388V50.9106H250.448V48.0605H251.051C251.855 46.9688 252.24 45.0348 252.206 42.2588ZM253.159 43.2046C253.074 45.3924 252.735 47.0111 252.143 48.0605H255.768V43.2046H253.159Z" fill="#766712"/>
<path d="M263.296 48.1685C262.873 48.5282 262.464 48.7821 262.071 48.9302C261.681 49.0783 261.262 49.1523 260.814 49.1523C260.073 49.1523 259.504 48.9725 259.106 48.6128C258.709 48.2489 258.51 47.7855 258.51 47.2227C258.51 46.8926 258.584 46.5921 258.732 46.3213C258.884 46.0462 259.081 45.8262 259.322 45.6611C259.568 45.4961 259.843 45.3713 260.147 45.2866C260.372 45.2274 260.71 45.1702 261.163 45.1152C262.086 45.0052 262.765 44.874 263.201 44.7217C263.205 44.5651 263.207 44.4657 263.207 44.4233C263.207 43.9578 263.099 43.6299 262.883 43.4395C262.591 43.1813 262.157 43.0522 261.582 43.0522C261.045 43.0522 260.647 43.1475 260.389 43.3379C260.135 43.5241 259.946 43.8563 259.824 44.3345L258.706 44.1821C258.808 43.7039 258.975 43.3188 259.208 43.0269C259.441 42.7306 259.777 42.5042 260.217 42.3477C260.657 42.1868 261.167 42.1064 261.747 42.1064C262.323 42.1064 262.79 42.1742 263.15 42.3096C263.51 42.445 263.774 42.6164 263.943 42.8237C264.113 43.0269 264.231 43.285 264.299 43.5981C264.337 43.7928 264.356 44.144 264.356 44.6519V46.1753C264.356 47.2375 264.379 47.9103 264.426 48.1938C264.476 48.4731 264.574 48.7419 264.718 49H263.524C263.406 48.763 263.33 48.4858 263.296 48.1685ZM263.201 45.6167C262.786 45.786 262.164 45.9299 261.334 46.0483C260.865 46.116 260.532 46.1922 260.338 46.2769C260.143 46.3615 259.993 46.4863 259.887 46.6514C259.781 46.8122 259.728 46.992 259.728 47.1909C259.728 47.4956 259.843 47.7495 260.071 47.9526C260.304 48.1558 260.643 48.2573 261.087 48.2573C261.527 48.2573 261.918 48.1621 262.261 47.9717C262.604 47.777 262.856 47.5125 263.017 47.1782C263.139 46.9201 263.201 46.5392 263.201 46.0356V45.6167Z" fill="#766712"/>
<path d="M270.748 46.8291L271.929 46.9751C271.742 47.6649 271.398 48.2002 270.894 48.5811C270.39 48.9619 269.747 49.1523 268.964 49.1523C267.978 49.1523 267.195 48.8498 266.616 48.2446C266.04 47.6353 265.752 46.7826 265.752 45.6865C265.752 44.5524 266.044 43.6722 266.628 43.0459C267.212 42.4196 267.97 42.1064 268.901 42.1064C269.802 42.1064 270.539 42.4132 271.11 43.0269C271.681 43.6405 271.967 44.5037 271.967 45.6167C271.967 45.6844 271.965 45.786 271.96 45.9214H266.933C266.975 46.6619 267.185 47.229 267.561 47.6226C267.938 48.0161 268.408 48.2129 268.971 48.2129C269.39 48.2129 269.747 48.1029 270.043 47.8828C270.34 47.6628 270.574 47.3115 270.748 46.8291ZM266.997 44.9819H270.761C270.71 44.4149 270.566 43.9896 270.329 43.7061C269.965 43.266 269.493 43.0459 268.914 43.0459C268.389 43.0459 267.947 43.2215 267.587 43.5728C267.231 43.924 267.035 44.3937 266.997 44.9819Z" fill="#766712"/>
<path d="M272.322 42.2588H277.8V43.2046H275.629V49H274.493V43.2046H272.322V42.2588Z" fill="#766712"/>
<path d="M214 64.4771V55.1524H215.041V56.0284C215.287 55.6856 215.564 55.4296 215.873 55.2603C216.182 55.0868 216.556 55 216.996 55C217.572 55 218.08 55.1482 218.52 55.4444C218.96 55.7406 219.292 56.1596 219.516 56.7012C219.741 57.2387 219.853 57.829 219.853 58.4722C219.853 59.162 219.728 59.7841 219.478 60.3384C219.233 60.8886 218.873 61.3117 218.399 61.608C217.929 61.8999 217.434 62.0459 216.914 62.0459C216.533 62.0459 216.19 61.9655 215.885 61.8047C215.585 61.6439 215.337 61.4408 215.143 61.1954V64.4771H214ZM215.035 58.5611C215.035 59.4286 215.21 60.0697 215.562 60.4844C215.913 60.8991 216.338 61.1065 216.838 61.1065C217.345 61.1065 217.779 60.8928 218.139 60.4654C218.503 60.0337 218.685 59.3672 218.685 58.4659C218.685 57.6068 218.507 56.9636 218.152 56.5362C217.8 56.1088 217.379 55.8951 216.888 55.8951C216.402 55.8951 215.97 56.1236 215.593 56.5806C215.221 57.0334 215.035 57.6936 215.035 58.5611Z" fill="#766712"/>
<path d="M225.851 59.7227L227.032 59.8687C226.846 60.5585 226.501 61.0938 225.997 61.4747C225.494 61.8555 224.85 62.0459 224.068 62.0459C223.082 62.0459 222.299 61.7434 221.719 61.1382C221.143 60.5289 220.856 59.6762 220.856 58.5801C220.856 57.446 221.148 56.5658 221.732 55.9395C222.316 55.3132 223.073 55 224.004 55C224.905 55 225.642 55.3068 226.213 55.9205C226.784 56.5341 227.07 57.3973 227.07 58.5103C227.07 58.578 227.068 58.6796 227.064 58.815H222.036C222.079 59.5555 222.288 60.1226 222.665 60.5162C223.041 60.9097 223.511 61.1065 224.074 61.1065C224.493 61.1065 224.85 60.9965 225.147 60.7764C225.443 60.5564 225.678 60.2051 225.851 59.7227ZM222.1 57.8755H225.864C225.813 57.3085 225.669 56.8832 225.432 56.5997C225.068 56.1596 224.597 55.9395 224.017 55.9395C223.492 55.9395 223.05 56.1151 222.69 56.4664C222.335 56.8176 222.138 57.2873 222.1 57.8755Z" fill="#766712"/>
<path d="M228.479 55.1524H232.358V56.0982H229.622V61.8936H228.479V55.1524Z" fill="#766712"/>
<path d="M233.221 55.1524H234.363V60.294L237.531 55.1524H238.762V61.8936H237.62V56.7837L234.452 61.8936H233.221V55.1524Z" fill="#766712"/>
<path d="M244.882 59.4244L246.005 59.5704C245.882 60.3448 245.567 60.952 245.059 61.3921C244.556 61.828 243.936 62.0459 243.199 62.0459C242.277 62.0459 241.534 61.7455 240.971 61.1446C240.413 60.5394 240.133 59.674 240.133 58.5484C240.133 57.8205 240.254 57.1836 240.495 56.6377C240.737 56.0918 241.103 55.6835 241.593 55.4126C242.089 55.1376 242.626 55 243.206 55C243.938 55 244.537 55.1862 245.002 55.5586C245.468 55.9268 245.766 56.4515 245.897 57.1329L244.786 57.3042C244.681 56.8514 244.492 56.5108 244.221 56.2823C243.955 56.0538 243.631 55.9395 243.25 55.9395C242.675 55.9395 242.207 56.1469 241.847 56.5616C241.488 56.9721 241.308 57.6237 241.308 58.5166C241.308 59.4222 241.481 60.0803 241.828 60.4908C242.175 60.9012 242.628 61.1065 243.187 61.1065C243.635 61.1065 244.01 60.969 244.31 60.6939C244.611 60.4188 244.801 59.9957 244.882 59.4244Z" fill="#766712"/>
<path d="M246.367 55.1524H251.845V56.0982H249.674V61.8936H248.538V56.0982H246.367V55.1524Z" fill="#766712"/>
<path d="M252.937 64.4771V55.1524H253.978V56.0284C254.223 55.6856 254.5 55.4296 254.809 55.2603C255.118 55.0868 255.493 55 255.933 55C256.508 55 257.016 55.1482 257.456 55.4444C257.896 55.7406 258.229 56.1596 258.453 56.7012C258.677 57.2387 258.789 57.829 258.789 58.4722C258.789 59.162 258.664 59.7841 258.415 60.3384C258.169 60.8886 257.81 61.3117 257.336 61.608C256.866 61.8999 256.371 62.0459 255.85 62.0459C255.469 62.0459 255.127 61.9655 254.822 61.8047C254.522 61.6439 254.274 61.4408 254.079 61.1954V64.4771H252.937ZM253.971 58.5611C253.971 59.4286 254.147 60.0697 254.498 60.4844C254.849 60.8991 255.275 61.1065 255.774 61.1065C256.282 61.1065 256.716 60.8928 257.075 60.4654C257.439 60.0337 257.621 59.3672 257.621 58.4659C257.621 57.6068 257.444 56.9636 257.088 56.5362C256.737 56.1088 256.316 55.8951 255.825 55.8951C255.338 55.8951 254.907 56.1236 254.53 56.5806C254.158 57.0334 253.971 57.6936 253.971 58.5611Z" fill="#766712"/>
<path d="M264.572 61.0621C264.149 61.4218 263.74 61.6757 263.347 61.8238C262.958 61.9719 262.539 62.0459 262.09 62.0459C261.349 62.0459 260.78 61.8661 260.383 61.5064C259.985 61.1425 259.786 60.6791 259.786 60.1163C259.786 59.7862 259.86 59.4857 260.008 59.2149C260.16 58.9398 260.357 58.7198 260.598 58.5547C260.844 58.3897 261.119 58.2649 261.424 58.1802C261.648 58.121 261.986 58.0638 262.439 58.0088C263.362 57.8988 264.041 57.7676 264.477 57.6153C264.481 57.4587 264.483 57.3593 264.483 57.3169C264.483 56.8514 264.375 56.5235 264.159 56.3331C263.867 56.0749 263.434 55.9458 262.858 55.9458C262.321 55.9458 261.923 56.0411 261.665 56.2315C261.411 56.4177 261.223 56.7499 261.1 57.2281L259.983 57.0757C260.084 56.5975 260.251 56.2124 260.484 55.9205C260.717 55.6242 261.053 55.3978 261.493 55.2413C261.933 55.0804 262.443 55 263.023 55C263.599 55 264.066 55.0678 264.426 55.2032C264.786 55.3386 265.05 55.51 265.219 55.7173C265.389 55.9205 265.507 56.1786 265.575 56.4917C265.613 56.6864 265.632 57.0376 265.632 57.5455V59.0689C265.632 60.1311 265.655 60.8039 265.702 61.0874C265.753 61.3667 265.85 61.6355 265.994 61.8936H264.8C264.682 61.6566 264.606 61.3794 264.572 61.0621ZM264.477 58.5103C264.062 58.6796 263.44 58.8235 262.611 58.9419C262.141 59.0096 261.809 59.0858 261.614 59.1705C261.419 59.2551 261.269 59.3799 261.163 59.545C261.057 59.7058 261.005 59.8856 261.005 60.0845C261.005 60.3892 261.119 60.6431 261.347 60.8462C261.58 61.0494 261.919 61.1509 262.363 61.1509C262.803 61.1509 263.195 61.0557 263.537 60.8653C263.88 60.6706 264.132 60.4061 264.293 60.0718C264.415 59.8137 264.477 59.4328 264.477 58.9292V58.5103Z" fill="#766712"/>
<path d="M267.428 55.1524H268.571V60.9541H271.732V55.1524H272.875V60.9541H273.611V63.8042H272.672V61.8936H267.428V55.1524Z" fill="#766712"/>
<path d="M274.862 55.1524H276.004V60.294L279.172 55.1524H280.403V61.8936H279.26V56.7837L276.093 61.8936H274.862V55.1524Z" fill="#766712"/>
<path d="M282.123 55.1524H283.266V60.294L286.433 55.1524H287.665V61.8936H286.522V56.7837L283.355 61.8936H282.123V55.1524Z" fill="#766712"/>
<path d="M29 1C20.163 1 13 8.163 13 17C13 25.837 20.163 33 29 33C37.837 33 45 25.837 45 17C44.974 8.174 37.826 1.026 29 1ZM36.707 12.707L28.707 22.707C28.512 22.902 28.256 23 28 23C27.744 23 27.488 22.902 27.293 22.707L23.293 18.707C22.902 18.316 22.902 17.684 23.293 17.293C23.684 16.902 24.316 16.902 24.707 17.293L28 20.586L35.293 11.293C35.684 10.902 36.316 10.902 36.707 11.293C37.098 11.684 37.098 12.316 36.707 12.707Z" fill="#14AA5A"/>
<path fill-rule="evenodd" clip-rule="evenodd" d="M29 30C36.1797 30 42 24.1797 42 17C42 9.8203 36.1797 4 29 4C21.8203 4 16 9.8203 16 17C16 24.1797 21.8203 30 29 30ZM29 31C36.732 31 43 24.732 43 17C43 9.26801 36.732 3 29 3C21.268 3 15 9.26801 15 17C15 24.732 21.268 31 29 31Z" fill="white"/>
<path d="M140 0C131.163 0 124 7.163 124 16C124 24.837 131.163 32 140 32C148.837 32 156 24.837 156 16C155.974 7.174 148.826 0.026 140 0ZM147.707 11.707L139.707 21.707C139.512 21.902 139.256 22 139 22C138.744 22 138.488 21.902 138.293 21.707L134.293 17.707C133.902 17.316 133.902 16.684 134.293 16.293C134.684 15.902 135.316 15.902 135.707 16.293L139 19.586L146.293 10.293C146.684 9.902 147.316 9.902 147.707 10.293C148.098 10.684 148.098 11.316 147.707 11.707Z" fill="#14AA5A"/>
<path fill-rule="evenodd" clip-rule="evenodd" d="M140 29C147.18 29 153 23.1797 153 16C153 8.8203 147.18 3 140 3C132.82 3 127 8.8203 127 16C127 23.1797 132.82 29 140 29ZM140 30C147.732 30 154 23.732 154 16C154 8.26801 147.732 2 140 2C132.268 2 126 8.26801 126 16C126 23.732 132.268 30 140 30Z" fill="white"/>
<path d="M45 16H124V18H45V16Z" fill="#14AA5A"/>
<path d="M156 16H235V18H156V16Z" fill="#CEDAE2"/>
<path d="M108 39.6943H115.319V49H114.081V40.7925H109.231V49H108V39.6943Z" fill="#009646"/>
<path d="M116.76 45.6294C116.76 44.381 117.107 43.4564 117.801 42.8555C118.38 42.3561 119.087 42.1064 119.921 42.1064C120.847 42.1064 121.605 42.4111 122.193 43.0205C122.781 43.6257 123.075 44.4635 123.075 45.5342C123.075 46.4017 122.944 47.0851 122.682 47.5845C122.424 48.0796 122.045 48.4647 121.546 48.7397C121.051 49.0148 120.509 49.1523 119.921 49.1523C118.977 49.1523 118.213 48.8498 117.629 48.2446C117.049 47.6395 116.76 46.7677 116.76 45.6294ZM117.934 45.6294C117.934 46.4927 118.122 47.1401 118.499 47.5718C118.875 47.9992 119.349 48.2129 119.921 48.2129C120.488 48.2129 120.96 47.9971 121.336 47.5654C121.713 47.1338 121.901 46.4757 121.901 45.5913C121.901 44.7576 121.711 44.1271 121.33 43.6997C120.953 43.2681 120.483 43.0522 119.921 43.0522C119.349 43.0522 118.875 43.266 118.499 43.6934C118.122 44.1208 117.934 44.7661 117.934 45.6294Z" fill="#009646"/>
<path d="M125.031 42.2588H129.728V48.0605H130.458V50.9106H129.518V49H124.212V50.9106H123.272V48.0605H123.875C124.679 46.9688 125.064 45.0348 125.031 42.2588ZM125.983 43.2046C125.898 45.3924 125.56 47.0111 124.967 48.0605H128.592V43.2046H125.983Z" fill="#009646"/>
<path d="M131.727 42.2588H137.047V49H135.904V43.2046H132.87V49H131.727V42.2588Z" fill="#009646"/>
<path d="M138.767 42.2588H139.909V47.4004L143.077 42.2588H144.308V49H143.166V43.8901L139.998 49H138.767V42.2588Z" fill="#009646"/>
<path d="M150.428 46.5308L151.551 46.6768C151.428 47.4512 151.113 48.0584 150.605 48.4985C150.102 48.9344 149.482 49.1523 148.745 49.1523C147.823 49.1523 147.08 48.8519 146.517 48.251C145.959 47.6458 145.679 46.7804 145.679 45.6548C145.679 44.9269 145.8 44.29 146.041 43.7441C146.282 43.1982 146.649 42.7899 147.139 42.519C147.635 42.244 148.172 42.1064 148.752 42.1064C149.484 42.1064 150.083 42.2926 150.548 42.665C151.014 43.0332 151.312 43.5579 151.443 44.2393L150.332 44.4106C150.226 43.9578 150.038 43.6172 149.767 43.3887C149.501 43.1602 149.177 43.0459 148.796 43.0459C148.221 43.0459 147.753 43.2533 147.393 43.668C147.034 44.0785 146.854 44.7301 146.854 45.623C146.854 46.5286 147.027 47.1867 147.374 47.5972C147.721 48.0076 148.174 48.2129 148.733 48.2129C149.181 48.2129 149.556 48.0754 149.856 47.8003C150.157 47.5252 150.347 47.1021 150.428 46.5308Z" fill="#009646"/>
<path d="M156.928 48.1685C156.504 48.5282 156.096 48.7821 155.702 48.9302C155.313 49.0783 154.894 49.1523 154.446 49.1523C153.705 49.1523 153.136 48.9725 152.738 48.6128C152.34 48.2489 152.141 47.7855 152.141 47.2227C152.141 46.8926 152.215 46.5921 152.364 46.3213C152.516 46.0462 152.713 45.8262 152.954 45.6611C153.199 45.4961 153.474 45.3713 153.779 45.2866C154.003 45.2274 154.342 45.1702 154.795 45.1152C155.717 45.0052 156.396 44.874 156.832 44.7217C156.837 44.5651 156.839 44.4657 156.839 44.4233C156.839 43.9578 156.731 43.6299 156.515 43.4395C156.223 43.1813 155.789 43.0522 155.214 43.0522C154.676 43.0522 154.278 43.1475 154.02 43.3379C153.766 43.5241 153.578 43.8563 153.455 44.3345L152.338 44.1821C152.44 43.7039 152.607 43.3188 152.84 43.0269C153.072 42.7306 153.409 42.5042 153.849 42.3477C154.289 42.1868 154.799 42.1064 155.379 42.1064C155.954 42.1064 156.422 42.1742 156.782 42.3096C157.141 42.445 157.406 42.6164 157.575 42.8237C157.744 43.0269 157.863 43.285 157.93 43.5981C157.969 43.7928 157.988 44.144 157.988 44.6519V46.1753C157.988 47.2375 158.011 47.9103 158.057 48.1938C158.108 48.4731 158.206 48.7419 158.349 49H157.156C157.038 48.763 156.961 48.4858 156.928 48.1685ZM156.832 45.6167C156.418 45.786 155.796 45.9299 154.966 46.0483C154.496 46.116 154.164 46.1922 153.969 46.2769C153.775 46.3615 153.625 46.4863 153.519 46.6514C153.413 46.8122 153.36 46.992 153.36 47.1909C153.36 47.4956 153.474 47.7495 153.703 47.9526C153.936 48.1558 154.274 48.2573 154.719 48.2573C155.159 48.2573 155.55 48.1621 155.893 47.9717C156.236 47.777 156.487 47.5125 156.648 47.1782C156.771 46.9201 156.832 46.5392 156.832 46.0356V45.6167Z" fill="#009646"/>
<path d="M159.771 42.2588H160.914V45.0645H164.081V42.2588H165.224V49H164.081V46.0103H160.914V49H159.771V42.2588Z" fill="#009646"/>
<path d="M171.349 48.1685C170.926 48.5282 170.518 48.7821 170.124 48.9302C169.735 49.0783 169.316 49.1523 168.867 49.1523C168.127 49.1523 167.558 48.9725 167.16 48.6128C166.762 48.2489 166.563 47.7855 166.563 47.2227C166.563 46.8926 166.637 46.5921 166.785 46.3213C166.938 46.0462 167.135 45.8262 167.376 45.6611C167.621 45.4961 167.896 45.3713 168.201 45.2866C168.425 45.2274 168.764 45.1702 169.217 45.1152C170.139 45.0052 170.818 44.874 171.254 44.7217C171.258 44.5651 171.261 44.4657 171.261 44.4233C171.261 43.9578 171.153 43.6299 170.937 43.4395C170.645 43.1813 170.211 43.0522 169.636 43.0522C169.098 43.0522 168.7 43.1475 168.442 43.3379C168.188 43.5241 168 43.8563 167.877 44.3345L166.76 44.1821C166.862 43.7039 167.029 43.3188 167.261 43.0269C167.494 42.7306 167.831 42.5042 168.271 42.3477C168.711 42.1868 169.221 42.1064 169.801 42.1064C170.376 42.1064 170.844 42.1742 171.203 42.3096C171.563 42.445 171.828 42.6164 171.997 42.8237C172.166 43.0269 172.285 43.285 172.352 43.5981C172.39 43.7928 172.409 44.144 172.409 44.6519V46.1753C172.409 47.2375 172.433 47.9103 172.479 48.1938C172.53 48.4731 172.627 48.7419 172.771 49H171.578C171.459 48.763 171.383 48.4858 171.349 48.1685ZM171.254 45.6167C170.839 45.786 170.217 45.9299 169.388 46.0483C168.918 46.116 168.586 46.1922 168.391 46.2769C168.197 46.3615 168.046 46.4863 167.941 46.6514C167.835 46.8122 167.782 46.992 167.782 47.1909C167.782 47.4956 167.896 47.7495 168.125 47.9526C168.358 48.1558 168.696 48.2573 169.14 48.2573C169.581 48.2573 169.972 48.1621 170.315 47.9717C170.657 47.777 170.909 47.5125 171.07 47.1782C171.193 46.9201 171.254 46.5392 171.254 46.0356V45.6167Z" fill="#009646"/>
<path d="M10.9951 44.7373L12.2266 45.0483C11.9684 46.0597 11.5029 46.832 10.8301 47.3652C10.1615 47.8942 9.34261 48.1587 8.37354 48.1587C7.37061 48.1587 6.55387 47.9556 5.92334 47.5493C5.29704 47.1388 4.81885 46.5464 4.48877 45.772C4.16292 44.9976 4 44.166 4 43.2773C4 42.3083 4.18408 41.464 4.55225 40.7446C4.92464 40.021 5.4515 39.473 6.13281 39.1006C6.81836 38.724 7.57162 38.5356 8.39258 38.5356C9.32357 38.5356 10.1064 38.7726 10.7412 39.2466C11.376 39.7205 11.8182 40.387 12.0679 41.2461L10.8555 41.5317C10.6396 40.8547 10.3265 40.3617 9.91602 40.0527C9.50553 39.7438 8.98926 39.5894 8.36719 39.5894C7.65202 39.5894 7.05322 39.7607 6.5708 40.1035C6.09261 40.4463 5.75619 40.9076 5.56152 41.4873C5.36686 42.0628 5.26953 42.6574 5.26953 43.271C5.26953 44.0623 5.38379 44.7542 5.61231 45.3467C5.84505 45.9349 6.20475 46.375 6.69141 46.667C7.17806 46.959 7.70492 47.105 8.27197 47.105C8.96175 47.105 9.54574 46.9061 10.0239 46.5083C10.5021 46.1105 10.8258 45.5202 10.9951 44.7373Z" fill="#009646"/>
<path d="M13.1787 44.6294C13.1787 43.381 13.5257 42.4564 14.2197 41.8555C14.7994 41.3561 15.5061 41.1064 16.3398 41.1064C17.2666 41.1064 18.024 41.4111 18.6123 42.0205C19.2005 42.6257 19.4946 43.4635 19.4946 44.5342C19.4946 45.4017 19.3634 46.0851 19.101 46.5845C18.8429 47.0796 18.4642 47.4647 17.9648 47.7397C17.4697 48.0148 16.928 48.1523 16.3398 48.1523C15.3961 48.1523 14.6323 47.8498 14.0483 47.2446C13.4685 46.6395 13.1787 45.7677 13.1787 44.6294ZM14.353 44.6294C14.353 45.4927 14.5413 46.1401 14.9179 46.5718C15.2946 46.9992 15.7685 47.2129 16.3398 47.2129C16.9069 47.2129 17.3787 46.9971 17.7553 46.5654C18.132 46.1338 18.3203 45.4757 18.3203 44.5913C18.3203 43.7576 18.1298 43.1271 17.749 42.6997C17.3724 42.2681 16.9026 42.0522 16.3398 42.0522C15.7685 42.0522 15.2946 42.266 14.9179 42.6934C14.5413 43.1208 14.353 43.7661 14.353 44.6294Z" fill="#009646"/>
<path d="M22.1796 44.9531V44.0581C22.6621 44.0539 22.99 44.0348 23.1635 44.001C23.3413 43.9671 23.5084 43.8656 23.665 43.6963C23.8216 43.527 23.8999 43.3154 23.8999 43.0615C23.8999 42.7526 23.7962 42.5072 23.5888 42.3252C23.3857 42.139 23.1212 42.0459 22.7954 42.0459C22.1521 42.0459 21.7015 42.4246 21.4433 43.1821L20.3579 43.0044C20.6964 41.7391 21.5131 41.1064 22.8081 41.1064C23.5275 41.1064 24.0903 41.3032 24.4965 41.6968C24.907 42.0903 25.1123 42.5601 25.1123 43.106C25.1123 43.6561 24.8457 44.0941 24.3125 44.4199C24.651 44.6019 24.9049 44.8346 25.0742 45.1182C25.2435 45.3975 25.3281 45.7297 25.3281 46.1147C25.3281 46.7199 25.108 47.2108 24.6679 47.5874C24.2278 47.964 23.6121 48.1523 22.8208 48.1523C21.2846 48.1523 20.3938 47.4689 20.1484 46.1021L21.2212 45.8735C21.3185 46.3052 21.5153 46.6395 21.8115 46.8765C22.1119 47.1134 22.4547 47.2319 22.8398 47.2319C23.2249 47.2319 23.5444 47.124 23.7983 46.9082C24.0564 46.6882 24.1855 46.4089 24.1855 46.0703C24.1855 45.8079 24.1051 45.5794 23.9443 45.3848C23.7835 45.1901 23.6121 45.0695 23.4301 45.0229C23.2482 44.9722 22.9181 44.9468 22.4399 44.9468C22.4018 44.9468 22.3151 44.9489 22.1796 44.9531Z" fill="#009646"/>
<path d="M27.2641 41.2588H31.9614V47.0605H32.6914V49.9106H31.7519V48H26.4453V49.9106H25.5058V47.0605H26.1088C26.9129 45.9688 27.298 44.0348 27.2641 41.2588ZM28.2163 42.2046C28.1316 44.3924 27.7931 46.0111 27.2006 47.0605H30.8252V42.2046H28.2163Z" fill="#009646"/>
<path d="M38.3535 47.1685C37.9303 47.5282 37.5219 47.7821 37.1284 47.9302C36.7391 48.0783 36.3201 48.1523 35.8715 48.1523C35.131 48.1523 34.5618 47.9725 34.164 47.6128C33.7662 47.2489 33.5673 46.7855 33.5673 46.2227C33.5673 45.8926 33.6414 45.5921 33.7895 45.3213C33.9419 45.0462 34.1386 44.8262 34.3798 44.6611C34.6253 44.4961 34.9004 44.3713 35.205 44.2866C35.4293 44.2274 35.7679 44.1702 36.2207 44.1152C37.1432 44.0052 37.8224 43.874 38.2583 43.7217C38.2625 43.5651 38.2646 43.4657 38.2646 43.4233C38.2646 42.9578 38.1567 42.6299 37.9409 42.4395C37.6489 42.1813 37.2151 42.0522 36.6396 42.0522C36.1022 42.0522 35.7044 42.1475 35.4463 42.3379C35.1923 42.5241 35.004 42.8563 34.8813 43.3345L33.7641 43.1821C33.8657 42.7039 34.0328 42.3188 34.2656 42.0269C34.4983 41.7306 34.8348 41.5042 35.2749 41.3477C35.715 41.1868 36.2249 41.1064 36.8046 41.1064C37.3802 41.1064 37.8478 41.1742 38.2075 41.3096C38.5672 41.445 38.8317 41.6164 39.0009 41.8237C39.1702 42.0269 39.2887 42.285 39.3564 42.5981C39.3945 42.7928 39.4135 43.144 39.4135 43.6519V45.1753C39.4135 46.2375 39.4368 46.9103 39.4834 47.1938C39.5341 47.4731 39.6315 47.7419 39.7754 48H38.582C38.4635 47.763 38.3873 47.4858 38.3535 47.1685ZM38.2583 44.6167C37.8435 44.786 37.2215 44.9299 36.3921 45.0483C35.9223 45.116 35.5901 45.1922 35.3955 45.2769C35.2008 45.3615 35.0506 45.4863 34.9448 45.6514C34.839 45.8122 34.7861 45.992 34.7861 46.1909C34.7861 46.4956 34.9004 46.7495 35.1289 46.9526C35.3616 47.1558 35.7002 47.2573 36.1445 47.2573C36.5846 47.2573 36.976 47.1621 37.3188 46.9717C37.6616 46.777 37.9134 46.5125 38.0742 46.1782C38.1969 45.9201 38.2583 45.5392 38.2583 45.0356V44.6167Z" fill="#009646"/>
<path d="M41.1972 41.2588H42.3398V44.0645H45.5073V41.2588H46.6499V48H45.5073V45.0103H42.3398V48H41.1972V41.2588Z" fill="#009646"/>
<path d="M52.7754 47.1685C52.3522 47.5282 51.9438 47.7821 51.5503 47.9302C51.1609 48.0783 50.742 48.1523 50.2934 48.1523C49.5529 48.1523 48.9837 47.9725 48.5859 47.6128C48.1881 47.2489 47.9892 46.7855 47.9892 46.2227C47.9892 45.8926 48.0633 45.5921 48.2114 45.3213C48.3637 45.0462 48.5605 44.8262 48.8017 44.6611C49.0472 44.4961 49.3222 44.3713 49.6269 44.2866C49.8512 44.2274 50.1897 44.1702 50.6425 44.1152C51.5651 44.0052 52.2443 43.874 52.6801 43.7217C52.6844 43.5651 52.6865 43.4657 52.6865 43.4233C52.6865 42.9578 52.5786 42.6299 52.3628 42.4395C52.0708 42.1813 51.637 42.0522 51.0615 42.0522C50.524 42.0522 50.1263 42.1475 49.8681 42.3379C49.6142 42.5241 49.4259 42.8563 49.3032 43.3345L48.186 43.1821C48.2876 42.7039 48.4547 42.3188 48.6875 42.0269C48.9202 41.7306 49.2566 41.5042 49.6967 41.3477C50.1368 41.1868 50.6468 41.1064 51.2265 41.1064C51.802 41.1064 52.2697 41.1742 52.6294 41.3096C52.9891 41.445 53.2535 41.6164 53.4228 41.8237C53.5921 42.0269 53.7106 42.285 53.7783 42.5981C53.8164 42.7928 53.8354 43.144 53.8354 43.6519V45.1753C53.8354 46.2375 53.8587 46.9103 53.9052 47.1938C53.956 47.4731 54.0533 47.7419 54.1972 48H53.0039C52.8854 47.763 52.8092 47.4858 52.7754 47.1685ZM52.6801 44.6167C52.2654 44.786 51.6434 44.9299 50.8139 45.0483C50.3442 45.116 50.012 45.1922 49.8173 45.2769C49.6227 45.3615 49.4725 45.4863 49.3667 45.6514C49.2609 45.8122 49.208 45.992 49.208 46.1909C49.208 46.4956 49.3222 46.7495 49.5507 46.9526C49.7835 47.1558 50.122 47.2573 50.5664 47.2573C51.0065 47.2573 51.3979 47.1621 51.7407 46.9717C52.0835 46.777 52.3352 46.5125 52.4961 46.1782C52.6188 45.9201 52.6801 45.5392 52.6801 45.0356V44.6167Z" fill="#009646"/>
<path d="M265 17C265 24.732 258.732 31 251 31C243.268 31 237 24.732 237 17C237 9.26801 243.268 3 251 3C258.732 3 265 9.26801 265 17Z" fill="#FBED9E"/>
<path d="M156 16H237V18H156V16Z" fill="url(#paint0_linear_205_247)"/>
<path d="M250.795 24.2344C248.695 24.2344 247.172 23.4824 246.322 22.0371C246.097 21.6465 246 21.2949 246 20.9141C246 20.4258 246.303 20.0938 246.81 20.0938C247.211 20.0938 247.435 20.3086 247.621 20.7871C248.09 21.998 249.095 22.7109 250.795 22.7109C252.65 22.7109 253.89 21.6562 253.9 20.1816C253.91 18.4434 252.67 17.4668 250.687 17.4668H249.564C249.095 17.4668 248.773 17.1641 248.773 16.7246C248.773 16.2852 249.095 15.9824 249.564 15.9824H250.609C252.289 15.9824 253.461 14.9473 253.461 13.541C253.461 12.1445 252.582 11.1973 250.775 11.1973C249.222 11.1973 248.373 11.8516 247.865 13.1309C247.689 13.6387 247.513 13.8242 247.074 13.8242C246.576 13.8242 246.293 13.5312 246.293 13.0234C246.293 12.623 246.381 12.2715 246.586 11.8906C247.328 10.4844 248.822 9.67383 250.775 9.67383C253.597 9.67383 255.228 11.2949 255.228 13.3066C255.228 15.0547 254.008 16.2559 252.24 16.627V16.666C254.291 16.8418 255.687 18.1211 255.687 20.123C255.687 22.5449 253.558 24.2344 250.795 24.2344Z" fill="#766712"/>
<defs>
<linearGradient id="paint0_linear_205_247" x1="154.462" y1="17" x2="239.563" y2="17" gradientUnits="userSpaceOnUse">
<stop stop-color="#40934F"/>
<stop offset="1" stop-color="#FBED9E"/>
</linearGradient>
</defs>
</svg>
