<svg width="16" height="16" viewBox="0 0 16 16" fill="none" xmlns="http://www.w3.org/2000/svg">
<path d="M12 4.5C12 6.98528 9.98528 9 7.5 9C5.01472 9 3 6.98528 3 4.5C3 2.01472 5.01472 0 7.5 0C9.98528 0 12 2.01472 12 4.5Z" fill="url(#paint0_linear_15_272)"/>
<path d="M7.5 0C5.025 0 3 2.025 3 4.5C3 6.975 5.025 9 7.5 9C9.975 9 12 6.975 12 4.5C12 2.025 9.975 0 7.5 0ZM7.5 8C6.65625 8 5.61875 8.00625 5 7.5C5.3375 7.05 5.7 6.075 5.3625 5.625C5.08125 5.23125 4.63125 4.8375 4.63125 4.5C4.63125 4.05 5.7 3.88125 6.0375 3.43125C6.43125 2.98125 5.75625 1.95 5.3625 1.5C5.8125 1.21875 6.88125 1.05625 7.5 1C7.6125 1.28125 7.725 1.74375 7.89375 1.96875C8.175 2.41875 8.23125 2.7 8.625 2.7C8.7375 2.7 9.9375 2.66875 10.5 2.5C10.8375 3.0625 11 3.76875 11 4.5C11 6.35625 10 8 7.5 8Z" fill="#54D074"/>
<path d="M8.73752 3.76855C8.06252 3.76855 7.44377 4.21855 7.50002 4.83731C7.66877 6.24356 7.21877 6.7498 7.83752 7.03105C8.56877 7.3123 10.0313 5.96231 9.97502 4.83731C9.97502 4.21855 9.46877 3.76855 8.73752 3.76855Z" fill="#77D185"/>
<path fill-rule="evenodd" clip-rule="evenodd" d="M7.5 8C9.433 8 11 6.433 11 4.5C11 2.567 9.433 1 7.5 1C5.567 1 4 2.567 4 4.5C4 6.433 5.567 8 7.5 8ZM7.5 9C9.98528 9 12 6.98528 12 4.5C12 2.01472 9.98528 0 7.5 0C5.01472 0 3 2.01472 3 4.5C3 6.98528 5.01472 9 7.5 9Z" fill="#3494D5"/>
<path fill-rule="evenodd" clip-rule="evenodd" d="M2.5 10C1.67163 10 1 10.6714 1 11.5V15H2V14H4V15H5V11.5C5 10.6714 4.32837 10 3.5 10H2.5ZM3 11C2.44775 11 2 11.4478 2 12V13H4V12C4 11.4478 3.55225 11 3 11Z" fill="#273C4A"/>
<path fill-rule="evenodd" clip-rule="evenodd" d="M10 11.5C10 10.6714 9.32837 10 8.5 10H6V13H8.5C9.32837 13 10 12.3286 10 11.5ZM9 11.5C9 11.2236 8.77612 11 8.5 11H7V12H8.5C8.77612 12 9 11.7764 9 11.5Z" fill="#273C4A"/>
<path fill-rule="evenodd" clip-rule="evenodd" d="M10 13.5C10 12.6714 9.32837 12 8.5 12H6V15H8.5C9.32837 15 10 14.3286 10 13.5ZM9 13.5C9 13.2236 8.77612 13 8.5 13H7V14H8.5C8.77612 14 9 13.7764 9 13.5Z" fill="#273C4A"/>
<path d="M12.5 10C11.6716 10 11 10.6714 11 11.5V13.5C11 14.3286 11.6716 15 12.5 15H13.5C14.3284 15 15 14.3286 15 13.5V13H14C14 13.5522 13.5522 14 13 14C12.4478 14 12 13.5522 12 13V12C12 11.4478 12.4478 11 13 11C13.5522 11 14 11.4478 14 12H15V11.5C15 10.6714 14.3284 10 13.5 10H12.5Z" fill="#273C4A"/>
<defs>
<linearGradient id="paint0_linear_15_272" x1="7.5" y1="0" x2="7.5" y2="9" gradientUnits="userSpaceOnUse">
<stop stop-color="#2F9FFF"/>
<stop offset="1" stop-color="#1679CE"/>
</linearGradient>
</defs>
</svg>
