<svg width="16" height="16" viewBox="0 0 16 16" fill="none" xmlns="http://www.w3.org/2000/svg">
<path d="M12 4.5C12 6.98528 9.98528 9 7.5 9C5.01472 9 3 6.98528 3 4.5C3 2.01472 5.01472 0 7.5 0C9.98528 0 12 2.01472 12 4.5Z" fill="url(#paint0_linear_15_246)"/>
<path d="M7.5 0C5.025 0 3 2.025 3 4.5C3 6.975 5.025 9 7.5 9C9.975 9 12 6.975 12 4.5C12 2.025 9.975 0 7.5 0ZM7.5 8C6.65625 8 5.61875 8.00625 5 7.5C5.3375 7.05 5.7 6.075 5.3625 5.625C5.08125 5.23125 4.63125 4.8375 4.63125 4.5C4.63125 4.05 5.7 3.88125 6.0375 3.43125C6.43125 2.98125 5.75625 1.95 5.3625 1.5C5.8125 1.21875 6.88125 1.05625 7.5 1C7.6125 1.28125 7.725 1.74375 7.89375 1.96875C8.175 2.41875 8.23125 2.7 8.625 2.7C8.7375 2.7 9.9375 2.66875 10.5 2.5C10.8375 3.0625 11 3.76875 11 4.5C11 6.35625 10 8 7.5 8Z" fill="#54D074"/>
<path d="M8.73752 3.76868C8.06252 3.76868 7.44377 4.21868 7.50002 4.83743C7.66877 6.24368 7.21877 6.74993 7.83752 7.03118C8.56877 7.31243 10.0313 5.96243 9.97502 4.83743C9.97502 4.21868 9.46877 3.76868 8.73752 3.76868Z" fill="#77D185"/>
<path fill-rule="evenodd" clip-rule="evenodd" d="M7.5 8C9.433 8 11 6.433 11 4.5C11 2.567 9.433 1 7.5 1C5.567 1 4 2.567 4 4.5C4 6.433 5.567 8 7.5 8ZM7.5 9C9.98528 9 12 6.98528 12 4.5C12 2.01472 9.98528 0 7.5 0C5.01472 0 3 2.01472 3 4.5C3 6.98528 5.01472 9 7.5 9Z" fill="#3494D5"/>
<rect opacity="0.8" y="9" width="7" height="7" rx="2.5" fill="#6E7880" fill-opacity="0.85"/>
<rect opacity="0.8" x="9" y="9" width="7" height="7" rx="2.5" fill="#6E7880" fill-opacity="0.85"/>
<rect x="1" y="10" width="5" height="5" rx="2" fill="#FCFCFC"/>
<rect x="10" y="10" width="5" height="5" rx="2" fill="#FCFCFC"/>
<rect opacity="0.9" x="2" y="11" width="12" height="3" rx="1" fill="#818A91"/>
<rect x="5" y="12" width="6" height="1" rx="0.5" fill="#FCFCFC"/>
<rect opacity="0.5" x="3" y="12" width="1" height="1" rx="0.5" fill="#FCFCFC"/>
<rect opacity="0.5" x="12" y="12" width="1" height="1" rx="0.5" fill="#FCFCFC"/>
<defs>
<linearGradient id="paint0_linear_15_246" x1="7.5" y1="0" x2="7.5" y2="9" gradientUnits="userSpaceOnUse">
<stop stop-color="#2F9FFF"/>
<stop offset="1" stop-color="#1679CE"/>
</linearGradient>
</defs>
</svg>
