<svg width="16" height="16" viewBox="0 0 16 16" fill="none" xmlns="http://www.w3.org/2000/svg">
<circle cx="8" cy="8" r="8" fill="#009646"/>
<path d="M11.0173 6.02188V6.28643C11.0173 7.55823 11.5249 8.36812 12.353 9C12.9466 9.45293 13.0216 10.0272 13.0165 10.5003C13.0136 10.7765 12.7761 11 12.5 11H3.49999C3.22384 11 2.98641 10.7765 2.98344 10.5003C2.97836 10.0275 3.05346 9.45352 3.64696 9C4.57622 8.28991 4.98264 7.55823 4.98264 6.28643V6.02188C4.98264 3.80091 6.33374 2.75 7.99999 2.75C9.66623 2.75 11.0173 3.80091 11.0173 6.02188Z" fill="white"/>
<path d="M8.71427 2.75C8.71427 3.16421 8.39448 3.5 7.99999 3.5C7.6055 3.5 7.2857 3.16421 7.2857 2.75C7.2857 2.33579 7.6055 2 7.99999 2C8.39448 2 8.71427 2.33579 8.71427 2.75Z" fill="white"/>
<path d="M8 14C9.10455 14 10 13.1046 10 12H6C6 13.1046 6.89545 14 8 14Z" fill="white"/>
</svg>
