<svg width="16" height="16" viewBox="0 0 16 16" fill="none" xmlns="http://www.w3.org/2000/svg">
<path d="M3 1.5C3 1.22386 3.22386 1 3.5 1H14.5C14.7761 1 15 1.22386 15 1.5V2H3V1.5Z" fill="#FDFDFD"/>
<path d="M6 12H12V13H6V12Z" fill="#FDFDFD"/>
<path d="M3 2H4V3.5C4 3.77614 3.77614 4 3.5 4H3V2Z" fill="#FDFDFD"/>
<path d="M14 2H15V4H14.5C14.2239 4 14 3.77614 14 3.5V2Z" fill="#FDFDFD"/>
<path d="M8 2H10V13H8V2Z" fill="#FDFDFD"/>
<path d="M6 11.5H5.5V12V13V13.5H6H7.5H8H10H10.5H12H12.5V13V12V11.5H12H10.5V2.5H13.5V3.5C13.5 4.05228 13.9477 4.5 14.5 4.5H15H15.5V4V2V1.5C15.5 0.947715 15.0523 0.5 14.5 0.5H3.5C2.94772 0.5 2.5 0.947715 2.5 1.5V2V4V4.5H3H3.5C4.05228 4.5 4.5 4.05228 4.5 3.5V2.5H7.5V11.5H6Z" stroke="black" stroke-opacity="0.38"/>
<rect x="2.85291" y="16.647" width="9" height="9" rx="4.5" transform="rotate(-120 2.85291 16.647)" fill="url(#paint0_angular_21_193)"/>
<circle opacity="0.7" cx="4.5" cy="10.5" r="3.5" fill="url(#paint1_radial_21_193)"/>
<defs>
<radialGradient id="paint0_angular_21_193" cx="0" cy="0" r="1" gradientUnits="userSpaceOnUse" gradientTransform="translate(7.35291 21.147) rotate(135) scale(6.36396 6.74456)">
<stop stop-color="#000AFF"/>
<stop offset="0.203125" stop-color="#FF0000"/>
<stop offset="0.359375" stop-color="#04E7D9"/>
<stop offset="0.546875" stop-color="#FFD707"/>
<stop offset="0.733335" stop-color="#FF007A"/>
<stop offset="0.797536" stop-color="#3EF211"/>
<stop offset="0.835935" stop-color="#0FE76B"/>
<stop offset="0.863674" stop-color="#10FE28"/>
<stop offset="0.898551" stop-color="#124EF1"/>
<stop offset="0.93444" stop-color="#2343CD"/>
<stop offset="0.979067" stop-color="#0F50F7"/>
</radialGradient>
<radialGradient id="paint1_radial_21_193" cx="0" cy="0" r="1" gradientUnits="userSpaceOnUse" gradientTransform="translate(4.5 10.5) rotate(90) scale(3.5)">
<stop stop-color="white"/>
<stop offset="1" stop-color="white" stop-opacity="0.4"/>
</radialGradient>
</defs>
</svg>
