<svg width="16" height="16" viewBox="0 0 16 16" fill="none" xmlns="http://www.w3.org/2000/svg">
<g opacity="0.5">
<path fill-rule="evenodd" clip-rule="evenodd" d="M12.1464 2.14645C12.3417 1.95118 12.6583 1.95118 12.8536 2.14645L15.8536 5.14645C16.0488 5.34171 16.0488 5.65829 15.8536 5.85355L12.8536 8.85355C12.6583 9.04882 12.3417 9.04882 12.1464 8.85355C11.9512 8.65829 11.9512 8.34171 12.1464 8.14645L14.7929 5.5L12.1464 2.85355C11.9512 2.65829 11.9512 2.34171 12.1464 2.14645Z" fill="#333333"/>
<path fill-rule="evenodd" clip-rule="evenodd" d="M6 5.5C6 5.22386 6.22386 5 6.5 5H6.94444C7.22059 5 7.44444 5.22386 7.44444 5.5C7.44444 5.77614 7.22059 6 6.94444 6H6.5C6.22386 6 6 5.77614 6 5.5ZM8.22222 5.5C8.22222 5.22386 8.44608 5 8.72222 5H9.61111C9.88725 5 10.1111 5.22386 10.1111 5.5C10.1111 5.77614 9.88725 6 9.61111 6H8.72222C8.44608 6 8.22222 5.77614 8.22222 5.5ZM10.8889 5.5C10.8889 5.22386 11.1127 5 11.3889 5H12.2778C12.5539 5 12.7778 5.22386 12.7778 5.5C12.7778 5.77614 12.5539 6 12.2778 6H11.3889C11.1127 6 10.8889 5.77614 10.8889 5.5ZM13.5556 5.5C13.5556 5.22386 13.7794 5 14.0556 5H14.5C14.7761 5 15 5.22386 15 5.5C15 5.77614 14.7761 6 14.5 6H14.0556C13.7794 6 13.5556 5.77614 13.5556 5.5Z" fill="#333333"/>
<path fill-rule="evenodd" clip-rule="evenodd" d="M4.85355 7.14645C5.04882 7.34171 5.04882 7.65829 4.85355 7.85355L2.20711 10.5L4.85355 13.1464C5.04882 13.3417 5.04882 13.6583 4.85355 13.8536C4.65829 14.0488 4.34171 14.0488 4.14645 13.8536L1.14645 10.8536C0.951184 10.6583 0.951184 10.3417 1.14645 10.1464L4.14645 7.14645C4.34171 6.95118 4.65829 6.95118 4.85355 7.14645Z" fill="#333333"/>
<path fill-rule="evenodd" clip-rule="evenodd" d="M2 10.5C2 10.2239 2.22386 10 2.5 10H2.94444C3.22059 10 3.44444 10.2239 3.44444 10.5C3.44444 10.7761 3.22059 11 2.94444 11H2.5C2.22386 11 2 10.7761 2 10.5ZM4.22222 10.5C4.22222 10.2239 4.44608 10 4.72222 10H5.61111C5.88725 10 6.11111 10.2239 6.11111 10.5C6.11111 10.7761 5.88725 11 5.61111 11H4.72222C4.44608 11 4.22222 10.7761 4.22222 10.5ZM6.88889 10.5C6.88889 10.2239 7.11275 10 7.38889 10H8.27778C8.55392 10 8.77778 10.2239 8.77778 10.5C8.77778 10.7761 8.55392 11 8.27778 11H7.38889C7.11275 11 6.88889 10.7761 6.88889 10.5ZM9.55556 10.5C9.55556 10.2239 9.77941 10 10.0556 10H10.5C10.7761 10 11 10.2239 11 10.5C11 10.7761 10.7761 11 10.5 11H10.0556C9.77941 11 9.55556 10.7761 9.55556 10.5Z" fill="#333333"/>
</g>
</svg>
