<svg width="288" height="65" viewBox="0 0 288 65" fill="none" xmlns="http://www.w3.org/2000/svg">
<g clip-path="url(#clip0_205_47)">
<rect width="288" height="65" fill="white"/>
<path d="M10.9951 44.7373L12.2266 45.0483C11.9684 46.0597 11.5029 46.832 10.8301 47.3652C10.1615 47.8942 9.34261 48.1587 8.37354 48.1587C7.37061 48.1587 6.55387 47.9556 5.92334 47.5493C5.29704 47.1388 4.81885 46.5464 4.48877 45.772C4.16292 44.9976 4 44.166 4 43.2773C4 42.3083 4.18408 41.464 4.55225 40.7446C4.92464 40.021 5.4515 39.473 6.13281 39.1006C6.81836 38.724 7.57162 38.5356 8.39258 38.5356C9.32357 38.5356 10.1064 38.7726 10.7412 39.2466C11.376 39.7205 11.8182 40.387 12.0679 41.2461L10.8555 41.5317C10.6396 40.8547 10.3265 40.3617 9.91602 40.0527C9.50553 39.7438 8.98926 39.5894 8.36719 39.5894C7.65202 39.5894 7.05322 39.7607 6.5708 40.1035C6.09261 40.4463 5.75619 40.9076 5.56152 41.4873C5.36686 42.0628 5.26953 42.6574 5.26953 43.271C5.26953 44.0623 5.38379 44.7542 5.61231 45.3467C5.84505 45.9349 6.20475 46.375 6.69141 46.667C7.17806 46.959 7.70492 47.105 8.27197 47.105C8.96175 47.105 9.54574 46.9061 10.0239 46.5083C10.5021 46.1105 10.8258 45.5202 10.9951 44.7373Z" fill="#009646"/>
<path d="M13.1787 44.6294C13.1787 43.381 13.5257 42.4564 14.2197 41.8555C14.7994 41.3561 15.5061 41.1064 16.3398 41.1064C17.2666 41.1064 18.024 41.4111 18.6123 42.0205C19.2005 42.6257 19.4946 43.4635 19.4946 44.5342C19.4946 45.4017 19.3634 46.0851 19.101 46.5845C18.8429 47.0796 18.4642 47.4647 17.9648 47.7397C17.4697 48.0148 16.928 48.1523 16.3398 48.1523C15.3961 48.1523 14.6323 47.8498 14.0483 47.2446C13.4685 46.6395 13.1787 45.7677 13.1787 44.6294ZM14.353 44.6294C14.353 45.4927 14.5413 46.1401 14.9179 46.5718C15.2946 46.9992 15.7685 47.2129 16.3398 47.2129C16.9069 47.2129 17.3787 46.9971 17.7553 46.5654C18.132 46.1338 18.3203 45.4757 18.3203 44.5913C18.3203 43.7576 18.1298 43.1271 17.749 42.6997C17.3724 42.2681 16.9026 42.0522 16.3398 42.0522C15.7685 42.0522 15.2946 42.266 14.9179 42.6934C14.5413 43.1208 14.353 43.7661 14.353 44.6294Z" fill="#009646"/>
<path d="M22.1796 44.9531V44.0581C22.6621 44.0539 22.99 44.0348 23.1635 44.001C23.3413 43.9671 23.5084 43.8656 23.665 43.6963C23.8216 43.527 23.8999 43.3154 23.8999 43.0615C23.8999 42.7526 23.7962 42.5072 23.5888 42.3252C23.3857 42.139 23.1212 42.0459 22.7954 42.0459C22.1521 42.0459 21.7015 42.4246 21.4433 43.1821L20.3579 43.0044C20.6964 41.7391 21.5131 41.1064 22.8081 41.1064C23.5275 41.1064 24.0903 41.3032 24.4965 41.6968C24.907 42.0903 25.1123 42.5601 25.1123 43.106C25.1123 43.6561 24.8457 44.0941 24.3125 44.4199C24.651 44.6019 24.9049 44.8346 25.0742 45.1182C25.2435 45.3975 25.3281 45.7297 25.3281 46.1147C25.3281 46.7199 25.108 47.2108 24.6679 47.5874C24.2278 47.964 23.6121 48.1523 22.8208 48.1523C21.2846 48.1523 20.3938 47.4689 20.1484 46.1021L21.2212 45.8735C21.3185 46.3052 21.5153 46.6395 21.8115 46.8765C22.1119 47.1134 22.4547 47.2319 22.8398 47.2319C23.2249 47.2319 23.5444 47.124 23.7983 46.9082C24.0564 46.6882 24.1855 46.4089 24.1855 46.0703C24.1855 45.8079 24.1051 45.5794 23.9443 45.3848C23.7835 45.1901 23.6121 45.0695 23.4301 45.0229C23.2482 44.9722 22.9181 44.9468 22.4399 44.9468C22.4018 44.9468 22.3151 44.9489 22.1796 44.9531Z" fill="#009646"/>
<path d="M27.2641 41.2588H31.9614V47.0605H32.6914V49.9106H31.7519V48H26.4453V49.9106H25.5058V47.0605H26.1088C26.9129 45.9688 27.298 44.0348 27.2641 41.2588ZM28.2163 42.2046C28.1316 44.3924 27.7931 46.0111 27.2006 47.0605H30.8252V42.2046H28.2163Z" fill="#009646"/>
<path d="M38.3535 47.1685C37.9303 47.5282 37.5219 47.7821 37.1284 47.9302C36.7391 48.0783 36.3201 48.1523 35.8715 48.1523C35.131 48.1523 34.5618 47.9725 34.164 47.6128C33.7662 47.2489 33.5673 46.7855 33.5673 46.2227C33.5673 45.8926 33.6414 45.5921 33.7895 45.3213C33.9419 45.0462 34.1386 44.8262 34.3798 44.6611C34.6253 44.4961 34.9004 44.3713 35.205 44.2866C35.4293 44.2274 35.7679 44.1702 36.2207 44.1152C37.1432 44.0052 37.8224 43.874 38.2583 43.7217C38.2625 43.5651 38.2646 43.4657 38.2646 43.4233C38.2646 42.9578 38.1567 42.6299 37.9409 42.4395C37.6489 42.1813 37.2151 42.0522 36.6396 42.0522C36.1022 42.0522 35.7044 42.1475 35.4463 42.3379C35.1923 42.5241 35.004 42.8563 34.8813 43.3345L33.7641 43.1821C33.8657 42.7039 34.0328 42.3188 34.2656 42.0269C34.4983 41.7306 34.8348 41.5042 35.2749 41.3477C35.715 41.1868 36.2249 41.1064 36.8046 41.1064C37.3802 41.1064 37.8478 41.1742 38.2075 41.3096C38.5672 41.445 38.8317 41.6164 39.0009 41.8237C39.1702 42.0269 39.2887 42.285 39.3564 42.5981C39.3945 42.7928 39.4135 43.144 39.4135 43.6519V45.1753C39.4135 46.2375 39.4368 46.9103 39.4834 47.1938C39.5341 47.4731 39.6315 47.7419 39.7754 48H38.582C38.4635 47.763 38.3873 47.4858 38.3535 47.1685ZM38.2583 44.6167C37.8435 44.786 37.2215 44.9299 36.3921 45.0483C35.9223 45.116 35.5901 45.1922 35.3955 45.2769C35.2008 45.3615 35.0506 45.4863 34.9448 45.6514C34.839 45.8122 34.7861 45.992 34.7861 46.1909C34.7861 46.4956 34.9004 46.7495 35.1289 46.9526C35.3616 47.1558 35.7002 47.2573 36.1445 47.2573C36.5846 47.2573 36.976 47.1621 37.3188 46.9717C37.6616 46.777 37.9134 46.5125 38.0742 46.1782C38.1969 45.9201 38.2583 45.5392 38.2583 45.0356V44.6167Z" fill="#009646"/>
<path d="M41.1972 41.2588H42.3398V44.0645H45.5073V41.2588H46.6499V48H45.5073V45.0103H42.3398V48H41.1972V41.2588Z" fill="#009646"/>
<path d="M52.7754 47.1685C52.3522 47.5282 51.9438 47.7821 51.5503 47.9302C51.1609 48.0783 50.742 48.1523 50.2934 48.1523C49.5529 48.1523 48.9837 47.9725 48.5859 47.6128C48.1881 47.2489 47.9892 46.7855 47.9892 46.2227C47.9892 45.8926 48.0633 45.5921 48.2114 45.3213C48.3637 45.0462 48.5605 44.8262 48.8017 44.6611C49.0472 44.4961 49.3222 44.3713 49.6269 44.2866C49.8512 44.2274 50.1897 44.1702 50.6425 44.1152C51.5651 44.0052 52.2443 43.874 52.6801 43.7217C52.6844 43.5651 52.6865 43.4657 52.6865 43.4233C52.6865 42.9578 52.5786 42.6299 52.3628 42.4395C52.0708 42.1813 51.637 42.0522 51.0615 42.0522C50.524 42.0522 50.1263 42.1475 49.8681 42.3379C49.6142 42.5241 49.4259 42.8563 49.3032 43.3345L48.186 43.1821C48.2876 42.7039 48.4547 42.3188 48.6875 42.0269C48.9202 41.7306 49.2566 41.5042 49.6967 41.3477C50.1368 41.1868 50.6468 41.1064 51.2265 41.1064C51.802 41.1064 52.2697 41.1742 52.6294 41.3096C52.9891 41.445 53.2535 41.6164 53.4228 41.8237C53.5921 42.0269 53.7106 42.285 53.7783 42.5981C53.8164 42.7928 53.8354 43.144 53.8354 43.6519V45.1753C53.8354 46.2375 53.8587 46.9103 53.9052 47.1938C53.956 47.4731 54.0533 47.7419 54.1972 48H53.0039C52.8854 47.763 52.8092 47.4858 52.7754 47.1685ZM52.6801 44.6167C52.2654 44.786 51.6434 44.9299 50.8139 45.0483C50.3442 45.116 50.012 45.1922 49.8173 45.2769C49.6227 45.3615 49.4725 45.4863 49.3667 45.6514C49.2609 45.8122 49.208 45.992 49.208 46.1909C49.208 46.4956 49.3222 46.7495 49.5507 46.9526C49.7835 47.1558 50.122 47.2573 50.5664 47.2573C51.0065 47.2573 51.3979 47.1621 51.7407 46.9717C52.0835 46.777 52.3352 46.5125 52.4961 46.1782C52.6188 45.9201 52.6801 45.5392 52.6801 45.0356V44.6167Z" fill="#009646"/>
<path d="M104 38.6943H111.318V48H110.081V39.7925H105.231V48H104V38.6943Z" fill="#ADBFCC"/>
<path d="M112.759 44.6294C112.759 43.381 113.106 42.4564 113.8 41.8555C114.38 41.3561 115.087 41.1064 115.921 41.1064C116.847 41.1064 117.605 41.4111 118.193 42.0205C118.781 42.6257 119.075 43.4635 119.075 44.5342C119.075 45.4017 118.944 46.0851 118.682 46.5845C118.424 47.0796 118.045 47.4647 117.546 47.7397C117.05 48.0148 116.509 48.1523 115.921 48.1523C114.977 48.1523 114.213 47.8498 113.629 47.2446C113.049 46.6395 112.759 45.7677 112.759 44.6294ZM113.934 44.6294C113.934 45.4927 114.122 46.1401 114.499 46.5718C114.875 46.9992 115.349 47.2129 115.921 47.2129C116.488 47.2129 116.959 46.9971 117.336 46.5654C117.713 46.1338 117.901 45.4757 117.901 44.5913C117.901 43.7576 117.711 43.1271 117.33 42.6997C116.953 42.2681 116.483 42.0522 115.921 42.0522C115.349 42.0522 114.875 42.266 114.499 42.6934C114.122 43.1208 113.934 43.7661 113.934 44.6294Z" fill="#ADBFCC"/>
<path d="M121.03 41.2588H125.728V47.0605H126.458V49.9106H125.518V48H120.212V49.9106H119.272V47.0605H119.875C120.679 45.9688 121.064 44.0348 121.03 41.2588ZM121.983 42.2046C121.898 44.3924 121.559 46.0111 120.967 47.0605H124.591V42.2046H121.983Z" fill="#ADBFCC"/>
<path d="M127.727 41.2588H133.046V48H131.904V42.2046H128.87V48H127.727V41.2588Z" fill="#ADBFCC"/>
<path d="M134.767 41.2588H135.909V46.4004L139.077 41.2588H140.308V48H139.166V42.8901L135.998 48H134.767V41.2588Z" fill="#ADBFCC"/>
<path d="M146.427 45.5308L147.551 45.6768C147.428 46.4512 147.113 47.0584 146.605 47.4985C146.102 47.9344 145.482 48.1523 144.745 48.1523C143.823 48.1523 143.08 47.8519 142.517 47.251C141.959 46.6458 141.679 45.7804 141.679 44.6548C141.679 43.9269 141.8 43.29 142.041 42.7441C142.282 42.1982 142.648 41.7899 143.139 41.519C143.634 41.244 144.172 41.1064 144.752 41.1064C145.484 41.1064 146.082 41.2926 146.548 41.665C147.013 42.0332 147.312 42.5579 147.443 43.2393L146.332 43.4106C146.226 42.9578 146.038 42.6172 145.767 42.3887C145.501 42.1602 145.177 42.0459 144.796 42.0459C144.22 42.0459 143.753 42.2533 143.393 42.668C143.033 43.0785 142.854 43.7301 142.854 44.623C142.854 45.5286 143.027 46.1867 143.374 46.5972C143.721 47.0076 144.174 47.2129 144.733 47.2129C145.181 47.2129 145.556 47.0754 145.856 46.8003C146.157 46.5252 146.347 46.1021 146.427 45.5308Z" fill="#ADBFCC"/>
<path d="M152.927 47.1685C152.504 47.5282 152.096 47.7821 151.702 47.9302C151.313 48.0783 150.894 48.1523 150.445 48.1523C149.705 48.1523 149.136 47.9725 148.738 47.6128C148.34 47.2489 148.141 46.7855 148.141 46.2227C148.141 45.8926 148.215 45.5921 148.363 45.3213C148.516 45.0462 148.713 44.8262 148.954 44.6611C149.199 44.4961 149.474 44.3713 149.779 44.2866C150.003 44.2274 150.342 44.1702 150.795 44.1152C151.717 44.0052 152.396 43.874 152.832 43.7217C152.836 43.5651 152.838 43.4657 152.838 43.4233C152.838 42.9578 152.731 42.6299 152.515 42.4395C152.223 42.1813 151.789 42.0522 151.213 42.0522C150.676 42.0522 150.278 42.1475 150.02 42.3379C149.766 42.5241 149.578 42.8563 149.455 43.3345L148.338 43.1821C148.44 42.7039 148.607 42.3188 148.839 42.0269C149.072 41.7306 149.409 41.5042 149.849 41.3477C150.289 41.1868 150.799 41.1064 151.379 41.1064C151.954 41.1064 152.422 41.1742 152.781 41.3096C153.141 41.445 153.406 41.6164 153.575 41.8237C153.744 42.0269 153.863 42.285 153.93 42.5981C153.968 42.7928 153.987 43.144 153.987 43.6519V45.1753C153.987 46.2375 154.011 46.9103 154.057 47.1938C154.108 47.4731 154.205 47.7419 154.349 48H153.156C153.037 47.763 152.961 47.4858 152.927 47.1685ZM152.832 44.6167C152.417 44.786 151.795 44.9299 150.966 45.0483C150.496 45.116 150.164 45.1922 149.969 45.2769C149.775 45.3615 149.624 45.4863 149.519 45.6514C149.413 45.8122 149.36 45.992 149.36 46.1909C149.36 46.4956 149.474 46.7495 149.703 46.9526C149.935 47.1558 150.274 47.2573 150.718 47.2573C151.158 47.2573 151.55 47.1621 151.893 46.9717C152.235 46.777 152.487 46.5125 152.648 46.1782C152.771 45.9201 152.832 45.5392 152.832 45.0356V44.6167Z" fill="#ADBFCC"/>
<path d="M155.771 41.2588H156.914V44.0645H160.081V41.2588H161.224V48H160.081V45.0103H156.914V48H155.771V41.2588Z" fill="#ADBFCC"/>
<path d="M162.95 41.2588H164.093V46.4004L167.26 41.2588H168.492V48H167.349V42.8901L164.182 48H162.95V41.2588Z" fill="#ADBFCC"/>
<path d="M174.827 45.8291L176.007 45.9751C175.821 46.6649 175.476 47.2002 174.973 47.5811C174.469 47.9619 173.826 48.1523 173.043 48.1523C172.057 48.1523 171.274 47.8498 170.694 47.2446C170.119 46.6353 169.831 45.7826 169.831 44.6865C169.831 43.5524 170.123 42.6722 170.707 42.0459C171.291 41.4196 172.049 41.1064 172.98 41.1064C173.881 41.1064 174.617 41.4132 175.189 42.0269C175.76 42.6405 176.046 43.5037 176.046 44.6167C176.046 44.6844 176.043 44.786 176.039 44.9214H171.012C171.054 45.6619 171.264 46.229 171.64 46.6226C172.017 47.0161 172.487 47.2129 173.049 47.2129C173.468 47.2129 173.826 47.1029 174.122 46.8828C174.418 46.6628 174.653 46.3115 174.827 45.8291ZM171.075 43.9819H174.839C174.789 43.4149 174.645 42.9896 174.408 42.7061C174.044 42.266 173.572 42.0459 172.992 42.0459C172.468 42.0459 172.025 42.2215 171.666 42.5728C171.31 42.924 171.113 43.3937 171.075 43.9819Z" fill="#ADBFCC"/>
<path d="M214 48V38.6943H217.51C218.128 38.6943 218.6 38.724 218.926 38.7832C219.383 38.8594 219.766 39.0054 220.075 39.2212C220.384 39.4328 220.631 39.7311 220.817 40.1162C221.008 40.5013 221.103 40.9245 221.103 41.3857C221.103 42.1771 220.851 42.8478 220.348 43.3979C219.844 43.9438 218.934 44.2168 217.618 44.2168H215.231V48H214ZM215.231 43.1187H217.637C218.433 43.1187 218.998 42.9705 219.332 42.6743C219.666 42.3781 219.833 41.9613 219.833 41.4238C219.833 41.0345 219.734 40.7023 219.535 40.4272C219.34 40.1479 219.082 39.9639 218.761 39.875C218.553 39.82 218.17 39.7925 217.612 39.7925H215.231V43.1187Z" fill="#ADBFCC"/>
<path d="M226.568 45.8291L227.749 45.9751C227.563 46.6649 227.218 47.2002 226.714 47.5811C226.211 47.9619 225.567 48.1523 224.785 48.1523C223.799 48.1523 223.016 47.8498 222.436 47.2446C221.86 46.6353 221.573 45.7826 221.573 44.6865C221.573 43.5524 221.865 42.6722 222.449 42.0459C223.033 41.4196 223.79 41.1064 224.721 41.1064C225.622 41.1064 226.359 41.4132 226.93 42.0269C227.501 42.6405 227.787 43.5037 227.787 44.6167C227.787 44.6844 227.785 44.786 227.781 44.9214H222.753C222.796 45.6619 223.005 46.229 223.382 46.6226C223.758 47.0161 224.228 47.2129 224.791 47.2129C225.21 47.2129 225.567 47.1029 225.864 46.8828C226.16 46.6628 226.395 46.3115 226.568 45.8291ZM222.817 43.9819H226.581C226.53 43.4149 226.386 42.9896 226.149 42.7061C225.785 42.266 225.314 42.0459 224.734 42.0459C224.209 42.0459 223.767 42.2215 223.407 42.5728C223.052 42.924 222.855 43.3937 222.817 43.9819Z" fill="#ADBFCC"/>
<path d="M229.196 41.2588H233.075V42.2046H230.339V48H229.196V41.2588Z" fill="#ADBFCC"/>
<path d="M233.938 41.2588H235.08V46.4004L238.248 41.2588H239.479V48H238.337V42.8901L235.169 48H233.938V41.2588Z" fill="#ADBFCC"/>
<path d="M245.599 45.5308L246.722 45.6768C246.599 46.4512 246.284 47.0584 245.776 47.4985C245.273 47.9344 244.653 48.1523 243.916 48.1523C242.994 48.1523 242.251 47.8519 241.688 47.251C241.13 46.6458 240.851 45.7804 240.851 44.6548C240.851 43.9269 240.971 43.29 241.212 42.7441C241.454 42.1982 241.82 41.7899 242.31 41.519C242.806 41.244 243.343 41.1064 243.923 41.1064C244.655 41.1064 245.254 41.2926 245.719 41.665C246.185 42.0332 246.483 42.5579 246.614 43.2393L245.503 43.4106C245.398 42.9578 245.209 42.6172 244.938 42.3887C244.672 42.1602 244.348 42.0459 243.967 42.0459C243.392 42.0459 242.924 42.2533 242.564 42.668C242.205 43.0785 242.025 43.7301 242.025 44.623C242.025 45.5286 242.198 46.1867 242.545 46.5972C242.892 47.0076 243.345 47.2129 243.904 47.2129C244.352 47.2129 244.727 47.0754 245.027 46.8003C245.328 46.5252 245.518 46.1021 245.599 45.5308Z" fill="#ADBFCC"/>
<path d="M247.084 41.2588H252.562V42.2046H250.391V48H249.255V42.2046H247.084V41.2588Z" fill="#ADBFCC"/>
<path d="M253.654 50.5835V41.2588H254.695V42.1348C254.94 41.792 255.217 41.536 255.526 41.3667C255.835 41.1932 256.21 41.1064 256.65 41.1064C257.225 41.1064 257.733 41.2546 258.173 41.5508C258.613 41.847 258.946 42.266 259.17 42.8076C259.394 43.3451 259.506 43.9354 259.506 44.5786C259.506 45.2684 259.381 45.8905 259.132 46.4448C258.886 46.995 258.527 47.4181 258.053 47.7144C257.583 48.0063 257.088 48.1523 256.567 48.1523C256.186 48.1523 255.844 48.0719 255.539 47.9111C255.239 47.7503 254.991 47.5472 254.796 47.3018V50.5835H253.654ZM254.688 44.6675C254.688 45.535 254.864 46.1761 255.215 46.5908C255.566 47.0055 255.992 47.2129 256.491 47.2129C256.999 47.2129 257.433 46.9992 257.792 46.5718C258.156 46.1401 258.338 45.4736 258.338 44.5723C258.338 43.7132 258.161 43.07 257.805 42.6426C257.454 42.2152 257.033 42.0015 256.542 42.0015C256.055 42.0015 255.624 42.23 255.247 42.687C254.875 43.1398 254.688 43.8 254.688 44.6675Z" fill="#ADBFCC"/>
<path d="M265.289 47.1685C264.866 47.5282 264.457 47.7821 264.064 47.9302C263.675 48.0783 263.256 48.1523 262.807 48.1523C262.066 48.1523 261.497 47.9725 261.1 47.6128C260.702 47.2489 260.503 46.7855 260.503 46.2227C260.503 45.8926 260.577 45.5921 260.725 45.3213C260.877 45.0462 261.074 44.8262 261.315 44.6611C261.561 44.4961 261.836 44.3713 262.141 44.2866C262.365 44.2274 262.703 44.1702 263.156 44.1152C264.079 44.0052 264.758 43.874 265.194 43.7217C265.198 43.5651 265.2 43.4657 265.2 43.4233C265.2 42.9578 265.092 42.6299 264.876 42.4395C264.584 42.1813 264.151 42.0522 263.575 42.0522C263.038 42.0522 262.64 42.1475 262.382 42.3379C262.128 42.5241 261.94 42.8563 261.817 43.3345L260.7 43.1821C260.801 42.7039 260.968 42.3188 261.201 42.0269C261.434 41.7306 261.77 41.5042 262.21 41.3477C262.65 41.1868 263.16 41.1064 263.74 41.1064C264.316 41.1064 264.783 41.1742 265.143 41.3096C265.503 41.445 265.767 41.6164 265.936 41.8237C266.106 42.0269 266.224 42.285 266.292 42.5981C266.33 42.7928 266.349 43.144 266.349 43.6519V45.1753C266.349 46.2375 266.372 46.9103 266.419 47.1938C266.47 47.4731 266.567 47.7419 266.711 48H265.518C265.399 47.763 265.323 47.4858 265.289 47.1685ZM265.194 44.6167C264.779 44.786 264.157 44.9299 263.328 45.0483C262.858 45.116 262.526 45.1922 262.331 45.2769C262.136 45.3615 261.986 45.4863 261.88 45.6514C261.775 45.8122 261.722 45.992 261.722 46.1909C261.722 46.4956 261.836 46.7495 262.064 46.9526C262.297 47.1558 262.636 47.2573 263.08 47.2573C263.52 47.2573 263.912 47.1621 264.254 46.9717C264.597 46.777 264.849 46.5125 265.01 46.1782C265.132 45.9201 265.194 45.5392 265.194 45.0356V44.6167Z" fill="#ADBFCC"/>
<path d="M268.145 41.2588H269.288V47.0605H272.449V41.2588H273.592V47.0605H274.328V49.9106H273.389V48H268.145V41.2588Z" fill="#ADBFCC"/>
<path d="M275.579 41.2588H276.721V46.4004L279.889 41.2588H281.12V48H279.977V42.8901L276.81 48H275.579V41.2588Z" fill="#ADBFCC"/>
<path d="M288.147 41.2588V48H287.011V45.3721H286.351C285.948 45.3721 285.648 45.425 285.449 45.5308C285.254 45.6323 284.969 45.9645 284.592 46.5273L283.596 48H282.18L283.412 46.1846C283.788 45.6302 284.163 45.3171 284.535 45.2451C283.883 45.1562 283.399 44.9214 283.081 44.5405C282.768 44.1597 282.612 43.7217 282.612 43.2266C282.612 42.6426 282.817 42.1686 283.227 41.8047C283.642 41.4408 284.241 41.2588 285.024 41.2588H288.147ZM287.011 42.2046H285.386C284.704 42.2046 284.264 42.3104 284.065 42.522C283.871 42.7336 283.773 42.9811 283.773 43.2646C283.773 43.6667 283.917 43.9629 284.205 44.1533C284.497 44.3395 285.011 44.4326 285.747 44.4326H287.011V42.2046Z" fill="#ADBFCC"/>
<path d="M29 0C20.163 0 13 7.163 13 16C13 24.837 20.163 32 29 32C37.837 32 45 24.837 45 16C44.974 7.174 37.826 0.026 29 0Z" fill="#14AA5A"/>
<path fill-rule="evenodd" clip-rule="evenodd" d="M29 29C36.1797 29 42 23.1797 42 16C42 8.8203 36.1797 3 29 3C21.8203 3 16 8.8203 16 16C16 23.1797 21.8203 29 29 29ZM29 30C36.732 30 43 23.732 43 16C43 8.26801 36.732 2 29 2C21.268 2 15 8.26801 15 16C15 23.732 21.268 30 29 30Z" fill="white"/>
<path d="M29.6426 23.1758C29.1445 23.1758 28.793 22.8047 28.793 22.2676V10.832H28.7539L26.1172 12.6777C25.9219 12.8145 25.7363 12.8828 25.5215 12.8828C25.1113 12.8828 24.8281 12.5898 24.8281 12.1602C24.8281 11.8477 24.9453 11.6426 25.3164 11.3789L28.334 9.2207C28.8809 8.83008 29.1152 8.73242 29.5156 8.73242C30.1211 8.73242 30.4922 9.10352 30.4922 9.71875V22.2676C30.4922 22.8047 30.1406 23.1758 29.6426 23.1758Z" fill="#F5F5F5"/>
<path d="M154 16C154 23.732 147.732 30 140 30C132.268 30 126 23.732 126 16C126 8.26801 132.268 2 140 2C147.732 2 154 8.26801 154 16Z" fill="#CFDAE2"/>
<path d="M136.279 23C135.762 23 135.43 22.7168 135.43 22.2773C135.43 21.916 135.508 21.7598 135.928 21.3203L140.439 16.6133C142.334 14.6309 142.783 13.8789 142.783 12.6973C142.783 11.2617 141.68 10.207 140.166 10.207C138.643 10.207 137.578 10.998 137.1 12.5117C136.982 12.873 136.787 13.127 136.309 13.127C135.791 13.127 135.498 12.8047 135.498 12.3457C135.498 12.2188 135.508 12.1113 135.527 11.9941C135.732 10.5488 137.285 8.67383 140.166 8.67383C142.705 8.67383 144.541 10.3145 144.541 12.5898C144.541 14.1328 143.838 15.2949 141.426 17.7656L137.891 21.3984V21.4375H144.043C144.541 21.4375 144.873 21.75 144.873 22.2188C144.873 22.6875 144.541 23 144.043 23H136.279Z" fill="#F5F5F5"/>
<path d="M265 16C265 23.732 258.732 30 251 30C243.268 30 237 23.732 237 16C237 8.26801 243.268 2 251 2C258.732 2 265 8.26801 265 16Z" fill="#CFDAE2"/>
<path d="M250.971 23.2344C248.871 23.2344 247.348 22.4824 246.498 21.0371C246.273 20.6465 246.176 20.2949 246.176 19.9141C246.176 19.4258 246.479 19.0938 246.986 19.0938C247.387 19.0938 247.611 19.3086 247.797 19.7871C248.266 20.998 249.271 21.7109 250.971 21.7109C252.826 21.7109 254.066 20.6562 254.076 19.1816C254.086 17.4434 252.846 16.4668 250.863 16.4668H249.74C249.271 16.4668 248.949 16.1641 248.949 15.7246C248.949 15.2852 249.271 14.9824 249.74 14.9824H250.785C252.465 14.9824 253.637 13.9473 253.637 12.541C253.637 11.1445 252.758 10.1973 250.951 10.1973C249.398 10.1973 248.549 10.8516 248.041 12.1309C247.865 12.6387 247.689 12.8242 247.25 12.8242C246.752 12.8242 246.469 12.5312 246.469 12.0234C246.469 11.623 246.557 11.2715 246.762 10.8906C247.504 9.48438 248.998 8.67383 250.951 8.67383C253.773 8.67383 255.404 10.2949 255.404 12.3066C255.404 14.0547 254.184 15.2559 252.416 15.627V15.666C254.467 15.8418 255.863 17.1211 255.863 19.123C255.863 21.5449 253.734 23.2344 250.971 23.2344Z" fill="#F5F5F5"/>
<path d="M45 15H124V17H45V15Z" fill="#CEDAE2"/>
<path d="M156 15H235V17H156V15Z" fill="#CEDAE2"/>
</g>
<defs>
<clipPath id="clip0_205_47">
<rect width="288" height="65" fill="white"/>
</clipPath>
</defs>
</svg>
