<svg width="60" height="65" viewBox="0 0 60 65" fill="none" xmlns="http://www.w3.org/2000/svg">
<rect width="60" height="65" fill="white"/>
<path d="M30 0C21.163 0 14 7.163 14 16C14 24.837 21.163 32 30 32C38.837 32 46 24.837 46 16C45.974 7.174 38.826 0.026 30 0ZM37.707 11.707L29.707 21.707C29.512 21.902 29.256 22 29 22C28.744 22 28.488 21.902 28.293 21.707L24.293 17.707C23.902 17.316 23.902 16.684 24.293 16.293C24.684 15.902 25.316 15.902 25.707 16.293L29 19.586L36.293 10.293C36.684 9.902 37.316 9.902 37.707 10.293C38.098 10.684 38.098 11.316 37.707 11.707Z" fill="#14AA5A"/>
<path fill-rule="evenodd" clip-rule="evenodd" d="M30 29C37.1797 29 43 23.1797 43 16C43 8.8203 37.1797 3 30 3C22.8203 3 17 8.8203 17 16C17 23.1797 22.8203 29 30 29ZM30 30C37.732 30 44 23.732 44 16C44 8.26801 37.732 2 30 2C22.268 2 16 8.26801 16 16C16 23.732 22.268 30 30 30Z" fill="white"/>
<path d="M0 48V38.6943H3.49121C4.20215 38.6943 4.77132 38.7896 5.19873 38.98C5.63037 39.1662 5.9668 39.4561 6.20801 39.8496C6.45345 40.2389 6.57617 40.6473 6.57617 41.0747C6.57617 41.4725 6.46826 41.847 6.25244 42.1982C6.03662 42.5495 5.71077 42.833 5.2749 43.0488C5.83773 43.2139 6.26937 43.4953 6.56982 43.8931C6.87451 44.2909 7.02685 44.7606 7.02685 45.3022C7.02685 45.7381 6.93375 46.1444 6.74756 46.521C6.56559 46.8934 6.33919 47.1812 6.06836 47.3843C5.79752 47.5874 5.45687 47.7419 5.04639 47.8477C4.64014 47.9492 4.14079 48 3.54834 48H0ZM1.23144 42.6045H3.24365C3.78955 42.6045 4.18099 42.5685 4.41797 42.4966C4.73112 42.4035 4.96598 42.249 5.12256 42.0332C5.28336 41.8174 5.36377 41.5465 5.36377 41.2207C5.36377 40.9118 5.28971 40.641 5.1416 40.4082C4.99349 40.1712 4.7819 40.0104 4.50683 39.9258C4.23177 39.8369 3.75993 39.7925 3.09131 39.7925H1.23144V42.6045ZM1.23144 46.9019H3.54834C3.94612 46.9019 4.22542 46.887 4.38623 46.8574C4.66976 46.8066 4.90674 46.722 5.09717 46.6035C5.2876 46.485 5.44417 46.3136 5.56689 46.0894C5.68961 45.8608 5.75097 45.5985 5.75097 45.3022C5.75097 44.9552 5.66211 44.6548 5.48437 44.4009C5.30664 44.1427 5.05908 43.9629 4.7417 43.8613C4.42855 43.7555 3.97575 43.7026 3.3833 43.7026H1.23144V46.9019Z" fill="#009646"/>
<path d="M12.1938 50.5835V41.2588H13.2348V42.1348C13.4803 41.792 13.7575 41.536 14.0665 41.3667C14.3754 41.1932 14.7498 41.1064 15.1899 41.1064C15.7654 41.1064 16.2733 41.2546 16.7134 41.5508C17.1535 41.847 17.4856 42.266 17.7099 42.8076C17.9342 43.3451 18.0464 43.9354 18.0464 44.5786C18.0464 45.2684 17.9216 45.8905 17.6719 46.4448C17.4265 46.995 17.0668 47.4181 16.5928 47.7144C16.1231 48.0063 15.628 48.1523 15.1075 48.1523C14.7266 48.1523 14.3838 48.0719 14.0791 47.9111C13.7787 47.7503 13.531 47.5472 13.3364 47.3018V50.5835H12.1938ZM13.2285 44.6675C13.2285 45.535 13.4042 46.1761 13.7554 46.5908C14.1067 47.0055 14.5319 47.2129 15.0312 47.2129C15.539 47.2129 15.9729 46.9992 16.3326 46.5718C16.6965 46.1401 16.8785 45.4736 16.8785 44.5723C16.8785 43.7132 16.7006 43.07 16.3452 42.6426C15.9939 42.2152 15.573 42.0015 15.0821 42.0015C14.5954 42.0015 14.1637 42.23 13.7871 42.687C13.4147 43.1398 13.2285 43.8 13.2285 44.6675Z" fill="#009646"/>
<path d="M24.045 45.8291L25.2255 45.9751C25.0393 46.6649 24.6945 47.2002 24.191 47.5811C23.6874 47.9619 23.0441 48.1523 22.2612 48.1523C21.2752 48.1523 20.4923 47.8498 19.9125 47.2446C19.337 46.6353 19.0493 45.7826 19.0493 44.6865C19.0493 43.5524 19.3413 42.6722 19.9252 42.0459C20.5092 41.4196 21.2668 41.1064 22.1978 41.1064C23.0992 41.1064 23.8354 41.4132 24.4067 42.0269C24.978 42.6405 25.2636 43.5037 25.2636 44.6167C25.2636 44.6844 25.2615 44.786 25.2573 44.9214H20.2299C20.2722 45.6619 20.4817 46.229 20.8583 46.6226C21.235 47.0161 21.7047 47.2129 22.2675 47.2129C22.6865 47.2129 23.0441 47.1029 23.3403 46.8828C23.6365 46.6628 23.8715 46.3115 24.045 45.8291ZM20.2934 43.9819H24.0576C24.0068 43.4149 23.8629 42.9896 23.6259 42.7061C23.262 42.266 22.7902 42.0459 22.2104 42.0459C21.6857 42.0459 21.2434 42.2215 20.8837 42.5728C20.5283 42.924 20.3315 43.3937 20.2934 43.9819Z" fill="#009646"/>
<path d="M31.2812 45.8291L32.462 45.9751C32.2758 46.6649 31.9308 47.2002 31.4272 47.5811C30.9236 47.9619 30.2804 48.1523 29.4975 48.1523C28.5115 48.1523 27.7287 47.8498 27.149 47.2446C26.5735 46.6353 26.2857 45.7826 26.2857 44.6865C26.2857 43.5524 26.5776 42.6722 27.1616 42.0459C27.7456 41.4196 28.503 41.1064 29.434 41.1064C30.3354 41.1064 31.0717 41.4132 31.643 42.0269C32.2143 42.6405 32.5 43.5037 32.5 44.6167C32.5 44.6844 32.4979 44.786 32.4937 44.9214H27.4664C27.5087 45.6619 27.718 46.229 28.0947 46.6226C28.4713 47.0161 28.9411 47.2129 29.504 47.2129C29.9229 47.2129 30.2805 47.1029 30.5767 46.8828C30.8729 46.6628 31.1077 46.3115 31.2812 45.8291ZM27.5297 43.9819H31.294C31.2432 43.4149 31.0992 42.9896 30.8623 42.7061C30.4983 42.266 30.0265 42.0459 29.4467 42.0459C28.922 42.0459 28.4798 42.2215 28.1201 42.5728C27.7646 42.924 27.5678 43.3937 27.5297 43.9819Z" fill="#009646"/>
<path d="M38.3018 45.5308L39.4253 45.6768C39.3026 46.4512 38.9874 47.0584 38.4795 47.4985C37.976 47.9344 37.356 48.1523 36.6197 48.1523C35.6972 48.1523 34.9545 47.8519 34.3917 47.251C33.8331 46.6458 33.5538 45.7804 33.5538 44.6548C33.5538 43.9269 33.6744 43.29 33.9156 42.7441C34.1568 42.1982 34.5228 41.7899 35.0137 41.519C35.5088 41.244 36.0462 41.1064 36.6259 41.1064C37.358 41.1064 37.9569 41.2926 38.4224 41.665C38.8879 42.0332 39.1862 42.5579 39.3174 43.2393L38.2066 43.4106C38.1008 42.9578 37.9125 42.6172 37.6417 42.3887C37.375 42.1602 37.0513 42.0459 36.6705 42.0459C36.0949 42.0459 35.6273 42.2533 35.2676 42.668C34.9079 43.0785 34.7281 43.7301 34.7281 44.623C34.7281 45.5286 34.9016 46.1867 35.2486 46.5972C35.5956 47.0076 36.0484 47.2129 36.607 47.2129C37.0555 47.2129 37.43 47.0754 37.7304 46.8003C38.0309 46.5252 38.2214 46.1021 38.3018 45.5308Z" fill="#009646"/>
<path d="M39.7872 41.2588H45.2652V42.2046H43.0942V48H41.958V42.2046H39.7872V41.2588Z" fill="#009646"/>
<path d="M46.357 50.5835V41.2588H47.398V42.1348C47.6434 41.792 47.9206 41.536 48.2295 41.3667C48.5385 41.1932 48.913 41.1064 49.3531 41.1064C49.9286 41.1064 50.4364 41.2546 50.8765 41.5508C51.3166 41.847 51.6488 42.266 51.8731 42.8076C52.0974 43.3451 52.2094 43.9354 52.2094 44.5786C52.2094 45.2684 52.0847 45.8905 51.835 46.4448C51.5896 46.995 51.2299 47.4181 50.7559 47.7144C50.2862 48.0063 49.791 48.1523 49.2705 48.1523C48.8896 48.1523 48.5469 48.0719 48.2422 47.9111C47.9418 47.7503 47.6941 47.5472 47.4995 47.3018V50.5835H46.357ZM47.3917 44.6675C47.3917 45.535 47.5673 46.1761 47.9185 46.5908C48.2697 47.0055 48.695 47.2129 49.1944 47.2129C49.7022 47.2129 50.136 46.9992 50.4957 46.5718C50.8596 46.1401 51.0415 45.4736 51.0415 44.5723C51.0415 43.7132 50.8638 43.07 50.5083 42.6426C50.1571 42.2152 49.7361 42.0015 49.2452 42.0015C48.7585 42.0015 48.3269 42.23 47.9502 42.687C47.5778 43.1398 47.3917 43.8 47.3917 44.6675Z" fill="#009646"/>
<path d="M58.208 45.8291L59.3887 45.9751C59.2025 46.6649 58.8575 47.2002 58.354 47.5811C57.8504 47.9619 57.2072 48.1523 56.4244 48.1523C55.4384 48.1523 54.6555 47.8498 54.0757 47.2446C53.5002 46.6353 53.2125 45.7826 53.2125 44.6865C53.2125 43.5524 53.5044 42.6722 54.0884 42.0459C54.6724 41.4196 55.4299 41.1064 56.3609 41.1064C57.2623 41.1064 57.9986 41.4132 58.5699 42.0269C59.1412 42.6405 59.4268 43.5037 59.4268 44.6167C59.4268 44.6844 59.4247 44.786 59.4205 44.9214H54.3931C54.4354 45.6619 54.6449 46.229 55.0215 46.6226C55.3982 47.0161 55.8679 47.2129 56.4307 47.2129C56.8497 47.2129 57.2072 47.1029 57.5035 46.8828C57.7997 46.6628 58.0345 46.3115 58.208 45.8291ZM54.4566 43.9819H58.2208C58.17 43.4149 58.0261 42.9896 57.7891 42.7061C57.4252 42.266 56.9533 42.0459 56.3736 42.0459C55.8488 42.0459 55.4066 42.2215 55.0469 42.5728C54.6915 42.924 54.4947 43.3937 54.4566 43.9819Z" fill="#009646"/>
</svg>
