<svg width="16" height="16" viewBox="0 0 16 16" fill="none" xmlns="http://www.w3.org/2000/svg">
<path d="M1 2.66699V9.35845C1 10.2656 2.79067 11.0003 5 11.0003C7.20933 11.0003 9 10.2656 9 9.35845V2.66699C7.74169 3.34976 6.37416 3.67281 5 3.61189C3.62584 3.67281 2.25831 3.34976 1 2.66699Z" fill="#1F9BCC"/>
<path d="M1 2.66699V9.35845C1 10.2656 2.79067 11.0003 5 11.0003C7.20933 11.0003 9 10.2656 9 9.35845V2.66699C7.74169 3.34976 6.37416 3.67281 5 3.61189C3.62584 3.67281 2.25831 3.34976 1 2.66699Z" fill="url(#paint0_linear_25_30)" fill-opacity="0.4"/>
<path d="M5 4.33333C7.20914 4.33333 9 3.58714 9 2.66667C9 1.74619 7.20914 1 5 1C2.79086 1 1 1.74619 1 2.66667C1 3.58714 2.79086 4.33333 5 4.33333Z" fill="#8BDCFC"/>
<path d="M5 4.33333C7.20914 4.33333 9 3.58714 9 2.66667C9 1.74619 7.20914 1 5 1C2.79086 1 1 1.74619 1 2.66667C1 3.58714 2.79086 4.33333 5 4.33333Z" fill="url(#paint1_linear_25_30)" fill-opacity="0.2"/>
<path d="M7 6.66699V13.3585C7 14.2656 8.79067 15.0003 11 15.0003C13.2093 15.0003 15 14.2656 15 13.3585V6.66699C13.7417 7.34976 12.3742 7.67281 11 7.61189C9.62584 7.67281 8.25831 7.34976 7 6.66699Z" fill="#1F9BCC"/>
<path d="M7 6.66699V13.3585C7 14.2656 8.79067 15.0003 11 15.0003C13.2093 15.0003 15 14.2656 15 13.3585V6.66699C13.7417 7.34976 12.3742 7.67281 11 7.61189C9.62584 7.67281 8.25831 7.34976 7 6.66699Z" fill="url(#paint2_linear_25_30)" fill-opacity="0.4"/>
<path d="M11 8.33333C13.2091 8.33333 15 7.58714 15 6.66667C15 5.74619 13.2091 5 11 5C8.79086 5 7 5.74619 7 6.66667C7 7.58714 8.79086 8.33333 11 8.33333Z" fill="#8BDCFC"/>
<path d="M11 8.33333C13.2091 8.33333 15 7.58714 15 6.66667C15 5.74619 13.2091 5 11 5C8.79086 5 7 5.74619 7 6.66667C7 7.58714 8.79086 8.33333 11 8.33333Z" fill="url(#paint3_linear_25_30)" fill-opacity="0.2"/>
<defs>
<linearGradient id="paint0_linear_25_30" x1="9" y1="3.50033" x2="1" y2="3.50033" gradientUnits="userSpaceOnUse">
<stop stop-color="#00227F"/>
<stop offset="1" stop-color="white" stop-opacity="0"/>
</linearGradient>
<linearGradient id="paint1_linear_25_30" x1="5" y1="1" x2="5" y2="4.33333" gradientUnits="userSpaceOnUse">
<stop stop-color="#00227F"/>
<stop offset="1" stop-color="#8BDCFC"/>
</linearGradient>
<linearGradient id="paint2_linear_25_30" x1="15" y1="7.50033" x2="7" y2="7.50033" gradientUnits="userSpaceOnUse">
<stop stop-color="#00227F"/>
<stop offset="1" stop-color="white" stop-opacity="0"/>
</linearGradient>
<linearGradient id="paint3_linear_25_30" x1="11" y1="5" x2="11" y2="8.33333" gradientUnits="userSpaceOnUse">
<stop stop-color="#00227F"/>
<stop offset="1" stop-color="#8BDCFC"/>
</linearGradient>
</defs>
</svg>
