<svg width="50" height="65" viewBox="0 0 50 65" fill="none" xmlns="http://www.w3.org/2000/svg">
<rect width="50" height="65" fill="white"/>
<path d="M25 0C16.163 0 9 7.163 9 16C9 24.837 16.163 32 25 32C33.837 32 41 24.837 41 16C40.974 7.174 33.826 0.026 25 0ZM32.707 11.707L24.707 21.707C24.512 21.902 24.256 22 24 22C23.744 22 23.488 21.902 23.293 21.707L19.293 17.707C18.902 17.316 18.902 16.684 19.293 16.293C19.684 15.902 20.316 15.902 20.707 16.293L24 19.586L31.293 10.293C31.684 9.902 32.316 9.902 32.707 10.293C33.098 10.684 33.098 11.316 32.707 11.707Z" fill="#14AA5A"/>
<path fill-rule="evenodd" clip-rule="evenodd" d="M25 29C32.1797 29 38 23.1797 38 16C38 8.8203 32.1797 3 25 3C17.8203 3 12 8.8203 12 16C12 23.1797 17.8203 29 25 29ZM25 30C32.732 30 39 23.732 39 16C39 8.26801 32.732 2 25 2C17.268 2 11 8.26801 11 16C11 23.732 17.268 30 25 30Z" fill="white"/>
<path d="M0.980957 48L4.55469 38.6943H5.88135L9.68994 48H8.28711L7.20166 45.1816H3.31055L2.28857 48H0.980957ZM3.66602 44.1787H6.8208L5.84961 41.6016C5.55339 40.8187 5.33333 40.1755 5.18945 39.6719C5.07096 40.2686 4.90381 40.861 4.68799 41.4492L3.66602 44.1787Z" fill="#009646"/>
<path d="M10.5215 41.2588H11.6641V44.1724C12.028 44.1724 12.2819 44.1025 12.4258 43.9629C12.5739 43.8232 12.7897 43.417 13.0732 42.7441C13.2975 42.2109 13.4795 41.8597 13.6191 41.6904C13.7588 41.5212 13.9196 41.4069 14.1016 41.3477C14.2835 41.2884 14.5755 41.2588 14.9775 41.2588H15.2061V42.2046L14.8887 42.1982C14.5882 42.1982 14.3957 42.2427 14.311 42.3315C14.2222 42.4246 14.0868 42.7018 13.9048 43.1631C13.7313 43.6032 13.5726 43.9079 13.4287 44.0771C13.2848 44.2464 13.0627 44.4009 12.7622 44.5405C13.2531 44.6717 13.7355 45.1287 14.2095 45.9116L15.46 48H14.2031L12.9844 45.9116C12.7347 45.4927 12.5168 45.2176 12.3306 45.0864C12.1444 44.951 11.9222 44.8833 11.6641 44.8833V48H10.5215V41.2588Z" fill="#009646"/>
<path d="M15.752 41.2588H21.23V42.2046H19.0591V48H17.9229V42.2046H15.752V41.2588Z" fill="#009646"/>
<path d="M22.3218 41.2588H23.4644V46.4004L26.6318 41.2588H27.8633V48H26.7207V42.8901L23.5532 48H22.3218V41.2588Z" fill="#009646"/>
<path d="M29.5898 41.2588H32.2241C32.8716 41.2588 33.3519 41.3138 33.665 41.4238C33.9824 41.5296 34.2533 41.7264 34.4775 42.0142C34.7061 42.3019 34.8203 42.6468 34.8203 43.0488C34.8203 43.3704 34.7526 43.6519 34.6172 43.8931C34.486 44.13 34.2871 44.3289 34.0205 44.4897C34.3379 44.5955 34.6003 44.7944 34.8076 45.0864C35.0192 45.3742 35.125 45.717 35.125 46.1147C35.0827 46.7537 34.8542 47.2277 34.4395 47.5366C34.0247 47.8455 33.4217 48 32.6304 48H29.5898V41.2588ZM30.7324 44.0962H31.9512C32.4378 44.0962 32.7721 44.0708 32.9541 44.02C33.1361 43.9692 33.299 43.8677 33.4429 43.7153C33.5868 43.5588 33.6587 43.3726 33.6587 43.1567C33.6587 42.8013 33.5317 42.5537 33.2778 42.4141C33.0282 42.2744 32.5986 42.2046 31.9893 42.2046H30.7324V44.0962ZM30.7324 47.0605H32.2368C32.8843 47.0605 33.3286 46.9865 33.5698 46.8384C33.811 46.686 33.938 46.4258 33.9507 46.0576C33.9507 45.8418 33.8809 45.6429 33.7412 45.4609C33.6016 45.2747 33.4196 45.1584 33.1953 45.1118C32.971 45.061 32.6113 45.0356 32.1162 45.0356H30.7324V47.0605Z" fill="#009646"/>
<path d="M36.4961 41.2588H37.6387V44.0645H40.8062V41.2588H41.9487V48H40.8062V45.0103H37.6387V48H36.4961V41.2588Z" fill="#009646"/>
<path d="M48.0742 47.1685C47.651 47.5282 47.2427 47.7821 46.8491 47.9302C46.4598 48.0783 46.0409 48.1523 45.5923 48.1523C44.8517 48.1523 44.2826 47.9725 43.8848 47.6128C43.487 47.2489 43.2881 46.7855 43.2881 46.2227C43.2881 45.8926 43.3621 45.5921 43.5103 45.3213C43.6626 45.0462 43.8594 44.8262 44.1006 44.6611C44.346 44.4961 44.6211 44.3713 44.9258 44.2866C45.1501 44.2274 45.4886 44.1702 45.9414 44.1152C46.8639 44.0052 47.5431 43.874 47.979 43.7217C47.9832 43.5651 47.9854 43.4657 47.9854 43.4233C47.9854 42.9578 47.8774 42.6299 47.6616 42.4395C47.3696 42.1813 46.9359 42.0522 46.3604 42.0522C45.8229 42.0522 45.4251 42.1475 45.167 42.3379C44.9131 42.5241 44.7248 42.8563 44.6021 43.3345L43.4849 43.1821C43.5864 42.7039 43.7536 42.3188 43.9863 42.0269C44.2191 41.7306 44.5555 41.5042 44.9956 41.3477C45.4357 41.1868 45.9456 41.1064 46.5254 41.1064C47.1009 41.1064 47.5685 41.1742 47.9282 41.3096C48.2879 41.445 48.5524 41.6164 48.7217 41.8237C48.891 42.0269 49.0094 42.285 49.0771 42.5981C49.1152 42.7928 49.1343 43.144 49.1343 43.6519V45.1753C49.1343 46.2375 49.1576 46.9103 49.2041 47.1938C49.2549 47.4731 49.3522 47.7419 49.4961 48H48.3027C48.1842 47.763 48.1081 47.4858 48.0742 47.1685ZM47.979 44.6167C47.5643 44.786 46.9422 44.9299 46.1128 45.0483C45.6431 45.116 45.3109 45.1922 45.1162 45.2769C44.9215 45.3615 44.7713 45.4863 44.6655 45.6514C44.5597 45.8122 44.5068 45.992 44.5068 46.1909C44.5068 46.4956 44.6211 46.7495 44.8496 46.9526C45.0824 47.1558 45.4209 47.2573 45.8652 47.2573C46.3053 47.2573 46.6968 47.1621 47.0396 46.9717C47.3823 46.777 47.6341 46.5125 47.7949 46.1782C47.9176 45.9201 47.979 45.5392 47.979 45.0356V44.6167Z" fill="#009646"/>
</svg>
