<svg width="16" height="16" viewBox="0 0 16 16" fill="none" xmlns="http://www.w3.org/2000/svg">
<path d="M3 1.5H13C13.2761 1.5 13.5 1.72386 13.5 2V6C13.5 6.27614 13.2761 6.5 13 6.5H3C2.72386 6.5 2.5 6.27614 2.5 6V2C2.5 1.72386 2.72386 1.5 3 1.5Z" fill="#72C5F1"/>
<path d="M3 1.5H13C13.2761 1.5 13.5 1.72386 13.5 2V6C13.5 6.27614 13.2761 6.5 13 6.5H3C2.72386 6.5 2.5 6.27614 2.5 6V2C2.5 1.72386 2.72386 1.5 3 1.5Z" fill="url(#paint0_linear_21_214)" fill-opacity="0.2"/>
<path d="M3 1.5H13C13.2761 1.5 13.5 1.72386 13.5 2V6C13.5 6.27614 13.2761 6.5 13 6.5H3C2.72386 6.5 2.5 6.27614 2.5 6V2C2.5 1.72386 2.72386 1.5 3 1.5Z" stroke="url(#paint1_linear_21_214)"/>
<rect opacity="0.2" x="3" y="2" width="10" height="1" fill="#F5F5F5"/>
<path d="M14.5455 4.5H9.45455C8.92736 4.5 8.5 4.92736 8.5 5.45455V10.5455C8.5 11.0726 8.92736 11.5 9.45455 11.5H14.5455C15.0726 11.5 15.5 11.0726 15.5 10.5455V5.45455C15.5 4.92736 15.0726 4.5 14.5455 4.5Z" fill="white" stroke="#43CD6E" stroke-linecap="round" stroke-linejoin="round"/>
<path d="M9 7.5L11.3637 9.591L15 6" stroke="#1CA545" stroke-linecap="round" stroke-linejoin="round"/>
<path d="M12.5455 6.5H7.45455C6.92736 6.5 6.5 6.92736 6.5 7.45455V12.5455C6.5 13.0726 6.92736 13.5 7.45455 13.5H12.5455C13.0726 13.5 13.5 13.0726 13.5 12.5455V7.45455C13.5 6.92736 13.0726 6.5 12.5455 6.5Z" fill="white" stroke="#43CD6E" stroke-linecap="round" stroke-linejoin="round"/>
<path d="M7 9.5L9.36367 11.591L13 8" stroke="#1CA545" stroke-linecap="round" stroke-linejoin="round"/>
<path d="M10.5455 8.5H5.45455C4.92736 8.5 4.5 8.92736 4.5 9.45455V14.5455C4.5 15.0726 4.92736 15.5 5.45455 15.5H10.5455C11.0726 15.5 11.5 15.0726 11.5 14.5455V9.45455C11.5 8.92736 11.0726 8.5 10.5455 8.5Z" fill="white" stroke="#43CD6E" stroke-linecap="round" stroke-linejoin="round"/>
<path d="M5 11.5L7.36367 13.591L11 10" stroke="#1CA545" stroke-linecap="round" stroke-linejoin="round"/>
<defs>
<linearGradient id="paint0_linear_21_214" x1="8" y1="1" x2="8" y2="7" gradientUnits="userSpaceOnUse">
<stop stop-color="white"/>
<stop offset="1" stop-color="#81C3EE"/>
</linearGradient>
<linearGradient id="paint1_linear_21_214" x1="8" y1="1" x2="8" y2="7" gradientUnits="userSpaceOnUse">
<stop stop-color="#709FCD"/>
<stop offset="1" stop-color="#4F8AC2"/>
</linearGradient>
</defs>
</svg>
