<svg width="288" height="65" viewBox="0 0 288 65" fill="none" xmlns="http://www.w3.org/2000/svg">
<g clip-path="url(#clip0_205_99)">
<rect width="288" height="65" fill="white"/>
<path d="M29 0C20.163 0 13 7.163 13 16C13 24.837 20.163 32 29 32C37.837 32 45 24.837 45 16C44.974 7.174 37.826 0.026 29 0Z" fill="#14AA5A"/>
<path fill-rule="evenodd" clip-rule="evenodd" d="M29 29C36.1797 29 42 23.1797 42 16C42 8.8203 36.1797 3 29 3C21.8203 3 16 8.8203 16 16C16 23.1797 21.8203 29 29 29ZM29 30C36.732 30 43 23.732 43 16C43 8.26801 36.732 2 29 2C21.268 2 15 8.26801 15 16C15 23.732 21.268 30 29 30Z" fill="white"/>
<path d="M29.6426 23.1758C29.1445 23.1758 28.793 22.8047 28.793 22.2676V10.832H28.7539L26.1172 12.6777C25.9219 12.8145 25.7363 12.8828 25.5215 12.8828C25.1113 12.8828 24.8281 12.5898 24.8281 12.1602C24.8281 11.8477 24.9453 11.6426 25.3164 11.3789L28.334 9.2207C28.8809 8.83008 29.1152 8.73242 29.5156 8.73242C30.1211 8.73242 30.4922 9.10352 30.4922 9.71875V22.2676C30.4922 22.8047 30.1406 23.1758 29.6426 23.1758Z" fill="#F5F5F5"/>
<path d="M154 16C154 23.732 147.732 30 140 30C132.268 30 126 23.732 126 16C126 8.26801 132.268 2 140 2C147.732 2 154 8.26801 154 16Z" fill="#CFDAE2"/>
<path d="M136.279 23C135.762 23 135.43 22.7168 135.43 22.2773C135.43 21.916 135.508 21.7598 135.928 21.3203L140.439 16.6133C142.334 14.6309 142.783 13.8789 142.783 12.6973C142.783 11.2617 141.68 10.207 140.166 10.207C138.643 10.207 137.578 10.998 137.1 12.5117C136.982 12.873 136.787 13.127 136.309 13.127C135.791 13.127 135.498 12.8047 135.498 12.3457C135.498 12.2188 135.508 12.1113 135.527 11.9941C135.732 10.5488 137.285 8.67383 140.166 8.67383C142.705 8.67383 144.541 10.3145 144.541 12.5898C144.541 14.1328 143.838 15.2949 141.426 17.7656L137.891 21.3984V21.4375H144.043C144.541 21.4375 144.873 21.75 144.873 22.2188C144.873 22.6875 144.541 23 144.043 23H136.279Z" fill="#F5F5F5"/>
<path d="M265 16C265 23.732 258.732 30 251 30C243.268 30 237 23.732 237 16C237 8.26801 243.268 2 251 2C258.732 2 265 8.26801 265 16Z" fill="#CFDAE2"/>
<path d="M250.971 23.2344C248.871 23.2344 247.348 22.4824 246.498 21.0371C246.273 20.6465 246.176 20.2949 246.176 19.9141C246.176 19.4258 246.479 19.0938 246.986 19.0938C247.387 19.0938 247.611 19.3086 247.797 19.7871C248.266 20.998 249.271 21.7109 250.971 21.7109C252.826 21.7109 254.066 20.6562 254.076 19.1816C254.086 17.4434 252.846 16.4668 250.863 16.4668H249.74C249.271 16.4668 248.949 16.1641 248.949 15.7246C248.949 15.2852 249.271 14.9824 249.74 14.9824H250.785C252.465 14.9824 253.637 13.9473 253.637 12.541C253.637 11.1445 252.758 10.1973 250.951 10.1973C249.398 10.1973 248.549 10.8516 248.041 12.1309C247.865 12.6387 247.689 12.8242 247.25 12.8242C246.752 12.8242 246.469 12.5312 246.469 12.0234C246.469 11.623 246.557 11.2715 246.762 10.8906C247.504 9.48438 248.998 8.67383 250.951 8.67383C253.773 8.67383 255.404 10.2949 255.404 12.3066C255.404 14.0547 254.184 15.2559 252.416 15.627V15.666C254.467 15.8418 255.863 17.1211 255.863 19.123C255.863 21.5449 253.734 23.2344 250.971 23.2344Z" fill="#F5F5F5"/>
<path d="M7.64258 44.7373L8.87402 45.0483C8.61589 46.0597 8.15039 46.832 7.47754 47.3652C6.80892 47.8942 5.99007 48.1587 5.021 48.1587C4.01807 48.1587 3.20133 47.9556 2.5708 47.5493C1.9445 47.1388 1.46631 46.5464 1.13623 45.772C0.810384 44.9976 0.647461 44.166 0.647461 43.2773C0.647461 42.3083 0.831543 41.464 1.19971 40.7446C1.5721 40.021 2.09896 39.473 2.78027 39.1006C3.46582 38.724 4.21908 38.5356 5.04004 38.5356C5.97103 38.5356 6.75391 38.7726 7.38867 39.2466C8.02344 39.7205 8.46566 40.387 8.71533 41.2461L7.50293 41.5317C7.28711 40.8547 6.97396 40.3617 6.56348 40.0527C6.15299 39.7438 5.63672 39.5894 5.01465 39.5894C4.29948 39.5894 3.70068 39.7607 3.21826 40.1035C2.74007 40.4463 2.40365 40.9076 2.20898 41.4873C2.01432 42.0628 1.91699 42.6574 1.91699 43.271C1.91699 44.0623 2.03125 44.7542 2.25977 45.3467C2.49251 45.9349 2.85221 46.375 3.33887 46.667C3.82552 46.959 4.35238 47.105 4.91943 47.105C5.60921 47.105 6.1932 46.9061 6.67139 46.5083C7.14958 46.1105 7.47331 45.5202 7.64258 44.7373Z" fill="#009646"/>
<path d="M9.82617 44.6294C9.82617 43.381 10.1732 42.4564 10.8672 41.8555C11.4469 41.3561 12.1536 41.1064 12.9873 41.1064C13.9141 41.1064 14.6715 41.4111 15.2598 42.0205C15.848 42.6257 16.1421 43.4635 16.1421 44.5342C16.1421 45.4017 16.0109 46.0851 15.7485 46.5845C15.4904 47.0796 15.1117 47.4647 14.6123 47.7397C14.1172 48.0148 13.5755 48.1523 12.9873 48.1523C12.0436 48.1523 11.2798 47.8498 10.6958 47.2446C10.116 46.6395 9.82617 45.7677 9.82617 44.6294ZM11.0005 44.6294C11.0005 45.4927 11.1888 46.1401 11.5654 46.5718C11.9421 46.9992 12.416 47.2129 12.9873 47.2129C13.5544 47.2129 14.0262 46.9971 14.4028 46.5654C14.7795 46.1338 14.9678 45.4757 14.9678 44.5913C14.9678 43.7576 14.7773 43.1271 14.3965 42.6997C14.0199 42.2681 13.5501 42.0522 12.9873 42.0522C12.416 42.0522 11.9421 42.266 11.5654 42.6934C11.1888 43.1208 11.0005 43.7661 11.0005 44.6294Z" fill="#009646"/>
<path d="M18.8271 44.9531V44.0581C19.3096 44.0539 19.6375 44.0348 19.811 44.001C19.9888 43.9671 20.1559 43.8656 20.3125 43.6963C20.4691 43.527 20.5474 43.3154 20.5474 43.0615C20.5474 42.7526 20.4437 42.5072 20.2363 42.3252C20.0332 42.139 19.7687 42.0459 19.4429 42.0459C18.7996 42.0459 18.349 42.4246 18.0908 43.1821L17.0054 43.0044C17.3439 41.7391 18.1606 41.1064 19.4556 41.1064C20.175 41.1064 20.7378 41.3032 21.144 41.6968C21.5545 42.0903 21.7598 42.5601 21.7598 43.106C21.7598 43.6561 21.4932 44.0941 20.96 44.4199C21.2985 44.6019 21.5524 44.8346 21.7217 45.1182C21.891 45.3975 21.9756 45.7297 21.9756 46.1147C21.9756 46.7199 21.7555 47.2108 21.3154 47.5874C20.8753 47.964 20.2596 48.1523 19.4683 48.1523C17.9321 48.1523 17.0413 47.4689 16.7959 46.1021L17.8687 45.8735C17.966 46.3052 18.1628 46.6395 18.459 46.8765C18.7594 47.1134 19.1022 47.2319 19.4873 47.2319C19.8724 47.2319 20.1919 47.124 20.4458 46.9082C20.7039 46.6882 20.833 46.4089 20.833 46.0703C20.833 45.8079 20.7526 45.5794 20.5918 45.3848C20.431 45.1901 20.2596 45.0695 20.0776 45.0229C19.8957 44.9722 19.5656 44.9468 19.0874 44.9468C19.0493 44.9468 18.9626 44.9489 18.8271 44.9531Z" fill="#009646"/>
<path d="M23.9116 41.2588H28.6089V47.0605H29.3389V49.9106H28.3994V48H23.0928V49.9106H22.1533V47.0605H22.7563C23.5604 45.9688 23.9455 44.0348 23.9116 41.2588ZM24.8638 42.2046C24.7791 44.3924 24.4406 46.0111 23.8481 47.0605H27.4727V42.2046H24.8638Z" fill="#009646"/>
<path d="M35.001 47.1685C34.5778 47.5282 34.1694 47.7821 33.7759 47.9302C33.3866 48.0783 32.9676 48.1523 32.519 48.1523C31.7785 48.1523 31.2093 47.9725 30.8115 47.6128C30.4137 47.2489 30.2148 46.7855 30.2148 46.2227C30.2148 45.8926 30.2889 45.5921 30.437 45.3213C30.5894 45.0462 30.7861 44.8262 31.0273 44.6611C31.2728 44.4961 31.5479 44.3713 31.8525 44.2866C32.0768 44.2274 32.4154 44.1702 32.8682 44.1152C33.7907 44.0052 34.4699 43.874 34.9058 43.7217C34.91 43.5651 34.9121 43.4657 34.9121 43.4233C34.9121 42.9578 34.8042 42.6299 34.5884 42.4395C34.2964 42.1813 33.8626 42.0522 33.2871 42.0522C32.7497 42.0522 32.3519 42.1475 32.0938 42.3379C31.8398 42.5241 31.6515 42.8563 31.5288 43.3345L30.4116 43.1821C30.5132 42.7039 30.6803 42.3188 30.9131 42.0269C31.1458 41.7306 31.4823 41.5042 31.9224 41.3477C32.3625 41.1868 32.8724 41.1064 33.4521 41.1064C34.0277 41.1064 34.4953 41.1742 34.855 41.3096C35.2147 41.445 35.4792 41.6164 35.6484 41.8237C35.8177 42.0269 35.9362 42.285 36.0039 42.5981C36.042 42.7928 36.061 43.144 36.061 43.6519V45.1753C36.061 46.2375 36.0843 46.9103 36.1309 47.1938C36.1816 47.4731 36.279 47.7419 36.4229 48H35.2295C35.111 47.763 35.0348 47.4858 35.001 47.1685ZM34.9058 44.6167C34.491 44.786 33.869 44.9299 33.0396 45.0483C32.5698 45.116 32.2376 45.1922 32.043 45.2769C31.8483 45.3615 31.6981 45.4863 31.5923 45.6514C31.4865 45.8122 31.4336 45.992 31.4336 46.1909C31.4336 46.4956 31.5479 46.7495 31.7764 46.9526C32.0091 47.1558 32.3477 47.2573 32.792 47.2573C33.2321 47.2573 33.6235 47.1621 33.9663 46.9717C34.3091 46.777 34.5609 46.5125 34.7217 46.1782C34.8444 45.9201 34.9058 45.5392 34.9058 45.0356V44.6167Z" fill="#009646"/>
<path d="M37.8447 41.2588H38.9873V44.0645H42.1548V41.2588H43.2974V48H42.1548V45.0103H38.9873V48H37.8447V41.2588Z" fill="#009646"/>
<path d="M45.0239 41.2588H46.1665V46.4004L49.334 41.2588H50.5654V48H49.4229V42.8901L46.2554 48H45.0239V41.2588Z" fill="#009646"/>
<path d="M56.9004 45.8291L58.0811 45.9751C57.8949 46.6649 57.55 47.2002 57.0464 47.5811C56.5428 47.9619 55.8996 48.1523 55.1167 48.1523C54.1307 48.1523 53.3478 47.8498 52.7681 47.2446C52.1925 46.6353 51.9048 45.7826 51.9048 44.6865C51.9048 43.5524 52.1968 42.6722 52.7808 42.0459C53.3647 41.4196 54.1222 41.1064 55.0532 41.1064C55.9546 41.1064 56.6909 41.4132 57.2622 42.0269C57.8335 42.6405 58.1191 43.5037 58.1191 44.6167C58.1191 44.6844 58.117 44.786 58.1128 44.9214H53.0854C53.1278 45.6619 53.3372 46.229 53.7139 46.6226C54.0905 47.0161 54.5602 47.2129 55.123 47.2129C55.542 47.2129 55.8996 47.1029 56.1958 46.8828C56.492 46.6628 56.7269 46.3115 56.9004 45.8291ZM53.1489 43.9819H56.9131C56.8623 43.4149 56.7184 42.9896 56.4814 42.7061C56.1175 42.266 55.6457 42.0459 55.0659 42.0459C54.5412 42.0459 54.099 42.2215 53.7393 42.5728C53.3838 42.924 53.187 43.3937 53.1489 43.9819Z" fill="#009646"/>
<path d="M104 38.6943H111.318V48H110.081V39.7925H105.231V48H104V38.6943Z" fill="#ADBFCC"/>
<path d="M112.759 44.6294C112.759 43.381 113.106 42.4564 113.8 41.8555C114.38 41.3561 115.087 41.1064 115.921 41.1064C116.847 41.1064 117.605 41.4111 118.193 42.0205C118.781 42.6257 119.075 43.4635 119.075 44.5342C119.075 45.4017 118.944 46.0851 118.682 46.5845C118.424 47.0796 118.045 47.4647 117.546 47.7397C117.05 48.0148 116.509 48.1523 115.921 48.1523C114.977 48.1523 114.213 47.8498 113.629 47.2446C113.049 46.6395 112.759 45.7677 112.759 44.6294ZM113.934 44.6294C113.934 45.4927 114.122 46.1401 114.499 46.5718C114.875 46.9992 115.349 47.2129 115.921 47.2129C116.488 47.2129 116.959 46.9971 117.336 46.5654C117.713 46.1338 117.901 45.4757 117.901 44.5913C117.901 43.7576 117.711 43.1271 117.33 42.6997C116.953 42.2681 116.483 42.0522 115.921 42.0522C115.349 42.0522 114.875 42.266 114.499 42.6934C114.122 43.1208 113.934 43.7661 113.934 44.6294Z" fill="#ADBFCC"/>
<path d="M121.03 41.2588H125.728V47.0605H126.458V49.9106H125.518V48H120.212V49.9106H119.272V47.0605H119.875C120.679 45.9688 121.064 44.0348 121.03 41.2588ZM121.983 42.2046C121.898 44.3924 121.559 46.0111 120.967 47.0605H124.591V42.2046H121.983Z" fill="#ADBFCC"/>
<path d="M127.727 41.2588H133.046V48H131.904V42.2046H128.87V48H127.727V41.2588Z" fill="#ADBFCC"/>
<path d="M134.767 41.2588H135.909V46.4004L139.077 41.2588H140.308V48H139.166V42.8901L135.998 48H134.767V41.2588Z" fill="#ADBFCC"/>
<path d="M146.427 45.5308L147.551 45.6768C147.428 46.4512 147.113 47.0584 146.605 47.4985C146.102 47.9344 145.482 48.1523 144.745 48.1523C143.823 48.1523 143.08 47.8519 142.517 47.251C141.959 46.6458 141.679 45.7804 141.679 44.6548C141.679 43.9269 141.8 43.29 142.041 42.7441C142.282 42.1982 142.648 41.7899 143.139 41.519C143.634 41.244 144.172 41.1064 144.752 41.1064C145.484 41.1064 146.082 41.2926 146.548 41.665C147.013 42.0332 147.312 42.5579 147.443 43.2393L146.332 43.4106C146.226 42.9578 146.038 42.6172 145.767 42.3887C145.501 42.1602 145.177 42.0459 144.796 42.0459C144.22 42.0459 143.753 42.2533 143.393 42.668C143.033 43.0785 142.854 43.7301 142.854 44.623C142.854 45.5286 143.027 46.1867 143.374 46.5972C143.721 47.0076 144.174 47.2129 144.733 47.2129C145.181 47.2129 145.556 47.0754 145.856 46.8003C146.157 46.5252 146.347 46.1021 146.427 45.5308Z" fill="#ADBFCC"/>
<path d="M152.927 47.1685C152.504 47.5282 152.096 47.7821 151.702 47.9302C151.313 48.0783 150.894 48.1523 150.445 48.1523C149.705 48.1523 149.136 47.9725 148.738 47.6128C148.34 47.2489 148.141 46.7855 148.141 46.2227C148.141 45.8926 148.215 45.5921 148.363 45.3213C148.516 45.0462 148.713 44.8262 148.954 44.6611C149.199 44.4961 149.474 44.3713 149.779 44.2866C150.003 44.2274 150.342 44.1702 150.795 44.1152C151.717 44.0052 152.396 43.874 152.832 43.7217C152.836 43.5651 152.838 43.4657 152.838 43.4233C152.838 42.9578 152.731 42.6299 152.515 42.4395C152.223 42.1813 151.789 42.0522 151.213 42.0522C150.676 42.0522 150.278 42.1475 150.02 42.3379C149.766 42.5241 149.578 42.8563 149.455 43.3345L148.338 43.1821C148.44 42.7039 148.607 42.3188 148.839 42.0269C149.072 41.7306 149.409 41.5042 149.849 41.3477C150.289 41.1868 150.799 41.1064 151.379 41.1064C151.954 41.1064 152.422 41.1742 152.781 41.3096C153.141 41.445 153.406 41.6164 153.575 41.8237C153.744 42.0269 153.863 42.285 153.93 42.5981C153.968 42.7928 153.987 43.144 153.987 43.6519V45.1753C153.987 46.2375 154.011 46.9103 154.057 47.1938C154.108 47.4731 154.205 47.7419 154.349 48H153.156C153.037 47.763 152.961 47.4858 152.927 47.1685ZM152.832 44.6167C152.417 44.786 151.795 44.9299 150.966 45.0483C150.496 45.116 150.164 45.1922 149.969 45.2769C149.775 45.3615 149.624 45.4863 149.519 45.6514C149.413 45.8122 149.36 45.992 149.36 46.1909C149.36 46.4956 149.474 46.7495 149.703 46.9526C149.935 47.1558 150.274 47.2573 150.718 47.2573C151.158 47.2573 151.55 47.1621 151.893 46.9717C152.235 46.777 152.487 46.5125 152.648 46.1782C152.771 45.9201 152.832 45.5392 152.832 45.0356V44.6167Z" fill="#ADBFCC"/>
<path d="M155.771 41.2588H156.914V44.0645H160.081V41.2588H161.224V48H160.081V45.0103H156.914V48H155.771V41.2588Z" fill="#ADBFCC"/>
<path d="M162.95 41.2588H164.093V46.4004L167.26 41.2588H168.492V48H167.349V42.8901L164.182 48H162.95V41.2588Z" fill="#ADBFCC"/>
<path d="M174.827 45.8291L176.007 45.9751C175.821 46.6649 175.476 47.2002 174.973 47.5811C174.469 47.9619 173.826 48.1523 173.043 48.1523C172.057 48.1523 171.274 47.8498 170.694 47.2446C170.119 46.6353 169.831 45.7826 169.831 44.6865C169.831 43.5524 170.123 42.6722 170.707 42.0459C171.291 41.4196 172.049 41.1064 172.98 41.1064C173.881 41.1064 174.617 41.4132 175.189 42.0269C175.76 42.6405 176.046 43.5037 176.046 44.6167C176.046 44.6844 176.043 44.786 176.039 44.9214H171.012C171.054 45.6619 171.264 46.229 171.64 46.6226C172.017 47.0161 172.487 47.2129 173.049 47.2129C173.468 47.2129 173.826 47.1029 174.122 46.8828C174.418 46.6628 174.653 46.3115 174.827 45.8291ZM171.075 43.9819H174.839C174.789 43.4149 174.645 42.9896 174.408 42.7061C174.044 42.266 173.572 42.0459 172.992 42.0459C172.468 42.0459 172.025 42.2215 171.666 42.5728C171.31 42.924 171.113 43.3937 171.075 43.9819Z" fill="#ADBFCC"/>
<path d="M214 48V38.6943H217.51C218.128 38.6943 218.6 38.724 218.926 38.7832C219.383 38.8594 219.766 39.0054 220.075 39.2212C220.384 39.4328 220.631 39.7311 220.817 40.1162C221.008 40.5013 221.103 40.9245 221.103 41.3857C221.103 42.1771 220.851 42.8478 220.348 43.3979C219.844 43.9438 218.934 44.2168 217.618 44.2168H215.231V48H214ZM215.231 43.1187H217.637C218.433 43.1187 218.998 42.9705 219.332 42.6743C219.666 42.3781 219.833 41.9613 219.833 41.4238C219.833 41.0345 219.734 40.7023 219.535 40.4272C219.34 40.1479 219.082 39.9639 218.761 39.875C218.553 39.82 218.17 39.7925 217.612 39.7925H215.231V43.1187Z" fill="#ADBFCC"/>
<path d="M226.568 45.8291L227.749 45.9751C227.563 46.6649 227.218 47.2002 226.714 47.5811C226.211 47.9619 225.567 48.1523 224.785 48.1523C223.799 48.1523 223.016 47.8498 222.436 47.2446C221.86 46.6353 221.573 45.7826 221.573 44.6865C221.573 43.5524 221.865 42.6722 222.449 42.0459C223.033 41.4196 223.79 41.1064 224.721 41.1064C225.622 41.1064 226.359 41.4132 226.93 42.0269C227.501 42.6405 227.787 43.5037 227.787 44.6167C227.787 44.6844 227.785 44.786 227.781 44.9214H222.753C222.796 45.6619 223.005 46.229 223.382 46.6226C223.758 47.0161 224.228 47.2129 224.791 47.2129C225.21 47.2129 225.567 47.1029 225.864 46.8828C226.16 46.6628 226.395 46.3115 226.568 45.8291ZM222.817 43.9819H226.581C226.53 43.4149 226.386 42.9896 226.149 42.7061C225.785 42.266 225.314 42.0459 224.734 42.0459C224.209 42.0459 223.767 42.2215 223.407 42.5728C223.052 42.924 222.855 43.3937 222.817 43.9819Z" fill="#ADBFCC"/>
<path d="M229.196 41.2588H233.075V42.2046H230.339V48H229.196V41.2588Z" fill="#ADBFCC"/>
<path d="M233.938 41.2588H235.08V46.4004L238.248 41.2588H239.479V48H238.337V42.8901L235.169 48H233.938V41.2588Z" fill="#ADBFCC"/>
<path d="M245.599 45.5308L246.722 45.6768C246.599 46.4512 246.284 47.0584 245.776 47.4985C245.273 47.9344 244.653 48.1523 243.916 48.1523C242.994 48.1523 242.251 47.8519 241.688 47.251C241.13 46.6458 240.851 45.7804 240.851 44.6548C240.851 43.9269 240.971 43.29 241.212 42.7441C241.454 42.1982 241.82 41.7899 242.31 41.519C242.806 41.244 243.343 41.1064 243.923 41.1064C244.655 41.1064 245.254 41.2926 245.719 41.665C246.185 42.0332 246.483 42.5579 246.614 43.2393L245.503 43.4106C245.398 42.9578 245.209 42.6172 244.938 42.3887C244.672 42.1602 244.348 42.0459 243.967 42.0459C243.392 42.0459 242.924 42.2533 242.564 42.668C242.205 43.0785 242.025 43.7301 242.025 44.623C242.025 45.5286 242.198 46.1867 242.545 46.5972C242.892 47.0076 243.345 47.2129 243.904 47.2129C244.352 47.2129 244.727 47.0754 245.027 46.8003C245.328 46.5252 245.518 46.1021 245.599 45.5308Z" fill="#ADBFCC"/>
<path d="M247.084 41.2588H252.562V42.2046H250.391V48H249.255V42.2046H247.084V41.2588Z" fill="#ADBFCC"/>
<path d="M253.654 50.5835V41.2588H254.695V42.1348C254.94 41.792 255.217 41.536 255.526 41.3667C255.835 41.1932 256.21 41.1064 256.65 41.1064C257.225 41.1064 257.733 41.2546 258.173 41.5508C258.613 41.847 258.946 42.266 259.17 42.8076C259.394 43.3451 259.506 43.9354 259.506 44.5786C259.506 45.2684 259.381 45.8905 259.132 46.4448C258.886 46.995 258.527 47.4181 258.053 47.7144C257.583 48.0063 257.088 48.1523 256.567 48.1523C256.186 48.1523 255.844 48.0719 255.539 47.9111C255.239 47.7503 254.991 47.5472 254.796 47.3018V50.5835H253.654ZM254.688 44.6675C254.688 45.535 254.864 46.1761 255.215 46.5908C255.566 47.0055 255.992 47.2129 256.491 47.2129C256.999 47.2129 257.433 46.9992 257.792 46.5718C258.156 46.1401 258.338 45.4736 258.338 44.5723C258.338 43.7132 258.161 43.07 257.805 42.6426C257.454 42.2152 257.033 42.0015 256.542 42.0015C256.055 42.0015 255.624 42.23 255.247 42.687C254.875 43.1398 254.688 43.8 254.688 44.6675Z" fill="#ADBFCC"/>
<path d="M265.289 47.1685C264.866 47.5282 264.457 47.7821 264.064 47.9302C263.675 48.0783 263.256 48.1523 262.807 48.1523C262.066 48.1523 261.497 47.9725 261.1 47.6128C260.702 47.2489 260.503 46.7855 260.503 46.2227C260.503 45.8926 260.577 45.5921 260.725 45.3213C260.877 45.0462 261.074 44.8262 261.315 44.6611C261.561 44.4961 261.836 44.3713 262.141 44.2866C262.365 44.2274 262.703 44.1702 263.156 44.1152C264.079 44.0052 264.758 43.874 265.194 43.7217C265.198 43.5651 265.2 43.4657 265.2 43.4233C265.2 42.9578 265.092 42.6299 264.876 42.4395C264.584 42.1813 264.151 42.0522 263.575 42.0522C263.038 42.0522 262.64 42.1475 262.382 42.3379C262.128 42.5241 261.94 42.8563 261.817 43.3345L260.7 43.1821C260.801 42.7039 260.968 42.3188 261.201 42.0269C261.434 41.7306 261.77 41.5042 262.21 41.3477C262.65 41.1868 263.16 41.1064 263.74 41.1064C264.316 41.1064 264.783 41.1742 265.143 41.3096C265.503 41.445 265.767 41.6164 265.936 41.8237C266.106 42.0269 266.224 42.285 266.292 42.5981C266.33 42.7928 266.349 43.144 266.349 43.6519V45.1753C266.349 46.2375 266.372 46.9103 266.419 47.1938C266.47 47.4731 266.567 47.7419 266.711 48H265.518C265.399 47.763 265.323 47.4858 265.289 47.1685ZM265.194 44.6167C264.779 44.786 264.157 44.9299 263.328 45.0483C262.858 45.116 262.526 45.1922 262.331 45.2769C262.136 45.3615 261.986 45.4863 261.88 45.6514C261.775 45.8122 261.722 45.992 261.722 46.1909C261.722 46.4956 261.836 46.7495 262.064 46.9526C262.297 47.1558 262.636 47.2573 263.08 47.2573C263.52 47.2573 263.912 47.1621 264.254 46.9717C264.597 46.777 264.849 46.5125 265.01 46.1782C265.132 45.9201 265.194 45.5392 265.194 45.0356V44.6167Z" fill="#ADBFCC"/>
<path d="M268.145 41.2588H269.288V47.0605H272.449V41.2588H273.592V47.0605H274.328V49.9106H273.389V48H268.145V41.2588Z" fill="#ADBFCC"/>
<path d="M275.579 41.2588H276.721V46.4004L279.889 41.2588H281.12V48H279.977V42.8901L276.81 48H275.579V41.2588Z" fill="#ADBFCC"/>
<path d="M288.147 41.2588V48H287.011V45.3721H286.351C285.948 45.3721 285.648 45.425 285.449 45.5308C285.254 45.6323 284.969 45.9645 284.592 46.5273L283.596 48H282.18L283.412 46.1846C283.788 45.6302 284.163 45.3171 284.535 45.2451C283.883 45.1562 283.399 44.9214 283.081 44.5405C282.768 44.1597 282.612 43.7217 282.612 43.2266C282.612 42.6426 282.817 42.1686 283.227 41.8047C283.642 41.4408 284.241 41.2588 285.024 41.2588H288.147ZM287.011 42.2046H285.386C284.704 42.2046 284.264 42.3104 284.065 42.522C283.871 42.7336 283.773 42.9811 283.773 43.2646C283.773 43.6667 283.917 43.9629 284.205 44.1533C284.497 44.3395 285.011 44.4326 285.747 44.4326H287.011V42.2046Z" fill="#ADBFCC"/>
<path d="M45 15H124V17H45V15Z" fill="#CEDAE2"/>
<path d="M156 15H235V17H156V15Z" fill="#CEDAE2"/>
</g>
<defs>
<clipPath id="clip0_205_99">
<rect width="288" height="65" fill="white"/>
</clipPath>
</defs>
</svg>
