<svg width="16" height="16" viewBox="0 0 16 16" fill="none" xmlns="http://www.w3.org/2000/svg">
<path d="M2.06343 8.41406C1.57193 8.71842 1.1693 9.14423 0.895323 9.64943C0.621346 10.1546 0.485505 10.7217 0.501225 11.2947C0.516944 11.8676 0.683679 12.4266 0.984953 12.9164C1.28623 13.4062 1.71162 13.8098 2.21908 14.0874C2.72655 14.365 3.29853 14.507 3.8785 14.4992C4.45848 14.4915 5.02638 14.3344 5.52608 14.0433C6.02579 13.7523 6.44 13.3375 6.7278 12.8399C7.01559 12.3422 7.16701 11.779 7.16708 11.2058H12.1674" stroke="#7547DB" stroke-linecap="round" stroke-linejoin="round"/>
<path d="M10.5556 14.0898C11.0009 14.3327 11.4965 14.4716 12.0045 14.4961C12.5124 14.5205 13.0193 14.4297 13.4863 14.2308C13.9533 14.0318 14.3681 13.7298 14.6988 13.3481C15.0296 12.9663 15.2675 12.5148 15.3945 12.0282C15.5214 11.5415 15.534 11.0326 15.4313 10.5404C15.3286 10.0482 15.1132 9.58578 14.8018 9.18848C14.4903 8.79119 14.091 8.46958 13.6344 8.24828C13.1778 8.02698 12.676 7.91186 12.1674 7.91171C11.579 7.91171 10.9807 8.05913 10.5006 8.32348L8.00049 3.79407" stroke="#7547DB" stroke-linecap="round" stroke-linejoin="round"/>
<path d="M11.334 3.79412C11.334 2.92046 10.9828 2.08259 10.3577 1.46482C9.73249 0.847058 8.88459 0.5 8.00048 0.5C7.11637 0.5 6.26847 0.847058 5.64331 1.46482C5.01815 2.08259 4.66694 2.92046 4.66694 3.79412C4.66694 5.03435 5.30865 6.11482 6.33371 6.67647L3.83356 11.2059" stroke="#7547DB" stroke-linecap="round" stroke-linejoin="round"/>
</svg>
