<svg width="16" height="16" viewBox="0 0 16 16" fill="none" xmlns="http://www.w3.org/2000/svg">
<path d="M3 1.5H13C13.2761 1.5 13.5 1.72386 13.5 2V6C13.5 6.27614 13.2761 6.5 13 6.5H3C2.72386 6.5 2.5 6.27614 2.5 6V2C2.5 1.72386 2.72386 1.5 3 1.5Z" fill="#72C5F1"/>
<path d="M3 1.5H13C13.2761 1.5 13.5 1.72386 13.5 2V6C13.5 6.27614 13.2761 6.5 13 6.5H3C2.72386 6.5 2.5 6.27614 2.5 6V2C2.5 1.72386 2.72386 1.5 3 1.5Z" fill="url(#paint0_linear_21_203)" fill-opacity="0.2"/>
<path d="M3 1.5H13C13.2761 1.5 13.5 1.72386 13.5 2V6C13.5 6.27614 13.2761 6.5 13 6.5H3C2.72386 6.5 2.5 6.27614 2.5 6V2C2.5 1.72386 2.72386 1.5 3 1.5Z" stroke="url(#paint1_linear_21_203)"/>
<rect opacity="0.2" x="3" y="2" width="10" height="1" fill="#F5F5F5"/>
<path d="M14.5455 8.5H9.45455C8.92736 8.5 8.5 8.92736 8.5 9.45455V14.5455C8.5 15.0726 8.92736 15.5 9.45455 15.5H14.5455C15.0726 15.5 15.5 15.0726 15.5 14.5455V9.45455C15.5 8.92736 15.0726 8.5 14.5455 8.5Z" fill="white" stroke="#43CD6E" stroke-linecap="round" stroke-linejoin="round"/>
<path d="M9 11.5L11.3637 13.591L15 10" stroke="#1CA545" stroke-linecap="round" stroke-linejoin="round"/>
<defs>
<linearGradient id="paint0_linear_21_203" x1="8" y1="1" x2="8" y2="7" gradientUnits="userSpaceOnUse">
<stop stop-color="white"/>
<stop offset="1" stop-color="#81C3EE"/>
</linearGradient>
<linearGradient id="paint1_linear_21_203" x1="8" y1="1" x2="8" y2="7" gradientUnits="userSpaceOnUse">
<stop stop-color="#709FCD"/>
<stop offset="1" stop-color="#4F8AC2"/>
</linearGradient>
</defs>
</svg>
