<svg width="16" height="16" viewBox="0 0 16 16" fill="none" xmlns="http://www.w3.org/2000/svg">
<path d="M4 4.5C4 4.22386 4.22386 4 4.5 4H11.5C11.7761 4 12 4.22386 12 4.5V11.5C12 11.7761 11.7761 12 11.5 12H4.5C4.22386 12 4 11.7761 4 11.5V4.5Z" fill="url(#paint0_linear_16_647)"/>
<path d="M11.5 3.5H4.5C3.94772 3.5 3.5 3.94772 3.5 4.5V11.5C3.5 12.0523 3.94772 12.5 4.5 12.5H11.5C12.0523 12.5 12.5 12.0523 12.5 11.5V4.5C12.5 3.94772 12.0523 3.5 11.5 3.5Z" stroke="url(#paint1_linear_16_647)" stroke-opacity="0.8"/>
<path d="M5 2.5H11C11.8284 2.5 12.5 3.17157 12.5 4V4.5H3.5V4C3.5 3.17157 4.17157 2.5 5 2.5Z" fill="url(#paint2_linear_16_647)" stroke="url(#paint3_linear_16_647)"/>
<rect x="4" y="9" width="8" height="1" fill="#859EAF"/>
<defs>
<linearGradient id="paint0_linear_16_647" x1="8" y1="4.72727" x2="8" y2="12" gradientUnits="userSpaceOnUse">
<stop stop-color="white"/>
<stop offset="1" stop-color="#F1F1F1"/>
</linearGradient>
<linearGradient id="paint1_linear_16_647" x1="8" y1="4.72727" x2="8" y2="12" gradientUnits="userSpaceOnUse">
<stop stop-color="#ABB7C0"/>
<stop offset="1" stop-color="#8E97A1"/>
</linearGradient>
<linearGradient id="paint2_linear_16_647" x1="3" y1="3.5" x2="13" y2="3.5" gradientUnits="userSpaceOnUse">
<stop stop-color="#87D2FE"/>
<stop offset="0.55" stop-color="#6CBBF3"/>
<stop offset="1" stop-color="#25C6F7"/>
</linearGradient>
<linearGradient id="paint3_linear_16_647" x1="3" y1="3.5" x2="13" y2="3.5" gradientUnits="userSpaceOnUse">
<stop stop-color="#51A5E8"/>
<stop offset="1" stop-color="#4F9FDE"/>
</linearGradient>
</defs>
</svg>
