<svg width="288" height="65" viewBox="0 0 288 65" fill="none" xmlns="http://www.w3.org/2000/svg">
<g clip-path="url(#clip0_8_65)">
<mask id="mask0_8_65" style="mask-type:luminance" maskUnits="userSpaceOnUse" x="0" y="0" width="288" height="65">
<path d="M288 0H0V65H288V0Z" fill="white"/>
</mask>
<g mask="url(#mask0_8_65)">
<path d="M288 0H0V65H288V0Z" fill="white"/>
<path d="M10.9951 44.7373L12.2266 45.0483C11.9684 46.0597 11.5029 46.832 10.8301 47.3652C10.1615 47.8942 9.34261 48.1587 8.37354 48.1587C7.37061 48.1587 6.55387 47.9556 5.92334 47.5493C5.29704 47.1388 4.81885 46.5464 4.48877 45.772C4.16292 44.9976 4 44.166 4 43.2773C4 42.3083 4.18408 41.464 4.55225 40.7446C4.92464 40.021 5.4515 39.473 6.13281 39.1006C6.81836 38.724 7.57162 38.5356 8.39258 38.5356C9.32357 38.5356 10.1064 38.7726 10.7412 39.2466C11.376 39.7205 11.8182 40.387 12.0679 41.2461L10.8555 41.5317C10.6396 40.8547 10.3265 40.3617 9.91602 40.0527C9.50553 39.7438 8.98926 39.5894 8.36719 39.5894C7.65202 39.5894 7.05322 39.7607 6.5708 40.1035C6.09261 40.4463 5.75619 40.9076 5.56152 41.4873C5.36686 42.0628 5.26953 42.6574 5.26953 43.271C5.26953 44.0623 5.38379 44.7542 5.61231 45.3467C5.84505 45.9349 6.20475 46.375 6.69141 46.667C7.17806 46.959 7.70492 47.105 8.27197 47.105C8.96175 47.105 9.54574 46.9061 10.0239 46.5083C10.5021 46.1105 10.8258 45.5202 10.9951 44.7373Z" fill="#009646"/>
<path d="M13.1787 44.6294C13.1787 43.381 13.5257 42.4564 14.2197 41.8555C14.7994 41.3561 15.5061 41.1064 16.3398 41.1064C17.2666 41.1064 18.024 41.4111 18.6123 42.0205C19.2005 42.6257 19.4946 43.4635 19.4946 44.5342C19.4946 45.4017 19.3634 46.0851 19.101 46.5845C18.8429 47.0796 18.4642 47.4647 17.9648 47.7397C17.4697 48.0148 16.928 48.1523 16.3398 48.1523C15.3961 48.1523 14.6323 47.8498 14.0483 47.2446C13.4685 46.6395 13.1787 45.7677 13.1787 44.6294ZM14.353 44.6294C14.353 45.4927 14.5413 46.1401 14.9179 46.5718C15.2946 46.9992 15.7685 47.2129 16.3398 47.2129C16.9069 47.2129 17.3787 46.9971 17.7553 46.5654C18.132 46.1338 18.3203 45.4757 18.3203 44.5913C18.3203 43.7576 18.1298 43.1271 17.749 42.6997C17.3724 42.2681 16.9026 42.0522 16.3398 42.0522C15.7685 42.0522 15.2946 42.266 14.9179 42.6934C14.5413 43.1208 14.353 43.7661 14.353 44.6294Z" fill="#009646"/>
<path d="M22.1796 44.9531V44.0581C22.6621 44.0539 22.99 44.0348 23.1635 44.001C23.3413 43.9671 23.5084 43.8656 23.665 43.6963C23.8216 43.527 23.8999 43.3154 23.8999 43.0615C23.8999 42.7526 23.7962 42.5072 23.5888 42.3252C23.3857 42.139 23.1212 42.0459 22.7954 42.0459C22.1521 42.0459 21.7015 42.4246 21.4433 43.1821L20.3579 43.0044C20.6964 41.7391 21.5131 41.1064 22.8081 41.1064C23.5275 41.1064 24.0903 41.3032 24.4965 41.6968C24.907 42.0903 25.1123 42.5601 25.1123 43.106C25.1123 43.6561 24.8457 44.0941 24.3125 44.4199C24.651 44.6019 24.9049 44.8346 25.0742 45.1182C25.2435 45.3975 25.3281 45.7297 25.3281 46.1147C25.3281 46.7199 25.108 47.2108 24.6679 47.5874C24.2278 47.964 23.6121 48.1523 22.8208 48.1523C21.2846 48.1523 20.3938 47.4689 20.1484 46.1021L21.2212 45.8735C21.3185 46.3052 21.5153 46.6395 21.8115 46.8765C22.1119 47.1134 22.4547 47.2319 22.8398 47.2319C23.2249 47.2319 23.5444 47.124 23.7983 46.9082C24.0564 46.6882 24.1855 46.4089 24.1855 46.0703C24.1855 45.8079 24.1051 45.5794 23.9443 45.3848C23.7835 45.1901 23.6121 45.0695 23.4301 45.0229C23.2482 44.9722 22.9181 44.9468 22.4399 44.9468C22.4018 44.9468 22.3151 44.9489 22.1796 44.9531Z" fill="#009646"/>
<path d="M27.2642 41.2588H31.9615V47.0605H32.6915V49.9106H31.752V48H26.4454V49.9106H25.5059V47.0605H26.1089C26.913 45.9688 27.2981 44.0348 27.2642 41.2588ZM28.2164 42.2046C28.1317 44.3924 27.7932 46.0111 27.2007 47.0605H30.8253V42.2046H28.2164Z" fill="#009646"/>
<path d="M38.3535 47.1685C37.9303 47.5282 37.5219 47.7821 37.1284 47.9302C36.7391 48.0783 36.3201 48.1523 35.8715 48.1523C35.131 48.1523 34.5618 47.9725 34.164 47.6128C33.7662 47.2489 33.5673 46.7855 33.5673 46.2227C33.5673 45.8926 33.6414 45.5921 33.7895 45.3213C33.9419 45.0462 34.1386 44.8262 34.3798 44.6611C34.6253 44.4961 34.9004 44.3713 35.205 44.2866C35.4293 44.2274 35.7679 44.1702 36.2207 44.1152C37.1432 44.0052 37.8224 43.874 38.2583 43.7217C38.2625 43.5651 38.2646 43.4657 38.2646 43.4233C38.2646 42.9578 38.1567 42.6299 37.9409 42.4395C37.6489 42.1813 37.2151 42.0522 36.6396 42.0522C36.1022 42.0522 35.7044 42.1475 35.4463 42.3379C35.1923 42.5241 35.004 42.8563 34.8813 43.3345L33.7641 43.1821C33.8657 42.7039 34.0328 42.3188 34.2656 42.0269C34.4983 41.7306 34.8348 41.5042 35.2749 41.3477C35.715 41.1868 36.2249 41.1064 36.8046 41.1064C37.3802 41.1064 37.8478 41.1742 38.2075 41.3096C38.5672 41.445 38.8317 41.6164 39.0009 41.8237C39.1702 42.0269 39.2887 42.285 39.3564 42.5981C39.3945 42.7928 39.4135 43.144 39.4135 43.6519V45.1753C39.4135 46.2375 39.4368 46.9103 39.4834 47.1938C39.5341 47.4731 39.6315 47.7419 39.7754 48H38.582C38.4635 47.763 38.3873 47.4858 38.3535 47.1685ZM38.2583 44.6167C37.8435 44.786 37.2215 44.9299 36.3921 45.0483C35.9223 45.116 35.5901 45.1922 35.3955 45.2769C35.2008 45.3615 35.0506 45.4863 34.9448 45.6514C34.839 45.8122 34.7861 45.992 34.7861 46.1909C34.7861 46.4956 34.9004 46.7495 35.1289 46.9526C35.3616 47.1558 35.7002 47.2573 36.1445 47.2573C36.5846 47.2573 36.976 47.1621 37.3188 46.9717C37.6616 46.777 37.9134 46.5125 38.0742 46.1782C38.1969 45.9201 38.2583 45.5392 38.2583 45.0356V44.6167Z" fill="#009646"/>
<path d="M41.1971 41.2588H42.3397V44.0645H45.5072V41.2588H46.6498V48H45.5072V45.0103H42.3397V48H41.1971V41.2588Z" fill="#009646"/>
<path d="M52.7755 47.1685C52.3523 47.5282 51.9439 47.7821 51.5504 47.9302C51.161 48.0783 50.7421 48.1523 50.2935 48.1523C49.553 48.1523 48.9838 47.9725 48.586 47.6128C48.1882 47.2489 47.9893 46.7855 47.9893 46.2227C47.9893 45.8926 48.0634 45.5921 48.2115 45.3213C48.3638 45.0462 48.5606 44.8262 48.8018 44.6611C49.0473 44.4961 49.3223 44.3713 49.627 44.2866C49.8513 44.2274 50.1898 44.1702 50.6426 44.1152C51.5652 44.0052 52.2444 43.874 52.6802 43.7217C52.6845 43.5651 52.6866 43.4657 52.6866 43.4233C52.6866 42.9578 52.5787 42.6299 52.3629 42.4395C52.0709 42.1813 51.6371 42.0522 51.0616 42.0522C50.5241 42.0522 50.1264 42.1475 49.8682 42.3379C49.6143 42.5241 49.426 42.8563 49.3033 43.3345L48.1861 43.1821C48.2877 42.7039 48.4548 42.3188 48.6876 42.0269C48.9203 41.7306 49.2567 41.5042 49.6968 41.3477C50.1369 41.1868 50.6469 41.1064 51.2266 41.1064C51.8021 41.1064 52.2698 41.1742 52.6295 41.3096C52.9892 41.445 53.2536 41.6164 53.4229 41.8237C53.5922 42.0269 53.7107 42.285 53.7784 42.5981C53.8165 42.7928 53.8355 43.144 53.8355 43.6519V45.1753C53.8355 46.2375 53.8588 46.9103 53.9053 47.1938C53.9561 47.4731 54.0534 47.7419 54.1973 48H53.004C52.8855 47.763 52.8093 47.4858 52.7755 47.1685ZM52.6802 44.6167C52.2655 44.786 51.6435 44.9299 50.814 45.0483C50.3443 45.116 50.0121 45.1922 49.8174 45.2769C49.6228 45.3615 49.4726 45.4863 49.3668 45.6514C49.261 45.8122 49.2081 45.992 49.2081 46.1909C49.2081 46.4956 49.3223 46.7495 49.5508 46.9526C49.7836 47.1558 50.1221 47.2573 50.5665 47.2573C51.0066 47.2573 51.398 47.1621 51.7408 46.9717C52.0836 46.777 52.3353 46.5125 52.4962 46.1782C52.6189 45.9201 52.6802 45.5392 52.6802 45.0356V44.6167Z" fill="#009646"/>
<path d="M104 38.6943H111.318V48H110.081V39.7925H105.231V48H104V38.6943Z" fill="#ADBFCC"/>
<path d="M112.759 44.6294C112.759 43.381 113.106 42.4564 113.8 41.8555C114.38 41.3561 115.087 41.1064 115.921 41.1064C116.847 41.1064 117.605 41.4111 118.193 42.0205C118.781 42.6257 119.075 43.4635 119.075 44.5342C119.075 45.4017 118.944 46.0851 118.682 46.5845C118.424 47.0796 118.045 47.4647 117.546 47.7397C117.05 48.0148 116.509 48.1523 115.921 48.1523C114.977 48.1523 114.213 47.8498 113.629 47.2446C113.049 46.6395 112.759 45.7677 112.759 44.6294ZM113.934 44.6294C113.934 45.4927 114.122 46.1401 114.499 46.5718C114.875 46.9992 115.349 47.2129 115.921 47.2129C116.488 47.2129 116.959 46.9971 117.336 46.5654C117.713 46.1338 117.901 45.4757 117.901 44.5913C117.901 43.7576 117.711 43.1271 117.33 42.6997C116.953 42.2681 116.483 42.0522 115.921 42.0522C115.349 42.0522 114.875 42.266 114.499 42.6934C114.122 43.1208 113.934 43.7661 113.934 44.6294Z" fill="#ADBFCC"/>
<path d="M121.03 41.2588H125.728V47.0605H126.458V49.9106H125.518V48H120.212V49.9106H119.272V47.0605H119.875C120.679 45.9688 121.064 44.0348 121.03 41.2588ZM121.983 42.2046C121.898 44.3924 121.559 46.0111 120.967 47.0605H124.591V42.2046H121.983Z" fill="#ADBFCC"/>
<path d="M127.727 41.2588H133.046V48H131.904V42.2046H128.87V48H127.727V41.2588Z" fill="#ADBFCC"/>
<path d="M134.767 41.2588H135.909V46.4004L139.077 41.2588H140.308V48H139.166V42.8901L135.998 48H134.767V41.2588Z" fill="#ADBFCC"/>
<path d="M146.427 45.5308L147.551 45.6768C147.428 46.4512 147.113 47.0584 146.605 47.4985C146.102 47.9344 145.482 48.1523 144.745 48.1523C143.823 48.1523 143.08 47.8519 142.517 47.251C141.959 46.6458 141.679 45.7804 141.679 44.6548C141.679 43.9269 141.8 43.29 142.041 42.7441C142.282 42.1982 142.648 41.7899 143.139 41.519C143.634 41.244 144.172 41.1064 144.752 41.1064C145.484 41.1064 146.082 41.2926 146.548 41.665C147.013 42.0332 147.312 42.5579 147.443 43.2393L146.332 43.4106C146.226 42.9578 146.038 42.6172 145.767 42.3887C145.501 42.1602 145.177 42.0459 144.796 42.0459C144.22 42.0459 143.753 42.2533 143.393 42.668C143.033 43.0785 142.854 43.7301 142.854 44.623C142.854 45.5286 143.027 46.1867 143.374 46.5972C143.721 47.0076 144.174 47.2129 144.733 47.2129C145.181 47.2129 145.556 47.0754 145.856 46.8003C146.157 46.5252 146.347 46.1021 146.427 45.5308Z" fill="#ADBFCC"/>
<path d="M152.927 47.1685C152.504 47.5282 152.096 47.7821 151.702 47.9302C151.313 48.0783 150.894 48.1523 150.445 48.1523C149.705 48.1523 149.136 47.9725 148.738 47.6128C148.34 47.2489 148.141 46.7855 148.141 46.2227C148.141 45.8926 148.215 45.5921 148.363 45.3213C148.516 45.0462 148.713 44.8262 148.954 44.6611C149.199 44.4961 149.474 44.3713 149.779 44.2866C150.003 44.2274 150.342 44.1702 150.795 44.1152C151.717 44.0052 152.396 43.874 152.832 43.7217C152.836 43.5651 152.838 43.4657 152.838 43.4233C152.838 42.9578 152.731 42.6299 152.515 42.4395C152.223 42.1813 151.789 42.0522 151.213 42.0522C150.676 42.0522 150.278 42.1475 150.02 42.3379C149.766 42.5241 149.578 42.8563 149.455 43.3345L148.338 43.1821C148.44 42.7039 148.607 42.3188 148.839 42.0269C149.072 41.7306 149.409 41.5042 149.849 41.3477C150.289 41.1868 150.799 41.1064 151.379 41.1064C151.954 41.1064 152.422 41.1742 152.781 41.3096C153.141 41.445 153.406 41.6164 153.575 41.8237C153.744 42.0269 153.863 42.285 153.93 42.5981C153.968 42.7928 153.987 43.144 153.987 43.6519V45.1753C153.987 46.2375 154.011 46.9103 154.057 47.1938C154.108 47.4731 154.205 47.7419 154.349 48H153.156C153.037 47.763 152.961 47.4858 152.927 47.1685ZM152.832 44.6167C152.417 44.786 151.795 44.9299 150.966 45.0483C150.496 45.116 150.164 45.1922 149.969 45.2769C149.775 45.3615 149.624 45.4863 149.519 45.6514C149.413 45.8122 149.36 45.992 149.36 46.1909C149.36 46.4956 149.474 46.7495 149.703 46.9526C149.935 47.1558 150.274 47.2573 150.718 47.2573C151.158 47.2573 151.55 47.1621 151.893 46.9717C152.235 46.777 152.487 46.5125 152.648 46.1782C152.771 45.9201 152.832 45.5392 152.832 45.0356V44.6167Z" fill="#ADBFCC"/>
<path d="M155.771 41.2588H156.914V44.0645H160.081V41.2588H161.224V48H160.081V45.0103H156.914V48H155.771V41.2588Z" fill="#ADBFCC"/>
<path d="M162.95 41.2588H164.093V46.4004L167.26 41.2588H168.492V48H167.349V42.8901L164.182 48H162.95V41.2588Z" fill="#ADBFCC"/>
<path d="M174.827 45.8291L176.007 45.9751C175.821 46.6649 175.476 47.2002 174.973 47.5811C174.469 47.9619 173.826 48.1523 173.043 48.1523C172.057 48.1523 171.274 47.8498 170.694 47.2446C170.119 46.6353 169.831 45.7826 169.831 44.6865C169.831 43.5524 170.123 42.6722 170.707 42.0459C171.291 41.4196 172.049 41.1064 172.98 41.1064C173.881 41.1064 174.617 41.4132 175.189 42.0269C175.76 42.6405 176.046 43.5037 176.046 44.6167C176.046 44.6844 176.043 44.786 176.039 44.9214H171.012C171.054 45.6619 171.264 46.229 171.64 46.6226C172.017 47.0161 172.487 47.2129 173.049 47.2129C173.468 47.2129 173.826 47.1029 174.122 46.8828C174.418 46.6628 174.653 46.3115 174.827 45.8291ZM171.075 43.9819H174.839C174.789 43.4149 174.645 42.9896 174.408 42.7061C174.044 42.266 173.572 42.0459 172.992 42.0459C172.468 42.0459 172.025 42.2215 171.666 42.5728C171.31 42.924 171.113 43.3937 171.075 43.9819Z" fill="#ADBFCC"/>
<path d="M29 0C20.163 0 13 7.163 13 16C13 24.837 20.163 32 29 32C37.837 32 45 24.837 45 16C44.974 7.174 37.826 0.026 29 0Z" fill="#14AA5A"/>
<path fill-rule="evenodd" clip-rule="evenodd" d="M29 29C36.1797 29 42 23.1797 42 16C42 8.8203 36.1797 3 29 3C21.8203 3 16 8.8203 16 16C16 23.1797 21.8203 29 29 29ZM29 30C36.732 30 43 23.732 43 16C43 8.26801 36.732 2 29 2C21.268 2 15 8.26801 15 16C15 23.732 21.268 30 29 30Z" fill="white"/>
<path d="M29.6426 23.1758C29.1445 23.1758 28.793 22.8047 28.793 22.2676V10.832H28.7539L26.1172 12.6777C25.9219 12.8145 25.7363 12.8828 25.5215 12.8828C25.1113 12.8828 24.8281 12.5898 24.8281 12.1602C24.8281 11.8477 24.9453 11.6426 25.3164 11.3789L28.334 9.2207C28.8809 8.83008 29.1152 8.73242 29.5156 8.73242C30.1211 8.73242 30.4922 9.10352 30.4922 9.71875V22.2676C30.4922 22.8047 30.1406 23.1758 29.6426 23.1758Z" fill="#F5F5F5"/>
<path d="M154 16C154 23.732 147.732 30 140 30C132.268 30 126 23.732 126 16C126 8.26801 132.268 2 140 2C147.732 2 154 8.26801 154 16Z" fill="#CFDAE2"/>
<path d="M136.279 23C135.762 23 135.43 22.7168 135.43 22.2773C135.43 21.916 135.508 21.7598 135.928 21.3203L140.439 16.6133C142.334 14.6309 142.783 13.8789 142.783 12.6973C142.783 11.2617 141.68 10.207 140.166 10.207C138.643 10.207 137.578 10.998 137.1 12.5117C136.982 12.873 136.787 13.127 136.309 13.127C135.791 13.127 135.498 12.8047 135.498 12.3457C135.498 12.2188 135.508 12.1113 135.527 11.9941C135.732 10.5488 137.285 8.67383 140.166 8.67383C142.705 8.67383 144.541 10.3145 144.541 12.5898C144.541 14.1328 143.838 15.2949 141.426 17.7656L137.891 21.3984V21.4375H144.043C144.541 21.4375 144.873 21.75 144.873 22.2188C144.873 22.6875 144.541 23 144.043 23H136.279Z" fill="#F5F5F5"/>
<path d="M45 15H124V17H45V15Z" fill="#CEDAE2"/>
</g>
</g>
<defs>
<clipPath id="clip0_8_65">
<rect width="288" height="65" fill="white"/>
</clipPath>
</defs>
</svg>
