<svg width="438" height="438" viewBox="0 0 438 438" fill="none" xmlns="http://www.w3.org/2000/svg">
<path fill-rule="evenodd" clip-rule="evenodd" d="M374 25H64C42.4609 25 25 42.4609 25 64V374C25 395.539 42.4609 413 64 413H374C395.539 413 413 395.539 413 374V64C413 42.4609 395.539 25 374 25ZM64 0C28.6538 0 0 28.6538 0 64V374C0 409.346 28.6538 438 64 438H374C409.346 438 438 409.346 438 374V64C438 28.6538 409.346 0 374 0H64Z" fill="#B4B4B4"/>
<path fill-rule="evenodd" clip-rule="evenodd" d="M127.61 175.995L271.517 303.745L351.038 241.729L428.321 310.672L411.679 329.328L349.962 274.271L270.483 336.255L129.39 211.005L18.7041 331.458L0.295906 314.542L127.61 175.995Z" fill="#B4B4B4"/>
<path fill-rule="evenodd" clip-rule="evenodd" d="M309 172C332.196 172 351 153.196 351 130C351 106.804 332.196 88 309 88C285.804 88 267 106.804 267 130C267 153.196 285.804 172 309 172ZM309 197C346.003 197 376 167.003 376 130C376 92.9969 346.003 63 309 63C271.997 63 242 92.9969 242 130C242 167.003 271.997 197 309 197Z" fill="#B4B4B4"/>
</svg>
