<svg width="48" height="16" viewBox="0 0 48 16" fill="none" xmlns="http://www.w3.org/2000/svg">
<rect x="3" width="10" height="16" rx="1.5" fill="#333333"/>
<rect x="4" y="1" width="8" height="14" rx="1" fill="#ECECEC"/>
<path d="M4 2C4 1.44772 4.44772 1 5 1H11C11.5523 1 12 1.44772 12 2V4H4V2Z" fill="#FAD051"/>
<rect x="6" width="4" height="2" rx="1" fill="#333333"/>
<rect x="7" y="14" width="2" height="2" rx="1" fill="#333333"/>
<rect x="5" y="6" width="4" height="1" fill="#D9D9D9"/>
<rect x="5" y="8" width="6" height="1" fill="#D9D9D9"/>
<rect x="5" y="10" width="3" height="1" fill="#D9D9D9"/>
<path fill-rule="evenodd" clip-rule="evenodd" d="M31 2H17V12H31V2ZM30 3H18V11H30V3Z" fill="#333333"/>
<path d="M23 12H25V14H23V12Z" fill="#333333"/>
<path d="M21 15H27V14H21V15Z" fill="#333333"/>
<rect x="18" y="3" width="12" height="8" fill="#85B6FF"/>
<rect x="20" y="4" width="8" height="6" fill="#ECECEC"/>
<rect x="20" y="4" width="8" height="1" fill="#FAD051"/>
<rect x="21" y="6" width="4" height="1" fill="#D9D9D9"/>
<rect x="21" y="8" width="6" height="1" fill="#D9D9D9"/>
<path fill-rule="evenodd" clip-rule="evenodd" d="M48 1H38V8H48V1ZM47 2H39V7H47V2Z" fill="#333333"/>
<path d="M42 8H44V10H42V8Z" fill="#333333"/>
<path d="M41 11H45V10H41V11Z" fill="#333333"/>
<rect x="39" y="2" width="8" height="5" fill="#85B6FF"/>
<rect x="41" y="3" width="5" height="3" fill="#ECECEC"/>
<rect x="41" y="3" width="5" height="1" fill="#FAD051"/>
<rect x="41" y="5" width="5" height="1" fill="#D9D9D9"/>
<rect x="32" y="3" width="8" height="13" rx="1" fill="#333333"/>
<rect x="33" y="4" width="6" height="11" rx="0.5" fill="#ECECEC"/>
<path d="M33 4.5C33 4.22386 33.2239 4 33.5 4H38.5C38.7761 4 39 4.22386 39 4.5V6H33V4.5Z" fill="#FAD051"/>
<rect x="34.4" y="3" width="3.2" height="1.625" rx="0.8125" fill="#333333"/>
<rect x="35.2" y="14.375" width="1.6" height="1.625" rx="0.8" fill="#333333"/>
<rect x="34" y="7" width="3" height="1" fill="#D9D9D9"/>
<rect x="34" y="9" width="4" height="1" fill="#D9D9D9"/>
<rect x="34" y="11" width="2" height="1" fill="#D9D9D9"/>
</svg>
