<svg width="16" height="16" viewBox="0 0 16 16" fill="none" xmlns="http://www.w3.org/2000/svg">
<rect x="1" y="2" width="14" height="11" fill="#748D98" fill-opacity="0.8"/>
<rect x="2" y="3" width="4" height="1" fill="white"/>
<rect x="2" y="5" width="4" height="7" fill="white"/>
<rect x="7" y="3" width="3" height="1" fill="white"/>
<rect x="7" y="5" width="3" height="7" fill="white"/>
<rect x="11" y="3" width="3" height="1" fill="white"/>
<rect x="11" y="5" width="3" height="7" fill="white"/>
<path d="M5 10H3V11H5V10Z" fill="#BDC8D2"/>
<path d="M5 8H3V9H5V8Z" fill="#BDC8D2"/>
<path d="M5 6H3V7H5V6Z" fill="#BDC8D2"/>
<path d="M4 10H3V11H4V10Z" fill="#AAB5C2"/>
<path d="M4 8H3V9H4V8Z" fill="#AAB5C2"/>
<path d="M4 6H3V7H4V6Z" fill="#AAB5C2"/>
</svg>
