<svg width="16" height="16" viewBox="0 0 16 16" fill="none" xmlns="http://www.w3.org/2000/svg">
<rect x="11.5" y="2.5" width="3" height="4" rx="1.5" fill="white" stroke="#94A3A3"/>
<rect x="11.5" y="6.5" width="3" height="4" rx="1.5" fill="white" stroke="#94A3A3"/>
<rect x="11.5" y="10.5" width="3" height="4" rx="1.5" fill="white" stroke="#94A3A3"/>
<path d="M2 0.5H12.5V15.5H2C1.72386 15.5 1.5 15.2761 1.5 15V1C1.5 0.723858 1.72386 0.5 2 0.5Z" fill="url(#paint0_linear_21_44)" stroke="url(#paint1_linear_21_44)"/>
<path d="M3 0H2C1.44772 0 1 0.447715 1 1V15C1 15.5523 1.44772 16 2 16H3V0Z" fill="#434343"/>
<rect x="2" y="1" width="9" height="1" fill="white"/>
<rect x="3" y="2" width="9" height="1" fill="#6CB160"/>
<rect width="1" height="1" transform="matrix(-1 0 0 1 12 1)" fill="#92B5C7"/>
<rect width="1" height="12" transform="matrix(-1 0 0 1 3 3)" fill="#797979"/>
<defs>
<linearGradient id="paint0_linear_21_44" x1="7" y1="0" x2="7" y2="11.0182" gradientUnits="userSpaceOnUse">
<stop stop-color="#8ED884"/>
<stop offset="1" stop-color="#6EB864"/>
</linearGradient>
<linearGradient id="paint1_linear_21_44" x1="7" y1="0" x2="7" y2="16" gradientUnits="userSpaceOnUse">
<stop stop-color="#70BA66"/>
<stop offset="1" stop-color="#527F40"/>
</linearGradient>
</defs>
</svg>
