<svg width="16" height="16" viewBox="0 0 16 16" fill="none" xmlns="http://www.w3.org/2000/svg">
<path d="M6 1H11V12H6V1Z" fill="white"/>
<path d="M6 1H11V12H6V1Z" fill="url(#paint0_linear_21_22)"/>
<path d="M11 4H14V12H11V4Z" fill="white"/>
<path d="M11 4H14V12H11V4Z" fill="url(#paint1_linear_21_22)"/>
<g opacity="0.8">
<path d="M11 0H5V1H11V4H14V13H15V4L11 0Z" fill="#485F69"/>
<path d="M5 1H6V13H5V1Z" fill="#485F69"/>
<path d="M14 12V13H6V12H14Z" fill="#485F69"/>
</g>
<path d="M2 4H7V15H2V4Z" fill="url(#paint2_linear_21_22)"/>
<path d="M7 7H10V15H7V7Z" fill="url(#paint3_linear_21_22)"/>
<g opacity="0.8">
<path d="M7 3H1V4H7V7H10V16H11V7L7 3Z" fill="#485F69"/>
<path d="M1 4H2V16H1V4Z" fill="#485F69"/>
<path d="M10 15V16H2V15H10Z" fill="#485F69"/>
</g>
<defs>
<linearGradient id="paint0_linear_21_22" x1="10" y1="1" x2="10" y2="12" gradientUnits="userSpaceOnUse">
<stop stop-color="#E3F3F3"/>
<stop offset="1" stop-color="#FCFEFE"/>
</linearGradient>
<linearGradient id="paint1_linear_21_22" x1="10" y1="1" x2="10" y2="12" gradientUnits="userSpaceOnUse">
<stop stop-color="#E3F3F3"/>
<stop offset="1" stop-color="#FCFEFE"/>
</linearGradient>
<linearGradient id="paint2_linear_21_22" x1="6" y1="4" x2="6" y2="15" gradientUnits="userSpaceOnUse">
<stop stop-color="#E3F3F3"/>
<stop offset="1" stop-color="#FCFEFE"/>
</linearGradient>
<linearGradient id="paint3_linear_21_22" x1="6" y1="4" x2="6" y2="15" gradientUnits="userSpaceOnUse">
<stop stop-color="#E3F3F3"/>
<stop offset="1" stop-color="#FCFEFE"/>
</linearGradient>
</defs>
</svg>
