<svg width="16" height="16" viewBox="0 0 16 16" fill="none" xmlns="http://www.w3.org/2000/svg">
<rect x="6" y="5" width="4" height="5" fill="#498EBA"/>
<rect x="7" y="6" width="2" height="3" fill="#45ADDD"/>
<rect x="11" y="5" width="4" height="5" fill="#498EBA"/>
<rect x="12" y="6" width="2" height="3" fill="#45ADDD"/>
<rect x="1" y="5" width="4" height="5" fill="#498EBA"/>
<rect x="2" y="6" width="2" height="3" fill="#45ADDD"/>
<path d="M0 2H16V3H0V2Z" fill="#498EBA"/>
<path d="M0 3H1V4H0V3Z" fill="#498EBA"/>
<path d="M15 3H16V4H15V3Z" fill="#498EBA"/>
<path d="M0 13H16V12H0V13Z" fill="#498EBA"/>
<path d="M0 12H1V11H0V12Z" fill="#498EBA"/>
<path d="M15 12H16V11H15V12Z" fill="#498EBA"/>
</svg>
