<svg width="16" height="16" viewBox="0 0 16 16" fill="none" xmlns="http://www.w3.org/2000/svg">
<circle cx="2" cy="9" r="1.5" fill="url(#paint0_linear_16_662)" stroke="url(#paint1_linear_16_662)"/>
<circle cx="14" cy="9" r="1.5" fill="url(#paint2_linear_16_662)" stroke="url(#paint3_linear_16_662)"/>
<path d="M14.5 7.5C14.5 11.399 11.5579 14.5 8 14.5C4.44208 14.5 1.5 11.399 1.5 7.5C1.5 3.60096 4.44208 0.5 8 0.5C11.5579 0.5 14.5 3.60096 14.5 7.5Z" fill="url(#paint4_linear_16_662)" stroke="url(#paint5_linear_16_662)"/>
<path opacity="0.8" d="M11.5 3.5C11.5 3.72422 11.4327 3.86122 11.3296 3.96586C11.2122 4.08492 11.0121 4.19723 10.6938 4.28624C10.0469 4.46713 9.1161 4.5 8 4.5C6.8839 4.5 5.95313 4.46713 5.30622 4.28624C4.98789 4.19723 4.78778 4.08492 4.67043 3.96586C4.56729 3.86122 4.5 3.72422 4.5 3.5C4.5 2.99462 4.85024 2.24076 5.51977 1.59106C6.17551 0.954749 7.05675 0.5 8 0.5C8.94325 0.5 9.82449 0.954749 10.4802 1.59106C11.1498 2.24076 11.5 2.99462 11.5 3.5Z" fill="url(#paint6_linear_16_662)" stroke="url(#paint7_linear_16_662)"/>
<path d="M13 7.5C13 6.11929 10.2091 6 8 6C5.79086 6 3 6.11929 3 7.5C3 8.88071 4.5 12 8 12C12 12 13 8.88071 13 7.5Z" fill="url(#paint8_linear_16_662)"/>
<rect x="5" y="7" width="1" height="3" fill="#00CCFF"/>
<rect opacity="0.3" x="6" y="7" width="1" height="3" fill="#00CCFF"/>
<rect opacity="0.3" x="9" y="7" width="1" height="3" fill="#00CCFF"/>
<rect x="10" y="7" width="1" height="3" fill="#00CCFF"/>
<circle cx="2" cy="9" r="1" fill="#ECECEC"/>
<circle cx="14" cy="9" r="1" fill="#ECECEC"/>
<rect opacity="0.3" x="7" y="3" width="2" height="1" fill="#7A7E9C"/>
<defs>
<linearGradient id="paint0_linear_16_662" x1="2" y1="7" x2="2" y2="11" gradientUnits="userSpaceOnUse">
<stop stop-color="#FBFBFB"/>
<stop offset="1" stop-color="#E2E2E2"/>
</linearGradient>
<linearGradient id="paint1_linear_16_662" x1="2" y1="7" x2="2" y2="11" gradientUnits="userSpaceOnUse">
<stop stop-color="#111E32" stop-opacity="0.2"/>
<stop offset="1" stop-color="#3F5068"/>
</linearGradient>
<linearGradient id="paint2_linear_16_662" x1="14" y1="7" x2="14" y2="11" gradientUnits="userSpaceOnUse">
<stop stop-color="#FBFBFB"/>
<stop offset="1" stop-color="#E2E2E2"/>
</linearGradient>
<linearGradient id="paint3_linear_16_662" x1="14" y1="7" x2="14" y2="11" gradientUnits="userSpaceOnUse">
<stop stop-color="#111E32" stop-opacity="0.2"/>
<stop offset="1" stop-color="#3F5068"/>
</linearGradient>
<linearGradient id="paint4_linear_16_662" x1="8" y1="0" x2="8" y2="15" gradientUnits="userSpaceOnUse">
<stop stop-color="#FBFBFB"/>
<stop offset="1" stop-color="#E2E2E2"/>
</linearGradient>
<linearGradient id="paint5_linear_16_662" x1="8" y1="0" x2="8" y2="15" gradientUnits="userSpaceOnUse">
<stop stop-color="#111E32" stop-opacity="0.2"/>
<stop offset="1" stop-color="#3F5068"/>
</linearGradient>
<linearGradient id="paint6_linear_16_662" x1="8" y1="0" x2="8" y2="5" gradientUnits="userSpaceOnUse">
<stop stop-color="#FBFBFB"/>
<stop offset="1" stop-color="#E2E2E2"/>
</linearGradient>
<linearGradient id="paint7_linear_16_662" x1="8" y1="0" x2="8" y2="5" gradientUnits="userSpaceOnUse">
<stop stop-color="#484D6A" stop-opacity="0.2"/>
<stop offset="1" stop-color="#515880"/>
</linearGradient>
<linearGradient id="paint8_linear_16_662" x1="8" y1="11" x2="8" y2="6" gradientUnits="userSpaceOnUse">
<stop stop-color="#6D7DAB"/>
<stop offset="1" stop-color="#212634"/>
</linearGradient>
</defs>
</svg>
