<svg width="64" height="65" viewBox="0 0 64 65" fill="none" xmlns="http://www.w3.org/2000/svg">
<g clip-path="url(#clip0_205_26)">
<rect width="64" height="65" fill="white"/>
<path d="M32 0C23.163 0 16 7.163 16 16C16 24.837 23.163 32 32 32C40.837 32 48 24.837 48 16C47.974 7.174 40.826 0.026 32 0ZM38.707 21.293C39.098 21.684 39.098 22.316 38.707 22.707C38.512 22.902 38.256 23 38 23C37.744 23 37.488 22.902 37.293 22.707L32 17.414L26.707 22.707C26.512 22.902 26.256 23 26 23C25.744 23 25.488 22.902 25.293 22.707C24.902 22.316 24.902 21.684 25.293 21.293L30.586 16L25.293 10.707C24.902 10.316 24.902 9.684 25.293 9.293C25.684 8.902 26.316 8.902 26.707 9.293L32 14.586L37.293 9.293C37.684 8.902 38.316 8.902 38.707 9.293C39.098 9.684 39.098 10.316 38.707 10.707L33.414 16L38.707 21.293Z" fill="#F16E67"/>
<path fill-rule="evenodd" clip-rule="evenodd" d="M32 29C39.1797 29 45 23.1797 45 16C45 8.8203 39.1797 3 32 3C24.8203 3 19 8.8203 19 16C19 23.1797 24.8203 29 32 29ZM32 30C39.732 30 46 23.732 46 16C46 8.26801 39.732 2 32 2C24.268 2 18 8.26801 18 16C18 23.732 24.268 30 32 30Z" fill="white"/>
<path d="M0 38.6943H1.11719V46.064L6.06836 38.6943H7.30615V48H6.18897V40.6494L1.23145 48H0V38.6943Z" fill="#CC0E0E"/>
<path d="M13.5776 45.5308L14.7011 45.6768C14.5784 46.4512 14.2632 47.0584 13.7553 47.4985C13.2518 47.9344 12.6318 48.1523 11.8955 48.1523C10.973 48.1523 10.2303 47.8519 9.66753 47.251C9.10893 46.6458 8.82959 45.7804 8.82959 44.6548C8.82959 43.9269 8.9502 43.29 9.19143 42.7441C9.43263 42.1982 9.79863 41.7899 10.2895 41.519C10.7846 41.244 11.3221 41.1064 11.9018 41.1064C12.6339 41.1064 13.2327 41.2926 13.6982 41.665C14.1637 42.0332 14.462 42.5579 14.5932 43.2393L13.4824 43.4106C13.3766 42.9578 13.1883 42.6172 12.9175 42.3887C12.6509 42.1602 12.3271 42.0459 11.9463 42.0459C11.3707 42.0459 10.9031 42.2533 10.5434 42.668C10.1837 43.0785 10.0039 43.7301 10.0039 44.623C10.0039 45.5286 10.1774 46.1867 10.5244 46.5972C10.8714 47.0076 11.3242 47.2129 11.8828 47.2129C12.3314 47.2129 12.7059 47.0754 13.0063 46.8003C13.3068 46.5252 13.4972 46.1021 13.5776 45.5308Z" fill="#CC0E0E"/>
<path d="M15.063 41.2588H20.541V42.2046H18.3701V48H17.2339V42.2046H15.063V41.2588Z" fill="#CC0E0E"/>
<path d="M26.0952 45.8291L27.2759 45.9751C27.0897 46.6649 26.7448 47.2002 26.2412 47.5811C25.7376 47.9619 25.0944 48.1523 24.3115 48.1523C23.3255 48.1523 22.5426 47.8498 21.9629 47.2446C21.3873 46.6353 21.0996 45.7826 21.0996 44.6865C21.0996 43.5524 21.3916 42.6722 21.9756 42.0459C22.5595 41.4196 23.317 41.1064 24.248 41.1064C25.1494 41.1064 25.8857 41.4132 26.457 42.0269C27.0283 42.6405 27.3139 43.5037 27.3139 44.6167C27.3139 44.6844 27.3118 44.786 27.3076 44.9214H22.2802C22.3226 45.6619 22.532 46.229 22.9087 46.6226C23.2853 47.0161 23.755 47.2129 24.3178 47.2129C24.7368 47.2129 25.0944 47.1029 25.3906 46.8828C25.6868 46.6628 25.9217 46.3115 26.0952 45.8291ZM22.3437 43.9819H26.1079C26.0571 43.4149 25.9132 42.9896 25.6762 42.7061C25.3123 42.266 24.8405 42.0459 24.2607 42.0459C23.736 42.0459 23.2938 42.2215 22.9341 42.5728C22.5786 42.924 22.3818 43.3937 22.3437 43.9819Z" fill="#CC0E0E"/>
<path d="M28.7104 41.2588H29.853V44.1724C30.2169 44.1724 30.4708 44.1025 30.6147 43.9629C30.7628 43.8232 30.9787 43.417 31.2622 42.7441C31.4865 42.2109 31.6684 41.8597 31.8081 41.6904C31.9477 41.5212 32.1085 41.4069 32.2905 41.3477C32.4725 41.2884 32.7645 41.2588 33.1665 41.2588H33.395V42.2046L33.0776 42.1982C32.7772 42.1982 32.5846 42.2427 32.5 42.3315C32.4111 42.4246 32.2757 42.7018 32.0937 43.1631C31.9202 43.6032 31.7615 43.9079 31.6176 44.0771C31.4738 44.2464 31.2516 44.4009 30.9511 44.5405C31.442 44.6717 31.9245 45.1287 32.3984 45.9116L33.6489 48H32.3921L31.1733 45.9116C30.9236 45.4927 30.7057 45.2176 30.5195 45.0864C30.3333 44.951 30.1111 44.8833 29.853 44.8833V48H28.7104V41.2588Z" fill="#CC0E0E"/>
<path d="M42.4214 45.5308L43.5449 45.6768C43.4222 46.4512 43.1069 47.0584 42.5991 47.4985C42.0955 47.9344 41.4756 48.1523 40.7392 48.1523C39.8167 48.1523 39.074 47.8519 38.5112 47.251C37.9526 46.6458 37.6733 45.7804 37.6733 44.6548C37.6733 43.9269 37.7939 43.29 38.0351 42.7441C38.2763 42.1982 38.6424 41.7899 39.1333 41.519C39.6284 41.244 40.1658 41.1064 40.7456 41.1064C41.4777 41.1064 42.0765 41.2926 42.542 41.665C43.0075 42.0332 43.3058 42.5579 43.437 43.2393L42.3261 43.4106C42.2204 42.9578 42.032 42.6172 41.7612 42.3887C41.4946 42.1602 41.1709 42.0459 40.79 42.0459C40.2145 42.0459 39.7469 42.2533 39.3872 42.668C39.0275 43.0785 38.8476 43.7301 38.8476 44.623C38.8476 45.5286 39.0211 46.1867 39.3681 46.5972C39.7151 47.0076 40.1679 47.2129 40.7265 47.2129C41.1751 47.2129 41.5496 47.0754 41.8501 46.8003C42.1505 46.5252 42.341 46.1021 42.4214 45.5308Z" fill="#CC0E0E"/>
<path d="M44.5224 50.5835V41.2588H45.5634V42.1348C45.8089 41.792 46.0861 41.536 46.395 41.3667C46.7039 41.1932 47.0784 41.1064 47.5185 41.1064C48.094 41.1064 48.6019 41.2546 49.042 41.5508C49.4821 41.847 49.8143 42.266 50.0385 42.8076C50.2628 43.3451 50.375 43.9354 50.375 44.5786C50.375 45.2684 50.2501 45.8905 50.0005 46.4448C49.755 46.995 49.3953 47.4181 48.9214 47.7144C48.4516 48.0063 47.9565 48.1523 47.436 48.1523C47.0551 48.1523 46.7124 48.0719 46.4077 47.9111C46.1072 47.7503 45.8597 47.5472 45.665 47.3018V50.5835H44.5224ZM45.5571 44.6675C45.5571 45.535 45.7327 46.1761 46.084 46.5908C46.4352 47.0055 46.8605 47.2129 47.3598 47.2129C47.8676 47.2129 48.3014 46.9992 48.6611 46.5718C49.025 46.1401 49.207 45.4736 49.207 44.5723C49.207 43.7132 49.0293 43.07 48.6738 42.6426C48.3226 42.2152 47.9015 42.0015 47.4106 42.0015C46.924 42.0015 46.4923 42.23 46.1157 42.687C45.7433 43.1398 45.5571 43.8 45.5571 44.6675Z" fill="#CC0E0E"/>
<path d="M51.3335 44.6294C51.3335 43.381 51.6805 42.4564 52.3745 41.8555C52.9542 41.3561 53.6609 41.1064 54.4946 41.1064C55.4214 41.1064 56.1788 41.4111 56.7671 42.0205C57.3553 42.6257 57.6494 43.4635 57.6494 44.5342C57.6494 45.4017 57.5182 46.0851 57.2558 46.5845C56.9977 47.0796 56.619 47.4647 56.1196 47.7397C55.6245 48.0148 55.0828 48.1523 54.4946 48.1523C53.5509 48.1523 52.7871 47.8498 52.2031 47.2446C51.6233 46.6395 51.3335 45.7677 51.3335 44.6294ZM52.5078 44.6294C52.5078 45.4927 52.6961 46.1401 53.0727 46.5718C53.4494 46.9992 53.9233 47.2129 54.4946 47.2129C55.0617 47.2129 55.5335 46.9971 55.9101 46.5654C56.2868 46.1338 56.4751 45.4757 56.4751 44.5913C56.4751 43.7576 56.2846 43.1271 55.9038 42.6997C55.5272 42.2681 55.0574 42.0522 54.4946 42.0522C53.9233 42.0522 53.4494 42.266 53.0727 42.6934C52.6961 43.1208 52.5078 43.7661 52.5078 44.6294Z" fill="#CC0E0E"/>
<path d="M58.9887 41.2588H60.1313V44.1724C60.4953 44.1724 60.7492 44.1025 60.893 43.9629C61.0412 43.8232 61.257 43.417 61.5405 42.7441C61.7648 42.2109 61.9468 41.8597 62.0864 41.6904C62.226 41.5212 62.3869 41.4069 62.5688 41.3477C62.7508 41.2884 63.0428 41.2588 63.4448 41.2588H63.6733V42.2046L63.3559 42.1982C63.0555 42.1982 62.8629 42.2427 62.7783 42.3315C62.6894 42.4246 62.554 42.7018 62.372 43.1631C62.1985 43.6032 62.0398 43.9079 61.896 44.0771C61.7521 44.2464 61.5299 44.4009 61.2295 44.5405C61.7204 44.6717 62.2028 45.1287 62.6767 45.9116L63.9272 48H62.6704L61.4516 45.9116C61.202 45.4927 60.984 45.2176 60.7978 45.0864C60.6116 44.951 60.3895 44.8833 60.1313 44.8833V48H58.9887V41.2588Z" fill="#CC0E0E"/>
<path d="M5.7583 55.5518H10.4556V61.3535H11.1856V64.2036H10.2461V62.293H4.9395V64.2036H4V61.3535H4.603C5.4071 60.2618 5.7922 58.3278 5.7583 55.5518ZM6.7105 56.4976C6.6258 58.6854 6.2873 60.3041 5.6948 61.3535H9.3194V56.4976H6.7105Z" fill="#CC0E0E"/>
<path d="M17.0635 60.1221L18.2442 60.2681C18.058 60.9579 17.7131 61.4932 17.2095 61.8741C16.7059 62.2549 16.0627 62.4453 15.2798 62.4453C14.2938 62.4453 13.5109 62.1428 12.9312 61.5376C12.3557 60.9283 12.0679 60.0756 12.0679 58.9795C12.0679 57.8454 12.3599 56.9652 12.9439 56.3389C13.5279 55.7126 14.2853 55.3994 15.2163 55.3994C16.1177 55.3994 16.854 55.7062 17.4253 56.3199C17.9966 56.9335 18.2822 57.7967 18.2822 58.9097C18.2822 58.9774 18.2801 59.079 18.2759 59.2144H13.2486C13.2909 59.9549 13.5003 60.522 13.877 60.9156C14.2536 61.3091 14.7233 61.5059 15.2862 61.5059C15.7051 61.5059 16.0627 61.3959 16.3589 61.1758C16.6551 60.9558 16.89 60.6045 17.0635 60.1221ZM13.312 58.2749H17.0762C17.0254 57.7079 16.8815 57.2826 16.6446 56.9991C16.2806 56.559 15.8088 56.3389 15.229 56.3389C14.7043 56.3389 14.2621 56.5145 13.9024 56.8658C13.5469 57.217 13.3501 57.6867 13.312 58.2749Z" fill="#CC0E0E"/>
<path d="M19.6851 55.5518H20.8277V60.6934L23.9951 55.5518H25.2266V62.293H24.084V57.1831L20.9165 62.293H19.6851V55.5518ZM23.6524 53H24.4331C24.3696 53.529 24.175 53.9353 23.8491 54.2188C23.5275 54.5023 23.098 54.6441 22.5606 54.6441C22.0189 54.6441 21.5851 54.5044 21.2593 54.2251C20.9377 53.9416 20.7451 53.5332 20.6817 53H21.4624C21.5217 53.2878 21.638 53.5036 21.8115 53.6475C21.9893 53.7871 22.2263 53.857 22.5225 53.857C22.8653 53.857 23.1234 53.7893 23.2969 53.6538C23.4746 53.5142 23.5931 53.2963 23.6524 53Z" fill="#CC0E0E"/>
<path d="M31.3457 59.8238L32.4693 59.9698C32.3465 60.7442 32.0313 61.3514 31.5235 61.7915C31.0199 62.2274 30.3999 62.4453 29.6636 62.4453C28.7411 62.4453 27.9984 62.1449 27.4356 61.544C26.877 60.9388 26.5977 60.0734 26.5977 58.9478C26.5977 58.2199 26.7183 57.583 26.9595 57.0371C27.2007 56.4912 27.5668 56.0829 28.0576 55.812C28.5528 55.537 29.0902 55.3994 29.6699 55.3994C30.402 55.3994 31.0008 55.5856 31.4663 55.958C31.9318 56.3262 32.2302 56.8509 32.3613 57.5323L31.2505 57.7036C31.1447 57.2508 30.9564 56.9102 30.6856 56.6817C30.419 56.4532 30.0952 56.3389 29.7144 56.3389C29.1389 56.3389 28.6712 56.5463 28.3115 56.961C27.9518 57.3715 27.772 58.0231 27.772 58.916C27.772 59.8216 27.9455 60.4797 28.2925 60.8902C28.6395 61.3006 29.0923 61.5059 29.6509 61.5059C30.0995 61.5059 30.474 61.3684 30.7744 61.0933C31.0749 60.8182 31.2653 60.3951 31.3457 59.8238Z" fill="#CC0E0E"/>
<path d="M32.8311 55.5518H38.3092V56.4976H36.1382V62.293H35.002V56.4976H32.8311V55.5518Z" fill="#CC0E0E"/>
<path d="M39.4072 55.5518H42.0412C42.6892 55.5518 43.1692 55.6068 43.4822 55.7168C43.8002 55.8226 44.0702 56.0194 44.2952 56.3072C44.5232 56.5949 44.6382 56.9398 44.6382 57.3418C44.6382 57.6634 44.5702 57.9449 44.4342 58.1861C44.3032 58.423 44.1042 58.6219 43.8382 58.7827C44.1552 58.8885 44.4172 59.0874 44.6252 59.3794C44.8362 59.6672 44.9422 60.01 44.9422 60.4077C44.9002 61.0467 44.6712 61.5207 44.2572 61.8296C43.8422 62.1385 43.2392 62.293 42.4482 62.293H39.4072V55.5518ZM40.5502 58.3892H41.7682C42.2552 58.3892 42.5892 58.3638 42.7712 58.313C42.9532 58.2622 43.1162 58.1607 43.2602 58.0083C43.4042 57.8518 43.4762 57.6656 43.4762 57.4497C43.4762 57.0943 43.3492 56.8467 43.0952 56.7071C42.8452 56.5674 42.4162 56.4976 41.8062 56.4976H40.5502V58.3892ZM40.5502 61.3535H42.0542C42.7012 61.3535 43.1462 61.2795 43.3872 61.1314C43.6282 60.979 43.7552 60.7188 43.7682 60.3506C43.7682 60.1348 43.6982 59.9359 43.5582 59.7539C43.4192 59.5677 43.2372 59.4514 43.0132 59.4048C42.7882 59.354 42.4292 59.3286 41.9332 59.3286H40.5502V61.3535Z" fill="#CC0E0E"/>
<path d="M46.3072 55.5518H47.4502V60.6934L50.6172 55.5518H51.8482V62.293H50.7062V57.1831L47.5382 62.293H46.3072V55.5518Z" fill="#CC0E0E"/>
<path d="M58.8752 55.5518V62.293H57.7392V59.6651H57.0792C56.6772 59.6651 56.3762 59.718 56.1782 59.8238C55.9832 59.9253 55.6972 60.2575 55.3212 60.8203L54.3242 62.293H52.9092L54.1402 60.4776C54.5172 59.9232 54.8912 59.6101 55.2632 59.5381C54.6122 59.4492 54.1272 59.2144 53.8102 58.8335C53.4972 58.4527 53.3402 58.0147 53.3402 57.5196C53.3402 56.9356 53.5452 56.4616 53.9562 56.0977C54.3712 55.7338 54.9692 55.5518 55.7522 55.5518H58.8752ZM57.7392 56.4976H56.1142C55.4332 56.4976 54.9932 56.6034 54.7942 56.815C54.5992 57.0266 54.5022 57.2741 54.5022 57.5576C54.5022 57.9597 54.6462 58.2559 54.9332 58.4463C55.2252 58.6325 55.7402 58.7256 56.4762 58.7256H57.7392V56.4976Z" fill="#CC0E0E"/>
</g>
<defs>
<clipPath id="clip0_205_26">
<rect width="64" height="65" fill="white"/>
</clipPath>
</defs>
</svg>
