<svg width="16" height="16" viewBox="0 0 16 16" fill="none" xmlns="http://www.w3.org/2000/svg">
<rect x="0.5" y="8.5" width="8" height="6" rx="1.5" fill="url(#paint0_linear_21_115)" stroke="#4B8FCB"/>
<path opacity="0.8" d="M4 4H5V9H4V4Z" fill="#393939"/>
<path d="M13 4H7L10 7L13 4Z" fill="#F4B641"/>
<path d="M13 4H7L10 1L13 4Z" fill="#F4B641"/>
<path d="M6.64645 3.64645C6.55268 3.74021 6.5 3.86739 6.5 4C6.5 4.13261 6.55268 4.25979 6.64645 4.35355L9.64645 7.35355C9.84171 7.54882 10.1583 7.54882 10.3536 7.35355L13.3536 4.35355C13.4473 4.25979 13.5 4.13261 13.5 4C13.5 3.86739 13.4473 3.74021 13.3536 3.64645L10.3536 0.646447C10.1583 0.451184 9.84171 0.451184 9.64645 0.646447L6.64645 3.64645Z" stroke="#E15323" stroke-opacity="0.7" stroke-linejoin="round"/>
<path opacity="0.8" d="M4 4H9V4C9 3.44772 8.55228 3 8 3H5C4.44772 3 4 3.44772 4 4V4Z" fill="#393939"/>
<path d="M7 9H2L4.5 12L7 9Z" fill="#282828"/>
<defs>
<linearGradient id="paint0_linear_21_115" x1="4.5" y1="9" x2="4.5" y2="14" gradientUnits="userSpaceOnUse">
<stop stop-color="#8ECDFF"/>
<stop offset="1" stop-color="#61ADE9"/>
</linearGradient>
</defs>
</svg>
