<svg width="16" height="16" viewBox="0 0 16 16" fill="none" xmlns="http://www.w3.org/2000/svg">
<path d="M1 3.5C1 3.22386 1.22386 3 1.5 3H14.5C14.7761 3 15 3.22386 15 3.5V13.5C15 13.7761 14.7761 14 14.5 14H1.5C1.22386 14 1 13.7761 1 13.5V3.5Z" fill="url(#paint0_linear_16_369)"/>
<path d="M14.5 2.5H1.5C0.947715 2.5 0.5 2.94772 0.5 3.5V13.5C0.5 14.0523 0.947715 14.5 1.5 14.5H14.5C15.0523 14.5 15.5 14.0523 15.5 13.5V3.5C15.5 2.94772 15.0523 2.5 14.5 2.5Z" stroke="url(#paint1_linear_16_369)" stroke-opacity="0.8"/>
<path d="M3 6H9V7H3V6Z" fill="#A8A8A8"/>
<path d="M3 8H9V9H3V8Z" fill="#A8A8A8"/>
<path d="M3 10H6V11H3V10Z" fill="#A8A8A8"/>
<path d="M3 12H6V13H3V12Z" fill="#A8A8A8"/>
<path d="M2 1.5H14C14.8284 1.5 15.5 2.17157 15.5 3V3.5H0.5V3C0.5 2.17157 1.17157 1.5 2 1.5Z" fill="url(#paint2_linear_16_369)" stroke="url(#paint3_linear_16_369)"/>
<defs>
<linearGradient id="paint0_linear_16_369" x1="8" y1="4" x2="8" y2="14" gradientUnits="userSpaceOnUse">
<stop stop-color="white"/>
<stop offset="1" stop-color="#F1F1F1"/>
</linearGradient>
<linearGradient id="paint1_linear_16_369" x1="8" y1="4" x2="8" y2="14" gradientUnits="userSpaceOnUse">
<stop stop-color="#ABB7C0"/>
<stop offset="1" stop-color="#8E97A1"/>
</linearGradient>
<linearGradient id="paint2_linear_16_369" x1="0" y1="2.5" x2="16" y2="2.5" gradientUnits="userSpaceOnUse">
<stop stop-color="#87D2FE"/>
<stop offset="0.55" stop-color="#6CBBF3"/>
<stop offset="1" stop-color="#25C6F7"/>
</linearGradient>
<linearGradient id="paint3_linear_16_369" x1="0" y1="2.5" x2="16" y2="2.5" gradientUnits="userSpaceOnUse">
<stop stop-color="#51A5E8"/>
<stop offset="1" stop-color="#4F9FDE"/>
</linearGradient>
</defs>
</svg>
