<svg width="16" height="16" viewBox="0 0 16 16" fill="none" xmlns="http://www.w3.org/2000/svg">
<g clip-path="url(#clip0_223_36)">
<path opacity="0.4" d="M7 3V12H5V14H8C8.26522 14 8.51957 13.8946 8.70711 13.7071C8.89464 13.5196 9 13.2652 9 13V4H11V2H8C7.73478 2 7.48043 2.10536 7.29289 2.29289C7.10536 2.48043 7 2.73478 7 3Z" fill="#4D4D4D"/>
<path d="M12 0V6L16 3L12 0Z" fill="#489D1A"/>
<path d="M4 10V16L0 13L4 10Z" fill="#489D1A"/>
<path d="M2 2V8L6 5L2 2Z" fill="#40A6FF"/>
<path d="M14 8V14L10 11L14 8Z" fill="#40A6FF"/>
</g>
<defs>
<clipPath id="clip0_223_36">
<rect width="16" height="16" fill="white"/>
</clipPath>
</defs>
</svg>
