<svg width="16" height="16" viewBox="0 0 16 16" fill="none" xmlns="http://www.w3.org/2000/svg">
<rect y="10" width="1" height="5" fill="#273C4A"/>
<rect x="2" y="10" width="1" height="5" fill="#273C4A"/>
<rect x="5" y="10" width="1" height="5" fill="#273C4A"/>
<rect x="9" y="10" width="1" height="5" fill="#273C4A"/>
<rect x="12" y="10" width="1" height="5" fill="#273C4A"/>
<rect x="14" y="10" width="1" height="3" fill="#273C4A"/>
<rect x="12" y="11" width="1" height="3" transform="rotate(-90 12 11)" fill="#273C4A"/>
<rect x="8" y="11" width="1" height="3" transform="rotate(-90 8 11)" fill="#273C4A"/>
<rect x="4" y="11" width="1" height="3" transform="rotate(-90 4 11)" fill="#273C4A"/>
<rect y="13" width="1" height="3" transform="rotate(-90 0 13)" fill="#273C4A"/>
<rect x="12" y="13" width="1" height="3" transform="rotate(-90 12 13)" fill="#273C4A"/>
<circle cx="12.5" cy="3.5" r="3.5" fill="#518457"/>
<circle cx="12.5" cy="3.5" r="2.5" fill="#69F07F"/>
</svg>
