<svg width="19" height="18" viewBox="0 0 19 18" fill="none" xmlns="http://www.w3.org/2000/svg">
<path d="M1.5741 5.45061C1.5741 3.45313 3.19498 1.83469 5.19246 1.83771L13.7086 1.85058C15.7018 1.85359 17.316 3.47026 17.316 5.46348V13.9851C17.316 15.9804 15.6985 17.598 13.7031 17.598H5.187C3.19165 17.598 1.5741 15.9804 1.5741 13.9851V5.45061Z" fill="url(#paint0_linear_932_233)"/>
<path d="M1.5741 5.45061C1.5741 3.45313 3.19498 1.83469 5.19246 1.83771L13.7086 1.85058C15.7018 1.85359 17.316 3.47026 17.316 5.46348V13.9851C17.316 15.9804 15.6985 17.598 13.7031 17.598H5.187C3.19165 17.598 1.5741 15.9804 1.5741 13.9851V5.45061Z" fill="url(#paint1_linear_932_233)"/>
<g filter="url(#filter0_f_932_233)">
<path d="M5.70312 8.54192C5.70312 6.54657 7.32068 4.92902 9.31603 4.92902H14.9934V11.8968H5.70312V8.54192Z" fill="#6725DE"/>
</g>
<g filter="url(#filter1_f_932_233)">
<path d="M3.63867 7.25164C3.63867 5.25628 5.25622 3.63873 7.25157 3.63873H12.929V10.6065H3.63867V7.25164Z" fill="#3540F1" fill-opacity="0.9"/>
</g>
<path fill-rule="evenodd" clip-rule="evenodd" d="M9.70369 15.8074C8.51906 15.8074 7.96854 15.6345 7.01162 14.9427C6.40634 15.7209 4.48961 16.3291 4.40602 15.2886C4.40602 14.5075 4.23309 13.8474 4.03709 13.1269C3.80362 12.2391 3.53845 11.2505 3.53845 9.81799C3.53845 6.39671 6.34581 3.82281 9.67198 3.82281C13.001 3.82281 15.6095 6.52353 15.6095 9.8497C15.6207 13.1244 12.9784 15.7899 9.70369 15.8074ZM9.75269 6.78005C8.13283 6.69647 6.87039 7.81768 6.5908 9.57588C6.36022 11.0314 6.76951 12.8041 7.11827 12.8963C7.28544 12.9366 7.70625 12.5965 7.96854 12.3342C8.40225 12.6339 8.9073 12.8138 9.43275 12.8559C11.1112 12.9367 12.5453 11.6589 12.658 9.98229C12.7236 8.30215 11.4314 6.87908 9.75268 6.78294L9.75269 6.78005Z" fill="white"/>
<defs>
<filter id="filter0_f_932_233" x="2.06442" y="1.29031" width="16.5677" height="14.2452" filterUnits="userSpaceOnUse" color-interpolation-filters="sRGB">
<feFlood flood-opacity="0" result="BackgroundImageFix"/>
<feBlend mode="normal" in="SourceGraphic" in2="BackgroundImageFix" result="shape"/>
<feGaussianBlur stdDeviation="1.81935" result="effect1_foregroundBlur_932_233"/>
</filter>
<filter id="filter1_f_932_233" x="-3.79086e-05" y="2.31266e-05" width="16.5677" height="14.2452" filterUnits="userSpaceOnUse" color-interpolation-filters="sRGB">
<feFlood flood-opacity="0" result="BackgroundImageFix"/>
<feBlend mode="normal" in="SourceGraphic" in2="BackgroundImageFix" result="shape"/>
<feGaussianBlur stdDeviation="1.81935" result="effect1_foregroundBlur_932_233"/>
</filter>
<linearGradient id="paint0_linear_932_233" x1="9.44506" y1="1.83224" x2="9.31603" y2="13.8322" gradientUnits="userSpaceOnUse">
<stop stop-color="#3947F1"/>
<stop offset="1" stop-color="#45C4FD"/>
</linearGradient>
<linearGradient id="paint1_linear_932_233" x1="15.8967" y1="11.5097" x2="-0.748484" y2="9.05805" gradientUnits="userSpaceOnUse">
<stop offset="0.0190813" stop-color="#A659DC"/>
<stop offset="1" stop-color="#43BCFC" stop-opacity="0"/>
</linearGradient>
</defs>
</svg>
