<svg width="16" height="16" viewBox="0 0 16 16" fill="none" xmlns="http://www.w3.org/2000/svg">
<path d="M10.5 1.5H2.5V14.5H13.5V4.5L10.5 1.5Z" fill="#ECE9BD" stroke="#A29673" stroke-miterlimit="10" stroke-linecap="round" stroke-linejoin="round"/>
<path d="M10.5 1.5V4.5H13.5" stroke="#A29673" stroke-miterlimit="10" stroke-linecap="round" stroke-linejoin="round"/>
<path d="M6 2H7V3H6V2Z" fill="#A29673"/>
<path d="M6 4H7V5H6V4Z" fill="#A29673"/>
<path d="M6 6H7V7H6V6Z" fill="#A29673"/>
<path d="M6 8H7V9H6V8Z" fill="#A29673"/>
<path d="M5 1H6V2H5V1Z" fill="#A29673"/>
<path d="M5 3H6V4H5V3Z" fill="#A29673"/>
<path d="M5 5H6V6H5V5Z" fill="#A29673"/>
<path d="M5 7H6V8H5V7Z" fill="#A29673"/>
<path d="M7.07617 9.5L7.41016 11.5H4.58984L4.92383 9.5H7.07617Z" stroke="#A29673"/>
</svg>
