<svg width="16" height="16" viewBox="0 0 16 16" fill="none" xmlns="http://www.w3.org/2000/svg">
<path d="M10 2H9.00003C8.73481 2 8.48046 2.10536 8.29292 2.29289C8.10539 2.48043 8.00003 2.73478 8.00003 3C8.00003 3.26522 8.10539 3.51957 8.29292 3.70711C8.48046 3.89464 8.73481 4 9.00003 4H10C10.5305 4 11.0392 4.21071 11.4142 4.58579C11.7893 4.96086 12 5.46957 12 6C12 6.53043 11.7893 7.03914 11.4142 7.41421C11.0392 7.78929 10.5305 8 10 8H7.00003V5.5C6.99993 5.40401 6.97221 5.31009 6.92017 5.22943C6.86813 5.14878 6.79397 5.0848 6.70656 5.04516C6.61914 5.00551 6.52216 4.99186 6.4272 5.00584C6.33224 5.01982 6.24331 5.06084 6.17103 5.124L2.17103 8.624C2.11749 8.67093 2.07459 8.72875 2.0452 8.79359C2.01581 8.85843 2.00061 8.92881 2.00061 9C2.00061 9.07119 2.01581 9.14157 2.0452 9.20641C2.07459 9.27125 2.11749 9.32907 2.17103 9.376L6.17103 12.876C6.26207 12.9558 6.37897 12.9999 6.50003 13C6.63264 13 6.75981 12.9473 6.85358 12.8536C6.94735 12.7598 7.00003 12.6326 7.00003 12.5V10H10C11.0609 10 12.0783 9.57857 12.8285 8.82843C13.5786 8.07828 14 7.06087 14 6C14 4.93913 13.5786 3.92172 12.8285 3.17157C12.0783 2.42143 11.0609 2 10 2Z" fill="#0A3C5F"/>
<rect x="1" y="1" width="1" height="14" fill="#A0A0A0"/>
<rect x="14" y="1" width="1" height="14" fill="#A0A0A0"/>
</svg>
