<svg width="16" height="16" viewBox="0 0 16 16" fill="none" xmlns="http://www.w3.org/2000/svg">
<path d="M1 7L6 2" stroke="#658193"/>
<path d="M5 13L10 8" stroke="#658193"/>
<path d="M11 7L6 2" stroke="#658193"/>
<path d="M15 13L10 8" stroke="#658193"/>
<rect x="3" width="6" height="3" rx="1" fill="#CE964B"/>
<rect y="6" width="6" height="3" rx="1" fill="#CE964B"/>
<rect x="2" y="12" width="6" height="3" rx="1" fill="#CE964B"/>
<rect x="7" y="6" width="6" height="3" rx="1" fill="#CE964B"/>
<rect x="10" y="12" width="6" height="3" rx="1" fill="#CE964B"/>
<rect x="4" y="1" width="4" height="1" rx="0.5" fill="#FDAA33"/>
<rect x="1" y="7" width="4" height="1" rx="0.5" fill="#FDAA33"/>
<rect x="3" y="13" width="4" height="1" rx="0.5" fill="#FDAA33"/>
<rect x="8" y="7" width="4" height="1" rx="0.5" fill="#FDAA33"/>
<rect x="11" y="13" width="4" height="1" rx="0.5" fill="#FDAA33"/>
</svg>
