<svg width="16" height="16" viewBox="0 0 16 16" fill="none" xmlns="http://www.w3.org/2000/svg">
<rect x="7" y="11" width="2" height="4" fill="#7F7F7F"/>
<rect x="1" y="15" width="0.999999" height="14" transform="rotate(-90 1 15)" fill="url(#paint0_linear_15_210)"/>
<ellipse cx="8" cy="14.5" rx="2" ry="1.5" fill="#518457"/>
<ellipse cx="7.99998" cy="14.5" rx="1.42857" ry="1.07143" fill="#69F07F"/>
<path d="M14 6C14 9.31371 11.3137 12 8 12C4.68629 12 2 9.31371 2 6C2 2.68629 4.68629 0 8 0C11.3137 0 14 2.68629 14 6Z" fill="url(#paint1_linear_15_210)"/>
<path d="M8 0C4.7 0 2 2.7 2 6C2 9.3 4.7 12 8 12C11.3 12 14 9.3 14 6C14 2.7 11.3 0 8 0ZM8.525 11.5C7.4 11.5 5.49167 10.675 4.66667 10C5.11667 9.4 5.6 8.1 5.15 7.5C4.775 6.975 4.175 6.45 4.175 6C4.175 5.4 5.6 5.175 6.05 4.575C6.575 3.975 5.19167 2.26944 4.66667 1.66944C5.26667 1.29444 7.175 0.575 8 0.5C8.15 0.875 8.3 2.325 8.525 2.625C8.9 3.225 8.975 3.6 9.5 3.6C9.65 3.6 11.75 3.225 12.5 3C12.95 3.75 13.5 5.025 13.5 6C13.5 8.475 11.8583 11.5 8.525 11.5Z" fill="#54D074"/>
<path d="M9.64999 5.0249C8.74999 5.0249 7.92499 5.6249 7.99999 6.4499C8.22499 8.3249 7.62499 8.9999 8.44999 9.3749C9.42499 9.7499 11.375 7.9499 11.3 6.4499C11.3 5.6249 10.625 5.0249 9.64999 5.0249Z" fill="#77D185"/>
<circle cx="8" cy="6" r="5.5" stroke="#3494D5"/>
<defs>
<linearGradient id="paint0_linear_15_210" x1="1" y1="15" x2="0.999999" y2="29" gradientUnits="userSpaceOnUse">
<stop stop-color="#333333" stop-opacity="0.1"/>
<stop offset="0.425" stop-color="#333333"/>
<stop offset="1" stop-color="#333333" stop-opacity="0.1"/>
</linearGradient>
<linearGradient id="paint1_linear_15_210" x1="8" y1="0" x2="8" y2="12" gradientUnits="userSpaceOnUse">
<stop stop-color="#2F9FFF"/>
<stop offset="1" stop-color="#1679CE"/>
</linearGradient>
</defs>
</svg>
