<?xml version="1.0" encoding="utf-8" ?><svg xmlns="http://www.w3.org/2000/svg" xmlns:xlink="http://www.w3.org/1999/xlink" width="1280" height="1280" viewBox="0 0 1280 1280"><path fill="#FCDA09" d="M405.462 289.572C436.743 264.034 473.08 252.901 513.024 251.371C512.877 293.069 506.92 328.236 486.615 365.013C489.895 372.027 497.854 385.042 501.997 392.677C514.093 387.585 528.069 379.393 539.765 374.619C556.323 367.861 602.996 349.415 620.279 351.92C617.953 353.081 592.505 358.227 587.824 359.609C562.805 366.997 539.721 376.755 516.337 388.298C513.388 389.754 505.344 393.397 503.56 395.396C507.462 403.083 511.174 410.865 514.695 418.734C516.895 423.705 520.021 431.667 522.336 436.299L523.143 436.104L522.934 438.686L523.385 439.039C535.851 468.915 545.779 502.416 553.925 533.818C557.39 547.174 559.827 561.05 562.876 574.515C576.481 588.592 586.708 600.204 598.081 616.268C659.195 702.592 690.897 836.449 690.048 941.518C703.302 937.149 717.606 933.507 731.203 930.117C839.238 903.18 949.569 876.939 1061.4 874.717C1089.12 874.167 1118.68 874.89 1146.08 879.648L1145.08 881.859L1146.32 883.695L1149.06 880.299C1164.01 883.165 1176.23 886.154 1190.57 892.042C1195.56 894.09 1199.45 896.448 1203.59 898.244C1209.95 893.727 1228.2 879.928 1234.61 878.483L1234.8 879.071C1231.29 883.255 1212.36 896.004 1207.18 899.412C1222.56 909.651 1232.02 916.703 1242.35 932.697C1246.73 931.163 1254.82 927.846 1259.03 928.506L1259.18 929.262C1256.05 931.912 1247.72 934.189 1243.48 935.105C1250.46 948.13 1252.87 957.776 1253.3 972.575C1255.86 972.016 1258.28 971.132 1260.68 971.976L1260.98 972.931C1258.78 975.091 1256.26 974.878 1253.21 975.032C1253.05 983.641 1252.33 990.178 1249.99 998.424C1236.99 999.465 1221.04 999.592 1207.79 1000.08C1178.43 1001.24 1149.06 1002.24 1119.69 1003.08L864.737 1011.61C709.678 1016.39 554.58 1019.79 399.461 1021.81C311.22 1022.84 219.756 1024.57 131.62 1022.52C124.771 995.044 120.367 963.624 116.55 935.41C102.554 831.975 100.898 729.282 105.533 625.171C106.442 604.734 107.655 584.311 109.173 563.91C110.085 550.793 110.881 536.645 112.504 523.667C98.0039 524.04 82.5076 527.385 68.1299 529.254C62.5153 529.984 42.5759 534.927 38.8414 533.52C44.5609 528.645 101.968 522.219 113.015 520.904C113.176 512.302 115.228 493.941 116.64 485.639C110.384 483.035 53.1296 483.663 42.7794 484.193C38.9827 484.387 21.2387 485.366 18.6472 484.678L19.0662 484.106C25.965 481.03 43.9438 481.901 51.9893 481.812C73.7834 481.564 95.5802 481.755 117.367 482.385C117.525 474.322 119.678 460.767 120.847 452.695C123.787 432.754 127.001 412.853 130.486 393C105.281 364.107 94.7203 346.674 90.4555 307.768C121.638 302.053 154.327 306.801 181.799 322.985C198.267 312.404 211.882 304.226 230.015 296.385C284.586 272.791 349.535 267.209 405.462 289.572Z"/><path fill="#6F70C1" d="M118.472 520.71C134.981 519.432 154.092 518.047 170.551 517.375C194.934 516.608 219.334 516.484 243.725 517.003C249.865 517.16 267.307 516.668 271.703 519.094C270.181 520.472 251.506 519.581 248.156 519.499C205.772 518.22 163.349 519.285 121.082 522.687C118.622 522.681 115.601 522.925 113.335 522.252C114.77 521.175 116.644 521.053 118.472 520.71Z"/><path fill="#6F70C1" d="M119.231 482.845C164.305 485.481 209.224 490.326 253.824 497.363C258.442 498.099 272.48 499.848 275.849 502.201C272.702 503.418 255.573 499.81 250.957 499.081C236.591 496.864 222.192 494.866 207.765 493.087C177.585 489.436 147.299 486.729 116.95 484.971L117.28 483.527L119.231 482.845Z"/><path fill="#6F70C1" d="M502.032 392.944C502.775 393.911 502.869 393.908 503.38 394.994C496.088 398.388 486.445 404.12 479.464 408.177C459.208 419.936 439.497 432.61 420.392 446.161C414.955 449.977 390.674 468.836 387.006 470.26C388.152 465.448 401.639 457.263 406.225 453.869C429.48 436.658 453.628 420.713 478.663 406.211C486.113 401.895 494.157 397.98 501.368 393.374L502.032 392.944Z"/><path fill="#6F70C1" d="M522.336 436.299L523.143 436.104L522.934 438.686C495.39 446.692 466.156 459.069 439.408 469.564C431.515 472.661 406.607 483.879 400.212 485.138L400.171 484.642C405.217 481.21 410.837 479.02 416.455 476.722C445.585 464.811 474.502 452.428 504.407 442.536C510.324 440.578 516.566 438.571 522.336 436.299Z"/><path fill="#080506" d="M501.997 392.677C514.093 387.585 528.069 379.393 539.765 374.619C556.323 367.861 602.996 349.415 620.279 351.92C617.953 353.081 592.505 358.227 587.824 359.609C562.805 366.997 539.721 376.755 516.337 388.298C513.388 389.754 505.344 393.397 503.56 395.396L503.38 394.994C502.869 393.908 502.775 393.911 502.032 392.944L501.997 392.677Z"/><path fill="#7A6351" d="M116.64 485.639C110.384 483.035 53.1296 483.663 42.7794 484.193C38.9827 484.387 21.2387 485.366 18.6472 484.678L19.0662 484.106C25.965 481.03 43.9438 481.901 51.9893 481.812C73.7834 481.564 95.5802 481.755 117.367 482.385L119.231 482.845L117.28 483.527L116.95 484.971L116.64 485.639Z"/><path fill="#E28310" d="M1203.59 898.244C1209.95 893.727 1228.2 879.928 1234.61 878.483L1234.8 879.071C1231.29 883.255 1212.36 896.004 1207.18 899.412C1201.61 901.525 1185.02 914.311 1178.91 918.13C1176.72 919.501 1173.4 922.621 1171.02 923.376C1171.64 918.199 1197.53 903.485 1203.59 898.244Z"/><path fill="#7A6351" d="M113.015 520.904L118.472 520.71C116.644 521.053 114.77 521.175 113.335 522.252C115.601 522.925 118.622 522.681 121.082 522.687C118.622 523.391 115.138 523.483 112.504 523.667C98.0039 524.04 82.5076 527.385 68.1299 529.254C62.5153 529.984 42.5759 534.927 38.8414 533.52C44.5609 528.645 101.968 522.219 113.015 520.904Z"/><path fill="#E28310" d="M1242.35 932.697C1246.73 931.163 1254.82 927.846 1259.03 928.506L1259.18 929.262C1256.05 931.912 1247.72 934.189 1243.48 935.105C1236.4 936.102 1203.52 947.506 1200.8 946.839C1202.75 943.454 1235.73 935.63 1242.35 932.697Z"/><path fill="#E28310" d="M1253.3 972.575C1255.86 972.016 1258.28 971.132 1260.68 971.976L1260.98 972.931C1258.78 975.091 1256.26 974.878 1253.21 975.032C1247.62 975.311 1228.4 978.588 1225.35 977.806C1229.71 974.25 1246.39 974.495 1253.3 972.575Z"/><path fill="#E28310" d="M1146.32 883.695C1144.48 887.352 1136.12 902.041 1133.55 904.031L1133.17 903.312C1134.93 898.451 1142.14 886.833 1145.08 881.859L1146.32 883.695Z"/><path fill="#FCFDF1" d="M377.452 352.723C384.88 352.352 392.223 354.438 398.346 358.66C427.11 378.302 421.41 428.381 383.013 435.088C331.534 436.195 327.84 358.746 377.452 352.723Z"/><path fill="#2B2C1B" d="M374.517 368.264C386.912 367.022 396.47 372.236 400.797 384.301C403.36 391.438 402.989 399.299 399.768 406.164C396.27 413.486 391.428 416.677 384.161 419.251C352.452 422.371 345.113 379.615 374.517 368.264Z"/><path fill="#FCFDF1" d="M243.299 371.475C289.26 370.316 298.543 445.727 247.463 453.701C196.385 453.064 194.126 376.893 243.299 371.475Z"/><path fill="#2B2C1B" d="M243.042 386.353C272.607 385.946 278.861 431.131 247.485 438.413C235.076 439.214 225.594 431.519 222.622 419.598C220.744 412.039 222.016 404.042 226.147 397.439C230.366 390.831 235.579 387.857 243.042 386.353Z"/><path fill="#D99C15" d="M293.187 486.217C294.638 464.95 321.369 459.036 338.697 460.864C348.609 461.91 354.512 465.999 360.372 473.565L360.837 475.272C357.193 480.492 340.357 495.346 335.008 500.657C338.972 504.369 344.676 507.906 349.571 510.251C387.878 528.598 423.903 507.628 445.169 475.129L444.408 474.714C442.8 473.826 441.527 473.434 440.782 471.866L441.486 471.231C444.572 471.579 451.487 473.759 453.002 476.63L452.185 477.677C450.645 477.382 447.371 476.497 446.264 478.112C418.423 518.744 375.281 533.489 333.72 503.204C310.173 552.103 269.516 553.529 224.714 532.357C223.064 533.946 222.224 535.222 220.233 535.838C220.403 533.07 225.354 525.79 227.933 524.49L229.256 525.431C229.222 527.191 227.644 528.767 226.495 530.298C234.047 533.841 240.668 536.851 248.703 539.338C283.508 550.109 314.697 537.425 330.203 503.999C330.516 503.326 330.816 502.648 331.103 501.964C323.013 498.26 315.375 495.768 307.018 492.793C303.528 491.551 296.568 489.415 293.63 487.679L293.187 486.217Z"/><path fill="#080506" d="M445.169 475.129L444.408 474.714C442.8 473.826 441.527 473.434 440.782 471.866L441.486 471.231C444.572 471.579 451.487 473.759 453.002 476.63L452.185 477.677C450.645 477.382 447.371 476.497 446.264 478.112C418.423 518.744 375.281 533.489 333.72 503.204C310.173 552.103 269.516 553.529 224.714 532.357C223.064 533.946 222.224 535.222 220.233 535.838C220.403 533.07 225.354 525.79 227.933 524.49L229.256 525.431C229.222 527.191 227.644 528.767 226.495 530.298C234.047 533.841 240.668 536.851 248.703 539.338C283.508 550.109 314.697 537.425 330.203 503.999C330.516 503.326 330.816 502.648 331.103 501.964C323.013 498.26 315.375 495.768 307.018 492.793C303.528 491.551 296.568 489.415 293.63 487.679L293.187 486.217C295.453 485.693 301.612 488.813 305.472 489.509C307.392 488.771 307.94 486.31 309.958 483.693C315.504 481.451 319.179 491.137 321.12 495.134C324.711 496.593 328.892 498.013 332.574 499.356C335.392 496.962 338.753 493.576 341.476 490.967L341.452 490.368L341.422 489.37C341.101 480.681 343.159 472.717 352.779 480.552C355.269 478.178 357.8 475.849 360.372 473.565L360.837 475.272C357.193 480.492 340.357 495.346 335.008 500.657C338.972 504.369 344.676 507.906 349.571 510.251C387.878 528.598 423.903 507.628 445.169 475.129Z"/><path fill="#D99C15" d="M494.422 285.079L494.891 285.694C496.564 300.284 486.571 335.049 473.595 343.789L462.098 332.463C457.144 327.742 452.359 323.197 447.6 318.269C462.365 307.37 479.262 295.289 494.422 285.079Z"/><path fill="#D99C15" d="M107.522 325.976C110.213 327.064 113.33 328.614 115.95 329.912C130.535 337.138 146.42 342.898 160.61 350.79C156.71 355.768 151.992 363.09 148.321 368.468C145.577 372.636 142.782 376.77 139.938 380.871C120.78 367.886 113.86 347.328 107.522 325.976Z"/><path fill="#E28310" d="M405.045 766.915L406.853 767.694C407.644 769.658 406.245 787.862 406.064 791.117C403.966 834.643 399.724 878.04 393.355 921.148C390.344 941.707 385.498 963.363 382.795 983.095C396.847 952.654 427.645 964.235 429.564 992.844L430.439 993.161C432.541 988.833 432.636 986.557 436.27 982.697C448.53 969.673 468.691 977.823 471.014 994.683C470.997 994.903 470.981 995.124 470.965 995.344C472.724 994.207 475.202 989.523 476.58 987.815C488.339 973.246 505.986 981.538 507.34 998.904C507.437 1000.15 507.523 1000.91 506.8 1001.76C503.795 995.825 506.424 994.92 501.165 986.758C497.534 982.929 491.2 979.932 485.956 982.214C477.564 985.867 474.965 993.022 471.666 1000.83L470.929 1000.34C470.91 986.305 455.554 971.563 441.534 980.032C432.649 985.399 431.947 996.032 429.896 1005.23C426.786 991.452 428.811 974.381 411.6 967.969C406.549 966.061 400.927 966.368 396.113 968.814C386.714 973.675 382.384 987.376 379.369 996.727C379.368 991.023 382.718 974.459 383.928 967.778C387.064 951.324 389.842 934.803 392.261 918.228C399.527 868.09 403.796 817.562 405.045 766.915Z"/><path fill="#E27514" d="M312.057 976.824C297.318 920.709 283.978 863.792 276.818 806.202C275.378 794.617 271.449 779.796 271.447 768.518L272.309 767.818C273.672 769.168 277.982 803.311 278.621 807.704C281.577 828.018 284.317 848.568 288.258 868.709C292.239 889.047 297.381 909.206 302.158 929.372C305.484 943.416 308.142 957.996 312.464 971.745L312.683 972.425C312.193 974.509 311.638 977.249 311.043 979.245C309.291 975.805 306.389 970.619 303.651 968.013C299.826 964.375 294.506 961.533 289.119 961.839C265.909 963.16 268.019 992.84 264.745 996.573L263.901 995.899C263.492 985.855 258.358 975.97 247.914 973.524C243.163 972.387 238.153 973.342 234.154 976.148C223.85 983.239 225.211 995.339 223.098 997.33C221.309 995.151 221.553 986.967 216.482 983.077C211.672 979.388 210.438 977.424 203.817 977.347C190.443 977.19 190.935 993.912 187.819 997.133L187.417 996.64C186.8 975.013 213.078 965.715 223.034 990.904C226.174 982.13 230.293 974.37 240.233 972.009C245.372 970.761 250.798 971.723 255.193 974.663C261.026 978.637 263.079 983.749 264.447 990.232C267.462 976.366 273.877 957.64 292.916 960.299C301.873 961.55 307.399 969.693 312.057 976.824Z"/><path fill="#E28310" d="M312.683 972.425C313.8 976.973 315.034 981.045 315.042 985.731L314.534 986.568C312.943 985.204 311.785 981.307 311.043 979.245C311.638 977.249 312.193 974.509 312.683 972.425Z"/><path fill="#423736" d="M523.143 436.104C558.322 424.544 603.557 411.435 640.899 410.494L641.785 410.995L641.622 412.147C638.523 412.766 633.728 412.946 630.336 413.301C623.049 414.088 615.78 415.04 608.537 416.158C596.002 418.15 531.896 433.264 523.385 439.039L522.934 438.686L523.143 436.104Z"/><path fill="#E28310" d="M1146.08 879.648C1148.01 876.015 1151.58 868.213 1155.1 866.693C1156.63 869.125 1150.53 877.937 1149.06 880.299L1146.32 883.695L1145.08 881.859L1146.08 879.648Z"/></svg>