<svg width="16" height="16" viewBox="0 0 16 16" fill="none" xmlns="http://www.w3.org/2000/svg">
<path opacity="0.8" d="M11 0L14 3H11V0Z" fill="#8F979B"/>
<path d="M3 1C2.446 1 2 1.446 2 2V14C2 14.554 2.446 15 3 15H12C12.554 15 13 14.554 13 14V4H11C10.446 4 10 3.554 10 3V1H3Z" fill="#F2F7FA"/>
<path d="M13.5 4V3.5H13H11C10.7221 3.5 10.5 3.27786 10.5 3V1V0.5H10H3C2.16986 0.5 1.5 1.16986 1.5 2V14C1.5 14.8301 2.16986 15.5 3 15.5H12C12.8301 15.5 13.5 14.8301 13.5 14V4Z" stroke="#828C91" stroke-opacity="0.7"/>
<path opacity="0.4" d="M5 1H4V15H5V1Z" fill="#528299"/>
<path opacity="0.4" d="M8 1H7V15H8V1Z" fill="#528299"/>
<path opacity="0.4" d="M11 5H10V15H11V5Z" fill="#528299"/>
<path d="M7.5 6.5H4.5V9.5H7.5V6.5Z" fill="#78D478" stroke="#489D1A"/>
<path d="M10.5 9.5H7.5V12.5H10.5V9.5Z" fill="#78D478" stroke="#489D1A"/>
</svg>
