<svg width="16" height="16" viewBox="0 0 16 16" fill="none" xmlns="http://www.w3.org/2000/svg">
<rect x="4" y="10" width="1" height="1" fill="#3A4C60"/>
<rect x="7" y="10" width="1" height="1" fill="#3A4C60"/>
<rect x="10" y="10" width="1" height="1" fill="#3A4C60"/>
<rect y="7" width="1" height="1" fill="#1F3145"/>
<rect x="14" y="7" width="1" height="1" fill="#1F3145"/>
<path d="M15 7.48281V8.01562C14.4569 8.01562 14.5398 8.11589 14.322 8.31641C14.1073 8.51693 14 8.85208 14 9.32187V12.6969C14 13.0922 13.9561 13.4345 13.8683 13.7238C13.7837 14.0132 13.6439 14.2523 13.4488 14.4414C13.2537 14.6305 12.9935 14.7708 12.6683 14.8625C12.3431 14.9542 11 15 11 15V14.1578C11 14.1578 12.1366 14.1048 12.3512 13.9988C12.5691 13.8957 12.722 13.7367 12.8098 13.5219C12.9008 13.307 12.9463 13.032 12.9463 12.6969V8.97813C12.9463 8.75469 12.9789 8.5513 13.0439 8.36797C13.1122 8.18464 13.2358 8.02708 13.4146 7.89531C13.5935 7.76354 13.8472 7.66185 14.1756 7.59023C14.5073 7.51862 14.4732 7.48281 15 7.48281ZM11 0C11 0 12.3431 0.0458335 12.6683 0.137501C12.9935 0.229167 13.2537 0.369532 13.4488 0.558594C13.6439 0.747657 13.7837 0.98685 13.8683 1.27617C13.9561 1.5655 14 1.90781 14 2.30313V5.67813C14 6.14792 14.1073 6.48307 14.322 6.68359C14.5398 6.88411 14.4569 6.98438 15 6.98438V7.51719C14.4732 7.51719 14.5073 7.48138 14.1756 7.40977C13.8472 7.33815 13.5935 7.23646 13.4146 7.10469C13.2358 6.97292 13.1122 6.81536 13.0439 6.63203C12.9789 6.4487 12.9463 6.24531 12.9463 6.02188V2.30313C12.9463 1.96797 12.9008 1.69297 12.8098 1.47813C12.722 1.26042 12.5691 1.1 12.3512 0.996875C12.1366 0.89375 11 0.842188 11 0.842188V0ZM15 6.98438V8.01562H14.3122V6.98438L15 6.98438Z" fill="#1F3145"/>
<path d="M0 7.48281V8.01562C0.543089 8.01562 0.460163 8.11589 0.678049 8.31641C0.892683 8.51693 1 8.85208 1 9.32187V12.6969C1 13.0922 1.0439 13.4345 1.13171 13.7238C1.21626 14.0132 1.3561 14.2523 1.55122 14.4414C1.74634 14.6305 2.0065 14.7708 2.33171 14.8625C2.65691 14.9542 4 15 4 15V14.1578C4 14.1578 2.86341 14.1048 2.64878 13.9988C2.43089 13.8957 2.27805 13.7367 2.19024 13.5219C2.09919 13.307 2.05366 13.032 2.05366 12.6969V8.97813C2.05366 8.75469 2.02114 8.5513 1.9561 8.36797C1.8878 8.18464 1.76423 8.02708 1.58537 7.89531C1.4065 7.76354 1.15285 7.66185 0.82439 7.59023C0.492683 7.51862 0.526829 7.48281 0 7.48281ZM4 0C4 0 2.65691 0.0458335 2.33171 0.137501C2.0065 0.229167 1.74634 0.369532 1.55122 0.558594C1.3561 0.747657 1.21626 0.98685 1.13171 1.27617C1.0439 1.5655 1 1.90781 1 2.30313V5.67813C1 6.14792 0.892683 6.48307 0.678049 6.68359C0.460163 6.88411 0.543089 6.98438 0 6.98438V7.51719C0.526829 7.51719 0.492683 7.48138 0.82439 7.40977C1.15285 7.33815 1.4065 7.23646 1.58537 7.10469C1.76423 6.97292 1.8878 6.81536 1.9561 6.63203C2.02114 6.4487 2.05366 6.24531 2.05366 6.02188V2.30313C2.05366 1.96797 2.09919 1.69297 2.19024 1.47813C2.27805 1.26042 2.43089 1.1 2.64878 0.996875C2.86341 0.89375 4 0.842188 4 0.842188V0ZM0 6.98438V8.01562H0.687805V6.98438L0 6.98438Z" fill="#1F3145"/>
</svg>
