<svg width="16" height="16" viewBox="0 0 16 16" fill="none" xmlns="http://www.w3.org/2000/svg">
<g clip-path="url(#clip0_16_374)">
<mask id="mask0_16_374" style="mask-type:luminance" maskUnits="userSpaceOnUse" x="0" y="0" width="16" height="16">
<path d="M16 0H0V16H16V0Z" fill="white"/>
</mask>
<g mask="url(#mask0_16_374)">
<path d="M6.67583 6.72856L5.30278 8.10161C7.13367 9.23969 9.32516 9.22695 10.8927 7.94536L9.67583 6.72856H6.67583ZM10.8927 7.94536C7.26177 5.29692 3.63091 2.64848 10.8927 7.94536ZM5.29497 8.0938C3.53 5.39588 1.76502 2.69796 5.29497 8.0938Z" fill="#D0D5D6"/>
<path d="M8 0C5.51472 -1.65685e-07 3.5 2.01472 3.5 4.5C3.50015 5.91744 4.16814 7.25196 5.30273 8.10156L6.67578 6.72852H9.67578L10.8926 7.94531C11.911 7.09071 12.4995 5.8295 12.5 4.5C12.5 2.01472 10.4853 -1.65685e-07 8 0ZM8 2C9.38071 2 10.5 3.11929 10.5 4.5H5.5C5.5 3.11929 6.61929 2 8 2Z" fill="#E37933"/>
<path opacity="0.4" d="M8 15.3814L6.84931 14.5434L7.79436 13.8551L8.34931 13.451L7.79436 13.0468L6.84931 12.3585L7.79436 11.6702L8.34931 11.2661L7.79436 10.8619L6.84931 10.1736L7.86102 9.43677L8.06667 9.287V9.0326V8.5H9.5V14.289L8 15.3814Z" fill="#D0D5D6" stroke="black"/>
<path d="M8.175 8H10V12.1157V14.5434L8.5 16L7 14.5434L8.125 13.451L7 12.3585L8.125 11.2661L7 10.1736L8.175 9.0326V8Z" fill="#D0D5D6"/>
</g>
<rect opacity="0.7" x="9" y="9" width="1" height="5" fill="#939393"/>
</g>
<defs>
<clipPath id="clip0_16_374">
<rect width="16" height="16" fill="white"/>
</clipPath>
</defs>
</svg>
