<svg width="288" height="65" viewBox="0 0 288 65" fill="none" xmlns="http://www.w3.org/2000/svg">
<g clip-path="url(#clip0_205_139)">
<rect width="288" height="65" fill="white"/>
<path d="M108 39.6943H115.319V49H114.081V40.7925H109.231V49H108V39.6943Z" fill="#009646"/>
<path d="M116.76 45.6294C116.76 44.381 117.107 43.4564 117.801 42.8555C118.38 42.3561 119.087 42.1064 119.921 42.1064C120.847 42.1064 121.605 42.4111 122.193 43.0205C122.781 43.6257 123.075 44.4635 123.075 45.5342C123.075 46.4017 122.944 47.0851 122.682 47.5845C122.424 48.0796 122.045 48.4647 121.546 48.7397C121.051 49.0148 120.509 49.1523 119.921 49.1523C118.977 49.1523 118.213 48.8498 117.629 48.2446C117.049 47.6395 116.76 46.7677 116.76 45.6294ZM117.934 45.6294C117.934 46.4927 118.122 47.1401 118.499 47.5718C118.875 47.9992 119.349 48.2129 119.921 48.2129C120.488 48.2129 120.96 47.9971 121.336 47.5654C121.713 47.1338 121.901 46.4757 121.901 45.5913C121.901 44.7576 121.711 44.1271 121.33 43.6997C120.953 43.2681 120.483 43.0522 119.921 43.0522C119.349 43.0522 118.875 43.266 118.499 43.6934C118.122 44.1208 117.934 44.7661 117.934 45.6294Z" fill="#009646"/>
<path d="M125.031 42.2588H129.728V48.0605H130.458V50.9106H129.518V49H124.212V50.9106H123.272V48.0605H123.875C124.679 46.9688 125.064 45.0348 125.031 42.2588ZM125.983 43.2046C125.898 45.3924 125.56 47.0111 124.967 48.0605H128.592V43.2046H125.983Z" fill="#009646"/>
<path d="M131.727 42.2588H137.047V49H135.904V43.2046H132.87V49H131.727V42.2588Z" fill="#009646"/>
<path d="M138.767 42.2588H139.909V47.4004L143.077 42.2588H144.308V49H143.166V43.8901L139.998 49H138.767V42.2588Z" fill="#009646"/>
<path d="M150.428 46.5308L151.551 46.6768C151.428 47.4512 151.113 48.0584 150.605 48.4985C150.102 48.9344 149.482 49.1523 148.745 49.1523C147.823 49.1523 147.08 48.8519 146.517 48.251C145.959 47.6458 145.679 46.7804 145.679 45.6548C145.679 44.9269 145.8 44.29 146.041 43.7441C146.282 43.1982 146.649 42.7899 147.139 42.519C147.635 42.244 148.172 42.1064 148.752 42.1064C149.484 42.1064 150.083 42.2926 150.548 42.665C151.014 43.0332 151.312 43.5579 151.443 44.2393L150.332 44.4106C150.226 43.9578 150.038 43.6172 149.767 43.3887C149.501 43.1602 149.177 43.0459 148.796 43.0459C148.221 43.0459 147.753 43.2533 147.393 43.668C147.034 44.0785 146.854 44.7301 146.854 45.623C146.854 46.5286 147.027 47.1867 147.374 47.5972C147.721 48.0076 148.174 48.2129 148.733 48.2129C149.181 48.2129 149.556 48.0754 149.856 47.8003C150.157 47.5252 150.347 47.1021 150.428 46.5308Z" fill="#009646"/>
<path d="M156.928 48.1685C156.504 48.5282 156.096 48.7821 155.702 48.9302C155.313 49.0783 154.894 49.1523 154.446 49.1523C153.705 49.1523 153.136 48.9725 152.738 48.6128C152.34 48.2489 152.141 47.7855 152.141 47.2227C152.141 46.8926 152.215 46.5921 152.364 46.3213C152.516 46.0462 152.713 45.8262 152.954 45.6611C153.199 45.4961 153.474 45.3713 153.779 45.2866C154.003 45.2274 154.342 45.1702 154.795 45.1152C155.717 45.0052 156.396 44.874 156.832 44.7217C156.837 44.5651 156.839 44.4657 156.839 44.4233C156.839 43.9578 156.731 43.6299 156.515 43.4395C156.223 43.1813 155.789 43.0522 155.214 43.0522C154.676 43.0522 154.278 43.1475 154.02 43.3379C153.766 43.5241 153.578 43.8563 153.455 44.3345L152.338 44.1821C152.44 43.7039 152.607 43.3188 152.84 43.0269C153.072 42.7306 153.409 42.5042 153.849 42.3477C154.289 42.1868 154.799 42.1064 155.379 42.1064C155.954 42.1064 156.422 42.1742 156.782 42.3096C157.141 42.445 157.406 42.6164 157.575 42.8237C157.744 43.0269 157.863 43.285 157.93 43.5981C157.969 43.7928 157.988 44.144 157.988 44.6519V46.1753C157.988 47.2375 158.011 47.9103 158.057 48.1938C158.108 48.4731 158.206 48.7419 158.349 49H157.156C157.038 48.763 156.961 48.4858 156.928 48.1685ZM156.832 45.6167C156.418 45.786 155.796 45.9299 154.966 46.0483C154.496 46.116 154.164 46.1922 153.969 46.2769C153.775 46.3615 153.625 46.4863 153.519 46.6514C153.413 46.8122 153.36 46.992 153.36 47.1909C153.36 47.4956 153.474 47.7495 153.703 47.9526C153.936 48.1558 154.274 48.2573 154.719 48.2573C155.159 48.2573 155.55 48.1621 155.893 47.9717C156.236 47.777 156.487 47.5125 156.648 47.1782C156.771 46.9201 156.832 46.5392 156.832 46.0356V45.6167Z" fill="#009646"/>
<path d="M159.771 42.2588H160.914V45.0645H164.081V42.2588H165.224V49H164.081V46.0103H160.914V49H159.771V42.2588Z" fill="#009646"/>
<path d="M171.349 48.1685C170.926 48.5282 170.518 48.7821 170.124 48.9302C169.735 49.0783 169.316 49.1523 168.867 49.1523C168.127 49.1523 167.558 48.9725 167.16 48.6128C166.762 48.2489 166.563 47.7855 166.563 47.2227C166.563 46.8926 166.637 46.5921 166.785 46.3213C166.938 46.0462 167.135 45.8262 167.376 45.6611C167.621 45.4961 167.896 45.3713 168.201 45.2866C168.425 45.2274 168.764 45.1702 169.217 45.1152C170.139 45.0052 170.818 44.874 171.254 44.7217C171.258 44.5651 171.261 44.4657 171.261 44.4233C171.261 43.9578 171.153 43.6299 170.937 43.4395C170.645 43.1813 170.211 43.0522 169.636 43.0522C169.098 43.0522 168.7 43.1475 168.442 43.3379C168.188 43.5241 168 43.8563 167.877 44.3345L166.76 44.1821C166.862 43.7039 167.029 43.3188 167.261 43.0269C167.494 42.7306 167.831 42.5042 168.271 42.3477C168.711 42.1868 169.221 42.1064 169.801 42.1064C170.376 42.1064 170.844 42.1742 171.203 42.3096C171.563 42.445 171.828 42.6164 171.997 42.8237C172.166 43.0269 172.285 43.285 172.352 43.5981C172.39 43.7928 172.409 44.144 172.409 44.6519V46.1753C172.409 47.2375 172.433 47.9103 172.479 48.1938C172.53 48.4731 172.627 48.7419 172.771 49H171.578C171.459 48.763 171.383 48.4858 171.349 48.1685ZM171.254 45.6167C170.839 45.786 170.217 45.9299 169.388 46.0483C168.918 46.116 168.586 46.1922 168.391 46.2769C168.197 46.3615 168.046 46.4863 167.941 46.6514C167.835 46.8122 167.782 46.992 167.782 47.1909C167.782 47.4956 167.896 47.7495 168.125 47.9526C168.358 48.1558 168.696 48.2573 169.14 48.2573C169.581 48.2573 169.972 48.1621 170.315 47.9717C170.657 47.777 170.909 47.5125 171.07 47.1782C171.193 46.9201 171.254 46.5392 171.254 46.0356V45.6167Z" fill="#009646"/>
<path d="M214 49V39.6943H217.51C218.128 39.6943 218.6 39.724 218.926 39.7832C219.383 39.8594 219.766 40.0054 220.075 40.2212C220.383 40.4328 220.631 40.7311 220.817 41.1162C221.008 41.5013 221.103 41.9245 221.103 42.3857C221.103 43.1771 220.851 43.8478 220.347 44.3979C219.844 44.9438 218.934 45.2168 217.618 45.2168H215.231V49H214ZM215.231 44.1187H217.637C218.433 44.1187 218.998 43.9705 219.332 43.6743C219.666 43.3781 219.833 42.9613 219.833 42.4238C219.833 42.0345 219.734 41.7023 219.535 41.4272C219.34 41.1479 219.082 40.9639 218.761 40.875C218.553 40.82 218.17 40.7925 217.612 40.7925H215.231V44.1187Z" fill="#ADBFCC"/>
<path d="M226.568 46.8291L227.749 46.9751C227.563 47.6649 227.218 48.2002 226.714 48.5811C226.211 48.9619 225.567 49.1523 224.784 49.1523C223.798 49.1523 223.016 48.8498 222.436 48.2446C221.86 47.6353 221.573 46.7826 221.573 45.6865C221.573 44.5524 221.865 43.6722 222.449 43.0459C223.033 42.4196 223.79 42.1064 224.721 42.1064C225.622 42.1064 226.359 42.4132 226.93 43.0269C227.501 43.6405 227.787 44.5037 227.787 45.6167C227.787 45.6844 227.785 45.786 227.781 45.9214H222.753C222.796 46.6619 223.005 47.229 223.382 47.6226C223.758 48.0161 224.228 48.2129 224.791 48.2129C225.21 48.2129 225.567 48.1029 225.864 47.8828C226.16 47.6628 226.395 47.3115 226.568 46.8291ZM222.817 44.9819H226.581C226.53 44.4149 226.386 43.9896 226.149 43.7061C225.785 43.266 225.313 43.0459 224.734 43.0459C224.209 43.0459 223.767 43.2215 223.407 43.5728C223.052 43.924 222.855 44.3937 222.817 44.9819Z" fill="#ADBFCC"/>
<path d="M229.196 42.2588H233.075V43.2046H230.339V49H229.196V42.2588Z" fill="#ADBFCC"/>
<path d="M233.938 42.2588H235.08V47.4004L238.248 42.2588H239.479V49H238.337V43.8901L235.169 49H233.938V42.2588Z" fill="#ADBFCC"/>
<path d="M245.598 46.5308L246.722 46.6768C246.599 47.4512 246.284 48.0584 245.776 48.4985C245.273 48.9344 244.653 49.1523 243.916 49.1523C242.994 49.1523 242.251 48.8519 241.688 48.251C241.13 47.6458 240.85 46.7804 240.85 45.6548C240.85 44.9269 240.971 44.29 241.212 43.7441C241.453 43.1982 241.819 42.7899 242.31 42.519C242.805 42.244 243.343 42.1064 243.923 42.1064C244.655 42.1064 245.254 42.2926 245.719 42.665C246.185 43.0332 246.483 43.5579 246.614 44.2393L245.503 44.4106C245.397 43.9578 245.209 43.6172 244.938 43.3887C244.672 43.1602 244.348 43.0459 243.967 43.0459C243.392 43.0459 242.924 43.2533 242.564 43.668C242.205 44.0785 242.025 44.7301 242.025 45.623C242.025 46.5286 242.198 47.1867 242.545 47.5972C242.892 48.0076 243.345 48.2129 243.904 48.2129C244.352 48.2129 244.727 48.0754 245.027 47.8003C245.328 47.5252 245.518 47.1021 245.598 46.5308Z" fill="#ADBFCC"/>
<path d="M247.084 42.2588H252.562V43.2046H250.391V49H249.255V43.2046H247.084V42.2588Z" fill="#ADBFCC"/>
<path d="M253.654 51.5835V42.2588H254.695V43.1348C254.94 42.792 255.217 42.536 255.526 42.3667C255.835 42.1932 256.21 42.1064 256.65 42.1064C257.225 42.1064 257.733 42.2546 258.173 42.5508C258.613 42.847 258.945 43.266 259.17 43.8076C259.394 44.3451 259.506 44.9354 259.506 45.5786C259.506 46.2684 259.381 46.8905 259.132 47.4448C258.886 47.995 258.527 48.4181 258.053 48.7144C257.583 49.0063 257.088 49.1523 256.567 49.1523C256.186 49.1523 255.844 49.0719 255.539 48.9111C255.238 48.7503 254.991 48.5472 254.796 48.3018V51.5835H253.654ZM254.688 45.6675C254.688 46.535 254.864 47.1761 255.215 47.5908C255.566 48.0055 255.992 48.2129 256.491 48.2129C256.999 48.2129 257.433 47.9992 257.792 47.5718C258.156 47.1401 258.338 46.4736 258.338 45.5723C258.338 44.7132 258.16 44.07 257.805 43.6426C257.454 43.2152 257.033 43.0015 256.542 43.0015C256.055 43.0015 255.624 43.23 255.247 43.687C254.874 44.1398 254.688 44.8 254.688 45.6675Z" fill="#ADBFCC"/>
<path d="M265.289 48.1685C264.866 48.5282 264.457 48.7821 264.064 48.9302C263.674 49.0783 263.256 49.1523 262.807 49.1523C262.066 49.1523 261.497 48.9725 261.099 48.6128C260.702 48.2489 260.503 47.7855 260.503 47.2227C260.503 46.8926 260.577 46.5921 260.725 46.3213C260.877 46.0462 261.074 45.8262 261.315 45.6611C261.561 45.4961 261.836 45.3713 262.14 45.2866C262.365 45.2274 262.703 45.1702 263.156 45.1152C264.079 45.0052 264.758 44.874 265.194 44.7217C265.198 44.5651 265.2 44.4657 265.2 44.4233C265.2 43.9578 265.092 43.6299 264.876 43.4395C264.584 43.1813 264.151 43.0522 263.575 43.0522C263.038 43.0522 262.64 43.1475 262.382 43.3379C262.128 43.5241 261.939 43.8563 261.817 44.3345L260.7 44.1821C260.801 43.7039 260.968 43.3188 261.201 43.0269C261.434 42.7306 261.77 42.5042 262.21 42.3477C262.65 42.1868 263.16 42.1064 263.74 42.1064C264.316 42.1064 264.783 42.1742 265.143 42.3096C265.503 42.445 265.767 42.6164 265.936 42.8237C266.106 43.0269 266.224 43.285 266.292 43.5981C266.33 43.7928 266.349 44.144 266.349 44.6519V46.1753C266.349 47.2375 266.372 47.9103 266.419 48.1938C266.47 48.4731 266.567 48.7419 266.711 49H265.517C265.399 48.763 265.323 48.4858 265.289 48.1685ZM265.194 45.6167C264.779 45.786 264.157 45.9299 263.327 46.0483C262.858 46.116 262.526 46.1922 262.331 46.2769C262.136 46.3615 261.986 46.4863 261.88 46.6514C261.774 46.8122 261.721 46.992 261.721 47.1909C261.721 47.4956 261.836 47.7495 262.064 47.9526C262.297 48.1558 262.636 48.2573 263.08 48.2573C263.52 48.2573 263.911 48.1621 264.254 47.9717C264.597 47.777 264.849 47.5125 265.01 47.1782C265.132 46.9201 265.194 46.5392 265.194 46.0356V45.6167Z" fill="#ADBFCC"/>
<path d="M268.145 42.2588H269.288V48.0605H272.449V42.2588H273.592V48.0605H274.328V50.9106H273.388V49H268.145V42.2588Z" fill="#ADBFCC"/>
<path d="M275.578 42.2588H276.721V47.4004L279.888 42.2588H281.12V49H279.977V43.8901L276.81 49H275.578V42.2588Z" fill="#ADBFCC"/>
<path d="M288.147 42.2588V49H287.011V46.3721H286.35C285.948 46.3721 285.648 46.425 285.449 46.5308C285.254 46.6323 284.969 46.9645 284.592 47.5273L283.596 49H282.18L283.411 47.1846C283.788 46.6302 284.163 46.3171 284.535 46.2451C283.883 46.1562 283.399 45.9214 283.081 45.5405C282.768 45.1597 282.612 44.7217 282.612 44.2266C282.612 43.6426 282.817 43.1686 283.227 42.8047C283.642 42.4408 284.241 42.2588 285.024 42.2588H288.147ZM287.011 43.2046H285.386C284.704 43.2046 284.264 43.3104 284.065 43.522C283.871 43.7336 283.773 43.9811 283.773 44.2646C283.773 44.6667 283.917 44.9629 284.205 45.1533C284.497 45.3395 285.011 45.4326 285.747 45.4326H287.011V43.2046Z" fill="#ADBFCC"/>
<path d="M29 1C20.163 1 13 8.163 13 17C13 25.837 20.163 33 29 33C37.837 33 45 25.837 45 17C44.974 8.174 37.826 1.026 29 1ZM36.707 12.707L28.707 22.707C28.512 22.902 28.256 23 28 23C27.744 23 27.488 22.902 27.293 22.707L23.293 18.707C22.902 18.316 22.902 17.684 23.293 17.293C23.684 16.902 24.316 16.902 24.707 17.293L28 20.586L35.293 11.293C35.684 10.902 36.316 10.902 36.707 11.293C37.098 11.684 37.098 12.316 36.707 12.707Z" fill="#14AA5A"/>
<path fill-rule="evenodd" clip-rule="evenodd" d="M29 30C36.1797 30 42 24.1797 42 17C42 9.8203 36.1797 4 29 4C21.8203 4 16 9.8203 16 17C16 24.1797 21.8203 30 29 30ZM29 31C36.732 31 43 24.732 43 17C43 9.26801 36.732 3 29 3C21.268 3 15 9.26801 15 17C15 24.732 21.268 31 29 31Z" fill="white"/>
<path d="M140 0C131.163 0 124 7.163 124 16C124 24.837 131.163 32 140 32C148.837 32 156 24.837 156 16C155.974 7.174 148.826 0.026 140 0ZM147.707 11.707L139.707 21.707C139.512 21.902 139.256 22 139 22C138.744 22 138.488 21.902 138.293 21.707L134.293 17.707C133.902 17.316 133.902 16.684 134.293 16.293C134.684 15.902 135.316 15.902 135.707 16.293L139 19.586L146.293 10.293C146.684 9.902 147.316 9.902 147.707 10.293C148.098 10.684 148.098 11.316 147.707 11.707Z" fill="#14AA5A"/>
<path fill-rule="evenodd" clip-rule="evenodd" d="M140 29C147.18 29 153 23.1797 153 16C153 8.8203 147.18 3 140 3C132.82 3 127 8.8203 127 16C127 23.1797 132.82 29 140 29ZM140 30C147.732 30 154 23.732 154 16C154 8.26801 147.732 2 140 2C132.268 2 126 8.26801 126 16C126 23.732 132.268 30 140 30Z" fill="white"/>
<path d="M265 17C265 24.732 258.732 31 251 31C243.268 31 237 24.732 237 17C237 9.26801 243.268 3 251 3C258.732 3 265 9.26801 265 17Z" fill="#CFDAE2"/>
<path d="M250.971 24.2344C248.871 24.2344 247.348 23.4824 246.498 22.0371C246.273 21.6465 246.176 21.2949 246.176 20.9141C246.176 20.4258 246.479 20.0938 246.986 20.0938C247.387 20.0938 247.611 20.3086 247.797 20.7871C248.266 21.998 249.271 22.7109 250.971 22.7109C252.826 22.7109 254.066 21.6562 254.076 20.1816C254.086 18.4434 252.846 17.4668 250.863 17.4668H249.74C249.271 17.4668 248.949 17.1641 248.949 16.7246C248.949 16.2852 249.271 15.9824 249.74 15.9824H250.785C252.465 15.9824 253.637 14.9473 253.637 13.541C253.637 12.1445 252.758 11.1973 250.951 11.1973C249.398 11.1973 248.549 11.8516 248.041 13.1309C247.865 13.6387 247.689 13.8242 247.25 13.8242C246.752 13.8242 246.469 13.5312 246.469 13.0234C246.469 12.623 246.557 12.2715 246.762 11.8906C247.504 10.4844 248.998 9.67383 250.951 9.67383C253.773 9.67383 255.404 11.2949 255.404 13.3066C255.404 15.0547 254.184 16.2559 252.416 16.627V16.666C254.467 16.8418 255.863 18.1211 255.863 20.123C255.863 22.5449 253.734 24.2344 250.971 24.2344Z" fill="#F5F5F5"/>
<path d="M45 16H124V18H45V16Z" fill="#14AA5A"/>
<path d="M156 16H235V18H156V16Z" fill="#CEDAE2"/>
<path d="M10.9951 44.7373L12.2266 45.0483C11.9684 46.0597 11.5029 46.832 10.8301 47.3652C10.1615 47.8942 9.34261 48.1587 8.37354 48.1587C7.37061 48.1587 6.55387 47.9556 5.92334 47.5493C5.29704 47.1388 4.81885 46.5464 4.48877 45.772C4.16292 44.9976 4 44.166 4 43.2773C4 42.3083 4.18408 41.464 4.55225 40.7446C4.92464 40.021 5.4515 39.473 6.13281 39.1006C6.81836 38.724 7.57162 38.5356 8.39258 38.5356C9.32357 38.5356 10.1064 38.7726 10.7412 39.2466C11.376 39.7205 11.8182 40.387 12.0679 41.2461L10.8555 41.5317C10.6396 40.8547 10.3265 40.3617 9.91602 40.0527C9.50553 39.7438 8.98926 39.5894 8.36719 39.5894C7.65202 39.5894 7.05322 39.7607 6.5708 40.1035C6.09261 40.4463 5.75619 40.9076 5.56152 41.4873C5.36686 42.0628 5.26953 42.6574 5.26953 43.271C5.26953 44.0623 5.38379 44.7542 5.61231 45.3467C5.84505 45.9349 6.20475 46.375 6.69141 46.667C7.17806 46.959 7.70492 47.105 8.27197 47.105C8.96175 47.105 9.54574 46.9061 10.0239 46.5083C10.5021 46.1105 10.8258 45.5202 10.9951 44.7373Z" fill="#009646"/>
<path d="M13.1787 44.6294C13.1787 43.381 13.5257 42.4564 14.2197 41.8555C14.7994 41.3561 15.5061 41.1064 16.3398 41.1064C17.2666 41.1064 18.024 41.4111 18.6123 42.0205C19.2005 42.6257 19.4946 43.4635 19.4946 44.5342C19.4946 45.4017 19.3634 46.0851 19.101 46.5845C18.8429 47.0796 18.4642 47.4647 17.9648 47.7397C17.4697 48.0148 16.928 48.1523 16.3398 48.1523C15.3961 48.1523 14.6323 47.8498 14.0483 47.2446C13.4685 46.6395 13.1787 45.7677 13.1787 44.6294ZM14.353 44.6294C14.353 45.4927 14.5413 46.1401 14.9179 46.5718C15.2946 46.9992 15.7685 47.2129 16.3398 47.2129C16.9069 47.2129 17.3787 46.9971 17.7553 46.5654C18.132 46.1338 18.3203 45.4757 18.3203 44.5913C18.3203 43.7576 18.1298 43.1271 17.749 42.6997C17.3724 42.2681 16.9026 42.0522 16.3398 42.0522C15.7685 42.0522 15.2946 42.266 14.9179 42.6934C14.5413 43.1208 14.353 43.7661 14.353 44.6294Z" fill="#009646"/>
<path d="M22.1796 44.9531V44.0581C22.6621 44.0539 22.99 44.0348 23.1635 44.001C23.3413 43.9671 23.5084 43.8656 23.665 43.6963C23.8216 43.527 23.8999 43.3154 23.8999 43.0615C23.8999 42.7526 23.7962 42.5072 23.5888 42.3252C23.3857 42.139 23.1212 42.0459 22.7954 42.0459C22.1521 42.0459 21.7015 42.4246 21.4433 43.1821L20.3579 43.0044C20.6964 41.7391 21.5131 41.1064 22.8081 41.1064C23.5275 41.1064 24.0903 41.3032 24.4965 41.6968C24.907 42.0903 25.1123 42.5601 25.1123 43.106C25.1123 43.6561 24.8457 44.0941 24.3125 44.4199C24.651 44.6019 24.9049 44.8346 25.0742 45.1182C25.2435 45.3975 25.3281 45.7297 25.3281 46.1147C25.3281 46.7199 25.108 47.2108 24.6679 47.5874C24.2278 47.964 23.6121 48.1523 22.8208 48.1523C21.2846 48.1523 20.3938 47.4689 20.1484 46.1021L21.2212 45.8735C21.3185 46.3052 21.5153 46.6395 21.8115 46.8765C22.1119 47.1134 22.4547 47.2319 22.8398 47.2319C23.2249 47.2319 23.5444 47.124 23.7983 46.9082C24.0564 46.6882 24.1855 46.4089 24.1855 46.0703C24.1855 45.8079 24.1051 45.5794 23.9443 45.3848C23.7835 45.1901 23.6121 45.0695 23.4301 45.0229C23.2482 44.9722 22.9181 44.9468 22.4399 44.9468C22.4018 44.9468 22.3151 44.9489 22.1796 44.9531Z" fill="#009646"/>
<path d="M27.2641 41.2588H31.9614V47.0605H32.6914V49.9106H31.7519V48H26.4453V49.9106H25.5058V47.0605H26.1088C26.9129 45.9688 27.298 44.0348 27.2641 41.2588ZM28.2163 42.2046C28.1316 44.3924 27.7931 46.0111 27.2006 47.0605H30.8252V42.2046H28.2163Z" fill="#009646"/>
<path d="M38.3535 47.1685C37.9303 47.5282 37.5219 47.7821 37.1284 47.9302C36.7391 48.0783 36.3201 48.1523 35.8715 48.1523C35.131 48.1523 34.5618 47.9725 34.164 47.6128C33.7662 47.2489 33.5673 46.7855 33.5673 46.2227C33.5673 45.8926 33.6414 45.5921 33.7895 45.3213C33.9419 45.0462 34.1386 44.8262 34.3798 44.6611C34.6253 44.4961 34.9004 44.3713 35.205 44.2866C35.4293 44.2274 35.7679 44.1702 36.2207 44.1152C37.1432 44.0052 37.8224 43.874 38.2583 43.7217C38.2625 43.5651 38.2646 43.4657 38.2646 43.4233C38.2646 42.9578 38.1567 42.6299 37.9409 42.4395C37.6489 42.1813 37.2151 42.0522 36.6396 42.0522C36.1022 42.0522 35.7044 42.1475 35.4463 42.3379C35.1923 42.5241 35.004 42.8563 34.8813 43.3345L33.7641 43.1821C33.8657 42.7039 34.0328 42.3188 34.2656 42.0269C34.4983 41.7306 34.8348 41.5042 35.2749 41.3477C35.715 41.1868 36.2249 41.1064 36.8046 41.1064C37.3802 41.1064 37.8478 41.1742 38.2075 41.3096C38.5672 41.445 38.8317 41.6164 39.0009 41.8237C39.1702 42.0269 39.2887 42.285 39.3564 42.5981C39.3945 42.7928 39.4135 43.144 39.4135 43.6519V45.1753C39.4135 46.2375 39.4368 46.9103 39.4834 47.1938C39.5341 47.4731 39.6315 47.7419 39.7754 48H38.582C38.4635 47.763 38.3873 47.4858 38.3535 47.1685ZM38.2583 44.6167C37.8435 44.786 37.2215 44.9299 36.3921 45.0483C35.9223 45.116 35.5901 45.1922 35.3955 45.2769C35.2008 45.3615 35.0506 45.4863 34.9448 45.6514C34.839 45.8122 34.7861 45.992 34.7861 46.1909C34.7861 46.4956 34.9004 46.7495 35.1289 46.9526C35.3616 47.1558 35.7002 47.2573 36.1445 47.2573C36.5846 47.2573 36.976 47.1621 37.3188 46.9717C37.6616 46.777 37.9134 46.5125 38.0742 46.1782C38.1969 45.9201 38.2583 45.5392 38.2583 45.0356V44.6167Z" fill="#009646"/>
<path d="M41.1972 41.2588H42.3398V44.0645H45.5073V41.2588H46.6499V48H45.5073V45.0103H42.3398V48H41.1972V41.2588Z" fill="#009646"/>
<path d="M52.7754 47.1685C52.3522 47.5282 51.9438 47.7821 51.5503 47.9302C51.1609 48.0783 50.742 48.1523 50.2934 48.1523C49.5529 48.1523 48.9837 47.9725 48.5859 47.6128C48.1881 47.2489 47.9892 46.7855 47.9892 46.2227C47.9892 45.8926 48.0633 45.5921 48.2114 45.3213C48.3637 45.0462 48.5605 44.8262 48.8017 44.6611C49.0472 44.4961 49.3222 44.3713 49.6269 44.2866C49.8512 44.2274 50.1897 44.1702 50.6425 44.1152C51.5651 44.0052 52.2443 43.874 52.6801 43.7217C52.6844 43.5651 52.6865 43.4657 52.6865 43.4233C52.6865 42.9578 52.5786 42.6299 52.3628 42.4395C52.0708 42.1813 51.637 42.0522 51.0615 42.0522C50.524 42.0522 50.1263 42.1475 49.8681 42.3379C49.6142 42.5241 49.4259 42.8563 49.3032 43.3345L48.186 43.1821C48.2876 42.7039 48.4547 42.3188 48.6875 42.0269C48.9202 41.7306 49.2566 41.5042 49.6967 41.3477C50.1368 41.1868 50.6468 41.1064 51.2265 41.1064C51.802 41.1064 52.2697 41.1742 52.6294 41.3096C52.9891 41.445 53.2535 41.6164 53.4228 41.8237C53.5921 42.0269 53.7106 42.285 53.7783 42.5981C53.8164 42.7928 53.8354 43.144 53.8354 43.6519V45.1753C53.8354 46.2375 53.8587 46.9103 53.9052 47.1938C53.956 47.4731 54.0533 47.7419 54.1972 48H53.0039C52.8854 47.763 52.8092 47.4858 52.7754 47.1685ZM52.6801 44.6167C52.2654 44.786 51.6434 44.9299 50.8139 45.0483C50.3442 45.116 50.012 45.1922 49.8173 45.2769C49.6227 45.3615 49.4725 45.4863 49.3667 45.6514C49.2609 45.8122 49.208 45.992 49.208 46.1909C49.208 46.4956 49.3222 46.7495 49.5507 46.9526C49.7835 47.1558 50.122 47.2573 50.5664 47.2573C51.0065 47.2573 51.3979 47.1621 51.7407 46.9717C52.0835 46.777 52.3352 46.5125 52.4961 46.1782C52.6188 45.9201 52.6801 45.5392 52.6801 45.0356V44.6167Z" fill="#009646"/>
</g>
<defs>
<clipPath id="clip0_205_139">
<rect width="288" height="65" fill="white"/>
</clipPath>
</defs>
</svg>
