<svg width="16" height="16" viewBox="0 0 16 16" fill="none" xmlns="http://www.w3.org/2000/svg">
<path d="M7 3H3V12H7V3Z" fill="white"/>
<path d="M13 3H8V12H13V3Z" fill="white"/>
<path d="M3 3H2V12H3V3Z" fill="#869FAA" fill-opacity="0.8"/>
<path d="M14 2H13V12H14V2Z" fill="#869FAA" fill-opacity="0.8"/>
<path d="M13 2H2V3H13V2Z" fill="#869FAA" fill-opacity="0.8"/>
<path d="M14 12H2V13H14V12Z" fill="#869FAA" fill-opacity="0.8"/>
<path d="M8 3H7V12H8V3Z" fill="#869FAA" fill-opacity="0.8"/>
<path d="M6 10H4V11H6V10Z" fill="#BDC8D2"/>
<path d="M6 8H4V9H6V8Z" fill="#BDC8D2"/>
<path d="M6 6H4V7H6V6Z" fill="#BDC8D2"/>
<path d="M5 10H4V11H5V10Z" fill="#AAB5C2"/>
<path d="M5 8H4V9H5V8Z" fill="#AAB5C2"/>
<path d="M5 6H4V7H5V6Z" fill="#AAB5C2"/>
<path d="M12 10H9V11H12V10Z" fill="#BDC8D2"/>
<path d="M12 8H9V9H12V8Z" fill="#BDC8D2"/>
<path d="M12 6H9V7H12V6Z" fill="#BDC8D2"/>
<path d="M10 10H9V11H10V10Z" fill="#AAB5C2"/>
<path d="M10 8H9V9H10V8Z" fill="#AAB5C2"/>
<path d="M10 6H9V7H10V6Z" fill="#AAB5C2"/>
<rect x="3" y="4" width="4" height="1" fill="#7D96A1"/>
<rect x="8" y="4" width="5" height="1" fill="#7D96A1"/>
</svg>
