<svg width="16" height="16" viewBox="0 0 16 16" fill="none" xmlns="http://www.w3.org/2000/svg">
<circle cx="8" cy="8" r="6" fill="url(#paint0_linear_16_642)"/>
<circle cx="8" cy="8" r="6.5" stroke="#919EAD" stroke-opacity="0.7"/>
<path opacity="0.3" d="M8 13.5C11.548 13.5 14.5 10.8538 14.5 7.5C14.5 4.14623 11.548 1.5 8 1.5C4.45199 1.5 1.5 4.14623 1.5 7.5C1.5 10.8538 4.45199 13.5 8 13.5Z" fill="url(#paint1_linear_16_642)" stroke="#919EAD"/>
<path d="M10.8434 7.15001L6.66806 4.08758C6.37578 3.86884 6 4.08758 6 4.43757V10.5624C6 10.9124 6.37578 11.1312 6.66806 10.9124L10.8434 7.84999C11.0522 7.675 11.0522 7.325 10.8434 7.15001Z" fill="#486D9A"/>
<defs>
<linearGradient id="paint0_linear_16_642" x1="8" y1="2" x2="8" y2="14" gradientUnits="userSpaceOnUse">
<stop stop-color="#FCFCFD"/>
<stop offset="0.52" stop-color="#EEF1F7"/>
<stop offset="1" stop-color="#D5DAE1"/>
</linearGradient>
<linearGradient id="paint1_linear_16_642" x1="8" y1="2" x2="8" y2="13" gradientUnits="userSpaceOnUse">
<stop stop-color="#FCFCFD"/>
<stop offset="0.52" stop-color="#EEF1F7"/>
<stop offset="1" stop-color="#D5DAE1"/>
</linearGradient>
</defs>
</svg>
