<svg width="160" height="16" viewBox="0 0 160 16" fill="none" xmlns="http://www.w3.org/2000/svg">
<path fill-rule="evenodd" clip-rule="evenodd" d="M94 3H82V10H94V3ZM93 4H83V9H93V4Z" fill="#2C2C2C"/>
<path d="M87 10H89V13H87V10Z" fill="#2C2C2C"/>
<path d="M85 14H91V13H85V14Z" fill="#2C2C2C"/>
<path fill-rule="evenodd" clip-rule="evenodd" d="M30 3H18V10H30V3ZM29 4H19V9H29V4Z" fill="#2C2C2C"/>
<path d="M23 10H25V13H23V10Z" fill="#2C2C2C"/>
<path d="M21 14H27V13H21V14Z" fill="#2C2C2C"/>
<path fill-rule="evenodd" clip-rule="evenodd" d="M35.5 3C35.2239 3 35 3.22386 35 3.5V5.5C35 5.77614 35.2239 6 35.5 6H44.5C44.7761 6 45 5.77614 45 5.5V3.5C45 3.22386 44.7761 3 44.5 3H35.5ZM37 4H36V5H37V4ZM39 4H38V5H39V4Z" fill="#2C2C2C"/>
<path fill-rule="evenodd" clip-rule="evenodd" d="M35.5 7C35.2239 7 35 7.22386 35 7.5V9.5C35 9.77614 35.2239 10 35.5 10H44.5C44.7761 10 45 9.77614 45 9.5V7.5C45 7.22386 44.7761 7 44.5 7H35.5ZM37 8H36V9H37V8ZM39 8H38V9H39V8Z" fill="#2C2C2C"/>
<path fill-rule="evenodd" clip-rule="evenodd" d="M35.5 11C35.2239 11 35 11.2239 35 11.5V13.5C35 13.7761 35.2239 14 35.5 14H44.5C44.7761 14 45 13.7761 45 13.5V11.5C45 11.2239 44.7761 11 44.5 11H35.5ZM37 12H36V13H37V12ZM39 12H38V13H39V12Z" fill="#2C2C2C"/>
<path fill-rule="evenodd" clip-rule="evenodd" d="M99.5 3C99.2239 3 99 3.22386 99 3.5V5.5C99 5.77614 99.2239 6 99.5 6H108.5C108.776 6 109 5.77614 109 5.5V3.5C109 3.22386 108.776 3 108.5 3H99.5ZM101 4H100V5H101V4ZM103 4H102V5H103V4Z" fill="#2C2C2C"/>
<path fill-rule="evenodd" clip-rule="evenodd" d="M99.5 7C99.2239 7 99 7.22386 99 7.5V9.5C99 9.77614 99.2239 10 99.5 10H108.5C108.776 10 109 9.77614 109 9.5V7.5C109 7.22386 108.776 7 108.5 7H99.5ZM101 8H100V9H101V8ZM103 8H102V9H103V8Z" fill="#2C2C2C"/>
<path fill-rule="evenodd" clip-rule="evenodd" d="M99.5 11C99.2239 11 99 11.2239 99 11.5V13.5C99 13.7761 99.2239 14 99.5 14H108.5C108.776 14 109 13.7761 109 13.5V11.5C109 11.2239 108.776 11 108.5 11H99.5ZM101 12H100V13H101V12ZM103 12H102V13H103V12Z" fill="#2C2C2C"/>
<path d="M152 14.5C155.59 14.5 158.5 11.5899 158.5 8C158.5 4.41015 155.59 1.5 152 1.5C148.41 1.5 145.5 4.41015 145.5 8C145.5 11.5899 148.41 14.5 152 14.5Z" fill="#DA2F2F" stroke="#DA2F2F" stroke-miterlimit="10" stroke-linecap="round" stroke-linejoin="round"/>
<rect x="148" y="7" width="8" height="2" fill="white"/>
<circle cx="84.5" cy="11.5" r="4.5" fill="#DA2F2F"/>
<path d="M87.1481 8.85172C87.0959 8.79933 87.0338 8.75777 86.9654 8.72942C86.8971 8.70106 86.8238 8.68646 86.7499 8.68646C86.6759 8.68646 86.6026 8.70106 86.5343 8.72942C86.4659 8.75777 86.4039 8.79933 86.3516 8.85172L84.4999 10.7046L82.6481 8.85172C82.5425 8.7461 82.3992 8.68676 82.2499 8.68676C82.1005 8.68676 81.9572 8.7461 81.8516 8.85172C81.746 8.95734 81.6866 9.1006 81.6866 9.24997C81.6866 9.39934 81.746 9.5426 81.8516 9.64822L83.7045 11.5L81.8516 13.3517C81.746 13.4573 81.6866 13.6006 81.6866 13.75C81.6866 13.8993 81.746 14.0426 81.8516 14.1482C81.9572 14.2538 82.1005 14.3132 82.2499 14.3132C82.3992 14.3132 82.5425 14.2538 82.6481 14.1482L84.4999 12.2953L86.3516 14.1482C86.4039 14.2005 86.466 14.242 86.5343 14.2703C86.6027 14.2986 86.6759 14.3132 86.7499 14.3132C86.8238 14.3132 86.8971 14.2986 86.9654 14.2703C87.0337 14.242 87.0958 14.2005 87.1481 14.1482C87.2004 14.0959 87.2419 14.0338 87.2702 13.9655C87.2985 13.8972 87.3131 13.8239 87.3131 13.75C87.3131 13.676 87.2985 13.6028 87.2702 13.5344C87.2419 13.4661 87.2004 13.404 87.1481 13.3517L85.2952 11.5L87.1481 9.64822C87.2005 9.59597 87.242 9.53389 87.2704 9.46556C87.2988 9.39722 87.3134 9.32396 87.3134 9.24997C87.3134 9.17598 87.2988 9.10272 87.2704 9.03438C87.242 8.96604 87.2005 8.90397 87.1481 8.85172Z" fill="white"/>
<path d="M120.906 4.75867C120.886 4.52874 120.802 4.35012 120.652 4.2228C120.502 4.09549 120.299 4.03183 120.042 4.03183C119.867 4.03183 119.72 4.06033 119.6 4.11734C119.48 4.17245 119.388 4.24941 119.323 4.34822C119.261 4.44703 119.23 4.55915 119.23 4.68456C119.226 4.78907 119.245 4.88029 119.286 4.95819C119.329 5.0361 119.388 5.10356 119.462 5.16057C119.536 5.21568 119.621 5.26413 119.719 5.30594C119.816 5.34584 119.919 5.38005 120.03 5.40855L120.484 5.53397C120.705 5.59097 120.907 5.66698 121.091 5.762C121.276 5.85701 121.435 5.97387 121.57 6.11259C121.705 6.25131 121.81 6.41473 121.884 6.60285C121.96 6.79097 121.998 7.00665 122 7.24988C121.998 7.60713 121.919 7.91686 121.763 8.1791C121.608 8.43943 121.384 8.64181 121.091 8.78622C120.8 8.92874 120.449 9 120.037 9C119.629 9 119.273 8.92779 118.97 8.78337C118.669 8.63896 118.434 8.42518 118.264 8.14204C118.096 7.85701 118.008 7.50451 118 7.08456H119.035C119.046 7.28029 119.095 7.44371 119.18 7.57482C119.267 7.70404 119.384 7.8019 119.528 7.86841C119.675 7.93302 119.84 7.96532 120.025 7.96532C120.206 7.96532 120.363 7.93492 120.496 7.87411C120.631 7.8133 120.736 7.72874 120.81 7.62043C120.884 7.51211 120.921 7.38765 120.921 7.24703C120.921 7.11591 120.887 7.0057 120.82 6.91639C120.754 6.82708 120.657 6.75107 120.528 6.68836C120.402 6.62565 120.246 6.56865 120.062 6.51734L119.511 6.35772C119.085 6.238 118.748 6.05083 118.501 5.7962C118.254 5.54157 118.132 5.19858 118.133 4.76722C118.132 4.41378 118.213 4.10499 118.378 3.84086C118.544 3.57672 118.772 3.37055 119.062 3.22233C119.351 3.07411 119.681 3 120.049 3C120.425 3 120.752 3.07411 121.032 3.22233C121.314 3.37055 121.533 3.57672 121.689 3.84086C121.845 4.10499 121.926 4.41093 121.931 4.75867H120.906Z" fill="#2C2C2C"/>
<path d="M125.906 4.75867C125.886 4.52874 125.802 4.35012 125.652 4.2228C125.502 4.09549 125.299 4.03183 125.042 4.03183C124.867 4.03183 124.72 4.06033 124.6 4.11734C124.48 4.17245 124.388 4.24941 124.323 4.34822C124.261 4.44703 124.23 4.55915 124.23 4.68456C124.226 4.78907 124.245 4.88029 124.286 4.95819C124.329 5.0361 124.388 5.10356 124.462 5.16057C124.536 5.21568 124.621 5.26413 124.719 5.30594C124.816 5.34584 124.919 5.38005 125.03 5.40855L125.484 5.53397C125.705 5.59097 125.907 5.66698 126.091 5.762C126.276 5.85701 126.435 5.97387 126.57 6.11259C126.705 6.25131 126.81 6.41473 126.884 6.60285C126.96 6.79097 126.998 7.00665 127 7.24988C126.998 7.60713 126.919 7.91686 126.763 8.1791C126.608 8.43943 126.384 8.64181 126.091 8.78622C125.8 8.92874 125.449 9 125.037 9C124.629 9 124.273 8.92779 123.97 8.78337C123.669 8.63896 123.434 8.42518 123.264 8.14204C123.096 7.85701 123.008 7.50451 123 7.08456H124.035C124.046 7.28029 124.095 7.44371 124.18 7.57482C124.267 7.70404 124.384 7.8019 124.528 7.86841C124.675 7.93302 124.84 7.96532 125.025 7.96532C125.206 7.96532 125.363 7.93492 125.496 7.87411C125.631 7.8133 125.736 7.72874 125.81 7.62043C125.884 7.51211 125.921 7.38765 125.921 7.24703C125.921 7.11591 125.887 7.0057 125.82 6.91639C125.754 6.82708 125.657 6.75107 125.528 6.68836C125.402 6.62565 125.246 6.56865 125.062 6.51734L124.511 6.35772C124.085 6.238 123.748 6.05083 123.501 5.7962C123.254 5.54157 123.132 5.19858 123.133 4.76722C123.132 4.41378 123.213 4.10499 123.378 3.84086C123.544 3.57672 123.772 3.37055 124.062 3.22233C124.351 3.07411 124.681 3 125.049 3C125.425 3 125.752 3.07411 126.032 3.22233C126.314 3.37055 126.533 3.57672 126.689 3.84086C126.845 4.10499 126.926 4.41093 126.931 4.75867H125.906Z" fill="#2C2C2C"/>
<path d="M114.681 9H113V3H114.694C115.171 3 115.582 3.12012 115.926 3.36035C116.27 3.59863 116.535 3.94141 116.72 4.38867C116.907 4.83594 117 5.37109 117 5.99414C117 6.61914 116.907 7.15625 116.72 7.60547C116.535 8.05469 116.269 8.39941 115.921 8.63965C115.576 8.87988 115.162 9 114.681 9ZM114.002 7.91309H114.639C114.935 7.91309 115.184 7.84668 115.387 7.71387C115.59 7.5791 115.743 7.37109 115.845 7.08984C115.948 6.80664 116 6.44141 116 5.99414C116 5.55078 115.948 5.18848 115.845 4.90723C115.743 4.62598 115.591 4.41895 115.389 4.28613C115.187 4.15332 114.938 4.08691 114.641 4.08691H114.002V7.91309Z" fill="#2C2C2C"/>
<circle cx="116.5" cy="11.5" r="4.5" fill="#DA2F2F"/>
<path d="M119.148 8.85172C119.096 8.79933 119.034 8.75777 118.965 8.72942C118.897 8.70106 118.824 8.68646 118.75 8.68646C118.676 8.68646 118.603 8.70106 118.534 8.72942C118.466 8.75777 118.404 8.79933 118.352 8.85172L116.5 10.7046L114.648 8.85172C114.542 8.7461 114.399 8.68676 114.25 8.68676C114.1 8.68676 113.957 8.7461 113.852 8.85172C113.746 8.95734 113.687 9.1006 113.687 9.24997C113.687 9.39934 113.746 9.5426 113.852 9.64822L115.704 11.5L113.852 13.3517C113.746 13.4573 113.687 13.6006 113.687 13.75C113.687 13.8993 113.746 14.0426 113.852 14.1482C113.957 14.2538 114.1 14.3132 114.25 14.3132C114.399 14.3132 114.542 14.2538 114.648 14.1482L116.5 12.2953L118.352 14.1482C118.404 14.2005 118.466 14.242 118.534 14.2703C118.603 14.2986 118.676 14.3132 118.75 14.3132C118.824 14.3132 118.897 14.2986 118.965 14.2703C119.034 14.242 119.096 14.2005 119.148 14.1482C119.2 14.0959 119.242 14.0338 119.27 13.9655C119.298 13.8972 119.313 13.8239 119.313 13.75C119.313 13.676 119.298 13.6028 119.27 13.5344C119.242 13.4661 119.2 13.404 119.148 13.3517L117.295 11.5L119.148 9.64822C119.2 9.59597 119.242 9.53389 119.27 9.46556C119.299 9.39722 119.313 9.32396 119.313 9.24997C119.313 9.17598 119.299 9.10272 119.27 9.03438C119.242 8.96604 119.2 8.90397 119.148 8.85172Z" fill="white"/>
<circle cx="100.5" cy="11.5" r="4.5" fill="#DA2F2F"/>
<path d="M103.148 8.85172C103.096 8.79933 103.034 8.75777 102.965 8.72942C102.897 8.70106 102.824 8.68646 102.75 8.68646C102.676 8.68646 102.603 8.70106 102.534 8.72942C102.466 8.75777 102.404 8.79933 102.352 8.85172L100.5 10.7046L98.6481 8.85172C98.5425 8.7461 98.3992 8.68676 98.2499 8.68676C98.1005 8.68676 97.9572 8.7461 97.8516 8.85172C97.746 8.95734 97.6866 9.1006 97.6866 9.24997C97.6866 9.39934 97.746 9.5426 97.8516 9.64822L99.7045 11.5L97.8516 13.3517C97.746 13.4573 97.6866 13.6006 97.6866 13.75C97.6866 13.8993 97.746 14.0426 97.8516 14.1482C97.9572 14.2538 98.1005 14.3132 98.2499 14.3132C98.3992 14.3132 98.5425 14.2538 98.6481 14.1482L100.5 12.2953L102.352 14.1482C102.404 14.2005 102.466 14.242 102.534 14.2703C102.603 14.2986 102.676 14.3132 102.75 14.3132C102.824 14.3132 102.897 14.2986 102.965 14.2703C103.034 14.242 103.096 14.2005 103.148 14.1482C103.2 14.0959 103.242 14.0338 103.27 13.9655C103.298 13.8972 103.313 13.8239 103.313 13.75C103.313 13.676 103.298 13.6028 103.27 13.5344C103.242 13.4661 103.2 13.404 103.148 13.3517L101.295 11.5L103.148 9.64822C103.2 9.59597 103.242 9.53389 103.27 9.46556C103.299 9.39722 103.313 9.32396 103.313 9.24997C103.313 9.17598 103.299 9.10272 103.27 9.03438C103.242 8.96604 103.2 8.90397 103.148 8.85172Z" fill="white"/>
<path d="M132 4.5V3H135L135 9H133.6L133.6 4.5H132Z" fill="#2B2B2B"/>
<path d="M139.639 7.66739C139.545 7.66739 139.052 7.66397 138.961 7.65577C138.807 7.64177 138.583 7.61717 138.439 7.58199C138.277 7.53553 138.125 7.47404 138.056 7.43373C137.574 7.15532 137.246 6.6108 137.246 5.9836C137.246 5.07117 137.937 4.33125 138.791 4.33125C139.627 4.33125 140.306 5.04213 140.334 5.93031H141.579C141.553 4.30768 140.316 3 138.791 3C137.25 3 136 4.33569 136 5.9836C136 7.14575 136.623 8.1494 137.53 8.64097C137.67 8.72842 137.933 8.81997 138.007 8.84081C138.264 8.91289 138.608 8.96208 138.887 8.98394C138.99 8.99317 139.495 8.99727 139.602 8.99795L144 9V7.66739H139.639Z" fill="#2B2B2B"/>
<circle cx="132.5" cy="11.5" r="4.5" fill="#DA2F2F"/>
<path d="M135.148 8.85172C135.096 8.79933 135.034 8.75777 134.965 8.72942C134.897 8.70106 134.824 8.68646 134.75 8.68646C134.676 8.68646 134.603 8.70106 134.534 8.72942C134.466 8.75777 134.404 8.79933 134.352 8.85172L132.5 10.7046L130.648 8.85172C130.542 8.7461 130.399 8.68676 130.25 8.68676C130.1 8.68676 129.957 8.7461 129.852 8.85172C129.746 8.95734 129.687 9.1006 129.687 9.24997C129.687 9.39934 129.746 9.5426 129.852 9.64822L131.704 11.5L129.852 13.3517C129.746 13.4573 129.687 13.6006 129.687 13.75C129.687 13.8993 129.746 14.0426 129.852 14.1482C129.957 14.2538 130.1 14.3132 130.25 14.3132C130.399 14.3132 130.542 14.2538 130.648 14.1482L132.5 12.2953L134.352 14.1482C134.404 14.2005 134.466 14.242 134.534 14.2703C134.603 14.2986 134.676 14.3132 134.75 14.3132C134.824 14.3132 134.897 14.2986 134.965 14.2703C135.034 14.242 135.096 14.2005 135.148 14.1482C135.2 14.0959 135.242 14.0338 135.27 13.9655C135.298 13.8972 135.313 13.8239 135.313 13.75C135.313 13.676 135.298 13.6028 135.27 13.5344C135.242 13.4661 135.2 13.404 135.148 13.3517L133.295 11.5L135.148 9.64822C135.2 9.59597 135.242 9.53389 135.27 9.46556C135.299 9.39722 135.313 9.32396 135.313 9.24997C135.313 9.17598 135.299 9.10272 135.27 9.03438C135.242 8.96604 135.2 8.90397 135.148 8.85172Z" fill="white"/>
<path d="M56.9062 6.75867C56.8864 6.52874 56.8016 6.35012 56.6519 6.2228C56.5021 6.09549 56.2988 6.03183 56.042 6.03183C55.8675 6.03183 55.7202 6.06033 55.6 6.11734C55.4798 6.17245 55.3877 6.24941 55.3235 6.34822C55.2609 6.44703 55.2296 6.55915 55.2296 6.68456C55.2263 6.78907 55.2453 6.88029 55.2864 6.95819C55.3292 7.0361 55.3877 7.10356 55.4617 7.16057C55.5358 7.21568 55.6214 7.26413 55.7185 7.30594C55.8156 7.34584 55.9193 7.38005 56.0296 7.40855L56.484 7.53397C56.7045 7.59097 56.907 7.66698 57.0914 7.762C57.2757 7.85701 57.4354 7.97387 57.5704 8.11259C57.7053 8.25131 57.8099 8.41473 57.884 8.60285C57.9597 8.79097 57.9984 9.00665 58 9.24988C57.9984 9.60713 57.9193 9.91686 57.763 10.1791C57.6082 10.4394 57.3844 10.6418 57.0914 10.7862C56.8 10.9287 56.4486 11 56.037 11C55.6288 11 55.2733 10.9278 54.9704 10.7834C54.6691 10.639 54.4337 10.4252 54.2642 10.142C54.0963 9.85701 54.0082 9.50451 54 9.08456H55.0346C55.0461 9.28029 55.0947 9.44371 55.1802 9.57482C55.2675 9.70404 55.3835 9.8019 55.5284 9.86841C55.6749 9.93302 55.8403 9.96532 56.0247 9.96532C56.2058 9.96532 56.363 9.93492 56.4963 9.87411C56.6313 9.8133 56.7358 9.72874 56.8099 9.62043C56.884 9.51211 56.921 9.38765 56.921 9.24703C56.921 9.11591 56.8872 9.0057 56.8198 8.91639C56.7539 8.82708 56.6568 8.75107 56.5284 8.68836C56.4016 8.62565 56.2461 8.56865 56.0617 8.51734L55.5111 8.35772C55.0848 8.238 54.7481 8.05083 54.5012 7.7962C54.2543 7.54157 54.1317 7.19858 54.1333 6.76722C54.1317 6.41378 54.2132 6.10499 54.3778 5.84086C54.544 5.57672 54.772 5.37055 55.0617 5.22233C55.3514 5.07411 55.6807 5 56.0494 5C56.4247 5 56.7523 5.07411 57.0321 5.22233C57.3136 5.37055 57.5325 5.57672 57.6889 5.84086C57.8453 6.10499 57.9259 6.41093 57.9309 6.75867H56.9062Z" fill="#2C2C2C"/>
<path d="M61.9062 6.75867C61.8864 6.52874 61.8016 6.35012 61.6519 6.2228C61.5021 6.09549 61.2988 6.03183 61.042 6.03183C60.8675 6.03183 60.7202 6.06033 60.6 6.11734C60.4798 6.17245 60.3877 6.24941 60.3235 6.34822C60.2609 6.44703 60.2296 6.55915 60.2296 6.68456C60.2263 6.78907 60.2453 6.88029 60.2864 6.95819C60.3292 7.0361 60.3877 7.10356 60.4617 7.16057C60.5358 7.21568 60.6214 7.26413 60.7185 7.30594C60.8156 7.34584 60.9193 7.38005 61.0296 7.40855L61.484 7.53397C61.7045 7.59097 61.907 7.66698 62.0914 7.762C62.2757 7.85701 62.4354 7.97387 62.5704 8.11259C62.7053 8.25131 62.8099 8.41473 62.884 8.60285C62.9597 8.79097 62.9984 9.00665 63 9.24988C62.9984 9.60713 62.9193 9.91686 62.763 10.1791C62.6082 10.4394 62.3844 10.6418 62.0914 10.7862C61.8 10.9287 61.4486 11 61.037 11C60.6288 11 60.2733 10.9278 59.9704 10.7834C59.6691 10.639 59.4337 10.4252 59.2642 10.142C59.0963 9.85701 59.0082 9.50451 59 9.08456H60.0346C60.0461 9.28029 60.0947 9.44371 60.1802 9.57482C60.2675 9.70404 60.3835 9.8019 60.5284 9.86841C60.6749 9.93302 60.8403 9.96532 61.0247 9.96532C61.2058 9.96532 61.363 9.93492 61.4963 9.87411C61.6313 9.8133 61.7358 9.72874 61.8099 9.62043C61.884 9.51211 61.921 9.38765 61.921 9.24703C61.921 9.11591 61.8872 9.0057 61.8198 8.91639C61.7539 8.82708 61.6568 8.75107 61.5284 8.68836C61.4016 8.62565 61.2461 8.56865 61.0617 8.51734L60.5111 8.35772C60.0848 8.238 59.7481 8.05083 59.5012 7.7962C59.2543 7.54157 59.1317 7.19858 59.1333 6.76722C59.1317 6.41378 59.2132 6.10499 59.3778 5.84086C59.544 5.57672 59.772 5.37055 60.0617 5.22233C60.3514 5.07411 60.6807 5 61.0494 5C61.4247 5 61.7523 5.07411 62.0321 5.22233C62.3136 5.37055 62.5325 5.57672 62.6889 5.84086C62.8453 6.10499 62.9259 6.41093 62.9309 6.75867H61.9062Z" fill="#2C2C2C"/>
<path d="M50.6806 11H49V5H50.6944C51.1713 5 51.5818 5.12012 51.9259 5.36035C52.2701 5.59863 52.5347 5.94141 52.7199 6.38867C52.9066 6.83594 53 7.37109 53 7.99414C53 8.61914 52.9066 9.15625 52.7199 9.60547C52.5347 10.0547 52.2685 10.3994 51.9213 10.6396C51.5756 10.8799 51.162 11 50.6806 11ZM50.0023 9.91309H50.6389C50.9352 9.91309 51.1844 9.84668 51.3866 9.71387C51.5903 9.5791 51.7431 9.37109 51.8449 9.08984C51.9483 8.80664 52 8.44141 52 7.99414C52 7.55078 51.9483 7.18848 51.8449 6.90723C51.7431 6.62598 51.591 6.41895 51.3889 6.28613C51.1867 6.15332 50.9375 6.08691 50.6412 6.08691H50.0023V9.91309Z" fill="#2C2C2C"/>
<path d="M66 6.5V5H69L69 11H67.5999L67.5999 6.5H66Z" fill="#2B2B2B"/>
<path d="M73.6393 9.66739C73.545 9.66739 73.0521 9.66397 72.961 9.65577C72.8067 9.64177 72.583 9.61717 72.4393 9.58199C72.277 9.53553 72.1246 9.47404 72.0559 9.43373C71.5744 9.15532 71.2463 8.6108 71.2463 7.9836C71.2463 7.07117 71.9374 6.33125 72.791 6.33125C73.6268 6.33125 74.3064 7.04213 74.3335 7.93031H75.5789C75.5527 6.30768 74.3156 5 72.791 5C71.2495 5 70 6.33569 70 7.9836C70 9.14575 70.623 10.1494 71.5303 10.641C71.67 10.7284 71.9326 10.82 72.0073 10.8408C72.2636 10.9129 72.6076 10.9621 72.8869 10.9839C72.9901 10.9932 73.4955 10.9973 73.6022 10.998L78 11V9.66739H73.6393Z" fill="#2B2B2B"/>
</svg>
