<svg width="16" height="16" viewBox="0 0 16 16" fill="none" xmlns="http://www.w3.org/2000/svg">
<path d="M1.5 2.5H9.5M5.5 0.5V2.5M3.5 2.5C3.54444 3.80388 4.00533 5.05924 4.81514 6.08212C5.62495 7.105 6.74109 7.84161 8 8.184M7.5 2.5C7.1 8.125 1.5 8.5 1.5 8.5" stroke="#788B9C" stroke-linecap="round" stroke-linejoin="round"/>
<path fill-rule="evenodd" clip-rule="evenodd" d="M11.5 6C11.6987 6 11.8785 6.1176 11.9581 6.29959L14.1361 11.2779C14.1432 11.2923 14.1497 11.307 14.1554 11.3221L15.4581 14.2996C15.5688 14.5526 15.4534 14.8474 15.2004 14.9581C14.9474 15.0688 14.6526 14.9534 14.5419 14.7004L13.3605 12H9.63951L8.45808 14.7004C8.3474 14.9534 8.05258 15.0688 7.79959 14.9581C7.5466 14.8474 7.43124 14.5526 7.54193 14.2996L11.0419 6.29959C11.1215 6.1176 11.3014 6 11.5 6ZM10.077 11H12.923L11.5 7.74745L10.077 11Z" fill="#4E7AB5"/>
</svg>
