<svg width="16" height="16" viewBox="0 0 16 16" fill="none" xmlns="http://www.w3.org/2000/svg">
<g clip-path="url(#clip0_16_420)">
<path opacity="0.8" d="M11 0L14 3H11V0Z" fill="#8F979B"/>
<path d="M3 1C2.446 1 2 1.446 2 2V14C2 14.554 2.446 15 3 15H12C12.554 15 13 14.554 13 14V4H11C10.446 4 10 3.554 10 3V1H3Z" fill="#F2F7FA"/>
<path d="M13.5 4V3.5H13H11C10.7221 3.5 10.5 3.27786 10.5 3V1V0.5H10H3C2.16986 0.5 1.5 1.16986 1.5 2V14C1.5 14.8301 2.16986 15.5 3 15.5H12C12.8301 15.5 13.5 14.8301 13.5 14V4Z" stroke="#828C91" stroke-opacity="0.7"/>
<path d="M14 9L7.5 6.5L1.00002 8.99998L7.50002 11.5L14 9Z" fill="#78D478" stroke="#489D1A"/>
</g>
<defs>
<clipPath id="clip0_16_420">
<rect width="16" height="16" fill="white"/>
</clipPath>
</defs>
</svg>
