<svg width="16" height="16" viewBox="0 0 16 16" fill="none" xmlns="http://www.w3.org/2000/svg">
<path d="M15.5 3.5L12.5 0.5V2.5H5C4.72386 2.5 4.5 2.72386 4.5 3V4C4.5 4.27614 4.72386 4.5 5 4.5H12.5V6.5L15.5 3.5Z" fill="#64D3FF"/>
<path d="M12.5 0.5L12.8536 0.146447C12.7106 0.00344762 12.4955 -0.0393302 12.3087 0.0380602C12.1218 0.115451 12 0.297769 12 0.5H12.5ZM15.5 3.5L15.8536 3.85355C16.0488 3.65829 16.0488 3.34171 15.8536 3.14645L15.5 3.5ZM12.5 6.5H12C12 6.70223 12.1218 6.88455 12.3087 6.96194C12.4955 7.03933 12.7106 6.99655 12.8536 6.85355L12.5 6.5ZM12.5 4.5H13V4H12.5V4.5ZM12.5 2.5V3H13V2.5H12.5ZM12.1464 0.853553L15.1464 3.85355L15.8536 3.14645L12.8536 0.146447L12.1464 0.853553ZM15.1464 3.14645L12.1464 6.14645L12.8536 6.85355L15.8536 3.85355L15.1464 3.14645ZM13 6.5V4.5H12V6.5H13ZM12.5 4H5V5H12.5V4ZM5 4V3H4V4H5ZM5 3H12.5V2H5V3ZM13 2.5V0.5H12V2.5H13ZM5 3V2C4.44772 2 4 2.44772 4 3H5ZM5 4H4C4 4.55228 4.44772 5 5 5V4Z" fill="#658193"/>
<path d="M13.5 7.5L10.5 4.5V6.5H3C2.72386 6.5 2.5 6.72386 2.5 7V8C2.5 8.27614 2.72386 8.5 3 8.5H10.5V10.5L13.5 7.5Z" fill="#19FFB3"/>
<path d="M10.5 4.5L10.8536 4.14645C10.7106 4.00345 10.4955 3.96067 10.3087 4.03806C10.1218 4.11545 10 4.29777 10 4.5H10.5ZM13.5 7.5L13.8536 7.85355C14.0488 7.65829 14.0488 7.34171 13.8536 7.14645L13.5 7.5ZM10.5 10.5H10C10 10.7022 10.1218 10.8845 10.3087 10.9619C10.4955 11.0393 10.7106 10.9966 10.8536 10.8536L10.5 10.5ZM10.5 8.5H11V8H10.5V8.5ZM10.5 6.5V7H11V6.5H10.5ZM10.1464 4.85355L13.1464 7.85355L13.8536 7.14645L10.8536 4.14645L10.1464 4.85355ZM13.1464 7.14645L10.1464 10.1464L10.8536 10.8536L13.8536 7.85355L13.1464 7.14645ZM11 10.5V8.5H10V10.5H11ZM10.5 8H3V9H10.5V8ZM3 8V7H2V8H3ZM3 7H10.5V6H3V7ZM11 6.5V4.5H10V6.5H11ZM3 7V6C2.44772 6 2 6.44772 2 7H3ZM3 8H2C2 8.55228 2.44772 9 3 9V8Z" fill="#20AA63"/>
<path d="M11.5 11.5L8.5 8.5V10.5H1C0.723858 10.5 0.5 10.7239 0.5 11V12C0.5 12.2761 0.723858 12.5 1 12.5H8.5V14.5L11.5 11.5Z" fill="#FF5D62"/>
<path d="M8.5 8.5L8.85355 8.14645C8.71055 8.00345 8.4955 7.96067 8.30866 8.03806C8.12182 8.11545 8 8.29777 8 8.5H8.5ZM11.5 11.5L11.8536 11.8536C12.0488 11.6583 12.0488 11.3417 11.8536 11.1464L11.5 11.5ZM8.5 14.5H8C8 14.7022 8.12182 14.8845 8.30866 14.9619C8.4955 15.0393 8.71055 14.9966 8.85355 14.8536L8.5 14.5ZM8.5 12.5H9V12H8.5V12.5ZM8.5 10.5V11H9V10.5H8.5ZM8.14645 8.85355L11.1464 11.8536L11.8536 11.1464L8.85355 8.14645L8.14645 8.85355ZM11.1464 11.1464L8.14645 14.1464L8.85355 14.8536L11.8536 11.8536L11.1464 11.1464ZM9 14.5V12.5H8V14.5H9ZM8.5 12H1V13H8.5V12ZM1 12V11H0V12H1ZM1 11H8.5V10H1V11ZM9 10.5V8.5H8V10.5H9ZM1 11V10C0.447715 10 0 10.4477 0 11H1ZM1 12H0C0 12.5523 0.447715 13 1 13V12Z" fill="#B6503B"/>
</svg>
