<svg width="16" height="16" viewBox="0 0 16 16" fill="none" xmlns="http://www.w3.org/2000/svg">
<rect y="11" width="6" height="3" rx="1" fill="#CE964B"/>
<rect x="1" y="12" width="4" height="1" rx="0.5" fill="#FDAA33"/>
<path d="M7 12H8V13H7V12Z" fill="#4D4D4D"/>
<path d="M9 12H10V13H9V12Z" fill="#4D4D4D"/>
<path d="M11 12H12V13H11V12Z" fill="#4D4D4D"/>
<path d="M13 12H14V13H13V12Z" fill="#4D4D4D"/>
<path d="M3 6H4V7H3V6Z" fill="#4D4D4D"/>
<path d="M5 6H6V7H5V6Z" fill="#4D4D4D"/>
<path d="M7 6H8V7H7V6Z" fill="#4D4D4D"/>
<path d="M11 4.5C11 5.18906 10.8878 5.82344 10.6633 6.40313C10.441 6.98099 10.1224 7.51328 9.70748 8H9C9.16327 7.81953 9.31519 7.59714 9.45578 7.33281C9.59864 7.07031 9.72336 6.78229 9.82993 6.46875C9.93651 6.15339 10.0193 5.828 10.0782 5.49258C10.1395 5.15534 10.1701 4.82448 10.1701 4.5C10.1701 4.06615 10.1179 3.62591 10.0136 3.1793C9.9093 2.73268 9.76871 2.31797 9.59184 1.93516C9.41497 1.55234 9.21769 1.24062 9 1H9.70748C10.1224 1.48672 10.441 2.01992 10.6633 2.59961C10.8878 3.17747 11 3.81094 11 4.5Z" fill="#4D4D4D"/>
<path d="M4.30954e-08 4.5C4.30954e-08 5.18906 0.112245 5.82344 0.336735 6.40313C0.558957 6.98099 0.877551 7.51328 1.29252 8H2C1.83673 7.81953 1.68481 7.59714 1.54422 7.33281C1.40136 7.07031 1.27664 6.78229 1.17007 6.46875C1.06349 6.15339 0.980726 5.828 0.921769 5.49258C0.860544 5.15534 0.829932 4.82448 0.829932 4.5C0.829932 4.06615 0.882086 3.62591 0.986394 3.1793C1.0907 2.73268 1.23129 2.31797 1.40816 1.93516C1.58503 1.55234 1.78231 1.24062 2 1H1.29252C0.877551 1.48672 0.558957 2.01992 0.336735 2.59961C0.112245 3.17747 4.30954e-08 3.81094 4.30954e-08 4.5Z" fill="#4D4D4D"/>
</svg>
