<svg width="16" height="16" viewBox="0 0 16 16" fill="none" xmlns="http://www.w3.org/2000/svg">
<path d="M1 3.5C1 3.22386 1.22386 3 1.5 3H14.5C14.7761 3 15 3.22386 15 3.5V13.5C15 13.7761 14.7761 14 14.5 14H1.5C1.22386 14 1 13.7761 1 13.5V3.5Z" fill="url(#paint0_linear_15_89)"/>
<path d="M14.5 2.5H1.5C0.947715 2.5 0.5 2.94772 0.5 3.5V13.5C0.5 14.0523 0.947715 14.5 1.5 14.5H14.5C15.0523 14.5 15.5 14.0523 15.5 13.5V3.5C15.5 2.94772 15.0523 2.5 14.5 2.5Z" stroke="url(#paint1_linear_15_89)" stroke-opacity="0.8"/>
<path d="M2 1.5H14C14.8284 1.5 15.5 2.17157 15.5 3V3.5H0.5V3C0.5 2.17157 1.17157 1.5 2 1.5Z" fill="url(#paint2_linear_15_89)" stroke="url(#paint3_linear_15_89)"/>
<path d="M7 11H9V12H7V11Z" fill="#818587"/>
<path d="M6 9.5C6 9.22386 6.22386 9 6.5 9H9.5C9.77614 9 10 9.22386 10 9.5V9.5C10 9.77614 9.77614 10 9.5 10H6.5C6.22386 10 6 9.77614 6 9.5V9.5Z" fill="#E71B01"/>
<path d="M6 7.5C6 7.22386 6.22386 7 6.5 7H9.5C9.77614 7 10 7.22386 10 7.5V7.5C10 7.77614 9.77614 8 9.5 8H6.5C6.22386 8 6 7.77614 6 7.5V7.5Z" fill="#E71B01"/>
<path d="M7 5H9V6H7V5Z" fill="#818587"/>
<path d="M5 8L5 10L4 10L4 8L5 8Z" fill="#818587"/>
<path d="M4.5 5C4.77614 5 5 5.22386 5 5.5L5 6.5C5 6.77614 4.77614 7 4.5 7V7C4.22386 7 4 6.77614 4 6.5L4 5.5C4 5.22386 4.22386 5 4.5 5V5Z" fill="#818587"/>
<path d="M11.5 5C11.2239 5 11 5.22386 11 5.5L11 6.5C11 6.77614 11.2239 7 11.5 7V7C11.7761 7 12 6.77614 12 6.5L12 5.5C12 5.22386 11.7761 5 11.5 5V5Z" fill="#818587"/>
<path d="M6 5.5C6 5.77614 5.77614 6 5.5 6L4.5 6C4.22386 6 4 5.77614 4 5.5V5.5C4 5.22386 4.22386 5 4.5 5L5.5 5C5.77614 5 6 5.22386 6 5.5V5.5Z" fill="#818587"/>
<path opacity="0.7" d="M6 11.5C6 11.7761 5.77614 12 5.5 12L4.5 12C4.22386 12 4 11.7761 4 11.5V11.5C4 11.2239 4.22386 11 4.5 11L5.5 11C5.77614 11 6 11.2239 6 11.5V11.5Z" fill="#818587"/>
<path d="M10 5.5C10 5.77614 10.2239 6 10.5 6L11.5 6C11.7761 6 12 5.77614 12 5.5V5.5C12 5.22386 11.7761 5 11.5 5L10.5 5C10.2239 5 10 5.22386 10 5.5V5.5Z" fill="#818587"/>
<path opacity="0.7" d="M10 11.5C10 11.7761 10.2239 12 10.5 12L11.5 12C11.7761 12 12 11.7761 12 11.5V11.5C12 11.2239 11.7761 11 11.5 11L10.5 11C10.2239 11 10 11.2239 10 11.5V11.5Z" fill="#818587"/>
<path d="M12 8L12 10L11 10L11 8L12 8Z" fill="#818587"/>
<defs>
<linearGradient id="paint0_linear_15_89" x1="8" y1="4" x2="8" y2="14" gradientUnits="userSpaceOnUse">
<stop stop-color="white"/>
<stop offset="1" stop-color="#F1F1F1"/>
</linearGradient>
<linearGradient id="paint1_linear_15_89" x1="8" y1="4" x2="8" y2="14" gradientUnits="userSpaceOnUse">
<stop stop-color="#ABB7C0"/>
<stop offset="1" stop-color="#8E97A1"/>
</linearGradient>
<linearGradient id="paint2_linear_15_89" x1="0" y1="2.5" x2="16" y2="2.5" gradientUnits="userSpaceOnUse">
<stop stop-color="#87D2FE"/>
<stop offset="0.55" stop-color="#6CBBF3"/>
<stop offset="1" stop-color="#25C6F7"/>
</linearGradient>
<linearGradient id="paint3_linear_15_89" x1="0" y1="2.5" x2="16" y2="2.5" gradientUnits="userSpaceOnUse">
<stop stop-color="#51A5E8"/>
<stop offset="1" stop-color="#4F9FDE"/>
</linearGradient>
</defs>
</svg>
