<svg width="16" height="16" viewBox="0 0 16 16" fill="none" xmlns="http://www.w3.org/2000/svg">
<path d="M1 3.5C1 3.22386 1.22386 3 1.5 3H14.5C14.7761 3 15 3.22386 15 3.5V13.5C15 13.7761 14.7761 14 14.5 14H1.5C1.22386 14 1 13.7761 1 13.5V3.5Z" fill="url(#paint0_linear_16_357)"/>
<path d="M14.5 2.5H1.5C0.947715 2.5 0.5 2.94772 0.5 3.5V13.5C0.5 14.0523 0.947715 14.5 1.5 14.5H14.5C15.0523 14.5 15.5 14.0523 15.5 13.5V3.5C15.5 2.94772 15.0523 2.5 14.5 2.5Z" stroke="url(#paint1_linear_16_357)" stroke-opacity="0.8"/>
<path d="M2 1.5H14C14.8284 1.5 15.5 2.17157 15.5 3V3.5H0.5V3C0.5 2.17157 1.17157 1.5 2 1.5Z" fill="url(#paint2_linear_16_357)" stroke="url(#paint3_linear_16_357)"/>
<path d="M7.84356 0.965299L7.86474 0.931459L7.88029 0.894686C8.01038 0.586947 8.21245 0.5 8.26522 0.5H11.478C11.5237 0.5 11.6107 0.528289 11.6877 0.651879C11.7524 0.755762 11.7952 0.911095 11.769 1.09842L9.20996 4.71098L8.65105 5.5H9.61797H12.1544C12.2231 5.5 12.3543 5.55717 12.4442 5.76969C12.5281 5.9682 12.5124 6.16953 12.432 6.29697L5.98205 13.8593L7.40568 9.14453L7.6003 8.5H6.92703H3.79879C3.75305 8.5 3.66607 8.47171 3.58907 8.34812C3.52286 8.24183 3.47962 8.08168 3.50974 7.88852L7.84356 0.965299Z" fill="#FFCD4B" stroke="#F9A000"/>
<defs>
<linearGradient id="paint0_linear_16_357" x1="8" y1="4" x2="8" y2="14" gradientUnits="userSpaceOnUse">
<stop stop-color="white"/>
<stop offset="1" stop-color="#F1F1F1"/>
</linearGradient>
<linearGradient id="paint1_linear_16_357" x1="8" y1="4" x2="8" y2="14" gradientUnits="userSpaceOnUse">
<stop stop-color="#ABB7C0"/>
<stop offset="1" stop-color="#8E97A1"/>
</linearGradient>
<linearGradient id="paint2_linear_16_357" x1="0" y1="2.5" x2="16" y2="2.5" gradientUnits="userSpaceOnUse">
<stop stop-color="#87D2FE"/>
<stop offset="0.55" stop-color="#6CBBF3"/>
<stop offset="1" stop-color="#25C6F7"/>
</linearGradient>
<linearGradient id="paint3_linear_16_357" x1="0" y1="2.5" x2="16" y2="2.5" gradientUnits="userSpaceOnUse">
<stop stop-color="#51A5E8"/>
<stop offset="1" stop-color="#4F9FDE"/>
</linearGradient>
</defs>
</svg>
