<svg width="16" height="16" viewBox="0 0 16 16" fill="none" xmlns="http://www.w3.org/2000/svg">
<path d="M8.5 3.5L6.5 1.5H3.5L1.5 3.25V13C1.5 13.3978 1.65804 13.7794 1.93934 14.0607C2.22064 14.342 2.60218 14.5 3 14.5H13C13.3978 14.5 13.7794 14.342 14.0607 14.0607C14.342 13.7794 14.5 13.3978 14.5 13V3.5H8.5Z" fill="#ABD9EF" stroke="#7E8B9A" stroke-opacity="0.7" stroke-linecap="round" stroke-linejoin="round"/>
<rect x="2" y="5" width="12" height="1" fill="#9CA9B8"/>
<path d="M2 6H14V13C14 13.5523 13.5523 14 13 14H3C2.44772 14 2 13.5523 2 13V6Z" fill="#FCFCFC"/>
<path d="M2 6.5C2 6.22386 2.22386 6 2.5 6H13.5C13.7761 6 14 6.22386 14 6.5V13C14 13.5523 13.5523 14 13 14H3C2.44772 14 2 13.5523 2 13V6.5Z" fill="url(#paint0_linear_16_682)"/>
<path d="M10 10L6 13L6 7L10 10Z" fill="#27558E"/>
<defs>
<linearGradient id="paint0_linear_16_682" x1="8" y1="6.72727" x2="8" y2="14" gradientUnits="userSpaceOnUse">
<stop stop-color="white"/>
<stop offset="1" stop-color="#F1F1F1"/>
</linearGradient>
</defs>
</svg>
