<svg width="64" height="64" viewBox="0 0 64 64" fill="none" xmlns="http://www.w3.org/2000/svg">
<path d="M11.0441 40.7016C11.9726 40.3064 13.0436 40.7355 13.4392 41.6619C18.0415 52.4286 30.0553 58.2591 41.3852 55.2233C54.0204 51.8377 61.5463 38.8038 58.1604 26.1677C54.7748 13.5325 41.7401 6.00684 29.1048 9.39244C23.5099 10.8916 18.7235 14.3326 15.525 19.1241L23.1723 23.5392C23.4751 23.714 23.6511 24.0466 23.6264 24.3952C23.6009 24.744 23.3789 25.0472 23.0537 25.1768L8.54288 30.9543C8.50969 30.9679 8.47579 30.9789 8.44141 30.9881C8.20873 31.0504 7.95942 31.019 7.74909 30.8968C7.50771 30.7575 7.34249 30.5146 7.30243 30.2381L5.05043 14.7826C5.00011 14.4362 5.1517 14.0924 5.44099 13.8958C5.73053 13.7002 6.1072 13.6852 6.40941 13.8612L12.3613 17.2975C16.0523 11.6647 21.6275 7.61741 28.1602 5.86699C42.7397 1.96042 57.7793 10.6436 61.6859 25.223C65.5924 39.8025 56.9093 54.8422 42.3298 58.7487C29.2566 62.2517 15.3941 55.5222 10.0835 43.0958C9.68681 42.1686 10.1176 41.0972 11.0441 40.7016Z" fill="#646464"/>
<path d="M34 21C34 19.8955 34.8954 19 36 19C37.1046 19 38 19.8955 38 21V35C38 36.1046 37.1046 37 36 37C34.8954 37 34 36.1046 34 35V21Z" fill="#646464"/>
<path d="M34 43C34 41.8955 34.8954 41 36 41C37.1046 41 38 41.8955 38 43C38 44.1046 37.1046 45 36 45C34.8954 45 34 44.1046 34 43Z" fill="#646464"/>
</svg>
