<svg width="16" height="16" viewBox="0 0 16 16" fill="none" xmlns="http://www.w3.org/2000/svg">
<path d="M2.27301 2.0196C2.22867 2.01095 2.18277 2.01562 2.14108 2.03301C2.09936 2.05051 2.06372 2.07993 2.03862 2.11759C2.01353 2.15526 2.0001 2.19949 2.00001 2.24476V6.92251C1.99976 6.95267 2.00552 6.98258 2.01694 7.01049C2.02837 7.03841 2.04523 7.06377 2.06654 7.0851C2.08786 7.10642 2.1132 7.1233 2.14109 7.13473C2.16899 7.14616 2.19888 7.15192 2.22902 7.15167H2.25467L6.50517 6.68051C6.54826 6.67605 6.58917 6.65935 6.6231 6.63239C6.65702 6.60543 6.68253 6.56933 6.69662 6.52834C6.7106 6.48759 6.71285 6.44373 6.70313 6.40175C6.69342 6.35978 6.67212 6.32138 6.64166 6.29092L5.08895 4.75001C5.75395 4.15793 6.61354 3.83161 7.50367 3.83334C8.12826 3.83334 8.74248 3.99311 9.28801 4.29746C9.83354 4.60182 10.2923 5.04066 10.6206 5.57233C10.949 6.10399 11.1361 6.71082 11.1642 7.3352C11.1923 7.95957 11.0604 8.58076 10.781 9.13979C10.5017 9.69881 10.0842 10.1771 9.56822 10.5293C9.05221 10.8814 8.4548 11.0957 7.83274 11.1519V11.1519C7.39333 11.1915 7 11.5255 7 11.9666V12.1602C7 12.6228 7.35389 13.0174 7.81582 12.9911C7.87631 12.9877 7.9368 12.9832 7.99727 12.9778C8.93037 12.8936 9.82648 12.5721 10.6005 12.0439C11.3745 11.5157 12.0007 10.7982 12.4197 9.95968C12.8387 9.12114 13.0366 8.18935 12.9944 7.25279C12.9523 6.31623 12.6717 5.40598 12.1791 4.60849C11.6866 3.81099 10.9985 3.15273 10.1802 2.69619C9.36189 2.23966 8.44055 2.00001 7.50367 2.00001C6.12326 1.99699 4.79335 2.51935 3.78357 3.46118L2.39025 2.0816C2.35813 2.04981 2.31734 2.02824 2.27301 2.0196Z" fill="#379F3C"/>
</svg>
