<svg width="16" height="16" viewBox="0 0 16 16" fill="none" xmlns="http://www.w3.org/2000/svg">
<path d="M3 9.00156H10.586L8.293 11.2946C8.19749 11.3868 8.12131 11.4971 8.0689 11.6192C8.01649 11.7412 7.9889 11.8724 7.98775 12.0052C7.9866 12.1379 8.0119 12.2696 8.06218 12.3925C8.11246 12.5154 8.18671 12.6271 8.2806 12.721C8.3745 12.8148 8.48615 12.8891 8.60905 12.9394C8.73194 12.9897 8.86362 13.015 8.9964 13.0138C9.12918 13.0127 9.2604 12.9851 9.3824 12.9327C9.50441 12.8802 9.61475 12.8041 9.707 12.7086L13.707 8.70856C13.8001 8.61566 13.874 8.50531 13.9244 8.38382C13.9748 8.26233 14.0008 8.13209 14.0008 8.00056C14.0008 7.86902 13.9748 7.73878 13.9244 7.61729C13.874 7.4958 13.8001 7.38545 13.707 7.29256L9.707 3.29256C9.51923 3.10505 9.26466 2.99981 8.99929 3C8.73393 3.00019 8.47951 3.10578 8.292 3.29356C8.10449 3.48133 7.99926 3.7359 7.99944 4.00126C7.99963 4.26663 8.10523 4.52105 8.293 4.70856L10.586 7.00156H3C2.73478 7.00156 2.48043 7.10691 2.29289 7.29445C2.10536 7.48199 2 7.73634 2 8.00156C2 8.26677 2.10536 8.52113 2.29289 8.70866C2.48043 8.8962 2.73478 9.00156 3 9.00156Z" fill="#0A3C5F"/>
<rect x="1" y="1" width="1" height="14" fill="#A0A0A0"/>
<path d="M11 1H12V4L11 3V1Z" fill="#A0A0A0"/>
<path d="M11 15H12V12L11 13V15Z" fill="#A0A0A0"/>
</svg>
