<svg width="16" height="16" viewBox="0 0 16 16" fill="none" xmlns="http://www.w3.org/2000/svg">
<path d="M2 2.5H6C6.27614 2.5 6.5 2.72386 6.5 3V7C6.5 7.27614 6.27614 7.5 6 7.5H2C1.72386 7.5 1.5 7.27614 1.5 7V3C1.5 2.72386 1.72386 2.5 2 2.5Z" fill="#81C3EE"/>
<path d="M2 2.5H6C6.27614 2.5 6.5 2.72386 6.5 3V7C6.5 7.27614 6.27614 7.5 6 7.5H2C1.72386 7.5 1.5 7.27614 1.5 7V3C1.5 2.72386 1.72386 2.5 2 2.5Z" fill="url(#paint0_linear_11_4)" fill-opacity="0.2"/>
<path d="M2 2.5H6C6.27614 2.5 6.5 2.72386 6.5 3V7C6.5 7.27614 6.27614 7.5 6 7.5H2C1.72386 7.5 1.5 7.27614 1.5 7V3C1.5 2.72386 1.72386 2.5 2 2.5Z" stroke="url(#paint1_linear_11_4)"/>
<rect opacity="0.2" x="2" y="3" width="4" height="1" fill="#F5F5F5"/>
<path d="M2 8.5H6C6.27614 8.5 6.5 8.72386 6.5 9V13C6.5 13.2761 6.27614 13.5 6 13.5H2C1.72386 13.5 1.5 13.2761 1.5 13V9C1.5 8.72386 1.72386 8.5 2 8.5Z" fill="#81C3EE"/>
<path d="M2 8.5H6C6.27614 8.5 6.5 8.72386 6.5 9V13C6.5 13.2761 6.27614 13.5 6 13.5H2C1.72386 13.5 1.5 13.2761 1.5 13V9C1.5 8.72386 1.72386 8.5 2 8.5Z" fill="url(#paint2_linear_11_4)" fill-opacity="0.2"/>
<path d="M2 8.5H6C6.27614 8.5 6.5 8.72386 6.5 9V13C6.5 13.2761 6.27614 13.5 6 13.5H2C1.72386 13.5 1.5 13.2761 1.5 13V9C1.5 8.72386 1.72386 8.5 2 8.5Z" stroke="url(#paint3_linear_11_4)"/>
<rect opacity="0.2" x="2" y="9" width="4" height="1" fill="#F5F5F5"/>
<path d="M8 8.5H12C12.2761 8.5 12.5 8.72386 12.5 9V13C12.5 13.2761 12.2761 13.5 12 13.5H8C7.72386 13.5 7.5 13.2761 7.5 13V9C7.5 8.72386 7.72386 8.5 8 8.5Z" fill="#81C3EE"/>
<path d="M8 8.5H12C12.2761 8.5 12.5 8.72386 12.5 9V13C12.5 13.2761 12.2761 13.5 12 13.5H8C7.72386 13.5 7.5 13.2761 7.5 13V9C7.5 8.72386 7.72386 8.5 8 8.5Z" fill="url(#paint4_linear_11_4)" fill-opacity="0.2"/>
<path d="M8 8.5H12C12.2761 8.5 12.5 8.72386 12.5 9V13C12.5 13.2761 12.2761 13.5 12 13.5H8C7.72386 13.5 7.5 13.2761 7.5 13V9C7.5 8.72386 7.72386 8.5 8 8.5Z" stroke="url(#paint5_linear_11_4)"/>
<rect opacity="0.2" x="8" y="9" width="4" height="1" fill="#F5F5F5"/>
<path d="M9 1.5H13C13.2761 1.5 13.5 1.72386 13.5 2V6C13.5 6.27614 13.2761 6.5 13 6.5H9C8.72386 6.5 8.5 6.27614 8.5 6V2C8.5 1.72386 8.72386 1.5 9 1.5Z" fill="#81C3EE"/>
<path d="M9 1.5H13C13.2761 1.5 13.5 1.72386 13.5 2V6C13.5 6.27614 13.2761 6.5 13 6.5H9C8.72386 6.5 8.5 6.27614 8.5 6V2C8.5 1.72386 8.72386 1.5 9 1.5Z" fill="url(#paint6_linear_11_4)" fill-opacity="0.2"/>
<path d="M9 1.5H13C13.2761 1.5 13.5 1.72386 13.5 2V6C13.5 6.27614 13.2761 6.5 13 6.5H9C8.72386 6.5 8.5 6.27614 8.5 6V2C8.5 1.72386 8.72386 1.5 9 1.5Z" stroke="url(#paint7_linear_11_4)"/>
<rect opacity="0.2" x="9" y="2" width="4" height="1" fill="#F5F5F5"/>
<defs>
<linearGradient id="paint0_linear_11_4" x1="4" y1="2" x2="4" y2="8" gradientUnits="userSpaceOnUse">
<stop stop-color="white"/>
<stop offset="1" stop-color="#81C3EE"/>
</linearGradient>
<linearGradient id="paint1_linear_11_4" x1="4" y1="2" x2="4" y2="8" gradientUnits="userSpaceOnUse">
<stop stop-color="#709FCD"/>
<stop offset="1" stop-color="#4F8AC2"/>
</linearGradient>
<linearGradient id="paint2_linear_11_4" x1="4" y1="8" x2="4" y2="14" gradientUnits="userSpaceOnUse">
<stop stop-color="white"/>
<stop offset="1" stop-color="#81C3EE"/>
</linearGradient>
<linearGradient id="paint3_linear_11_4" x1="4" y1="8" x2="4" y2="14" gradientUnits="userSpaceOnUse">
<stop stop-color="#709FCD"/>
<stop offset="1" stop-color="#4F8AC2"/>
</linearGradient>
<linearGradient id="paint4_linear_11_4" x1="10" y1="8" x2="10" y2="14" gradientUnits="userSpaceOnUse">
<stop stop-color="white"/>
<stop offset="1" stop-color="#81C3EE"/>
</linearGradient>
<linearGradient id="paint5_linear_11_4" x1="10" y1="8" x2="10" y2="14" gradientUnits="userSpaceOnUse">
<stop stop-color="#709FCD"/>
<stop offset="1" stop-color="#4F8AC2"/>
</linearGradient>
<linearGradient id="paint6_linear_11_4" x1="11" y1="1" x2="11" y2="7" gradientUnits="userSpaceOnUse">
<stop stop-color="white"/>
<stop offset="1" stop-color="#81C3EE"/>
</linearGradient>
<linearGradient id="paint7_linear_11_4" x1="11" y1="1" x2="11" y2="7" gradientUnits="userSpaceOnUse">
<stop stop-color="#709FCD"/>
<stop offset="1" stop-color="#4F8AC2"/>
</linearGradient>
</defs>
</svg>
