<svg width="16" height="16" viewBox="0 0 16 16" fill="none" xmlns="http://www.w3.org/2000/svg">
<rect x="6" y="3" width="2" height="2" fill="#47629E"/>
<path d="M11 6L12.5 4.5" stroke="#E7A727" stroke-width="2" stroke-linecap="round" stroke-linejoin="round"/>
<path d="M7 15.5C10.0376 15.5 12.5 13.0376 12.5 10C12.5 6.96243 10.0376 4.5 7 4.5C3.96243 4.5 1.5 6.96243 1.5 10C1.5 13.0376 3.96243 15.5 7 15.5Z" fill="#6E85CC" stroke="#47629E" stroke-linecap="round" stroke-linejoin="round"/>
<path d="M7 14.5C9.48528 14.5 11.5 12.4853 11.5 10C11.5 7.51472 9.48528 5.5 7 5.5C4.51472 5.5 2.5 7.51472 2.5 10C2.5 12.4853 4.51472 14.5 7 14.5Z" fill="white" stroke="#6E85CC" stroke-linecap="round" stroke-linejoin="round"/>
<path fill-rule="evenodd" clip-rule="evenodd" d="M6.5 7C6.77614 7 7 7.22386 7 7.5V10.5C7 10.7761 6.77614 11 6.5 11C6.22386 11 6 10.7761 6 10.5V7.5C6 7.22386 6.22386 7 6.5 7Z" fill="#999999"/>
<path fill-rule="evenodd" clip-rule="evenodd" d="M9 10.5C9 10.7761 8.77614 11 8.5 11L6.5 11C6.22386 11 6 10.7761 6 10.5C6 10.2239 6.22386 10 6.5 10L8.5 10C8.77614 10 9 10.2239 9 10.5Z" fill="#999999"/>
<path d="M12 3L14 5" stroke="#E69700" stroke-width="2" stroke-linecap="round" stroke-linejoin="round"/>
<path fill-rule="evenodd" clip-rule="evenodd" d="M6.5 0C5.67157 0 5 0.671573 5 1.5V2.5C5 2.77614 5.22386 3 5.5 3H8.5C8.77614 3 9 2.77614 9 2.5V1.5C9 0.671573 8.32843 0 7.5 0H6.5ZM7 1C6.44772 1 6 1.44772 6 2H8C8 1.44772 7.55228 1 7 1Z" fill="#47629E"/>
</svg>
