<svg width="16" height="16" viewBox="0 0 16 16" fill="none" xmlns="http://www.w3.org/2000/svg">
<rect x="6" y="11" width="1" height="4" fill="#7F7F7F"/>
<rect x="1" y="15" width="0.999999" height="13" transform="rotate(-90 1 15)" fill="url(#paint0_linear_15_179)"/>
<path d="M11 7.5C11 9.98528 8.98528 12 6.5 12C4.01472 12 2 9.98528 2 7.5C2 5.01472 4.01472 3 6.5 3C8.98528 3 11 5.01472 11 7.5Z" fill="url(#paint1_linear_15_179)"/>
<path d="M6.5 3C4.025 3 2 5.025 2 7.5C2 9.975 4.025 12 6.5 12C8.975 12 11 9.975 11 7.5C11 5.025 8.975 3 6.5 3ZM6.5 11C5.65625 11 4.61875 11.0062 4 10.5C4.3375 10.05 4.7 9.075 4.3625 8.625C4.08125 8.23125 3.63125 7.8375 3.63125 7.5C3.63125 7.05 4.7 6.88125 5.0375 6.43125C5.43125 5.98125 4.75625 4.95 4.3625 4.5C4.8125 4.21875 5.88125 4.05625 6.5 4C6.6125 4.28125 6.725 4.74375 6.89375 4.96875C7.175 5.41875 7.23125 5.7 7.625 5.7C7.7375 5.7 8.9375 5.66875 9.5 5.5C9.8375 6.0625 10 6.76875 10 7.5C10 9.35625 9 11 6.5 11Z" fill="#54D074"/>
<path d="M7.73752 6.76868C7.06252 6.76868 6.44377 7.21868 6.50002 7.83743C6.66877 9.24368 6.21877 9.74993 6.83752 10.0312C7.56877 10.3124 9.03127 8.96243 8.97502 7.83743C8.97502 7.21868 8.46877 6.76868 7.73752 6.76868Z" fill="#77D185"/>
<path fill-rule="evenodd" clip-rule="evenodd" d="M6.5 11C8.433 11 10 9.433 10 7.5C10 5.567 8.433 4 6.5 4C4.567 4 3 5.567 3 7.5C3 9.433 4.567 11 6.5 11ZM6.5 12C8.98528 12 11 9.98528 11 7.5C11 5.01472 8.98528 3 6.5 3C4.01472 3 2 5.01472 2 7.5C2 9.98528 4.01472 12 6.5 12Z" fill="#3494D5"/>
<circle cx="12.5" cy="3.5" r="3.5" fill="#518457"/>
<circle cx="12.5" cy="3.5" r="2.5" fill="#69F07F"/>
<circle cx="6.5" cy="14.5" r="1.5" fill="#518457"/>
<circle cx="6.50002" cy="14.5" r="1.07143" fill="#69F07F"/>
<defs>
<linearGradient id="paint0_linear_15_179" x1="1" y1="15" x2="0.999999" y2="28" gradientUnits="userSpaceOnUse">
<stop stop-color="#333333" stop-opacity="0.1"/>
<stop offset="0.425" stop-color="#333333"/>
<stop offset="1" stop-color="#333333" stop-opacity="0.1"/>
</linearGradient>
<linearGradient id="paint1_linear_15_179" x1="6.5" y1="3" x2="6.5" y2="12" gradientUnits="userSpaceOnUse">
<stop stop-color="#2F9FFF"/>
<stop offset="1" stop-color="#1679CE"/>
</linearGradient>
</defs>
</svg>
