<svg width="16" height="16" viewBox="0 0 16 16" fill="none" xmlns="http://www.w3.org/2000/svg">
<path opacity="0.5" fill-rule="evenodd" clip-rule="evenodd" d="M1.99998 13L13 2L13.7071 2.70711L2.70709 13.7071L1.99998 13Z" fill="#727272"/>
<path d="M7.7802 2.40908L6.5907 1.21959C6.4501 1.07899 6.2593 1 6.0605 1C5.8616 1 5.6709 1.07899 5.5302 1.21959L4.5155 2.23433L6.7655 4.4843L7.7802 3.46958C7.9208 3.32893 7.9998 3.1382 7.9998 2.93933C7.9998 2.74046 7.9208 2.54973 7.7802 2.40908Z" fill="#727272"/>
<path d="M3.9845 2.76534L0.75 5.9998L0 8.9998L3 8.2498L6.2345 5.0153L3.9845 2.76534Z" fill="#727272"/>
<rect x="11" y="9" width="3" height="1" fill="#727272"/>
<rect x="11" y="14" width="3" height="1" fill="#727272"/>
<rect x="12" y="10" width="1" height="4" fill="#727272"/>
</svg>
