<svg width="16" height="16" viewBox="0 0 16 16" fill="none" xmlns="http://www.w3.org/2000/svg">
<path d="M3 2H10V14H3V2Z" fill="white"/>
<path d="M10 5H13V14H10V5Z" fill="white"/>
<g opacity="0.8">
<path d="M10 1H2V2H10V5H13V15C13.5523 15 14 14.5523 14 14V5L10 1Z" fill="#4F668D"/>
<path d="M2 2H3V15H2V2Z" fill="#4F668D"/>
<path d="M13 14V15H3V14H13Z" fill="#4F668D"/>
</g>
<rect opacity="0.8" x="13" y="6" width="1" height="8" fill="white"/>
<path d="M15.82 9.61606L12.82 7.11606C12.747 7.05525 12.6582 7.01651 12.564 7.00435C12.4697 6.9922 12.374 7.00714 12.288 7.04744C12.2019 7.08773 12.1291 7.1517 12.0781 7.23186C12.0271 7.31202 12 7.40505 12 7.50006V9.00006H9.5C9.36739 9.00006 9.24021 9.05273 9.14645 9.1465C9.05268 9.24027 9 9.36745 9 9.50006V10.5001C9 10.6327 9.05268 10.7598 9.14645 10.8536C9.24021 10.9474 9.36739 11.0001 9.5 11.0001H12V12.5001C12 12.5951 12.027 12.6882 12.0781 12.7685C12.1291 12.8487 12.2019 12.9127 12.288 12.9531C12.3544 12.9839 12.4268 12.9999 12.5 13.0001C12.617 13.0005 12.7304 12.9594 12.82 12.8841L15.82 10.3841C15.8763 10.3371 15.9215 10.2784 15.9526 10.2121C15.9837 10.1457 15.9998 10.0733 15.9998 10.0001C15.9998 9.92679 15.9837 9.85441 15.9526 9.78806C15.9215 9.7217 15.8763 9.66298 15.82 9.61606Z" fill="#009646"/>
</svg>
