<svg width="16" height="16" viewBox="0 0 16 16" fill="none" xmlns="http://www.w3.org/2000/svg">
<rect x="1" y="1" width="13" height="15" rx="1" fill="#9F5E31"/>
<rect x="2" y="3" width="11" height="12" fill="#FBFEFE"/>
<path d="M6 1C6 0.447715 6.44772 0 7 0H8C8.55228 0 9 0.447715 9 1V1H6V1Z" fill="#A7A5A2"/>
<path d="M6 2C6 1.44772 6.44772 1 7 1H8C8.55228 1 9 1.44772 9 2V3H6V2Z" fill="#D9D9D9"/>
<path d="M4 3C4 2.44772 4.44772 2 5 2H10C10.5523 2 11 2.44772 11 3V3H4V3Z" fill="#D9D9D9"/>
<path d="M7 1C7 0.723858 7.22386 0.5 7.5 0.5V0.5C7.77614 0.5 8 0.723858 8 1V1H7V1Z" fill="#D9D9D9"/>
<rect x="3" y="5" width="2" height="1" fill="#6EA2C4"/>
<rect x="3" y="7" width="2" height="1" fill="#6EA2C4"/>
<rect x="3" y="9" width="2" height="1" fill="#6EA2C4"/>
<rect x="3" y="11" width="2" height="1" fill="#6EA2C4"/>
<rect x="7" y="11" width="2" height="1" fill="#928F8B"/>
<rect x="6" y="5" width="2" height="1" fill="#928F8B"/>
<rect x="10" y="11" width="2" height="1" fill="#FA5C4A"/>
<rect x="10" y="7" width="2" height="1" fill="#FA5C4A"/>
<rect x="3" y="13" width="2" height="1" fill="#6EA2C4"/>
<rect x="7" y="13" width="2" height="1" fill="#928F8B"/>
<rect x="10" y="13" width="2" height="1" fill="#FA5C4A"/>
<rect x="10" y="9" width="2" height="1" fill="#FA5C4A"/>
<circle opacity="0.6" cx="7.5" cy="8.5" r="1" stroke="#928F8B"/>
<rect opacity="0.8" x="4" y="3" width="7" height="1" fill="#928F8B"/>
</svg>
