<svg width="16" height="16" viewBox="0 0 16 16" fill="none" xmlns="http://www.w3.org/2000/svg">
<path d="M0 8.59524C0 6.71484 1.45507 5.19048 3.25 5.19048H12.75C14.5449 5.19048 16 6.71484 16 8.59524C16 10.4756 14.5449 12 12.75 12H3.25C1.45507 12 0 10.4756 0 8.59524Z" fill="#6FB4EA"/>
<path d="M7.75 5.45238C7.75 7.18813 6.40685 8.59524 4.75 8.59524C3.09315 8.59524 1.75 7.18813 1.75 5.45238C1.75 3.71663 3.09315 2.30952 4.75 2.30952C6.40685 2.30952 7.75 3.71663 7.75 5.45238Z" fill="#6FB4EA"/>
<path d="M14 5.05952C14 7.30154 12.2651 9.11905 10.125 9.11905C7.9849 9.11905 6.25 7.30154 6.25 5.05952C6.25 2.81751 7.9849 1 10.125 1C12.2651 1 14 2.81751 14 5.05952Z" fill="#6FB4EA"/>
<path d="M3 8H2V14H3V8Z" fill="#333333"/>
<path d="M7 9H6V13H7V9Z" fill="#333333"/>
<path d="M10 9H9V13H10V9Z" fill="#333333"/>
<path d="M5 10H3V11H5V10Z" fill="#333333"/>
<path d="M5 11H4V14H5V11Z" fill="#333333"/>
<path d="M13 10H12V16H13V10Z" fill="#333333"/>
<path d="M15 10H13V11H15V10Z" fill="#333333"/>
<path d="M15 13H13V14H15V13Z" fill="#333333"/>
<path d="M15 11H14V13H15V11Z" fill="#333333"/>
<path d="M8 10H6V11H8V10Z" fill="#333333"/>
<path d="M11 10H8V11H11V10Z" fill="#333333"/>
<path d="M8 13H6V14H8V13Z" fill="#333333"/>
<path d="M11 13H9V14H11V13Z" fill="#333333"/>
</svg>
