<svg width="16" height="16" viewBox="0 0 16 16" fill="none" xmlns="http://www.w3.org/2000/svg">
<path d="M1 3.5C1 3.22386 1.22386 3 1.5 3H14.5C14.7761 3 15 3.22386 15 3.5V13.5C15 13.7761 14.7761 14 14.5 14H1.5C1.22386 14 1 13.7761 1 13.5V3.5Z" fill="url(#paint0_linear_21_2)"/>
<path d="M11 9.5C11 9.22386 11.2239 9 11.5 9H12.5C12.7761 9 13 9.22386 13 9.5V9.5C13 9.77614 12.7761 10 12.5 10H11.5C11.2239 10 11 9.77614 11 9.5V9.5Z" fill="#E71B01"/>
<path d="M11 7.5C11 7.22386 11.2239 7 11.5 7H12.5C12.7761 7 13 7.22386 13 7.5V7.5C13 7.77614 12.7761 8 12.5 8H11.5C11.2239 8 11 7.77614 11 7.5V7.5Z" fill="#E71B01"/>
<path d="M5 7.5C5 7.77614 4.77614 8 4.5 8L3.5 8C3.22386 8 3 7.77614 3 7.5V7.5C3 7.22386 3.22386 7 3.5 7L4.5 7C4.77614 7 5 7.22386 5 7.5V7.5Z" fill="#E71B01"/>
<path opacity="0.7" d="M11 11.5C11 11.7761 11.2239 12 11.5 12L12.5 12C12.7761 12 13 11.7761 13 11.5V11.5C13 11.2239 12.7761 11 12.5 11L11.5 11C11.2239 11 11 11.2239 11 11.5V11.5Z" fill="#818587"/>
<path d="M15.9146 3H14.5C14.7761 3 15 3.22386 15 3.5V13.5C15 13.7761 14.7761 14 14.5 14H1.5C1.22386 14 1 13.7761 1 13.5V3.5C1 3.22386 1.22386 3 1.5 3H0.0853529C0.0300771 3.15639 0 3.32468 0 3.5V13.5C0 14.3284 0.671572 15 1.5 15H14.5C15.3284 15 16 14.3284 16 13.5V3.5C16 3.32468 15.9699 3.15639 15.9146 3Z" fill="url(#paint1_linear_21_2)" fill-opacity="0.8"/>
<path d="M14.941 1.264C14.8983 1.1842 14.8347 1.11749 14.757 1.071C14.6793 1.0245 14.5905 0.999964 14.5 1H1.49999C1.40954 1.00005 1.32081 1.02462 1.24323 1.07111C1.16565 1.1176 1.10213 1.18427 1.05945 1.264C1.01676 1.34373 0.996494 1.43355 1.00082 1.52389C1.00514 1.61423 1.03388 1.70171 1.08399 1.777L5.99999 6.651V12.5C5.99999 12.6326 6.05266 12.7598 6.14643 12.8536C6.2402 12.9473 6.36738 13 6.49999 13H9.49999C9.63259 13 9.75977 12.9473 9.85354 12.8536C9.94731 12.7598 9.99999 12.6326 9.99999 12.5V6.651L14.916 1.777C14.9662 1.70175 14.995 1.61429 14.9994 1.52396C15.0038 1.43362 14.9836 1.34377 14.941 1.264Z" fill="url(#paint2_linear_21_2)"/>
<path d="M1.51476 1.5H14.4852L9.64795 6.29593L9.49999 6.44264V6.651V12.5H6.49999V6.651V6.44264L6.35202 6.29593L1.51476 1.5Z" stroke="#A39988" stroke-opacity="0.7"/>
<path opacity="0.7" d="M7 6.5L2.5 2H6L8 6.5V12H7V6.5Z" fill="white"/>
<defs>
<linearGradient id="paint0_linear_21_2" x1="8" y1="4" x2="8" y2="14" gradientUnits="userSpaceOnUse">
<stop stop-color="white"/>
<stop offset="1" stop-color="#F1F1F1"/>
</linearGradient>
<linearGradient id="paint1_linear_21_2" x1="8" y1="4" x2="8" y2="14" gradientUnits="userSpaceOnUse">
<stop stop-color="#ABB7C0"/>
<stop offset="1" stop-color="#8E97A1"/>
</linearGradient>
<linearGradient id="paint2_linear_21_2" x1="6.5" y1="5" x2="15" y2="5" gradientUnits="userSpaceOnUse">
<stop stop-color="#F6EAD4"/>
<stop offset="1" stop-color="#CFC2AB"/>
</linearGradient>
</defs>
</svg>
