<svg width="16" height="16" viewBox="0 0 16 16" fill="none" xmlns="http://www.w3.org/2000/svg">
<path d="M12.2857 6H3.71429C3.3198 6 3 6.29848 3 6.66667V9.33333C3 9.70152 3.3198 10 3.71429 10H12.2857C12.6802 10 13 9.70152 13 9.33333V6.66667C13 6.29848 12.6802 6 12.2857 6Z" fill="#4E8A23"/>
<path d="M11.3333 7H4.66667C4.29848 7 4 7.22386 4 7.5V8.5C4 8.77614 4.29848 9 4.66667 9H11.3333C11.7015 9 12 8.77614 12 8.5V7.5C12 7.22386 11.7015 7 11.3333 7Z" fill="#82C653"/>
<path d="M11.3333 7H4.66667C4.29848 7 4 7.22386 4 7.5V8.5C4 8.77614 4.29848 9 4.66667 9H11.3333C11.7015 9 12 8.77614 12 8.5V7.5C12 7.22386 11.7015 7 11.3333 7Z" fill="url(#paint0_linear_16_333)" fill-opacity="0.4"/>
<path d="M12.2857 11H3.71429C3.3198 11 3 11.2985 3 11.6667V14.3333C3 14.7015 3.3198 15 3.71429 15H12.2857C12.6802 15 13 14.7015 13 14.3333V11.6667C13 11.2985 12.6802 11 12.2857 11Z" fill="#4E8A23"/>
<path d="M11.3333 12H4.66667C4.29848 12 4 12.2239 4 12.5V13.5C4 13.7761 4.29848 14 4.66667 14H11.3333C11.7015 14 12 13.7761 12 13.5V12.5C12 12.2239 11.7015 12 11.3333 12Z" fill="#82C653"/>
<path d="M11.3333 12H4.66667C4.29848 12 4 12.2239 4 12.5V13.5C4 13.7761 4.29848 14 4.66667 14H11.3333C11.7015 14 12 13.7761 12 13.5V12.5C12 12.2239 11.7015 12 11.3333 12Z" fill="url(#paint1_linear_16_333)" fill-opacity="0.4"/>
<path d="M12.2857 1H3.71429C3.3198 1 3 1.29848 3 1.66667V4.33333C3 4.70152 3.3198 5 3.71429 5H12.2857C12.6802 5 13 4.70152 13 4.33333V1.66667C13 1.29848 12.6802 1 12.2857 1Z" fill="#4E8A23"/>
<path d="M11.3333 2H4.66667C4.29848 2 4 2.22386 4 2.5V3.5C4 3.77614 4.29848 4 4.66667 4H11.3333C11.7015 4 12 3.77614 12 3.5V2.5C12 2.22386 11.7015 2 11.3333 2Z" fill="#82C653"/>
<path d="M11.3333 2H4.66667C4.29848 2 4 2.22386 4 2.5V3.5C4 3.77614 4.29848 4 4.66667 4H11.3333C11.7015 4 12 3.77614 12 3.5V2.5C12 2.22386 11.7015 2 11.3333 2Z" fill="url(#paint2_linear_16_333)" fill-opacity="0.4"/>
<defs>
<linearGradient id="paint0_linear_16_333" x1="8" y1="7" x2="8" y2="9" gradientUnits="userSpaceOnUse">
<stop stop-color="white"/>
<stop offset="1" stop-color="#489D1A"/>
</linearGradient>
<linearGradient id="paint1_linear_16_333" x1="8" y1="12" x2="8" y2="14" gradientUnits="userSpaceOnUse">
<stop stop-color="white"/>
<stop offset="1" stop-color="#489D1A"/>
</linearGradient>
<linearGradient id="paint2_linear_16_333" x1="8" y1="2" x2="8" y2="4" gradientUnits="userSpaceOnUse">
<stop stop-color="white"/>
<stop offset="1" stop-color="#489D1A"/>
</linearGradient>
</defs>
</svg>
