<svg width="16" height="16" xmlns="http://www.w3.org/2000/svg" fill="none">

 <g>
  <title>Layer 1</title>
  <path id="svg_1" fill="#00bf00" d="m12.2312,5.38806c-0.7538,-1.49254 -2.26135,-2.38806 -3.99502,-2.38806c-1.80904,0 -3.54271,1.04478 -4.29648,2.61194c0.07538,0 0.07538,0 0.15075,0c0.67839,0 1.35679,0.14925 1.9598,0.44776c0.52764,-0.67164 1.35679,-1.04477 2.26131,-1.04477c1.05527,0 1.95984,0.67164 2.33664,1.71641l0.1508,0.67165l1.3568,0c1.0553,0 1.8844,0.82089 1.8844,1.86567c0,0.97014 -0.8291,1.71644 -1.8844,1.71644l-8.06535,0c-0.60301,0 -1.05527,-0.4478 -1.05527,-0.9702c0,-0.52236 0.37688,-1.04475 1.05527,-1.04475c0.60302,0 1.05528,0.44776 1.05528,1.11945l2.03517,0c0,-1.71647 -1.35678,-3.13438 -3.01507,-3.13438c-1.80905,0 -3.16583,1.34329 -3.16583,3.05968c0,1.6418 1.35678,2.9851 3.09045,2.9851l8.06535,0c2.1105,0 3.8442,-1.6418 3.8442,-3.73134c0,-2.16418 -1.6583,-3.8806 -3.7688,-3.8806z"/>
 </g>
</svg>