<svg width="16" height="16" viewBox="0 0 16 16" fill="none" xmlns="http://www.w3.org/2000/svg">
<path d="M1 3.5C1 3.22386 1.22386 3 1.5 3H13.5C13.7761 3 14 3.22386 14 3.5V13.5C14 13.7761 13.7761 14 13.5 14H1.5C1.22386 14 1 13.7761 1 13.5V3.5Z" fill="url(#paint0_linear_16_353)"/>
<path d="M13.5 2.5H1.5C0.947715 2.5 0.5 2.94772 0.5 3.5V13.5C0.5 14.0523 0.947716 14.5 1.5 14.5H13.5C14.0523 14.5 14.5 14.0523 14.5 13.5V3.5C14.5 2.94771 14.0523 2.5 13.5 2.5Z" stroke="url(#paint1_linear_16_353)" stroke-opacity="0.8"/>
<path d="M4 6H5V7H4V6Z" fill="#A8A8A8"/>
<path d="M4 8H5V9H4V8Z" fill="#A8A8A8"/>
<path d="M4 10H5V11H4V10Z" fill="#A8A8A8"/>
<path d="M3 12H4V13H3V12Z" fill="#295F85"/>
<path d="M5 12H6V13H5V12Z" fill="#295F85"/>
<path d="M7 12H8V13H7V12Z" fill="#295F85"/>
<path d="M9 12H10V13H9V12Z" fill="#295F85"/>
<path d="M11 12H12V13H11V12Z" fill="#295F85"/>
<path d="M6 6H7V7H6V6Z" fill="#A8A8A8"/>
<path d="M6 8H7V9H6V8Z" fill="#A8A8A8"/>
<path d="M6 10H7V11H6V10Z" fill="#A8A8A8"/>
<path d="M8 6H9V7H8V6Z" fill="#A8A8A8"/>
<path d="M8 8H9V9H8V8Z" fill="#A8A8A8"/>
<path d="M8 10H9V11H8V10Z" fill="#A8A8A8"/>
<path d="M10 6H11V7H10V6Z" fill="#A8A8A8"/>
<path d="M10 8H11V9H10V8Z" fill="#A8A8A8"/>
<path d="M10 10H11V11H10V10Z" fill="#A8A8A8"/>
<path d="M2 1.5H13C13.8284 1.5 14.5 2.17157 14.5 3V3.5H0.5V3C0.5 2.17157 1.17157 1.5 2 1.5Z" fill="url(#paint2_linear_16_353)" stroke="url(#paint3_linear_16_353)"/>
<defs>
<linearGradient id="paint0_linear_16_353" x1="7.5" y1="4" x2="7.5" y2="14" gradientUnits="userSpaceOnUse">
<stop stop-color="white"/>
<stop offset="1" stop-color="#F1F1F1"/>
</linearGradient>
<linearGradient id="paint1_linear_16_353" x1="7.5" y1="4" x2="7.5" y2="14" gradientUnits="userSpaceOnUse">
<stop stop-color="#ABB7C0"/>
<stop offset="1" stop-color="#8E97A1"/>
</linearGradient>
<linearGradient id="paint2_linear_16_353" x1="0" y1="2.5" x2="15" y2="2.5" gradientUnits="userSpaceOnUse">
<stop stop-color="#87D2FE"/>
<stop offset="0.55" stop-color="#6CBBF3"/>
<stop offset="1" stop-color="#25C6F7"/>
</linearGradient>
<linearGradient id="paint3_linear_16_353" x1="0" y1="2.5" x2="15" y2="2.5" gradientUnits="userSpaceOnUse">
<stop stop-color="#51A5E8"/>
<stop offset="1" stop-color="#4F9FDE"/>
</linearGradient>
</defs>
</svg>
