<svg width="16" height="16" viewBox="0 0 16 16" fill="none" xmlns="http://www.w3.org/2000/svg">
<g clip-path="url(#clip0_16_313)">
<path d="M0 10.1665V14.3684C0 15.2698 1.343 15.9999 3 15.9999C4.657 15.9999 6 15.2698 6 14.3684V10.1665C5.05627 10.845 4.03062 11.166 3 11.1054C1.96938 11.166 0.943732 10.845 0 10.1665Z" fill="#5D9CCA"/>
<path d="M3 11.8C4.65685 11.8 6 11.1732 6 10.4C6 9.6268 4.65685 9 3 9C1.34315 9 0 9.6268 0 10.4C0 11.1732 1.34315 11.8 3 11.8Z" fill="#75BEFF"/>
<path d="M10 10.1665V14.3684C10 15.2698 11.343 15.9999 13 15.9999C14.657 15.9999 16 15.2698 16 14.3684V10.1665C15.0563 10.845 14.0306 11.166 13 11.1054C11.9694 11.166 10.9437 10.845 10 10.1665Z" fill="#5D9CCA"/>
<path d="M13 11.8C14.6568 11.8 16 11.1732 16 10.4C16 9.6268 14.6568 9 13 9C11.3431 9 10 9.6268 10 10.4C10 11.1732 11.3431 11.8 13 11.8Z" fill="#75BEFF"/>
<path d="M5 1.16675V5.36861C5 6.26999 6.343 7.00008 8 7.00008C9.65699 7.00008 11 6.26999 11 5.36861V1.16675C10.0563 1.84519 9.03062 2.16619 8 2.10566C6.96937 2.16619 5.94373 1.84519 5 1.16675Z" fill="#5D9CCA"/>
<path d="M8 2.8C9.65685 2.8 11 2.1732 11 1.4C11 0.626801 9.65685 0 8 0C6.34314 0 5 0.626801 5 1.4C5 2.1732 6.34314 2.8 8 2.8Z" fill="#75BEFF"/>
<path opacity="0.6" fill-rule="evenodd" clip-rule="evenodd" d="M6.94692 6.89669C6.98148 6.77033 6.99993 6.63732 6.99993 6.5V3.5C6.99993 2.67157 6.32836 2 5.49993 2H4.99993V3H5.49993C5.77608 3 5.99993 3.22386 5.99993 3.5V6.5C5.99993 6.52774 5.99768 6.55496 5.99333 6.58147C6.26959 6.71671 6.59232 6.82443 6.94692 6.89669ZM5.87896 14.8288L4.61085 13.5607C4.02506 12.9749 4.02506 12.0251 4.61085 11.4393L5.93695 10.1132C5.94832 10.1387 5.9582 10.1645 5.96656 10.1905L5.99993 10.1666V10.4V11.4645L5.31796 12.1464C5.12269 12.3417 5.12269 12.6583 5.31796 12.8536L5.99993 13.5355V14.3685C5.99993 14.5283 5.9577 14.6828 5.87896 14.8288ZM10.9999 2.87867L10.5606 2.43934C9.97481 1.85355 9.02506 1.85355 8.43927 2.43934C7.85349 3.02513 7.85349 3.97487 8.43927 4.56066L10.3647 6.37272C10.6583 6.16849 10.8644 5.92521 10.9523 5.65954L9.14638 3.85355C8.95112 3.65829 8.95112 3.34171 9.14638 3.14645C9.34164 2.95118 9.65823 2.95118 9.85349 3.14645L10.9999 4.29289V2.87867ZM9.99993 14H11.3283C12.1568 14 12.8283 13.3284 12.8283 12.5C12.8283 11.6716 12.1568 11 11.3283 11H9.99993V12H11.3283C11.6045 12 11.8283 12.2239 11.8283 12.5C11.8283 12.7761 11.6045 13 11.3283 13H9.99993V14Z" fill="white"/>
<path fill-rule="evenodd" clip-rule="evenodd" d="M9.14645 3.14645C9.34171 2.95118 9.65829 2.95118 9.85355 3.14645L13 6.29289V4.5C13 4.22386 13.2239 4 13.5 4C13.7761 4 14 4.22386 14 4.5V7.5C14 7.77614 13.7761 8 13.5 8H10.5C10.2239 8 10 7.77614 10 7.5C10 7.22386 10.2239 7 10.5 7H12.2929L9.14645 3.85355C8.95118 3.65829 8.95118 3.34171 9.14645 3.14645Z" fill="#489D1A"/>
<path fill-rule="evenodd" clip-rule="evenodd" d="M11.8285 12.5C11.8285 12.7761 11.6047 13 11.3285 13H6.87874L8.14651 14.2678C8.34177 14.463 8.34177 14.7796 8.14651 14.9749C7.95125 15.1701 7.63467 15.1701 7.4394 14.9749L5.31808 12.8536C5.12282 12.6583 5.12282 12.3417 5.31808 12.1464L7.4394 10.0251C7.63467 9.82985 7.95125 9.82985 8.14651 10.0251C8.34177 10.2204 8.34177 10.537 8.14651 10.7322L6.87874 12H11.3285C11.6047 12 11.8285 12.2239 11.8285 12.5Z" fill="#489D1A"/>
<path fill-rule="evenodd" clip-rule="evenodd" d="M1.14645 7.85355C1.34171 8.04882 1.65829 8.04882 1.85355 7.85355L5 4.70711V6.5C5 6.77614 5.22386 7 5.5 7C5.77614 7 6 6.77614 6 6.5V3.5C6 3.22386 5.77614 3 5.5 3H2.5C2.22386 3 2 3.22386 2 3.5C2 3.77614 2.22386 4 2.5 4H4.29289L1.14645 7.14645C0.951183 7.34171 0.951183 7.65829 1.14645 7.85355Z" fill="#489D1A"/>
</g>
<defs>
<clipPath id="clip0_16_313">
<rect width="16" height="16" fill="white"/>
</clipPath>
</defs>
</svg>
