<svg width="16" height="16" viewBox="0 0 16 16" fill="none" xmlns="http://www.w3.org/2000/svg">
<path d="M13.1429 5H2.85714C2.38376 5 2 5.44772 2 6V10C2 10.5523 2.38376 11 2.85714 11H13.1429C13.6162 11 14 10.5523 14 10V6C14 5.44772 13.6162 5 13.1429 5Z" fill="#4E81B8"/>
<path d="M11.75 6H4.25C3.55964 6 3 6.44772 3 7V9C3 9.55228 3.55964 10 4.25 10H11.75C12.4404 10 13 9.55228 13 9V7C13 6.44772 12.4404 6 11.75 6Z" fill="#6CB9EB"/>
<path d="M5.5 6H3.83333C3.3731 6 3 6.44772 3 7V9C3 9.55228 3.3731 10 3.83333 10H5.5C5.96024 10 7 8.55228 7 8C7 7.44772 5.96024 6 5.5 6Z" fill="#E52BAA"/>
</svg>
