<svg width="12" height="12" viewBox="0 0 12 12" fill="none" xmlns="http://www.w3.org/2000/svg">
<g clip-path="url(#clip0_3_8)">
<path d="M8.81383 1.64625L8.46028 1.2927L8.10672 1.64625L7.21371 2.53927L6.86015 2.89282L7.21371 3.24638L8.75339 4.78606L9.10694 5.13961L9.4605 4.78606L10.3535 3.89304L10.7071 3.53949L10.3535 3.18594L8.81383 1.64625Z" fill="#4D5965" stroke="#4D5965"/>
<path d="M7.40854 3.05228L7.05499 2.69872L6.70143 3.05228L2.64693 7.10677L2.29338 7.46033L2.64693 7.81388L4.18662 9.35356L4.54017 9.70712L4.89372 9.35356L8.94822 5.29907L9.30178 4.94551L8.94822 4.59196L7.40854 3.05228Z" fill="#57C063" stroke="#009646"/>
<path d="M4.3125 9.9375L1.5 10.5L2.0625 7.6875L3.75 6V8.25H6L4.3125 9.9375Z" fill="#F2B855" stroke="#816E4E" stroke-linecap="round" stroke-linejoin="round"/>
<path d="M2.25 9.75L0.75 11.25" stroke="#444444" stroke-linecap="round" stroke-linejoin="round"/>
</g>
<defs>
<clipPath id="clip0_3_8">
<rect width="12" height="12" fill="white"/>
</clipPath>
</defs>
</svg>
