<svg width="16" height="16" viewBox="0 0 16 16" fill="none" xmlns="http://www.w3.org/2000/svg">
<g clip-path="url(#clip0_21_41)">
<path d="M13.6 2.3C12.1 0.8 10.2 0 8 0C3.7 0 0.1 3.6 0.1 7.9C0.1 9.3 0.5 10.7 1.2 11.9L0 16L4.2 14.9C5.4 15.5 6.7 15.9 8 15.9C12.4 15.9 15.9 12.3 15.9 8C16 5.8 15.1 3.8 13.6 2.3ZM11.9 10.8C11.7 11.3 10.9 11.7 10.6 11.7C10.3 11.8 9.3 11.7 8.2 11.2C6.2 10.3 4.9 8.3 4.8 8.2C4.7 8.1 4 7.1 4 6.2C4 5.3 4.5 4.7 4.7 4.5C5.1 4.1 5.9 4.2 6.1 4.6C6.2 5 6.6 6 6.7 6.1C6.8 6.2 6.8 6.6 6.5 6.8C6.4 6.8 5.9 7.2 6.1 7.5C6.2 7.7 6.6 8.3 7.2 8.9C8 9.6 8.6 9.8 8.8 9.9C9 10 9.1 10 9.2 9.8C9.3 9.7 9.7 9.2 9.8 9C9.9 8.8 10.1 8.8 10.2 8.9C10.3 9 11.4 9.4 11.6 9.5C11.8 9.7 12 9.7 12 9.8C12.1 9.9 12.1 10.3 11.9 10.8Z" fill="#3AC34C"/>
</g>
<defs>
<clipPath id="clip0_21_41">
<rect width="16" height="16" fill="white"/>
</clipPath>
</defs>
</svg>
